<svg xmlns="http://www.w3.org/2000/svg" width="133" height="21" viewBox="0 0 133 21"><g transform="translate(-785.5 -1495)"><path d="M9.587,2.043a1,1,0,0,1,1.826,0l2.009,4.5a1,1,0,0,0,.782.583l4.769.63a1,1,0,0,1,.571,1.7l-3.571,3.522a1,1,0,0,0-.282.891l.91,5a1,1,0,0,1-1.485,1.045L11,17.533a1,1,0,0,0-1,0L5.883,19.916A1,1,0,0,1,4.4,18.872l.91-5a1,1,0,0,0-.282-.891L1.456,9.457a1,1,0,0,1,.571-1.7L6.8,7.123a1,1,0,0,0,.782-.583Z" transform="translate(841.5 1495)" fill="#f6a547"/><path d="M9.587,2.043a1,1,0,0,1,1.826,0l2.009,4.5a1,1,0,0,0,.782.583l4.769.63a1,1,0,0,1,.571,1.7l-3.571,3.522a1,1,0,0,0-.282.891l.91,5a1,1,0,0,1-1.485,1.045L11,17.533a1,1,0,0,0-1,0L5.883,19.916A1,1,0,0,1,4.4,18.872l.91-5a1,1,0,0,0-.282-.891L1.456,9.457a1,1,0,0,1,.571-1.7L6.8,7.123a1,1,0,0,0,.782-.583Z" transform="translate(897.5 1495)" fill="#f6a547"/><path d="M9.587,2.043a1,1,0,0,1,1.826,0l2.009,4.5a1,1,0,0,0,.782.583l4.769.63a1,1,0,0,1,.571,1.7l-3.571,3.522a1,1,0,0,0-.282.891l.91,5a1,1,0,0,1-1.485,1.045L11,17.533a1,1,0,0,0-1,0L5.883,19.916A1,1,0,0,1,4.4,18.872l.91-5a1,1,0,0,0-.282-.891L1.456,9.457a1,1,0,0,1,.571-1.7L6.8,7.123a1,1,0,0,0,.782-.583Z" transform="translate(813.5 1495)" fill="#f6a547"/><path d="M9.587,2.043a1,1,0,0,1,1.826,0l2.009,4.5a1,1,0,0,0,.782.583l4.769.63a1,1,0,0,1,.571,1.7l-3.571,3.522a1,1,0,0,0-.282.891l.91,5a1,1,0,0,1-1.485,1.045L11,17.533a1,1,0,0,0-1,0L5.883,19.916A1,1,0,0,1,4.4,18.872l.91-5a1,1,0,0,0-.282-.891L1.456,9.457a1,1,0,0,1,.571-1.7L6.8,7.123a1,1,0,0,0,.782-.583Z" transform="translate(869.5 1495)" fill="#f6a547"/><path d="M9.587,2.043a1,1,0,0,1,1.826,0l2.009,4.5a1,1,0,0,0,.782.583l4.769.63a1,1,0,0,1,.571,1.7l-3.571,3.522a1,1,0,0,0-.282.891l.91,5a1,1,0,0,1-1.485,1.045L11,17.533a1,1,0,0,0-1,0L5.883,19.916A1,1,0,0,1,4.4,18.872l.91-5a1,1,0,0,0-.282-.891L1.456,9.457a1,1,0,0,1,.571-1.7L6.8,7.123a1,1,0,0,0,.782-.583Z" transform="translate(785.5 1495)" fill="#f6a547"/></g></svg>