<svg xmlns="http://www.w3.org/2000/svg" width="48.717" height="60" viewBox="0 0 48.717 60">
  <path d="M8.477,60a3.311,3.311,0,0,1-2.4-1.053,3.267,3.267,0,0,1-.832-2.487L7.484,37.6l-.791,1.795A3.483,3.483,0,0,1,.274,36.686L4.286,25.144a1.124,1.124,0,1,1,2.125.733L2.4,37.519a1.25,1.25,0,0,0,1.524,1.654,1.237,1.237,0,0,0,.7-.661l3.79-8.584a1.123,1.123,0,0,1,2.145.592l-3.1,26.161a.934.934,0,0,0,.261.742,1,1,0,0,0,1.735-.5L11.1,47.345a2.788,2.788,0,1,1,4.011-3.5H35.45v.03a1.123,1.123,0,1,1,0,2.246H15.115a2.763,2.763,0,0,1-1.755,1.5l-1.684,9.686A3.24,3.24,0,0,1,8.482,60Zm3.55-15.031a.541.541,0,1,0,.541-.541A.541.541,0,0,0,12.027,44.968Zm28.938,4.824a1.123,1.123,0,0,1,0-2.246h3.36a1.123,1.123,0,0,1,0,2.246Zm0-3.7a1.123,1.123,0,0,1,0-2.246h6.629a1.123,1.123,0,0,1,0,2.246ZM13.281,41.539a1.169,1.169,0,0,1-.722-.461,1.144,1.144,0,0,1-.191-.842l1.124-6.417a2.788,2.788,0,1,1,4.091-3.44H35.45v-.01a1.123,1.123,0,1,1,0,2.246H17.582A2.8,2.8,0,0,1,15.7,34.19l-1.113,6.427a1.122,1.122,0,0,1-1.1.922ZM14.493,31.5a.541.541,0,1,0,.56-.5h-.02A.541.541,0,0,0,14.493,31.5Zm26.472,4.823a1.123,1.123,0,0,1,0-2.246h3.36a1.123,1.123,0,0,1,0,2.246Zm0-3.7a1.123,1.123,0,0,1,0-2.246h6.629a1.123,1.123,0,0,1,0,2.246Zm-20.7-3.83a3.008,3.008,0,0,1-2.206-3.57l1.513-5.645-1.183-1.534-1.454,8.9a1.113,1.113,0,0,1-1.1.943h-.18a1.086,1.086,0,0,1-.732-.451,1.171,1.171,0,0,1-.2-.832l2.065-12.725a1.123,1.123,0,1,1,2.216.361l-.12.712,2.788,3.62A2.777,2.777,0,0,1,27,17.634h8.413a1.123,1.123,0,0,1,0,2.246H26.957a2.786,2.786,0,0,1-1.875,1.575l-1.163,5.113a3.005,3.005,0,0,1-1.354,1.885A3.085,3.085,0,0,1,21,28.885,3.032,3.032,0,0,1,20.269,28.795Zm-.01-3.048a.763.763,0,0,0,.561.883.742.742,0,0,0,.582-.09.711.711,0,0,0,.34-.471l1.163-5.014a2.873,2.873,0,0,1-1.063-1.324Zm3.983-7.536a.552.552,0,0,0-.334.516l-.01.031a.565.565,0,1,0,.344-.547ZM6.9,24.734a.544.544,0,0,1-.141-.12L1.408,19.729a3.488,3.488,0,0,1-.742-4.592L5.028,8.86A3.644,3.644,0,0,1,7.033,7.406l.943-.271A5.215,5.215,0,0,1,7.635,5.28,5.274,5.274,0,1,1,9.289,9.111l-1.715.461a1.423,1.423,0,0,0-.772.551L2.551,16.411a1.233,1.233,0,0,0,.291,1.634H2.9l5.344,4.883a.634.634,0,0,0,.491,0,.652.652,0,0,0,.431-.381.683.683,0,0,0-.13-.743L4.176,17.043a1.127,1.127,0,0,1,1.594-1.595l.19-2.216a1.124,1.124,0,0,1,.4-.762,1.072,1.072,0,0,1,.822-.261,1.113,1.113,0,0,1,1,1.214L7.835,17.5l2.758,2.7a2.939,2.939,0,0,1-1.244,4.863,3.071,3.071,0,0,1-.852.14A2.932,2.932,0,0,1,6.9,24.734ZM9.881,5.28a3.008,3.008,0,1,0,3.008-3.008A3.008,3.008,0,0,0,9.881,5.28Zm34.444,18.3h-3.36a1.123,1.123,0,1,1,0-2.236h3.36a1.123,1.123,0,1,1,.107,2.241C44.4,23.585,44.361,23.584,44.325,23.58Zm-3.36-3.7a1.123,1.123,0,0,1,0-2.246h6.629a1.123,1.123,0,0,1,0,2.246ZM21.673,15.288,20.038,12.67a3.565,3.565,0,0,1-.481,0,2.787,2.787,0,1,1,1.254-5.264l1.735-2.3a5.818,5.818,0,0,1,4.612-2.3H35.45v-.03a1.123,1.123,0,1,1,0,2.246H27.158a3.547,3.547,0,0,0-2.817,1.4L22.255,9.182a2.514,2.514,0,0,1,.09.671,2.721,2.721,0,0,1-.441,1.494l1.675,2.687a1.124,1.124,0,0,1-.351,1.614,1.163,1.163,0,0,1-.6.171h-.01A1.1,1.1,0,0,1,21.673,15.288Zm-2.56-5.778a.549.549,0,1,0,.4-.176A.552.552,0,0,0,19.113,9.509ZM40.965,8.76a1.123,1.123,0,0,1,0-2.246h3.36a1.123,1.123,0,0,1,0,2.246Zm0-3.7a1.123,1.123,0,0,1,0-2.246h6.629a1.123,1.123,0,0,1,0,2.246Z" transform="translate(0 0)"/>
</svg>
