<svg xmlns="http://www.w3.org/2000/svg" width="61.043" height="60" viewBox="0 0 61.043 60">
  <path d="M45.376,60a4.4,4.4,0,0,1-3.481-1.8l-8.82-12.139-10.9-8.588a.612.612,0,0,1-.127-.116,7.046,7.046,0,0,1-1.16-8.275L21.6,27.6a1.357,1.357,0,0,1,1.8-.58,1.335,1.335,0,0,1,.581,1.8l-.767,1.5a4.432,4.432,0,0,0,.662,5.141l10.943,8.612a1.165,1.165,0,0,1,.267.278l8.982,12.349a1.763,1.763,0,0,0,2.321.359,1.708,1.708,0,0,0,.674-1.16,1.69,1.69,0,0,0-.3-1.265L37.984,42.221a1.535,1.535,0,0,0-.325-.348l-.081-.07-7.4-7.091a1.324,1.324,0,0,1-.163-1.683l.488-.766a1.264,1.264,0,0,1,.836-.581,1.335,1.335,0,0,1,1.521,1.846l6.6,6.324a4.5,4.5,0,0,1,.743.8L48.916,53.06a4.351,4.351,0,0,1-.952,6.092A4.3,4.3,0,0,1,45.4,60ZM20.333,51.888a4.644,4.644,0,0,1-2.82-.952L6.2,42.255a4.635,4.635,0,1,1,5.64-7.357l7.2,5.524.859-1.312a1.313,1.313,0,0,1,.848-.568,1.352,1.352,0,0,1,1,.186,1.324,1.324,0,0,1,.581.847,1.349,1.349,0,0,1-.2,1.009l-1.625,2.507a1.338,1.338,0,0,1-1.926.326l-8.356-6.4a1.962,1.962,0,1,0-2.391,3.11L19.16,48.812a2.018,2.018,0,0,0,1.579.372,1.939,1.939,0,0,0,1.311-.952l3.04-4.84a1.311,1.311,0,0,1,.836-.591,1.289,1.289,0,0,1,1.01.173,1.325,1.325,0,0,1,.638.836,1.391,1.391,0,0,1-.174,1.01L24.371,49.6A4.643,4.643,0,0,1,21.237,51.8a4.049,4.049,0,0,1-.863.093ZM48,31.092a4.583,4.583,0,0,0-5.8,0,7.278,7.278,0,0,1-8.808,0A4.348,4.348,0,0,0,30.5,30.07a1.335,1.335,0,0,1,0-2.67,7.05,7.05,0,0,1,2.472.418l3.7-5.8a1.323,1.323,0,0,1,1.625-.488l4.885,2.135a1.924,1.924,0,0,0,1.846,0,1.3,1.3,0,0,1,1.021-.1,1.276,1.276,0,0,1,.789.639,1.323,1.323,0,0,1-.534,1.81,4.64,4.64,0,0,1-4.235.093L38.3,24.442l-3.006,4.7a4,4,0,0,0,2.5.754,4.35,4.35,0,0,0,2.889-1.021,7.28,7.28,0,0,1,8.809,0A4.322,4.322,0,0,0,52.374,29.9l.036.011a1.335,1.335,0,1,1,0,2.67H52.3A6.963,6.963,0,0,1,48,31.092ZM8.623,32.566a6.968,6.968,0,0,1-4.4-1.486,4.349,4.349,0,0,0-2.889-1.02,1.335,1.335,0,0,1,0-2.67,6.972,6.972,0,0,1,4.4,1.485A4.377,4.377,0,0,0,8.623,29.9a4.322,4.322,0,0,0,2.889-1.021,6.967,6.967,0,0,1,4.41-1.485,1.335,1.335,0,1,1,0,2.67,4.326,4.326,0,0,0-2.889,1.02,6.962,6.962,0,0,1-4.3,1.487Zm0-6.813a1.335,1.335,0,1,1,.057-2.669,3.873,3.873,0,0,0,2.019-.465,4.248,4.248,0,0,1,.674-3.481l1.833-2.321a1.326,1.326,0,1,1,2.02,1.717l-1.764,2.159a1.5,1.5,0,0,0-.186.359,6.971,6.971,0,0,1,2.646-.487,8.149,8.149,0,0,1,1.486.139l1.613-2.1a1.335,1.335,0,0,1,2.136,1.6l-1.219,1.555.383.256a4.314,4.314,0,0,0,2.889,1.009,4.364,4.364,0,0,0,2.89-1.009,6.963,6.963,0,0,1,4.4-1.451,1.346,1.346,0,0,1,0,2.68,4.348,4.348,0,0,0-2.89,1.01,7.23,7.23,0,0,1-8.808,0,4.309,4.309,0,0,0-2.879-1.01,4.32,4.32,0,0,0-2.889,1.01,6.963,6.963,0,0,1-4.314,1.5ZM47.93,22.759a4.328,4.328,0,0,0-2.89-1.021,1.335,1.335,0,1,1,0-2.67,6.958,6.958,0,0,1,4.41,1.486,4.585,4.585,0,0,0,5.8,0,7.034,7.034,0,0,1,4.41-1.486h-.034a1.335,1.335,0,1,1,0,2.67,4.328,4.328,0,0,0-2.89,1.021,7.275,7.275,0,0,1-8.808,0Zm-39.307-4.5a6.968,6.968,0,0,1-4.4-1.486,4.349,4.349,0,0,0-2.889-1.02,1.335,1.335,0,1,1,0-2.67,6.971,6.971,0,0,1,4.4,1.5A4.371,4.371,0,0,0,8.623,15.6a4.345,4.345,0,0,0,2.889-1.021,6.967,6.967,0,0,1,4.41-1.485h.209l2.6-3.226a4.642,4.642,0,0,1,5.547-1.508h.093l13.776,7.218a4.375,4.375,0,0,0,2.577-1.01A7.1,7.1,0,0,1,44.576,13.1l2-3.4a4.259,4.259,0,0,1,7.486,4.05l-1.01,1.8a4.479,4.479,0,0,0,2.251-.987,7.038,7.038,0,0,1,4.411-1.485,1.335,1.335,0,0,1,0,2.67,4.35,4.35,0,0,0-2.89,1.02,7.275,7.275,0,0,1-8.808,0,4.585,4.585,0,0,0-5.8,0,7.034,7.034,0,0,1-4.41,1.486,6.962,6.962,0,0,1-4.387-1.486,4.643,4.643,0,0,0-5.8,0,7.275,7.275,0,0,1-8.808,0,4.321,4.321,0,0,0-2.879-1.02,4.326,4.326,0,0,0-2.889,1.02,6.962,6.962,0,0,1-4.3,1.487ZM20.9,11.443l-1.892,2.322a11.919,11.919,0,0,1,1.312.8,6.357,6.357,0,0,0,1.276.755l.359-.465a1.337,1.337,0,0,1,1.6-.395l1.59.708a7.817,7.817,0,0,0,.963-.568,8.252,8.252,0,0,1,2.182-1.16l-5.072-2.681a1.949,1.949,0,0,0-2.321.684Zm29.315,3.61L51.7,12.43a1.581,1.581,0,1,0-2.8-1.474L47.453,13.4a8.378,8.378,0,0,1,2.066,1.16h-.034A7.6,7.6,0,0,0,50.216,15.053ZM31.928,7.365a6.659,6.659,0,1,1,8.69,5.6,6.857,6.857,0,0,1-2.054.325v.034h-.012A6.66,6.66,0,0,1,31.928,7.365Zm6.624-4.729a4.07,4.07,0,0,0-1.23.2,3.989,3.989,0,1,0,1.237-.2Z" transform="translate(0 0)"/>
</svg>
