<svg xmlns="http://www.w3.org/2000/svg" width="57.192" height="60" viewBox="0 0 57.192 60">
  <path d="M15.807,59.647,3.916,54.53A6.44,6.44,0,0,1,.191,47.051L3.916,32.289a6.3,6.3,0,0,1,3.5-4.1l1.96-.981a8.42,8.42,0,1,1,14.047-.843H48.909l-5.882-1.617a1.286,1.286,0,0,1-.98-1.225V17.644a4.057,4.057,0,0,0-2.3-3.794,7.431,7.431,0,0,1-8.538-.677l-.774.393a3.919,3.919,0,0,0-2.2,3.548v7.3a1.265,1.265,0,0,1-2.529,0v-7.3a6.46,6.46,0,0,1,3.6-5.823l.225-.108a7.357,7.357,0,0,1-.98-3.735,7.447,7.447,0,1,1,13.243,4.666,6.635,6.635,0,0,1,2.794,5.529v4.9l9.8,2.7.03-.1a4.176,4.176,0,0,1-1.255,8.107A4.489,4.489,0,0,1,49.5,35.21H40.087a1.274,1.274,0,1,1,0-2.539H49.5A1.96,1.96,0,0,0,51.262,31.5v-.049A1.962,1.962,0,0,0,49.467,28.8H21.443a.97.97,0,0,1-.295,0,8.38,8.38,0,0,1-9.929.245L8.386,30.387a3.785,3.785,0,0,0-2.059,2.549l-3.685,14.7A3.922,3.922,0,0,0,4.9,52.2l11.92,5.165a1.81,1.81,0,1,0,1.412-3.333l-9.8-4.038a3.1,3.1,0,0,1-1.843-3.814l2.431-7.94a1.265,1.265,0,0,1,.618-.745,1.265,1.265,0,0,1,1.813,1.49l-2.43,7.93a.578.578,0,0,0,.324.7l9.8,4.038a4.424,4.424,0,0,1,2.421,2.529A4.342,4.342,0,0,1,17.512,60H17.5A4.249,4.249,0,0,1,15.807,59.647ZM53.918,30.524l.117-.069a1.646,1.646,0,0,0-.47-2.823l-1.382-.382A4.469,4.469,0,0,1,53.918,30.524ZM10.141,22.153a5.881,5.881,0,1,0,5.881-5.882A5.881,5.881,0,0,0,10.141,22.153Zm20.947-14.7a4.9,4.9,0,1,0,4.9-4.9A4.9,4.9,0,0,0,31.088,7.449Zm-8.646,44.1V33.994a1.274,1.274,0,0,1,1.275-1.264h4.7a3.794,3.794,0,0,1,3.264-1.794h2.451l-.04.019a3.823,3.823,0,1,1,0,7.646H31.647a3.823,3.823,0,0,1-3.773-3.314H24.982V51.55a1.274,1.274,0,0,1-2.539,0ZM30.48,34.23a1.02,1.02,0,0,1-.1.294,2.1,2.1,0,0,0,0,.236,1.294,1.294,0,0,0,1.264,1.294H34.1a1.294,1.294,0,0,0,0-2.579H31.644A1.274,1.274,0,0,0,30.48,34.23Zm.01-9.793V19.6a1.265,1.265,0,0,1,2.529,0v4.833a1.265,1.265,0,0,1-2.529,0Z"/>
</svg>
