<svg xmlns="http://www.w3.org/2000/svg" width="50.575" height="60" viewBox="0 0 50.575 60">
  <path d="M17.584,59.862a.9.9,0,0,1-.419-.86V53.365a4.017,4.017,0,0,0-1.419-3.108L6.5,42.507A10.989,10.989,0,0,1,3.583,38.6L.319,31.275A3.813,3.813,0,0,1,7,27.659l4.072,6.3a.8.8,0,0,0,.767.363l4.082-.373L9.312,10.906a3.927,3.927,0,0,1,7.46-2.27L21.114,21.9,20.078,4.451a4.155,4.155,0,1,1,8.289-.591l1.306,16.578L31.744,6.077a4.041,4.041,0,0,1,8.009,1.036L37.971,23.691l5.035-10.838a3.977,3.977,0,0,1,7.325,3.077l-5.792,15.5a7.332,7.332,0,0,0-.466,2.59V44.154a7.347,7.347,0,0,1-3.554,6.279A4.008,4.008,0,0,0,38.6,53.9v5.18a.889.889,0,0,1-.891.819.9.9,0,0,1-.9-.9V53.9a5.832,5.832,0,0,1,2.818-4.973A5.543,5.543,0,0,0,42.312,44.2V34.021a9.437,9.437,0,0,1,.57-3.212l5.751-15.541a2.2,2.2,0,1,0-4.02-1.772l-7.326,15.79a.9.9,0,0,1-1.709-.477L37.96,6.854a2.24,2.24,0,1,0-4.444-.56L30.293,28.6a.9.9,0,0,1-1.782-.062L26.563,4.005a2.383,2.383,0,0,0-2.5-2.176,2.309,2.309,0,0,0-1.637.788,2.353,2.353,0,0,0-.6,1.73l1.513,24.432a.911.911,0,0,1-.736.933.89.89,0,0,1-1.036-.6L15.063,9.2a2.124,2.124,0,0,0-4.072,1.192l6.953,24.069a.914.914,0,0,1-.778,1.151l-5.18.477A2.592,2.592,0,0,1,9.54,34.9L5.489,28.633A2.02,2.02,0,0,0,1.955,30.55l3.264,7.326a9.326,9.326,0,0,0,2.446,3.253l9.221,7.8a5.8,5.8,0,0,1,2.073,4.434V59a.9.9,0,0,1-1.375.86Zm7.011.041a.9.9,0,0,1-.9-.9V49.594l-4.849-6.8L14.1,42.331a.843.843,0,0,1-.384-.125l-4.9-2.98a1.482,1.482,0,0,1-1.885-2L4.365,32.6a1.473,1.473,0,1,1,1.572-.871L8.5,36.38A1.483,1.483,0,0,1,9.75,37.692l4.743,2.877,4.953.477a.94.94,0,0,1,.642.373l5.253,7.367a.862.862,0,0,1,.166.518V59a.892.892,0,0,1-.891.9ZM32,59V41.471a.881.881,0,0,1,.228-.591l3.351-3.826a1.482,1.482,0,0,1,1.159-1.9l3.834-8.9a1.481,1.481,0,0,1,.922-2.14L44.95,16.1a1.482,1.482,0,1,1,1.668.7l-3.454,8.008a1.483,1.483,0,0,1-.938,2.175l-3.883,9a1.482,1.482,0,0,1-1.271,2.1l-3.276,3.7V59A.9.9,0,1,1,32,59Zm-3.981.636A.891.891,0,0,1,27.765,59V47.117l.881-8.154a.832.832,0,0,1,.093-.311l2.952-5.8,1.448-11.9a1.481,1.481,0,0,1,.286-2.347l1.155-9.5a1.481,1.481,0,1,1,1.785.191L35.2,18.829a1.482,1.482,0,0,1-.285,2.338L33.453,33.182a.778.778,0,0,1-.093.3l-2.953,5.792-.85,7.947V59a.9.9,0,0,1-.9.9A.89.89,0,0,1,28.023,59.638ZM24.615,44.62,22.6,36.85l-1.067-.661a1.47,1.47,0,0,1-1.765-2.168L16.308,23.1a1.482,1.482,0,0,1-.713-2.254L13,12.624a1.478,1.478,0,1,1,1.688-.592l2.636,8.28a1.482,1.482,0,0,1,.708,2.224l3.469,10.9a1.473,1.473,0,0,1,.967,1.233l1.355.847a.89.89,0,0,1,.394.538l2.072,8.113a.9.9,0,0,1-.642,1.1.782.782,0,0,1-.155.021h-.01A.891.891,0,0,1,24.615,44.62Zm1.337-7.087L24.629,21.176a1.481,1.481,0,0,1-.2-2.44L23.456,6.682a1.471,1.471,0,1,1,1.783-.145l.989,12.149a1.482,1.482,0,0,1,.183,2.249l1.334,16.392a.9.9,0,0,1-.819,1.036H26.85A.9.9,0,0,1,25.952,37.533Z" transform="translate(0 0)"/>
</svg>
