<svg xmlns="http://www.w3.org/2000/svg" width="59.952" height="60" viewBox="0 0 59.952 60">
  <path d="M23.288,60A4.475,4.475,0,0,1,18.7,55.683c0-.159,0-.308,0-.467a15.631,15.631,0,0,0-.06-1.67l-.089.239a7.954,7.954,0,0,1-.7,1.611,3.778,3.778,0,0,1-3.331,1.989H14.4a3.372,3.372,0,0,1-.447,0,4.753,4.753,0,0,1-3.192-1.213A4.634,4.634,0,0,1,9.5,51.079c1.054-4.117,2.088-8.134,3.182-12.1a1.313,1.313,0,0,0-.408-1.5c-2.565-2.675-3.719-5.34-3.6-8.263a7.507,7.507,0,0,1,2.138-4.922c.457-.487.994-.935,1.442-1.392l.408-.368-.229-.239a4.415,4.415,0,0,1-1.263-3.669,4.345,4.345,0,0,1,2.207-3.142c1.889-1.1,3.848-2.227,5.837-3.351l3.848-2.188L26.33,8.064a4.266,4.266,0,0,1,5.32.6c.786.726,1.581,1.462,2.347,2.188s1.313,1.233,1.989,1.84,1.124.994,1.651,1.551c.825.766,1.591,1.5,2.436,2.257,2.665,2.416,3.977,5.608,3.977,9.754v6.891a2.565,2.565,0,0,0,.646,1.879c1.094,1.283,2.277,2.715,3.609,4.385L49.6,41.017c.189.249.388.507.567.766a3.808,3.808,0,0,1-.716,5.369,4.047,4.047,0,0,1-5.668-.089v-.05c-3.043-2.983-5.479-5.469-7.676-7.776a5.389,5.389,0,0,1-1.3-2.277c-.338-1.322-.607-2.665-.815-3.8l-.328-1.621a1.107,1.107,0,0,0-.08-.3,64.384,64.384,0,0,0-9.446,1.283l.159.268.189.308,1.263,1.989.706,1.143h0l1.213,1.989a7.179,7.179,0,0,1,1.124,4.306c-.119,2.376-.239,4.882-.358,8.144,0,.736-.06,1.482-.1,2.207s-.06,1.521-.089,2.287a11.355,11.355,0,0,1-.2,1.511,3.7,3.7,0,0,1-2.715,3.043A6.642,6.642,0,0,1,23.407,60Zm4.266-45.591h0c.428,0,.815.268,1.273.875.239.308.467.587.686.855l.6.756a1.571,1.571,0,0,1,.467,1.611c-.169.438-.626.7-1.392.805A53.874,53.874,0,0,0,16.6,23.019a11.306,11.306,0,0,0-4.1,3.063,5.131,5.131,0,0,0-1.183,4.892,10.451,10.451,0,0,0,2.8,4.743c2.148,2.178,3.838,3.888,5.648,5.648a3.609,3.609,0,0,1,1.193,2.764c0,2.734.1,5.519.189,8.223l.06,1.69v.7a6.871,6.871,0,0,0,.249,1.611A1.611,1.611,0,0,0,22.6,57.433a2.466,2.466,0,0,0,2.257-.249,2.347,2.347,0,0,0,.885-1.929c.06-1.084.109-2.217.159-3.321h0c0-.547.05-1.094.08-1.631.119-2.536.249-5.071.378-7.547a5.519,5.519,0,0,0-.815-3.421l-4.176-6.612a1.78,1.78,0,0,1-.328-1.551,1.74,1.74,0,0,1,1.313-.805,73.9,73.9,0,0,1,11.723-1.621h.447c.994,0,1.223.318,1.511,1.492.537,2.486.915,4.325,1.233,5.966a3.063,3.063,0,0,0,.895,1.611L39.257,38.9c.706.706,1.442,1.442,2.178,2.148l1.412,1.422.815.805c.626.656,1.293,1.342,1.989,1.989a1.591,1.591,0,0,0,2.2,0V45.2c.686-.6.736-1.134.189-1.989a7.03,7.03,0,0,0-.646-.686l-1.134-1.412c-1.372-1.7-2.794-3.45-4.216-5.161a2.516,2.516,0,0,1-.646-1.8v-8.3c-.119-3.261-1.084-5.678-2.983-7.378-1.153-1.074-2.376-2.227-3.977-3.739-1.442-1.362-2.933-2.774-4.4-4.136a2.247,2.247,0,0,0-1.462-.815,3.251,3.251,0,0,0-1.432.527l-8.173,4.713-1.352.805-.656.378c-.805.447-1.631.925-2.426,1.412a1.9,1.9,0,0,0-.994,1.661,1.68,1.68,0,0,0,.994,1.462.994.994,0,0,0,.616.1l.438-.179a25.982,25.982,0,0,0,3.271-1.452c1.69-.935,3.4-1.989,4.972-2.9l2.446-1.472a2.615,2.615,0,0,1,1.163-.447ZM14.915,40.191,14.438,42l-.945,3.619h0c-.348,1.322-.706,2.685-1.044,3.977a2.886,2.886,0,0,1-.189.686,15.721,15.721,0,0,0-.477,2.108c-.169,1.263.368,1.989,1.76,2.307a4.4,4.4,0,0,0,.875.119c.805,0,1.283-.408,1.571-1.362.786-2.446,1.561-5.22,2.317-8.233a2.506,2.506,0,0,0-.139-1.8,26.848,26.848,0,0,0-2.575-2.635ZM51.875,29.5H51.8a8.164,8.164,0,0,1-5.737-2.337,7.955,7.955,0,0,1-2.4-5.658,8.084,8.084,0,0,1,8.1-8.044h.129A8.074,8.074,0,0,1,57.5,15.721a7.955,7.955,0,0,1,.249,11.246l-.1.089a7.875,7.875,0,0,1-2.625,1.78,8.233,8.233,0,0,1-3.122.646h0Zm0-13.543a5.509,5.509,0,0,0-.119,11.007h.119a5.668,5.668,0,0,0,3.977-1.611,5.4,5.4,0,0,0,1.631-3.848,5.6,5.6,0,0,0-5.6-5.548ZM2.158,21.687A1.82,1.82,0,0,1,.786,18.7c.408-.636.845-1.293,1.263-1.919l.318-.5.825-1.2.239-.388L1.372,12.091l-.089-.109c-.2-.239-.418-.477-.636-.7A1.989,1.989,0,0,1,.139,9.108,2.108,2.108,0,0,1,1.989,7.955h.07L5.27,7.686a3.977,3.977,0,0,0,.766-.109h.179L6.8,3.053c0-.338.089-.726.119-1.094A1.889,1.889,0,0,1,8.183.089a1.981,1.981,0,0,1,2.307.9l2.436,2.784.815.994.308.318.109.119,3.2-1.81a5.727,5.727,0,0,1,.6-.328,1.989,1.989,0,0,1,1.83-.089A1.8,1.8,0,0,1,20.6,4.425a19.34,19.34,0,0,1,0,2.148V8.024H18.326l-.119-2.247h-.06l-1.631.9-.607.358c-.328.2-.686.4-1.064.607a1.4,1.4,0,0,1-1.919-.159,1.362,1.362,0,0,1-.149-.209l-2.3-2.6L9.387,3.421l-.1-.109V3.54a5.719,5.719,0,0,1-.129.935c-.05.3-.109.8-.159,1.183-.089.726-.2,1.651-.278,2.426-.139,1.362-.467,1.69-1.82,1.859l-1.472.139h0l-.656.06-1.283.1H3.3a.477.477,0,0,0,.089.109l.189.229h0c.348.4.7.815,1.084,1.233l1.3,1.412a1.432,1.432,0,0,1,.139,2.168c-.189.3-.378.6-.577.895l-1.4,2.078-.467.706H8.87v2.416H3.977l-.139.179H2.506Z" transform="translate(-0.006)"/>
</svg>
