<svg xmlns="http://www.w3.org/2000/svg" width="60.788" height="60" viewBox="0 0 60.788 60">
  <path d="M24.012,59.729a3.978,3.978,0,0,1-2.257-5.154L25.331,45.3a2.294,2.294,0,0,0-.144-1.844l-5.3-9.586a1.11,1.11,0,0,1-.1-.886,1.151,1.151,0,0,1,.557-.7,1.167,1.167,0,0,1,.886-.1,1.126,1.126,0,0,1,.7.557l5.308,9.6a4.588,4.588,0,0,1,.258,3.886l-3.535,9.2A1.654,1.654,0,1,0,27.053,56.6l4.37-11.338a2.258,2.258,0,0,0-.072-1.825L26.661,33.8A1.175,1.175,0,0,1,28.1,32.178a1.187,1.187,0,0,1,.671.6l4.679,9.637a4.54,4.54,0,0,1,.34,3.01v.123l-.877,9.029a1.628,1.628,0,0,0,1.474,1.752,1.607,1.607,0,0,0,1.793-1.453L37.37,42.794a2.328,2.328,0,0,0-.557-1.741l-5.927-6.721a1.144,1.144,0,0,1-.288-.845,1.2,1.2,0,0,1,.391-.8,1.175,1.175,0,0,1,1.66.1l5.916,6.74A4.659,4.659,0,0,1,39.7,43.041l-1.206,12.08a3.958,3.958,0,0,1-1.442,2.69,3.912,3.912,0,0,1-2.5.887,2.926,2.926,0,0,1-.423,0,3.978,3.978,0,0,1-3.586-4.309l.061-.628-1.432,3.7a3.98,3.98,0,0,1-5.154,2.267Zm16.512-4.009a1.216,1.216,0,0,1-.319-1.68h-.032A1.206,1.206,0,1,1,41.2,55.925,1.259,1.259,0,0,1,40.524,55.719Zm1.123-3.391a1.24,1.24,0,0,1-.67-.206,1.214,1.214,0,1,1,1.7-.33,1.192,1.192,0,0,1-1,.537Zm.443-3.515a1.2,1.2,0,0,1-.99-1.876v-.02a1.2,1.2,0,0,1,2.175.443,1.217,1.217,0,0,1-.948,1.453Zm-22.222-6.07a1.208,1.208,0,0,1-.093-2.412,1.265,1.265,0,0,1,.906.351,1.206,1.206,0,0,1-.763,2.061Zm21.32-2.974a1.2,1.2,0,0,1,1.18-1.231l-.051.01a1.206,1.206,0,0,1,.1,2.4H42.4A1.207,1.207,0,0,1,41.189,39.769ZM16.85,38.41a1.216,1.216,0,0,1,2.431-.047,1.2,1.2,0,0,1-1.154,1.247h-.062A1.216,1.216,0,0,1,16.85,38.41Zm23.777-.594a1.206,1.206,0,0,1,0-2.4,1.2,1.2,0,1,1,.1,2.4ZM15.1,35.306a1.206,1.206,0,0,1,1.18-1.232,1.237,1.237,0,0,1,1.257,1.155,1.215,1.215,0,0,1-1.206,1.257h-.027A1.2,1.2,0,0,1,15.1,35.306Zm23.824-.613a1.206,1.206,0,0,1-.041-2.412,1.26,1.26,0,0,1,.865.32,1.206,1.206,0,0,1,.062,1.7,1.228,1.228,0,0,1-.835.391ZM28.97,31.147,20.951,25.9a4.638,4.638,0,0,1-2.061-4.421L20.013,12.9v-.083a4.866,4.866,0,0,1,2.432-3.288,6.192,6.192,0,0,1-.948-3.3,6.287,6.287,0,1,1,11.6,3.422,7.6,7.6,0,0,1,2.546,2.835L37.8,16.759l8.246,2.288a3,3,0,0,1,1.8,1.4H59.613a1.175,1.175,0,1,1,0,2.35H48.1a2.988,2.988,0,0,1-2.845,2.061,2.428,2.428,0,0,1-.557,0l-9.43-1.793A4.2,4.2,0,0,1,32.6,21.3l-.186,4.04h27.2a1.18,1.18,0,0,1,0,2.361H34.123a.19.19,0,0,0,0,.072,3.432,3.432,0,0,1,0,1.1h25.49a1.175,1.175,0,0,1,0,2.34h-27.1A3.412,3.412,0,0,1,30.8,31.7,3.335,3.335,0,0,1,28.97,31.147Zm-6.7-17.883-1.113,8.514a2.236,2.236,0,0,0,1.032,2.164l8.039,5.247a1.035,1.035,0,1,0,1.083-1.763l-6.257-4.02a3.092,3.092,0,0,1-1.442-3.2l.9-4.463a1.149,1.149,0,1,1,2.247.474l-.887,4.432a.742.742,0,0,0,.361.763L30.093,23.9l.391-8.328A1.154,1.154,0,0,1,31.7,14.46a1.175,1.175,0,0,1,1.123,1.216v.763l.052.072,1.494,3.226a1.886,1.886,0,0,0,1.34,1.031l9.4,1.793a.648.648,0,0,0,.742-.432.663.663,0,0,0,0-.506.61.61,0,0,0-.392-.319l-8.791-2.422a1.185,1.185,0,0,1-.732-.6l-2.412-4.731a5.159,5.159,0,0,0-2.134-2.174,6.185,6.185,0,0,1-7.3-.072l-.484.258H23.6A2.507,2.507,0,0,0,22.27,13.264Zm2.71-9.827a3.947,3.947,0,0,0,2.815,6.736h-.01a3.948,3.948,0,1,0-2.805-6.736ZM.176,30.669a1.175,1.175,0,0,1,1.109-1.789H23.29a1.17,1.17,0,0,1,0,2.34H1.285q-.055.005-.11.005A1.174,1.174,0,0,1,.176,30.669ZM17.9,27.684H1.285a1.175,1.175,0,1,1,0-2.34H17.9a1.175,1.175,0,1,1,.11,2.346Q17.955,27.69,17.9,27.684ZM1.285,22.8a1.175,1.175,0,0,1,0-2.35h15.09a1.175,1.175,0,1,1,0,2.35Z" transform="translate(0 0)"/>
</svg>
