<svg xmlns="http://www.w3.org/2000/svg" width="64.185" height="60.012" viewBox="0 0 64.185 60.012">
  <path d="M20.307,60.012a4.188,4.188,0,0,1-.893-.1,4.169,4.169,0,0,1-3.179-4.958l2.2-10.076a3.106,3.106,0,0,0-.167-1.862L14.47,33.9a8.448,8.448,0,0,1-.635-3.776L14,27.735H7.079V43.244A3.574,3.574,0,0,1,9.6,46.667v8.221h4.433a1.228,1.228,0,0,1,0,2.454H1.226a1.228,1.228,0,0,1,0-2.455H2.418v-8.23a3.593,3.593,0,0,1,2.2-3.3V27.739H1.263a1.238,1.238,0,0,1,0-2.466H14.115l.75-10.737a6.147,6.147,0,0,1,3.2-5.057,6.55,6.55,0,0,1-.779-3.12,6.628,6.628,0,0,1,13.244,0,6.529,6.529,0,0,1-1.039,3.6,8.2,8.2,0,0,1,1.758,1.58,6.809,6.809,0,0,1,1.28,2.3l2.081,6.9L43.14,22.82a3.443,3.443,0,0,1,2.155,1.7,4.571,4.571,0,0,1,.281.707H62.992a1.238,1.238,0,0,1,0,2.466H59.184V43.3a3.616,3.616,0,0,1,2.362,3.371v8.22l2.639,1.229a1.222,1.222,0,0,1-1.193,1.228h-26.2a1.228,1.228,0,0,1,0-2.456h4.2v-8.2a3.6,3.6,0,0,1,2.351-3.37V29.489a3.507,3.507,0,0,1-1.04.166h-.013a3.314,3.314,0,0,1-.632-.062l-9.749-2.2a4.443,4.443,0,0,1-3.121-2.331L28.616,27.6l7.46,9.884a5.6,5.6,0,0,1,1.039,4.828L33.891,56.691a3.756,3.756,0,0,1-7.335-1.623l2.228-12.014a3.1,3.1,0,0,0-.614-2.643L25.121,37.29l1.633,4.163a5.584,5.584,0,0,1,.26,3.225L24.371,56.736a4.166,4.166,0,0,1-4.064,3.276Zm-.631-48.58h0a3.776,3.776,0,0,0-2.341,3.246L16.3,30.283a5.931,5.931,0,0,0,.447,2.674l3.8,9.126a5.393,5.393,0,0,1,.3,3.319L18.639,55.484a1.722,1.722,0,0,0,.343,1.425,1.677,1.677,0,0,0,1.318.635,1.7,1.7,0,0,0,1.668-1.332L24.7,44.153a3.115,3.115,0,0,0-.146-1.81l-3.85-9.749a1.238,1.238,0,0,1,2.029-1.311l7.286,7.462.073.073a5.531,5.531,0,0,1,1.155,4.7L29.365,55.587a1.315,1.315,0,0,0,.843,1.509,1.344,1.344,0,0,0,1.039-.083,1.316,1.316,0,0,0,.645-.822l3.223-14.366a3.134,3.134,0,0,0-.6-2.747l-7.783-10.3a1.24,1.24,0,0,1-.239-.823L27.216,17v-.052a.68.68,0,0,0,0-.135V16.7a.929.929,0,0,0,0-.1l.062-.113v-.052l.083-.1a.319.319,0,0,1,.083-.084l.094-.061.125-.074h.073a.826.826,0,0,1,.166-.061h.791l.114.051h.052l.094.073.1.094.083.114a.417.417,0,0,1,.052.094.522.522,0,0,1,.052.114v.113l1.7,7.3a2.005,2.005,0,0,0,1.353.977l9.77,2.175a.986.986,0,0,0,.166.014.988.988,0,0,0,.268-1.939l-9.177-2.247a1.241,1.241,0,0,1-.884-.832L30.115,14.6a4.27,4.27,0,0,0-.779-1.5,5.344,5.344,0,0,0-1.616-1.321,6.585,6.585,0,0,1-8.043-.343ZM57.959,45.514a1.123,1.123,0,0,0-1.124,1.158v8.22H59.08l0-8.22a1.123,1.123,0,0,0-1.124-1.158Zm-12.144-17.8V43.322a3.611,3.611,0,0,1,2.309,3.35v8.22h6.243v-8.2a3.612,3.612,0,0,1,2.362-3.367V27.714ZM6.007,45.514a1.123,1.123,0,0,0-1.123,1.158v8.22H7.135l-.005-8.22a1.123,1.123,0,0,0-1.123-1.158Zm38.528.014a1.135,1.135,0,0,0-1.123,1.139v8.221h2.257v-8.23A1.135,1.135,0,0,0,44.535,45.527ZM24.022,1.479A5.022,5.022,0,1,0,29.043,6.5,5.027,5.027,0,0,0,24.022,1.479Z" transform="translate(0)"/>
</svg>
