<svg xmlns="http://www.w3.org/2000/svg" width="56.606" height="60" viewBox="0 0 56.606 60">
  <path d="M32.674,60H8.568A8.588,8.588,0,0,1,.247,49.366L5.935,29.452a11.274,11.274,0,0,1,7.516-8.065h.115A12.91,12.91,0,1,1,34.5,19.329l2.377,1.585a1.356,1.356,0,0,1-.753,2.479,1.281,1.281,0,0,1-.755-.23l-2.428-1.61a12.781,12.781,0,0,1-16.961,1.968l-1.675.525a8.452,8.452,0,0,0-5.714,6.032L2.906,50.056a5.737,5.737,0,0,0,1.073,4.959A5.8,5.8,0,0,0,8.568,57.2H32.674a3.093,3.093,0,0,0,0-6.174h-21.9a1.367,1.367,0,1,1,0-2.734h1.278l3.835-12.411a1.393,1.393,0,0,1,1.713-.908,1.437,1.437,0,0,1,.818.678,1.362,1.362,0,0,1,.09,1.048L14.92,48.293H32.674A5.827,5.827,0,0,1,38.5,54.12a5.757,5.757,0,0,1-.908,3.081H51.4V46.158H37.339V46.5a1.38,1.38,0,0,1-2.748,0V44.79a1.368,1.368,0,0,1,1.368-1.278H36.8V34.565A1.368,1.368,0,0,1,38.17,33.2H50.593a1.38,1.38,0,0,1,1.38,1.368v8.947h.832a1.368,1.368,0,0,1,1.368,1.278V58.62A1.38,1.38,0,0,1,52.806,60H35.959a1.377,1.377,0,0,1-1.01-.473A5.627,5.627,0,0,1,32.691,60Zm6.863-16.488h9.689v-7.6H39.537ZM13.194,12.951a10.162,10.162,0,1,0,10.183-10.1h-.021A10.162,10.162,0,0,0,13.194,12.951ZM53.943,31.931h-.269l-17.561-3.54a1.354,1.354,0,0,1-.69-2.313L46.8,14.791a1.369,1.369,0,0,1,2.225.435l.55,1.278a4.72,4.72,0,0,1,1.406,0,5.114,5.114,0,0,1,3.617,2.557l1.38,2.556a4.923,4.923,0,0,1-1.533,6.557l.78,1.879a1.419,1.419,0,0,1-.23,1.393,1.365,1.365,0,0,1-1.044.485ZM39.2,26.219l9.19,1.853a5.344,5.344,0,0,1-1-1.01l-1.65-2.288h-.025a5.113,5.113,0,0,1-.805-4.269Zm12.438.243a2.364,2.364,0,0,0,1.942-3.489l-1.393-2.557a2.35,2.35,0,0,0-1.661-1.188,2.214,2.214,0,0,0-.41,0,2.408,2.408,0,0,0-1.546.55l-.268.255a2.325,2.325,0,0,0-.332,3.131l1.648,2.288a2.353,2.353,0,0,0,2.045.972Z" transform="translate(0)"/>
</svg>
