<svg xmlns="http://www.w3.org/2000/svg" width="46.579" height="60" viewBox="0 0 46.579 60">
  <path d="M5.029,60A5.04,5.04,0,0,1,0,54.971V5.029A5.04,5.04,0,0,1,5.029,0H41.551a5.039,5.039,0,0,1,5.028,5.029V54.971A5.04,5.04,0,0,1,41.551,60ZM2.735,5.029V54.971a2.293,2.293,0,0,0,2.294,2.294H41.551a2.294,2.294,0,0,0,2.294-2.294V4.984a2.294,2.294,0,0,0-2.294-2.294h-1.18V7.1A1.355,1.355,0,0,1,39,8.458H7.575A1.355,1.355,0,0,1,6.209,7.146V2.735H5.029A2.293,2.293,0,0,0,2.735,5.029Zm6.2.706H37.647l-.044-3H8.932ZM36.479,48.212H22.76a1.368,1.368,0,1,1,0-2.724H36.479a1.368,1.368,0,1,1,.123,2.73Q36.541,48.217,36.479,48.212Zm-24.934-.4L9.1,45.4a1.353,1.353,0,0,1-.4-.959,1.4,1.4,0,0,1,.4-.971,1.368,1.368,0,0,1,1.929,0L12.5,44.936l3.86-3.86a1.356,1.356,0,0,1,1.929,0,1.308,1.308,0,0,1,.408.96,1.351,1.351,0,0,1-.408.97l-4.818,4.808a1.382,1.382,0,0,1-.971.4h-.018A1.316,1.316,0,0,1,11.545,47.815Zm0-12.064L9.1,33.347a1.4,1.4,0,0,1-.4-.971,1.353,1.353,0,0,1,.4-.959,1.388,1.388,0,0,1,1.929,0L12.5,32.861,16.365,29a1.39,1.39,0,0,1,1.929,0,1.31,1.31,0,0,1,.408.96,1.355,1.355,0,0,1-.408.971L13.476,35.75a1.355,1.355,0,0,1-.971.408h-.011A1.31,1.31,0,0,1,11.545,35.75Zm11.215.408a1.367,1.367,0,0,1,0-2.734H36.479a1.367,1.367,0,0,1,0,2.734ZM11.545,23.687,9.1,21.282a1.394,1.394,0,0,1-.4-.97,1.367,1.367,0,0,1,2.326-.96L12.5,20.8l3.86-3.86a1.366,1.366,0,0,1,1.929,0,1.306,1.306,0,0,1,.408.959,1.342,1.342,0,0,1-.408.971l-4.818,4.819a1.393,1.393,0,0,1-.971.408H12.5A1.318,1.318,0,0,1,11.545,23.687Zm11.215.408a1.368,1.368,0,0,1,0-2.735H36.479a1.368,1.368,0,0,1,0,2.735Z"/>
</svg>
