<svg xmlns="http://www.w3.org/2000/svg" width="75.793" height="60" viewBox="0 0 75.793 60">
  <path d="M25.13,59.333a1.412,1.412,0,0,1,1.336-2.151h6.1V51.556H7.089A7.116,7.116,0,0,1,0,44.454V7.089A7.1,7.1,0,0,1,7.089,0h61.6a7.116,7.116,0,0,1,7.1,7.089V44.467a7.115,7.115,0,0,1-7.1,7.1H43.275v5.612h6.1a1.412,1.412,0,0,1,0,2.812H26.465Q26.4,60,26.328,60A1.412,1.412,0,0,1,25.13,59.333Zm10.239-2.138h5.093V51.569H35.369ZM3.02,44.895v.661a4.751,4.751,0,0,0,.194.609A4.289,4.289,0,0,0,7.1,48.757H68.936a4.3,4.3,0,0,0,3.888-2.592,4.668,4.668,0,0,0,.207-.609V44.506H3.02ZM2.813,7.089V41.72H72.98V7.089a4.29,4.29,0,0,0-4.29-4.277H7.089A4.276,4.276,0,0,0,2.813,7.089ZM36.033,35.118a1.09,1.09,0,0,1,0-2.17H50.5a1.09,1.09,0,0,1,0,2.17ZM22.92,34.77l-1.73-1.74a1,1,0,0,1-.319-.761,1.056,1.056,0,0,1,.319-.77,1.11,1.11,0,0,1,1.53,0l1,1,2.7-2.7a1.111,1.111,0,0,1,1.5-.031,1,1,0,0,1,.32.76,1.071,1.071,0,0,1-.32.77l-3.46,3.47a1.147,1.147,0,0,1-.77.32A1.1,1.1,0,0,1,22.92,34.77Zm13.12-9.518a1.08,1.08,0,0,1,0-2.16H50.51a1.08,1.08,0,1,1,0,2.16Zm-13.12-.57-1.73-1.731a1.061,1.061,0,0,1-.32-.77,1,1,0,0,1,.32-.76,1.11,1.11,0,0,1,1.53,0l1,1,2.7-2.7a1.1,1.1,0,0,1,.77-.319l-.031-.041a1.09,1.09,0,0,1,.76,1.86l-3.46,3.461a1.086,1.086,0,0,1-.77.319h-.01A1.063,1.063,0,0,1,22.92,24.682Zm13.113-9.288a1.09,1.09,0,0,1,0-2.17H50.5a1.09,1.09,0,0,1,0,2.17ZM22.925,14.63l-1.73-1.73a1.09,1.09,0,0,1,0-1.54,1.119,1.119,0,0,1,1.53,0l1,1,2.7-2.68a1.11,1.11,0,0,1,1.54,0,1.061,1.061,0,0,1,.32.77,1,1,0,0,1-.36.709l-3.46,3.47a1.147,1.147,0,0,1-.77.32A1.1,1.1,0,0,1,22.925,14.63Z"/>
</svg>
