<svg xmlns="http://www.w3.org/2000/svg" width="52.118" height="60" viewBox="0 0 52.118 60">
  <path d="M30.719,59.887,8.921,53.05l.571-1.235c.021-.061,1.561-3.326,2.685-6.122l.174-.439c.887-2.174,1.3-3.2-.072-7-3.062,3.47-6.816,6.908-9.429,6.908a2.527,2.527,0,0,1-1.4-.4C-.5,43.5-.253,39.957,2.207,33.927a1.226,1.226,0,0,1,1.613-.674,1.2,1.2,0,0,1,.673.664,1.223,1.223,0,0,1,0,.949C1.85,41.325,2.8,42.7,2.8,42.7c.54.337,3.622-1.388,8.53-7.082a31.817,31.817,0,0,1-1.52-6.265,17.762,17.762,0,0,1-.357-2.7C3.626,26.518.37,25.284.033,23.172s1.858-4.1,6.95-6.185a1.237,1.237,0,0,1,.97,2.276c-4.531,1.919-5.44,3.286-5.44,3.552.092.51,2.276,1.286,6.97,1.418a19.5,19.5,0,0,1,.5-3.061,15.115,15.115,0,0,1,3.684-7.317A18.368,18.368,0,0,1,27.861,7.191h.419c.99-3.236.745-4.542.561-4.695-.01,0-1.164-.184-4.551,2.878A1.244,1.244,0,0,1,23.4,5.7a1.215,1.215,0,0,1-.868-.4,1.194,1.194,0,0,1-.316-.888,1.216,1.216,0,0,1,.4-.867c3.49-3.214,5.949-4.2,7.572-3.133s1.5,3.826.6,7a18.488,18.488,0,0,1,13.694,10.2c3.868-1.694,5.246-3.173,5.164-3.428s-1.491-1.255-6.756-1.419a1.235,1.235,0,0,1-.8-2.163,1.184,1.184,0,0,1,.878-.317c5.735.184,8.715,1.317,9.1,3.46.439,2.347-2.725,4.46-6.674,6.174a18.149,18.149,0,0,1,.684,8.419l3.214,8.6a1.737,1.737,0,0,1-.194,1.561,1.7,1.7,0,0,1-1.388.724H45.158l-1.02,8.521a2.532,2.532,0,0,1-2.511,2.235H34.485L31.076,60ZM16.554,31.029a1.238,1.238,0,0,1,.245,1.735c-.673.9-1.623,2.072-2.643,3.347,2.174,5.51,1.715,7.175.531,10.072l-.174.429c-.715,1.8-1.592,3.745-2.143,4.949l17.123,5.377L32.688,47.5h8.939l1.337-10.776h3.612l-2.989-8.082v-.326a15.652,15.652,0,0,0,.244-2.643A16.043,16.043,0,0,0,43.1,20.9a87.386,87.386,0,0,1-10.031,2.959,1.349,1.349,0,0,1-.286,0,1.234,1.234,0,0,1-1.2-.949,1.254,1.254,0,0,1,.153-.94,1.2,1.2,0,0,1,.775-.551,81.2,81.2,0,0,0,9.653-2.867A16,16,0,0,0,29.995,9.8a67.864,67.864,0,0,1-3.378,7.459,1.225,1.225,0,0,1-1.1.674,1.25,1.25,0,0,1-.571-.143,1.234,1.234,0,0,1-.613-.725,1.274,1.274,0,0,1,.082-.949A64.271,64.271,0,0,0,27.4,9.66a15.907,15.907,0,0,0-11.837,5.776,12.758,12.758,0,0,0-3.134,6.235A16.661,16.661,0,0,0,12,24.13c1.877-.03,4.041-.153,6.541-.408a1.251,1.251,0,0,1,.255,2.49c-1.735.184-4.235.388-6.838.438a15.814,15.814,0,0,0,.317,2.276,31.221,31.221,0,0,0,.929,4.388c.531-.623,1.061-1.306,1.612-2.041a1.239,1.239,0,0,1,1.735-.245Zm11.256-1.449-2.1-1.02-2.1,1.02a1.245,1.245,0,0,1-1.755-1.265l.408-2.337-1.7-1.663a1.236,1.236,0,0,1-.317-1.266,1.257,1.257,0,0,1,1.021-.847l2.357-.337,1.02-2.133a1.265,1.265,0,0,1,2.214,0l1.021,2.133,2.357.337a1.254,1.254,0,0,1,1.01.847,1.234,1.234,0,0,1-.316,1.266l-1.7,1.663.409,2.337a1.246,1.246,0,0,1-1.235,1.408h-.016A1.188,1.188,0,0,1,27.811,29.579ZM26.29,26.019l.459.244-.092-.51a1.236,1.236,0,0,1,.357-1.1l.367-.357-.51-.072a1.254,1.254,0,0,1-.929-.673l-.235-.469-.224.469a1.267,1.267,0,0,1-.929.673l-.51.072.367.357a1.264,1.264,0,0,1,.357,1.1l-.092.51.459-.244a1.239,1.239,0,0,1,.571-.143A1.283,1.283,0,0,1,26.29,26.019ZM8.586,11.2a1.243,1.243,0,0,1-.276-1.008l.408-2.368L6.993,6.181a1.216,1.216,0,0,1-.306-1.266,1.243,1.243,0,0,1,1.02-.847l2.347-.357,1.02-2.133a1.235,1.235,0,0,1,2.224,0l1.072,2.154,2.357.337a1.234,1.234,0,0,1,.653,2.091L15.708,7.854l.409,2.336a1.245,1.245,0,0,1-1.8,1.276l-2.1-1.072-2.1,1.1a1.319,1.319,0,0,1-.581.143A1.245,1.245,0,0,1,8.586,11.2ZM12.84,7.9l.459.245L13.156,7.6a1.291,1.291,0,0,1,.357-1.062l.367-.356-.51-.072a1.255,1.255,0,0,1-.929-.684l-.225-.459-.234.459a1.237,1.237,0,0,1-.929.684h-.51l.367.428a1.224,1.224,0,0,1,.357,1.1l-.092.511.51-.245a1.276,1.276,0,0,1,1.154,0Z" transform="translate(0 0)"/>
</svg>
