<svg xmlns="http://www.w3.org/2000/svg" width="60" height="36.159" viewBox="0 0 60 36.159">
  <path d="M3.69,36.158A3.846,3.846,0,0,1,0,32.152V30.739a4.476,4.476,0,0,1,.16-1.092,1.14,1.14,0,0,1,.06-.251l.07-.19,1.523-4.337a1.242,1.242,0,0,1,1.562-.751,1.211,1.211,0,0,1,.752,1.543L3.74,26.772H23.193l-.38-1.112a1.2,1.2,0,0,1,.731-1.552,1.241,1.241,0,0,1,1.572.751l1.563,4.318.08.2a2,2,0,0,1,.05.241,4.56,4.56,0,0,1,.18,1.1v1.433A3.846,3.846,0,0,1,23.3,36.158Zm-1.122-6.09v.13a2,2,0,0,0-.08.541v1.413A1.393,1.393,0,0,0,3.71,33.685H23.334a1.4,1.4,0,0,0,1.182-1.533V30.739a2,2,0,0,0-.08-.541v-.13a1.262,1.262,0,0,0-1.1-.811H3.659A1.212,1.212,0,0,0,2.568,30.069Zm48.524,5.008-9.076-3.566c-.811-.231-8.705-2.455-10.388-3.155l-.361-.17A6.009,6.009,0,0,1,27.862,24.1a1.989,1.989,0,0,0-.08-.43V23.6c-.351-1.543-1.342-2.695-2.414-2.785a1.791,1.791,0,0,0-.461,0,3,3,0,0,1-.29,1.733l-.06.08a2.994,2.994,0,0,1-1.212.911c-2,.882-5.1,1.092-7.543,1.092-1.993,0-3.546-.15-3.686-.15l-.821-.06-3.336-.261h-.13l-1.293-.23a5.714,5.714,0,0,1-3.7-2.275A11.022,11.022,0,0,1,1.2,13.48,10.478,10.478,0,0,1,3.5,8.732a5.651,5.651,0,0,1-.491-3.116C3.42,2.571,6.354.537,9.069.1a7.184,7.184,0,0,1,5.86,1.643,7.514,7.514,0,0,1,6.111,2.9,6.241,6.241,0,0,0,4.047,2.534,1.232,1.232,0,1,1,0,2.454,7.212,7.212,0,0,1-3.426-1.1c.351.32.691.661,1,1a5.41,5.41,0,0,0,2.855,2,10.746,10.746,0,0,0,3.667,0A1.265,1.265,0,0,1,28.7,10.8a3.4,3.4,0,0,1-.05-1,4.528,4.528,0,0,1,2.074-4.358,3.916,3.916,0,0,1,.921-.39,1.091,1.091,0,0,1-.17-.631V3.6A1.222,1.222,0,0,1,32.64,2.321a1.2,1.2,0,0,1,1.352,1.162V4.635a1.027,1.027,0,0,1-.09.27,4.888,4.888,0,0,1,1.883.71,4.729,4.729,0,0,1,2,4.7,1.234,1.234,0,0,1-.6.9c.911.09,1.824.22,2.735.371a1.166,1.166,0,0,1-.2-.652,3.378,3.378,0,0,1,.16-1,4.527,4.527,0,0,1,3.006-3.816,3.944,3.944,0,0,1,1-.19,1.174,1.174,0,0,1,0-.591l.12-.821a1.233,1.233,0,1,1,2.444.331l-.11.811a1.632,1.632,0,0,1-.07.3.85.85,0,0,1-.13.251A4.659,4.659,0,0,1,48.8,12.218a1.224,1.224,0,0,1-1,.821l.541.05a43.953,43.953,0,0,0,9.446,1h.29l.481-.05a1.3,1.3,0,1,1,.291,2.585l-.591.06h-.3a45.272,45.272,0,0,1-10.2-1l-.742-.14-.811-.16-.671-.131-1.854-.38c-3.877-.821-7.883-1.633-11.71-1.2l-1.342.19a15.689,15.689,0,0,1-5.64.12,7.643,7.643,0,0,1-4.147-2.764,14.222,14.222,0,0,0-1.282-1.293,11.05,11.05,0,0,0-2.164-1.412,11.325,11.325,0,0,0-5.119-1.122c-3.726.05-7.853,2.124-8.735,6.652a8.471,8.471,0,0,0,1.213,6.25A3.375,3.375,0,0,0,6.9,21.584l.911.169a4.108,4.108,0,0,0,1.082-1.7l.131-.241.4-.772A21.371,21.371,0,0,1,12.7,13.42a9.133,9.133,0,0,1,6.341-2.384,1.232,1.232,0,0,1,.07,2.364,6.828,6.828,0,0,0-4.7,1.643,20.082,20.082,0,0,0-2.8,4.949l-.4.882-.1.22-.451.9.731.06.9.04c1.9.18,7.463.391,10.017-.741l.131-.06a8.667,8.667,0,0,0-.09-1v-.18c-.251-1.693-.821-4.418-1.563-5.419a1.232,1.232,0,0,1,2-1.433l.05.07a18.25,18.25,0,0,1,1.723,5.088,4.777,4.777,0,0,1,1-.05,4.079,4.079,0,0,1,1.142.3l-.13-.611a1.232,1.232,0,1,1,2.4-.52L30.135,22.9v.4a.493.493,0,0,0,.05.27,3.625,3.625,0,0,0,2,2.384h.08l.251.12c1.322.562,7.763,2.395,10.137,3.065h.11l1.452.551,7.714,3.086a1.211,1.211,0,0,1,.811,1.5.657.657,0,0,0-.06.121,1.25,1.25,0,0,1-1.592.681ZM43.609,8.361a2.2,2.2,0,0,0-1.332,2,1.1,1.1,0,0,1-.11.361v.151a1.235,1.235,0,0,1-.451.992c.821.16,1.713.33,2.554.51l1.813.381.6.1h.16a1.272,1.272,0,0,1-.51-1.442,2.244,2.244,0,0,0-.411-2.454,2.332,2.332,0,0,0-2.313-.6ZM32.058,7.489A2.225,2.225,0,0,0,31.147,9.7a2.437,2.437,0,0,1,0,.38v.141h.01a1.19,1.19,0,0,1-.24,1.012l.792-.121a24.167,24.167,0,0,1,4.087-.079,1.264,1.264,0,0,1-.421-1.093A2.243,2.243,0,0,0,34.443,7.6a2.347,2.347,0,0,0-2.385-.11ZM18.535,6.258a11.8,11.8,0,0,1,1.383.811A9.616,9.616,0,0,1,19.1,6.2a5.009,5.009,0,0,0-4.458-2,1.254,1.254,0,0,1-1.152-.411A4.586,4.586,0,0,0,9.4,2.55c-1.763.281-3.757,1.573-4.006,3.416a2.791,2.791,0,0,0,0,1,12.183,12.183,0,0,1,6.891-2.083h.193A14.029,14.029,0,0,1,18.535,6.258Zm33.357,23.69L40.453,23.466a1.232,1.232,0,0,1,1.2-2.143l6.631,3.736,9.637.481a5.123,5.123,0,0,1,.872.05,1.263,1.263,0,0,1-.11,2.524h-.121l-.731-.05-4.73-.216a1.212,1.212,0,1,1-1.21,2.1Zm-2.123-17.42a3.012,3.012,0,0,1,0-1,4.557,4.557,0,0,1,2.284-4.257,4.792,4.792,0,0,1,.811-.321,1.176,1.176,0,0,1-.14-.581V5.546a1.228,1.228,0,0,1,2.454-.111v.822a1.325,1.325,0,0,1,0,.28.866.866,0,0,1-.08.27,4.907,4.907,0,0,1,1.923.831,4.72,4.72,0,0,1,1.824,4.778,1.243,1.243,0,0,1-1.413,1,1.222,1.222,0,0,1-1-1.382,2.255,2.255,0,0,0-.821-2.4,2.346,2.346,0,0,0-2.385-.2,2.2,2.2,0,0,0-1,2.164,1.161,1.161,0,0,1,0,.371v.14a1.222,1.222,0,0,1-1,1.423H50.97A1.222,1.222,0,0,1,49.769,12.528Z" transform="translate(0 0)"/>
</svg>
