<svg xmlns="http://www.w3.org/2000/svg" width="56.789" height="60" viewBox="0 0 56.789 60">
  <path d="M9.473,60a1.233,1.233,0,0,1,0-2.455h3.745V49.336L4.906,49.2a1.222,1.222,0,0,1-1.142-1.142L.008,15.448A1.21,1.21,0,0,1,1.15,14.1a1.146,1.146,0,0,1,.845.252,1.245,1.245,0,0,1,.457.822L6.071,46.71l8.426.114,8.632.171a1.218,1.218,0,0,1,.811.377,1.143,1.143,0,0,1,.342.868A1.221,1.221,0,0,1,23.06,49.45l-7.341-.125v8.221h3.8a1.233,1.233,0,0,1,0,2.455Zm20.4-.617a3.94,3.94,0,0,1-3.9-3.334L24.6,47.155a2.135,2.135,0,0,0-1.758-1.77l-4.213.148H15.068a8.5,8.5,0,0,1-8.505-8.107L5.717,20.3a6.771,6.771,0,0,1,6.7-7.056h1.929a13.6,13.6,0,0,1,8.256,2.82l2.283,1.782a13.246,13.246,0,0,0,7.022,2.717l4.054.228a3.426,3.426,0,0,1,3.174,3.665A3.563,3.563,0,0,1,35.86,27.8l-5.162.353a15.8,15.8,0,0,1-7.718-1.461l-3.3-1.553-.708,10.687,9.134,2.74.639.263v-3.14h-.49a1.221,1.221,0,1,1,0-2.443h7.513l4.818-10.276a1.244,1.244,0,0,1,1.142-.7h13.85A1.208,1.208,0,0,1,56.617,24.1L52.29,33.238h2.283a1.221,1.221,0,1,1,0,2.443h-.731V58.139a1.233,1.233,0,0,1-2.455,0V35.68H31.19v5.378a6.051,6.051,0,0,1,.982,2.523L33.747,55a3.905,3.905,0,0,1-3.322,4.385q-.137.013-.274.013T29.876,59.384Zm.223-2.6a1.462,1.462,0,0,0,1.251-1.567L29.786,43.8a3.528,3.528,0,0,0-2.376-2.842L17.283,37.907a1.211,1.211,0,0,1-.868-1.244l.891-13.45a1.178,1.178,0,0,1,1.747-.97l4.932,2.283a13.027,13.027,0,0,0,6.485,1.211l5.173-.343a1.05,1.05,0,0,0,.981-1,1.027,1.027,0,0,0-.914-1.142l-4.008-.32a15.5,15.5,0,0,1-8.324-3.219L21.1,17.938a11.139,11.139,0,0,0-6.76-2.284H12.42A4.317,4.317,0,0,0,8.1,20.221l.845,17.127a6.073,6.073,0,0,0,6.063,5.834h3.516L22.957,43h.16a4.566,4.566,0,0,1,3.939,3.825l1.37,8.849.035-.046A1.461,1.461,0,0,0,30.1,56.783Zm8.409-23.545H49.675l4-8.5H42.5Zm-25.655-21.2a6.018,6.018,0,1,1,.023,0ZM9.29,6.018a3.562,3.562,0,1,0,3.563-3.563A3.562,3.562,0,0,0,9.29,6.018Z" transform="translate(0 0)"/>
</svg>
