<svg xmlns="http://www.w3.org/2000/svg" width="67.936" height="60" viewBox="0 0 67.936 60">
  <path d="M16.232,52.682a1.5,1.5,0,0,1-.1-2.132,1.527,1.527,0,0,1,2.133-.1,24.845,24.845,0,0,0,31.424,1.7H47.451a1.515,1.515,0,0,1,0-3.018h6.507A1.509,1.509,0,0,1,55.437,50.9L54.116,57.36a1.5,1.5,0,0,1-1.479,1.212,1.282,1.282,0,0,1-.3,0,1.439,1.439,0,0,1-.945-.641,1.511,1.511,0,0,1-.23-1.14l.472-2.254a27.872,27.872,0,0,1-35.4-1.854Zm49.394-7.555a1.516,1.516,0,0,1-.712-1.424V35.51A4.327,4.327,0,0,0,60.6,31.184H45.972a4.327,4.327,0,0,0-4.327,4.327V43.7a1.515,1.515,0,1,1-3.017,0V35.51a7.355,7.355,0,0,1,7.332-7.344H60.6a7.344,7.344,0,0,1,7.332,7.344V43.7a1.515,1.515,0,0,1-2.3,1.424Zm-38.586,0a1.516,1.516,0,0,1-.712-1.424V35.51a4.327,4.327,0,0,0-4.315-4.327H7.35A4.327,4.327,0,0,0,3.023,35.51V43.7a1.515,1.515,0,1,1-3.017,0V35.51a7.355,7.355,0,0,1,7.332-7.344H22.013a7.344,7.344,0,0,1,7.333,7.344V43.7a1.516,1.516,0,0,1-2.306,1.424Zm33.169-.073a1.515,1.515,0,0,1-.712-1.424v-7.27a1.51,1.51,0,0,1,3.018,0v7.27a1.515,1.515,0,0,1-2.306,1.424Zm-15.415,0a1.515,1.515,0,0,1-.712-1.424v-7.27a1.515,1.515,0,1,1,3.017,0v7.27a1.514,1.514,0,0,1-2.3,1.424Zm-23.207,0a1.515,1.515,0,0,1-.712-1.424v-7.27a1.515,1.515,0,1,1,3.018,0v7.27a1.515,1.515,0,0,1-2.306,1.424Zm-15.415,0a1.513,1.513,0,0,1-.712-1.424v-7.27a1.509,1.509,0,0,1,3.017,0v7.27a1.514,1.514,0,0,1-2.3,1.424Zm40.72-24.268a6.435,6.435,0,1,1,6.435,6.435A6.436,6.436,0,0,1,46.893,20.786Zm3.991,2.449a3.434,3.434,0,1,0-.973-2.449h-.024A3.413,3.413,0,0,0,50.883,23.235ZM8.247,20.786a6.435,6.435,0,1,1,6.435,6.435A6.436,6.436,0,0,1,8.247,20.786Zm3.018,0a3.417,3.417,0,1,0,3.441-3.381h-.024A3.417,3.417,0,0,0,11.264,20.786ZM22.68,10.909H16.185a1.515,1.515,0,0,1-1.479-1.757l1.309-6.423A1.528,1.528,0,0,1,17.8,1.517a1.493,1.493,0,0,1,.957.654A1.439,1.439,0,0,1,18.971,3.3l-.423,2.108a27.872,27.872,0,0,1,35.047,1.66,1.515,1.515,0,0,1-2.012,2.254,24.854,24.854,0,0,0-31.326-1.43H22.68a1.515,1.515,0,1,1,.136,3.023C22.77,10.915,22.725,10.913,22.68,10.909Z" transform="translate(0 0)"/>
</svg>
