<svg xmlns="http://www.w3.org/2000/svg" width="61.718" height="60" viewBox="0 0 61.718 60">
  <path d="M38.776,57.781l-6.657-5.645H12.129A1.465,1.465,0,0,1,10.715,51.1L7.278,39.649A1.465,1.465,0,0,1,8.31,37.812a.837.837,0,0,1,.32-.062l23.055-1.785,1.136-8.039a1.574,1.574,0,0,1,.619-1.032,1.339,1.339,0,0,1,1.032-.228,1.528,1.528,0,0,1,1.156,1.744L34.6,35.748h.093a9.05,9.05,0,0,1,4.21.671l2.518-4.365a1.425,1.425,0,1,1,2.457,1.435l-2.59,4.447.176.145a8.96,8.96,0,0,1,2.92,6.615v5.4l1.032.888,7.823-1.187h-.02A4.479,4.479,0,1,1,54.7,58.627l-7.843,1.249A11.037,11.037,0,0,1,45.215,60H45.17A10.321,10.321,0,0,1,38.776,57.781Zm-8.1-11.827,3.3,3.57,1.548,1.569,5.16,4.428a7.394,7.394,0,0,0,5.759,1.466l7.823-1.259-.01-.01a1.528,1.528,0,0,0,.692-2.756,1.593,1.593,0,0,0-1.135-.279l-7.967,1.29a4.126,4.126,0,0,1-2-.289l-1.93-1.538h-.164l-.557-.588-.413-.33.062-.052-1.93-1.991-1.218-1.3a1.493,1.493,0,1,1,2.157-2.065l1.682,1.755V44.634a6.032,6.032,0,0,0-1.682-4.129l-.743,1.28a1.464,1.464,0,0,1-1.228.7,1.688,1.688,0,0,1-.723-.186,1.46,1.46,0,0,1-.711-.856,1.369,1.369,0,0,1,.144-1.032l.846-1.383a5.862,5.862,0,0,0-2.528-.309l-.763.062-.083.588a1.508,1.508,0,0,1-1.218,1.3h-.464A1.538,1.538,0,0,1,31.231,39l-1.032.093L10.694,40.567l2.59,8.648h16.44l-1.176-1.28a1.464,1.464,0,0,1,.061-2.064,1.5,1.5,0,0,1,2.064.083Zm14.531-6.2a8.256,8.256,0,1,1,8.256,8.256A8.257,8.257,0,0,1,45.2,39.752Zm8.277-5.315A5.315,5.315,0,1,0,58.8,39.752h.032a5.306,5.306,0,0,0-5.3-5.315ZM24.647,35.489a1.538,1.538,0,0,1-1.239-1.331L23.1,31.372l-5.161-.8a5.164,5.164,0,0,1-1.981-.753l.155,3.374a1.415,1.415,0,1,1-2.828.093l-.247-5.521L8.32,24.457a1.424,1.424,0,1,1,1.63-2.332l3.365,2.457.175.124,3.86,2.7a2.33,2.33,0,0,0,.939.372l5.161.785,1.155.175.568.083h.238l.464.062a1.336,1.336,0,0,0,.464-2.631l-.733-.124-.454-.083-1.28-.216-1.424-.258-3.189-.5a1.4,1.4,0,0,1-.682-.32l-4.159-3.519-3.622-3.1a4.818,4.818,0,0,0-4.933-.608A4.871,4.871,0,0,0,2.84,22.074l.34,11.682a1.444,1.444,0,0,1-1.393,1.466A1.434,1.434,0,0,1,.343,33.828L0,22.135a7.751,7.751,0,0,1,4.737-7.316,8.128,8.128,0,0,1,2.611-.6,7.586,7.586,0,1,1,4.129.939,6.529,6.529,0,0,1,.908.578h.093l.113.135a1.8,1.8,0,0,1,.309.248l.062.072,7.11,6.089,2.065.361-.165-1.548a1.465,1.465,0,0,1,.32-1.1,1.559,1.559,0,0,1,2.188-.206,1.624,1.624,0,0,1,.547,1.032l.268,2.4,1.537.279a4.211,4.211,0,0,1-.608,8.256v.072l.227,2a1.556,1.556,0,0,1-.331,1.115,1.5,1.5,0,0,1-1.032.547Zm-15.73-32A4.663,4.663,0,0,0,6.669,9.7h.02a4.676,4.676,0,0,0,6.079,2.251h.093A4.665,4.665,0,1,0,8.918,3.494Z" transform="translate(0 0)"/>
</svg>
