<svg xmlns="http://www.w3.org/2000/svg" width="50.948" height="60" viewBox="0 0 50.948 60">
  <path d="M21.138,59.428A4,4,0,0,1,19.2,55.786V18.465H10.261a4.19,4.19,0,0,1-4.18-4.191V7.455H5.924V7.6A2.336,2.336,0,0,1,3.588,9.959H2.325A2.326,2.326,0,0,1,0,7.6V4.706A2.325,2.325,0,0,1,2.325,2.38H3.588A2.336,2.336,0,0,1,5.924,4.706v.156h.258A3.443,3.443,0,0,1,9.535,1.855h.179a3.444,3.444,0,0,1,3.42,3.007h.19V4.706A2.325,2.325,0,0,1,15.649,2.38h1.263a2.325,2.325,0,0,1,2.325,2.326V7.634a2.325,2.325,0,0,1-2.325,2.325H15.649A2.326,2.326,0,0,1,13.324,7.6V7.455h-.2l-.078,3.89h24.78l.078-3.89h-.28v.179A2.325,2.325,0,0,1,35.3,9.959H34.036A2.326,2.326,0,0,1,31.71,7.6V4.706A2.326,2.326,0,0,1,34.036,2.38H35.31a2.325,2.325,0,0,1,2.325,2.326v.156H38a3.354,3.354,0,0,1,3.353-3.007A3.512,3.512,0,0,1,43.85,2.861a3.357,3.357,0,0,1,.962,2h.223V4.706A2.325,2.325,0,0,1,47.359,2.38h1.264a2.325,2.325,0,0,1,2.325,2.326V7.634a2.325,2.325,0,0,1-2.325,2.325H47.359A2.325,2.325,0,0,1,45.035,7.6V7.455h-.179v6.819a4.191,4.191,0,0,1-4.192,4.191h-8.7v10.16l7.243,5.589a3.876,3.876,0,0,1,1.5,3.051v11.6a3.689,3.689,0,0,1-.223,1.229h1.586a3.243,3.243,0,0,1,3.231,3.23v5.231a1.3,1.3,0,0,1-1.3,1.3h-3.6a1.3,1.3,0,0,1-1.286-1.3V56.212H34.763v2.347a1.3,1.3,0,0,1-1.3,1.3h-3.51a1.3,1.3,0,0,1-1.3-1.3V53.328a3.23,3.23,0,0,1,3.23-3.23H33.5a3.689,3.689,0,0,1-.223-1.229V39.356L27.2,35.12V55.786a4,4,0,0,1-6.058,3.642Zm.29-43.172a1.286,1.286,0,0,1,.38.912V55.786a1.408,1.408,0,1,0,2.806,0V32.638a1.285,1.285,0,0,1,2.034-1.061l8.674,6.036a1.3,1.3,0,0,1,.559,1.061V48.868a1.118,1.118,0,0,0,2.235,0v-11.6a1.273,1.273,0,0,0-.492-1.006l-7.746-5.991a1.323,1.323,0,0,1-.5-1.029V17.168a1.287,1.287,0,0,1,1.3-1.308H40.63a1.62,1.62,0,0,0,1.61-1.61V5.31a.854.854,0,0,0-.257-.616.9.9,0,0,0-.627-.245.815.815,0,0,0-.782.794l-.157,7.444a1.284,1.284,0,0,1-1.3,1.263h-27.4a1.306,1.306,0,0,1-.928-.379,1.331,1.331,0,0,1-.369-.94l.156-7.276a.914.914,0,0,0-.245-.626.88.88,0,0,0-.626-.258H9.535a.862.862,0,0,0-.872.861v8.942a1.61,1.61,0,0,0,1.6,1.61H20.522A1.285,1.285,0,0,1,21.427,16.256ZM41.349,53.978a1.293,1.293,0,0,1,.4.938v2.347h1.006V53.328a.648.648,0,0,0-.637-.637H31.946a.647.647,0,0,0-.649.637v3.934h.872V54.915a1.3,1.3,0,0,1,1.3-1.3h6.986A1.3,1.3,0,0,1,41.349,53.978ZM47.617,7.344h.737V4.974h-.737Zm-13.324,0h.749V4.974h-.749Zm-18.387,0h.749V4.974h-.749Zm-13.312,0h.761V4.974H2.593ZM21.352,9.561a5.589,5.589,0,1,1,3.988,1.617h-.057A5.59,5.59,0,0,1,21.352,9.561ZM23.17,7.723a3.052,3.052,0,1,0-.881-2.135V5.544A3.053,3.053,0,0,0,23.17,7.723Z" transform="translate(0)"/>
</svg>
