<svg xmlns="http://www.w3.org/2000/svg" width="56.208" height="60" viewBox="0 0 56.208 60">
  <path d="M32.529,60a42.529,42.529,0,0,1-7.421-.673,55.355,55.355,0,0,1-14.8-4.929l-.452-.21a22.616,22.616,0,0,0-4.613-1.052A6.221,6.221,0,0,1,.053,46.187,3.918,3.918,0,0,0,.137,45.7L5.245,15.949l1.44-6.768A6.241,6.241,0,0,1,9.753,5.05L18.036.489a4.277,4.277,0,0,1,5.413,1.23l4.267,6.516a3.49,3.49,0,0,1-.872,4.75L22,16.475a2.449,2.449,0,0,1-2.817,0l-.115-.074-1.051.8a4.546,4.546,0,0,1-2.1.883c-1.408,3.237-.368,5.822.925,9.05,1.135,2.921,2.439,6.075,2.186,10.278a29.935,29.935,0,0,1,8.408-1.4,1.283,1.283,0,0,1,1.293,1.23,1.257,1.257,0,0,1-1.219,1.3,24.372,24.372,0,0,0-11.2,2.8,12.843,12.843,0,0,0-3.342,2.522,1.26,1.26,0,0,1-.977.463,1.284,1.284,0,0,1-.81-.294A1.25,1.25,0,0,1,11,42.268,15.774,15.774,0,0,1,16.4,38.462c.568-4.224-.673-7.356-1.88-10.383-1.346-3.343-2.607-6.516-1.125-10.437-.137-.074-.284-.147-.411-.231l-2.1-1.377a1.268,1.268,0,0,1,.431-2.3,1.323,1.323,0,0,1,.956.179l2.1,1.387a1.9,1.9,0,0,0,2.176-.083l.389-.306-.241-.167a2.459,2.459,0,0,1-.936-2.827L17.29,7.7a1.263,1.263,0,0,1,2.386.831l-1.471,4.2L20.652,14.4l4.793-3.458a.966.966,0,0,0,.242-1.313L21.483,3.2a1.764,1.764,0,0,0-2.228-.463L10.973,7.31A3.688,3.688,0,0,0,9.155,9.717l-1.461,6.7L2.628,46.2a3.217,3.217,0,0,0-.1.4,3.689,3.689,0,0,0,3.089,4.1,25.677,25.677,0,0,1,5.256,1.271l.494.232a53.149,53.149,0,0,0,14.168,4.73c8.766,1.481,16.574.262,23.2-3.773a11.714,11.714,0,0,1,6.1-1.7h.115l.01-.095a1.261,1.261,0,0,1,0,2.522h-.115a9.226,9.226,0,0,0-4.783,1.335A33.086,33.086,0,0,1,32.91,60Zm9.3-10.374a11.939,11.939,0,1,1,5.591-22.481,1.271,1.271,0,1,1-1.187,2.238,9.407,9.407,0,1,0,4.919,8.324A9.184,9.184,0,0,0,51,36a1.292,1.292,0,0,1,2-1.271,1.3,1.3,0,0,1,.526.82,12.269,12.269,0,0,1,.189,2.154A11.939,11.939,0,0,1,41.779,49.634Zm-3.122-7.062-1.933-1.934a1.269,1.269,0,0,1-.368-.893,1.3,1.3,0,0,1,.368-.894,1.263,1.263,0,0,1,1.8,0l1.041,1.051L51.027,28.468a1.272,1.272,0,1,1,1.8,1.787L40.5,42.562a1.242,1.242,0,0,1-1.787,0Z" transform="translate(0 0)"/>
</svg>
