<svg xmlns="http://www.w3.org/2000/svg" width="39.606" height="60" viewBox="0 0 39.606 60">
  <path d="M11.138,57.376A7.763,7.763,0,0,1,9.7,55.23,5.256,5.256,0,0,0,9.4,56l-.281,1.534a1.147,1.147,0,0,1-1.136.972h-.2a1.156,1.156,0,0,1-.971-1.34l.339-1.621v-.175a7.015,7.015,0,0,1,2.525-3.612,6.763,6.763,0,0,1,.971-.534,3.384,3.384,0,0,0,.767-.456,10.95,10.95,0,0,0,2.3-3.214c.107-.184.2-.4.3-.6a10.882,10.882,0,0,1,1.136-1.942,16.986,16.986,0,0,1,2.845-2.7l.417-.359c-.592-.272-1.311.253-2.35,1.077-.175.146-.339.282-.514.408l-2.331,1.854-.165.1a3.358,3.358,0,0,1-4.913-2.641l-.3-4.466a1.312,1.312,0,0,1,0-.388l.913-3.068-1.3,2.213L6.167,40.87l-.087.184A6.7,6.7,0,0,1,4.9,42.637a1.154,1.154,0,1,1-1.563-1.7A4.744,4.744,0,0,0,4,40.025l1.223-3.592a3.649,3.649,0,0,0-.854,1.174L2.594,41.714A2.465,2.465,0,0,0,2.4,42.977c.291,2.407.913,8.36.359,11.768a19.754,19.754,0,0,1-.505,2.223,1.155,1.155,0,0,1-1.106.825,1.231,1.231,0,0,1-.321,0,1.136,1.136,0,0,1-.767-1.456A16.619,16.619,0,0,0,.5,54.4C.982,51.229.361,45.1.147,43.258A4.653,4.653,0,0,1,.506,40.8l1.777-4.058A5.831,5.831,0,0,1,4.438,34.2L7.7,32.064,8.448,30.8c-.262-.884-.582-1.806-.971-2.913-1.922-5.4-3.4-10.729-.33-15.942A2.643,2.643,0,0,0,7.07,9.859L7,9.732a6.706,6.706,0,0,1-.524-1.4,9.584,9.584,0,0,1-.272-5.048A4.592,4.592,0,0,1,11.973.207h.1A4.314,4.314,0,0,1,14.682,2.15a1.172,1.172,0,0,1,.456-.467,3.6,3.6,0,0,1,3.437,0A3.431,3.431,0,0,1,20.1,3.82a1.487,1.487,0,0,1,.466-.127,3.647,3.647,0,0,1,1.777.379,3.446,3.446,0,0,1,1.641,2.291,3.133,3.133,0,0,1,.049.67,1.082,1.082,0,0,1,.437,0,2.979,2.979,0,0,1,1.854.863A2.924,2.924,0,0,1,27,9.023a3.294,3.294,0,0,1,.175,1.408,1.169,1.169,0,0,1,.679.087,2.914,2.914,0,0,1,1.69,2.913,4.114,4.114,0,0,1-.971,2.417,1.629,1.629,0,0,0-.3.5,9.082,9.082,0,0,1,1.185,2.447l.253.33,4.554,1.942a1.176,1.176,0,0,1,.544.476l.767,1.252a1.126,1.126,0,0,1,1.592-.194.962.962,0,0,1,.272.3l1.991,3.165a1.122,1.122,0,0,1,.175.6c0,1.922-.156,3.787-.311,5.661a34,34,0,0,0,.087,8.991,1.155,1.155,0,0,1-.922,1.34h-.253a1.126,1.126,0,0,1-1.126-.971A34.13,34.13,0,0,1,37,31.976c.146-1.66.3-3.369.3-5.068l-.535-.835a1.061,1.061,0,0,1-.339.321,1.167,1.167,0,0,1-1.583-.4l-1.805-3.069-.4-.164.146.175.116.194,1.816,3.592a1.156,1.156,0,1,1-2.059,1.049L30.906,24.3l-1.174-1.554v.117a12.309,12.309,0,0,1,.971,2.088,1.28,1.28,0,0,1,.078.417l-.068,4.117a3.369,3.369,0,0,1-3.543,3.176,4.145,4.145,0,0,1-.476-.059,3.568,3.568,0,0,1-.767-.262l-.175-.107L23.343,30.51c-.175-.116-.35-.253-.534-.388-1.049-.758-1.777-1.282-2.408-.971l.447.329A18.31,18.31,0,0,1,23.313,31.6a14.653,14.653,0,0,1,1.943,2.825,13.306,13.306,0,0,0,1.563,2.437,6.011,6.011,0,0,0,.572.544c.359.291.767.573,1.107.835a9.142,9.142,0,0,1,3.6,4.01,1.155,1.155,0,0,1-.728,1.465.908.908,0,0,1-.292,0,1.165,1.165,0,0,1-1.106-.7,7.226,7.226,0,0,0-2.826-2.99l-.3-.223a.961.961,0,0,1,0,.339c-.253,2.3-.311,3.943-.369,5.651-.049,1.447-.1,2.942-.272,4.962a11.012,11.012,0,0,1-2.243,6.554A7.712,7.712,0,0,1,18.459,60H17.75l-.219,0A9.1,9.1,0,0,1,11.138,57.376Zm8.37-17.312s1.708.922,1.864,1.893a1.261,1.261,0,0,1-.34,1.049c-.485.437-.971.845-1.456,1.243A15.043,15.043,0,0,0,17.09,46.54a9.682,9.682,0,0,0-.883,1.534c-.107.224-.223.447-.34.661a13.037,13.037,0,0,1-2.844,3.883,5.449,5.449,0,0,1-1.36.806,4.526,4.526,0,0,0-.515.253,1.17,1.17,0,0,1,.515.573,5.362,5.362,0,0,0,1.136,1.7,7.028,7.028,0,0,0,5.564,1.884h.1a5.377,5.377,0,0,0,3.883-1.942c1.156-1.389,1.534-2.971,1.7-5.273.175-1.942.272-3.437.272-4.854.059-1.757.116-3.408.388-5.826a1.136,1.136,0,0,1,1.088-.971,5.305,5.305,0,0,1-.534-.515,15.564,15.564,0,0,1-1.943-2.815,13,13,0,0,0-1.631-2.408,16.314,16.314,0,0,0-2.165-1.835c-.515-.369-1-.766-1.486-1.174a1.275,1.275,0,0,1-.408-1.068c.127-.971,1.806-1.943,1.806-1.943,1.942-.971,3.66.292,4.855,1.166l.417.35L27,30.365l.194.058h.33a1.087,1.087,0,0,0,.971-.971l.058-.321a1.191,1.191,0,0,1-1.019.583h-.2a1.165,1.165,0,0,1-.971-1.34l.087-.554a47.474,47.474,0,0,1,.971-4.854V22.85a6.621,6.621,0,0,0-1.058-5.263L26.3,17.5a2.252,2.252,0,0,1-.321-1.252.975.975,0,0,1-.33.321,1.122,1.122,0,0,1-.6.175,1.157,1.157,0,0,1-.971-.544,1.077,1.077,0,0,1-.767-1.136,7.981,7.981,0,0,1,1-3.5c.408-.747.66-1.262.5-1.718a1.031,1.031,0,0,0-.175-.321.829.829,0,0,0-.408-.184,1.112,1.112,0,0,1-.612-.253,7.075,7.075,0,0,1-.7,1.379,4.831,4.831,0,0,0-.437.864,3.249,3.249,0,0,0-.136,1.252l.136-.01a2.55,2.55,0,0,1,.66.709A1.147,1.147,0,1,1,21.2,14.5l-.058-.059h-.078a1.153,1.153,0,0,1-.883-.9,2.412,2.412,0,0,1-.087-.641,1.088,1.088,0,0,1-.078.135,1.147,1.147,0,0,1-1.593.243.9.9,0,0,0-.272-.136.56.56,0,0,0-.253,0,1.155,1.155,0,0,1-1.165-.971,3.314,3.314,0,0,1,0-.437,1.071,1.071,0,0,1-.165.292,1.125,1.125,0,0,1-1.6.223,1.6,1.6,0,0,0-.359-.184.885.885,0,0,0-.389,0,1.59,1.59,0,0,1-1.291-.359c-.767-.68-.476-1.573-.2-2.544.078-.262.165-.553.253-.883V8.14a7.462,7.462,0,0,0,.311-1.534c.107-1.078.107-3.641-1.835-4.156a2.379,2.379,0,0,0-3.01,1.457A7.641,7.641,0,0,0,8.75,7.79a3.542,3.542,0,0,0,.291.826,1.944,1.944,0,0,0,1.719.6,1.16,1.16,0,1,1,.359,2.291h-.631a4.534,4.534,0,0,1-.883-.087,4.864,4.864,0,0,1-.37,1.534l-.048.087c-2.612,4.457-1.33,8.991.427,14.04.456,1.272.766,2.34,1.116,3.311a.6.6,0,0,0,.059.184c.262.855.5,1.641.68,2.369a33.457,33.457,0,0,1,.767,3.476c.019.194.078.388.078.583a22.429,22.429,0,0,1,0,5.582,1.128,1.128,0,0,1-.767.972.833.833,0,0,0,.34-.078l2.3-1.719.466-.359a6.01,6.01,0,0,1,3.478-1.669A3.1,3.1,0,0,1,19.507,40.064Zm6.864-27.419a5.888,5.888,0,0,0-.641,1.893,2.4,2.4,0,0,1,.34.418,1.284,1.284,0,0,1,.156.418,3.8,3.8,0,0,1,.582-1.02,1.84,1.84,0,0,0,.447-1.068.777.777,0,0,0-.087-.466A.686.686,0,0,0,26.9,12.6a1.375,1.375,0,0,1-.359-.262ZM19.741,6.479a5.82,5.82,0,0,0-.67,2.165,17.43,17.43,0,0,0-.059,2.369,3.877,3.877,0,0,1,.845.427,1.738,1.738,0,0,1,.31.35,5.081,5.081,0,0,1,.233-1.214,5.649,5.649,0,0,1,.592-1.34,4.854,4.854,0,0,0,.612-1.32,2.271,2.271,0,0,0,.135-1.049.97.97,0,0,0-.971-.913h-.1A1.172,1.172,0,0,1,20,5.78,4.4,4.4,0,0,1,19.741,6.479Zm-4.194.272a9.168,9.168,0,0,1-.36,2.049l-.31.961a1.923,1.923,0,0,1,.34.087,3.142,3.142,0,0,1,1.077.553,1.209,1.209,0,0,1,.34.427c0-.8.029-1.592.107-2.379a8.346,8.346,0,0,1,.913-2.961,2.154,2.154,0,0,0,.184-1.155,1.1,1.1,0,0,0-.486-.67,1.29,1.29,0,0,0-1.165,0,1.215,1.215,0,0,1-.864.1A8.879,8.879,0,0,1,15.546,6.751Zm.466,25.973a5.2,5.2,0,0,1-.893-2.418,5.485,5.485,0,0,1,4.738-6.136h.078a5.382,5.382,0,0,1,1.942.126,1.2,1.2,0,0,1-.515,2.331,3.2,3.2,0,0,0-3.437,4.854,1.146,1.146,0,0,1-.3,1.593,1.183,1.183,0,0,1-.641.194h-.012A1.116,1.116,0,0,1,16.012,32.724Z" transform="translate(0)"/>
</svg>
