<svg xmlns="http://www.w3.org/2000/svg" width="56.941" height="60" viewBox="0 0 56.941 60">
  <path d="M56.533.418A1.434,1.434,0,0,0,55.253,0L45.7,1.983a1.405,1.405,0,0,0,.521,2.761L51.342,3.7l-7.727,7.751a20.408,20.408,0,0,0-30.256-.2l-1.505-1.47L15.9,5.74A1.4,1.4,0,0,0,13.9,3.76L9.911,7.79,5.929,3.76l4.74.984a1.4,1.4,0,0,0,.569-2.749L1.686,0A1.4,1.4,0,0,0,.418.418,1.4,1.4,0,0,0,0,1.686l1.9,9.279a1.41,1.41,0,0,0,1.375,1.126h.284a1.41,1.41,0,0,0,1.185-1.683l-1-4.859L7.92,9.781,3.8,13.9a1.422,1.422,0,0,0,0,1.991,1.446,1.446,0,0,0,1,.415,1.4,1.4,0,0,0,1-.415l4.124-4.124,1.683,1.683a20.431,20.431,0,0,0,15.489,32v4.409H21.336a1.41,1.41,0,1,0,0,2.809h5.771v5.771a1.41,1.41,0,1,0,2.809,0V52.693h5.771a1.41,1.41,0,0,0,0-2.809h-5.8v-4.42A20.431,20.431,0,0,0,45.358,13.692l7.834-7.834-.924,4.551a1.41,1.41,0,0,0,1.09,1.659h.284a1.41,1.41,0,0,0,1.375-1.126l1.872-9.256A1.4,1.4,0,0,0,56.533.418ZM28.446,42.667A17.634,17.634,0,1,1,46.021,25.08,17.634,17.634,0,0,1,28.446,42.667Z" transform="translate(0.019 0.019)"/>
</svg>
