<svg xmlns="http://www.w3.org/2000/svg" width="73.239" height="60" viewBox="0 0 73.239 60">
  <path d="M34.684,60a33.488,33.488,0,0,1-6.866-.711L13.066,56.165A8.047,8.047,0,0,1,6.979,50.8L1.868,33.769A7.053,7.053,0,0,1,2.244,28.7l7.5-16.026a8.144,8.144,0,0,1,5.767-4.4l6.826-1.341a7.476,7.476,0,0,0,.885-3.474L10.076,8.142a1.246,1.246,0,0,0-.737.711l-6.182,16a1.65,1.65,0,0,1-1.542,1.02,1.879,1.879,0,0,1-.549-.081,1.687,1.687,0,0,1-.939-.778,1.51,1.51,0,0,1,0-1.207l6.1-16A4.441,4.441,0,0,1,8.91,5.259L23.231.149A2.453,2.453,0,0,1,25.243.3a2.158,2.158,0,0,1,1.139,1.488,10.327,10.327,0,0,1-.255,4.292l2.414-.5a3.045,3.045,0,0,1,3.594,2.052,7.506,7.506,0,0,1-.711,5.78,8.53,8.53,0,0,1-5.256,4.024l-4.9,1.341L16.62,30.98a1.868,1.868,0,0,0,.068,1.488l3.956,7.926a2.242,2.242,0,0,0,1.9,1.18l14.483.764a2.184,2.184,0,0,0,2.145-1.247l2.683-5.848a1.781,1.781,0,0,0,.08-1.341l-2.467-6.7a5.648,5.648,0,0,1,.63-4.748,6.625,6.625,0,0,1,11.613,1.261L55,32.588a1.521,1.521,0,0,1,.094.645l-.08.777a17.287,17.287,0,0,1,7.67-1.65,1.717,1.717,0,0,1,1.194.524,1.455,1.455,0,0,1,.415,1.058,1.622,1.622,0,0,1-1.649,1.516h-.282a13.533,13.533,0,0,0-7.751,2.4l-.4,4.345a1.492,1.492,0,0,1-.59,1.046,1.763,1.763,0,0,1-1.113.362,1.637,1.637,0,0,1-1.167-.577,1.424,1.424,0,0,1-.349-1.086l.778-8.582-3.192-8.624a3.178,3.178,0,0,0-3.661-1.958A3.047,3.047,0,0,0,42.9,24.127a2.682,2.682,0,0,0-.321,2.2l2.494,6.706a4.814,4.814,0,0,1-.2,3.379l-2.683,5.846a5.547,5.547,0,0,1-5.109,3.125h-.228L22.373,44.7a5.473,5.473,0,0,1-4.694-2.951l-3.956-7.926a4.705,4.705,0,0,1-.2-3.848L18.471,17.06a1.606,1.606,0,0,1,1.086-.966l5.686-1.556a5.362,5.362,0,0,0,3.285-2.468,4.679,4.679,0,0,0,.483-3.379L16.2,11.293a4.911,4.911,0,0,0-3.46,2.682l-7.5,15.971a4.094,4.094,0,0,0-.215,2.977l5.2,17.031a4.732,4.732,0,0,0,3.647,3.192l14.751,3.124a29.967,29.967,0,0,0,13.41-.255l19.378-4.948a1.5,1.5,0,0,1,.428,0h9.776l.054.013a1.542,1.542,0,0,1,0,3.085H62.068L42.945,59.007A33.091,33.091,0,0,1,34.9,60ZM56.65,29.826c0-10.218-9.763-18.519-21.751-18.519a1.57,1.57,0,1,1,0-3.138c13.1,0,24.044,8.85,24.97,20.116H71.7a1.542,1.542,0,1,1,0,3.084H58.244A1.6,1.6,0,0,1,56.65,29.826ZM45.948,18.9A23.7,23.7,0,0,0,39.4,16.429a1.659,1.659,0,0,1-1.045-.737,1.42,1.42,0,0,1-.175-1.139,1.623,1.623,0,0,1,1.958-1.141,27.167,27.167,0,0,1,7.5,2.844,1.527,1.527,0,0,1,.752.952,1.478,1.478,0,0,1-.2,1.18,1.69,1.69,0,0,1-2.24.509ZM35.636,15.839H33.973a1.542,1.542,0,1,1,0-3.084h1.771a1.577,1.577,0,0,1,1.113.509,1.479,1.479,0,0,1,.416,1.126,1.609,1.609,0,0,1-1.6,1.449Z" transform="translate(0 0)"/>
</svg>
