<svg xmlns="http://www.w3.org/2000/svg" width="45.941" height="60" viewBox="0 0 45.941 60">
  <path d="M24.735,59.872,0,52.1l.7-1.425c.01-.073,1.774-3.779,3-7l.2-.5c1.109-2.714,1.573-3.854-.686-9.5a36.572,36.572,0,0,1-2.249-8.52,20.094,20.094,0,0,1-.444-4.223,20.669,20.669,0,0,1,.644-5.067,17.093,17.093,0,0,1,4.223-8.3A20.923,20.923,0,0,1,42.418,20.928a20.183,20.183,0,0,1-.253,3.083l3.652,9.776a1.888,1.888,0,0,1-.221,1.762,1.92,1.92,0,0,1-1.573.824h-2.85l-1.213,9.66a2.881,2.881,0,0,1-2.85,2.533H29L25.137,60ZM7.5,9.421a14.676,14.676,0,0,0-3.579,7.074,18.5,18.5,0,0,0-.57,4.444,18.236,18.236,0,0,0,.4,3.759,34.811,34.811,0,0,0,2.112,7.96c2.586,6.408,2.037,8.3.686,11.623l-.2.486c-.8,2.016-1.795,4.244-2.429,5.616l19.436,6.113,3.631-10.726H37.108l1.509-12.215,4.107-.01-3.453-9.258.064-.349a18.445,18.445,0,0,0,.275-3A18.115,18.115,0,0,0,7.5,9.421ZM6.408,20.928a15.339,15.339,0,1,1,15.34,15.34A15.34,15.34,0,0,1,6.408,20.928Zm2.6-.014A12.742,12.742,0,1,0,21.754,8.175h-.007A12.742,12.742,0,0,0,9.005,20.913Zm2.734.014A10.008,10.008,0,1,1,21.748,30.936,10.007,10.007,0,0,1,11.74,20.928Zm2.618,0a7.39,7.39,0,1,0,7.39-7.389A7.39,7.39,0,0,0,14.357,20.928Zm2.375,0a5.015,5.015,0,1,1,5.015,5.015A5.014,5.014,0,0,1,16.733,20.928Zm3.309-1.755a2.417,2.417,0,0,0,1.705,4.13v.032a2.434,2.434,0,1,0-1.705-4.163Z" transform="translate(0 0)"/>
</svg>
