<svg xmlns="http://www.w3.org/2000/svg" width="54.246" height="60" viewBox="0 0 54.246 60">
  <path d="M15.515,59.882a2,2,0,0,1-1.2-1.206c-.419-.739-.828-1.5-1.227-2.234l-.309-.579-.759-1.356c-.08-.149-.16-.279-.259-.449l-3.61.749H8c-.319.079-.668.159-1,.259a2.144,2.144,0,0,1-2.344-.648,2.314,2.314,0,0,1-.139-2.424v-.07L5.93,48.682a6.012,6.012,0,0,0,.3-.8l.059-.1L2.18,44.792c-.3-.219-.649-.469-1-.688A2.085,2.085,0,0,1,.026,41.9a2.347,2.347,0,0,1,.249-.669A2.205,2.205,0,0,1,2.19,40.054l3.989-.908,1.346-.3L8,38.718l.618,2.693L5.75,42.06l-1.805.408h-.16l.23.119.818.618c.369.269.708.529,1.067.778.658.469,1.506,1.067,2.214,1.546,1.257.858,1.4,1.337.818,2.723-.21.508-.429,1.017-.638,1.505L8,50.437,7.446,51.7l-.1.17a.4.4,0,0,0,.16,0l.329-.03c.568-.12,1.156-.24,1.765-.4l2.065-.459c1.187-.259,1.606-.08,2.185,1l.568,1c.429.778.857,1.576,1.306,2.4l.449.828,2.733-5.156,2.354,1.267L18.686,57.1l.11.23-.688,1.286c-.039.09-.08.18-.129.269a1.993,1.993,0,0,1-2.464,1ZM33.936,57.11h-.518a10.742,10.742,0,0,1-10.1-10.871,1.14,1.14,0,0,1,0-.259L26,30.819c-3.641,1.367-4.987,4.209-4.658,5.985l.1.548c1,5.985,1.606,9.246-1.835,10.642a4.141,4.141,0,0,1-4.519-1c-3.381-3.2-5.086-11.909-3.819-15.839s5.037-7.79,9.7-10.143a16.34,16.34,0,0,1,7.66-1.7c3.421.07,9.595.16,12.487,0,.3,0,7.55-.459,11.131,2.913a6.262,6.262,0,0,1,2,4.777v2.583c-.06,18.361-.08,25.234-4.987,26.291a4.47,4.47,0,0,1-3.76-.8,7.3,7.3,0,0,1-2.254-3.4,10.672,10.672,0,0,1-9.293,5.425ZM28.919,27.765a1.485,1.485,0,0,1,.409,1.309l-3,17.284a7.759,7.759,0,0,0,7.271,7.77,7.638,7.638,0,0,0,7.978-7.64.949.949,0,0,1,0-.16l1.875-17.315a1.5,1.5,0,0,1,2.993.32L44.908,43.665v.23c.329,6.592,1.775,8.378,2.373,8.836a1.447,1.447,0,0,0,1.327.25c2.553-.548,2.583-8.657,2.633-23.388V27a3.378,3.378,0,0,0-1.077-2.593c-2.194-2.065-7.181-2.224-8.916-2.125-2.993.17-9.256.08-12.727,0a13.412,13.412,0,0,0-6.264,1.387c-3.989,1.995-7.2,5.306-8.2,8.407-1,2.923.558,10.393,3.072,12.737.738.688,1.167.519,1.376.439,1.1-.449,1-1.805,0-7.38l-.1-.548c-.588-3.4,1.885-8.757,9.206-9.974a1.484,1.484,0,0,1,1.306.417ZM27.584,9.209a9.206,9.206,0,1,1,9.215,9.2h-.01A9.2,9.2,0,0,1,27.584,9.209Zm2.972.02A6.234,6.234,0,1,0,36.8,3h-.01A6.233,6.233,0,0,0,30.556,9.229Z" transform="translate(0)"/>
</svg>
