<svg xmlns="http://www.w3.org/2000/svg" width="54.742" height="60" viewBox="0 0 54.742 60">
  <path d="M41.777,60a6.1,6.1,0,0,1-3.588-1.283c-2.175-1.533-4.273-3.11-6.35-4.632l-.457-.326-3.11-2.229-.75-.544-.109-.065-.924.7c-.457.348-.913.685-1.337,1.022l-1.3.989-.555.391a34.926,34.926,0,0,1-6.524,4.034,11.961,11.961,0,0,1-7.4,1.087,10.8,10.8,0,0,1-8.275-7.753A28.8,28.8,0,0,1,.164,40.406,49.562,49.562,0,0,1,2.828,27.6a18.485,18.485,0,0,1,3.7-6.644,10.2,10.2,0,0,1,13.722-1.5,7.5,7.5,0,0,1,2.958,7.47c-.3,1.794-.674,3.588-1.022,5.339l-.109.511-.522,2.577a3.523,3.523,0,0,1-.13.674l.989.13a9.982,9.982,0,0,0,5.132-.272,20.91,20.91,0,0,1,2.642-.772l.718-.174a6.361,6.361,0,0,1,5.926,1.229c2.012,1.653,4.067,3.262,6.057,4.915l2.947,2.414,6.611,5.35a5.622,5.622,0,0,1,1.207,7.851,5.97,5.97,0,0,1-1.457,1.392h0a5.219,5.219,0,0,1-5.437.489l-.544-.25L46,58.478a10.427,10.427,0,0,1-.924.609A6.731,6.731,0,0,1,41.777,60ZM30.653,48.126l-1.087.946,2.751,2.033.468.337c2.512,1.848,4.882,3.588,7.34,5.328a2.968,2.968,0,0,0,3.49-.228ZM14.234,20.159a7.611,7.611,0,0,0-4.6,1.588A12.157,12.157,0,0,0,5.807,27.3,46.2,46.2,0,0,0,2.752,44.255a20.573,20.573,0,0,0,1.337,7.416,8.525,8.525,0,0,0,7.35,4.871,6.448,6.448,0,0,0,1.294-.13,15.777,15.777,0,0,0,4.958-1.968,83.137,83.137,0,0,0,9.862-7.34l-.652-.065-2.849-.283-3.175-.315H20.29l-5.893-.6a4.676,4.676,0,0,1-4.61-4.719,52.562,52.562,0,0,1,.75-10.613l.141-1.087a1.555,1.555,0,0,1,.565-1.087,1.359,1.359,0,0,1,.75-.239,1.163,1.163,0,0,1,.272,0c.576.087,1.229.468,1.087,1.707v.3q-.065.587-.13,1.142c-.054.391-.1.772-.141,1.153-.2,1.6-.413,3.469-.565,5.317a19.572,19.572,0,0,0,.065,3.186v.413A1.566,1.566,0,0,0,13.9,42.787a9.786,9.786,0,0,0,1.37.261c2.24.239,4.349.468,6.524.663l1.566.174,5.991.576a2.012,2.012,0,0,0,2.457-1.435h0a2.7,2.7,0,0,0-.2-2.327,2.838,2.838,0,0,0-2.175-1.087h-.555l-8.96-.924h0a1.859,1.859,0,0,1-1.348-.631,1.925,1.925,0,0,1-.174-1.511.652.652,0,0,1,.076-.348v-.25c.228-1.087.413-2.033.6-2.9l.054-.294c.435-2.175.881-4.349,1.24-6.524a4.665,4.665,0,0,0-2.4-5.034,7.122,7.122,0,0,0-3.7-1.022h0ZM32.849,37.448a2.816,2.816,0,0,0-.848.13A5.991,5.991,0,0,1,34.8,41.722a5.915,5.915,0,0,1-1.859,4.632l5.219,3.382,9.253,6.046a2.512,2.512,0,0,0,2.566.413,3.186,3.186,0,0,0,1.946-2.468,2.838,2.838,0,0,0-1.087-2.631l-7.872-6.3-3.61-2.925h0c-1.457-1.185-2.968-2.4-4.469-3.6a2.936,2.936,0,0,0-2.033-.826Zm12.124,2.61a2.229,2.229,0,0,1-.87-.185,1.631,1.631,0,0,1-.674-.707.25.25,0,0,0-.065-.13l-.054-.076-.9-1.3-.5-.685c-.315-.457-.631-.924-.979-1.392a1.816,1.816,0,0,1-.087-2.175c.391-.652.761-1.327,1.185-2.109l.207-.381H39.8c-1.762,0-1.968-.174-2.283-1.848-.163-.924-.348-1.848-.533-2.773l-.12-.685-2.175,2.849c-.522.707-.913,1.087-1.457,1.087a3.545,3.545,0,0,1-1.327-.4l-2.175-1.087.054.337.1.6c.1.565.2,1.087.294,1.631.294,1.609.174,1.848-1.283,2.577L25.553,34.9a3.6,3.6,0,0,1-.729.315,1.337,1.337,0,0,1-1.087-2.425c.424-.239.859-.457,1.283-.674h0l2.468-1.261-.12-.663c-.174-.87-.3-1.6-.424-2.294v-.163a4.762,4.762,0,0,1-.109-.87,2.1,2.1,0,0,1,.816-1.859,2.033,2.033,0,0,1,1.946-.13c.761.3,1.5.652,2.283,1.022l.152.065.8.37,2.425-3.262.272-.359a2.024,2.024,0,0,1,3.827.989c.13.794.272,1.566.424,2.392l.2,1.087.185,1.022h3.327a2.055,2.055,0,0,1,1.772,1.022,2.088,2.088,0,0,1-.152,2.175l-1.62,2.947.522.761c.489.707,1,1.446,1.544,2.273a9.133,9.133,0,0,1,.544.859,1.25,1.25,0,0,1,.12,1.022,1.163,1.163,0,0,1-.62.685,1.936,1.936,0,0,1-.609.109ZM25.336,20.072h-.185A10.025,10.025,0,0,1,15.278,9.906h0A10.069,10.069,0,0,1,25.3,0h.087a9.906,9.906,0,0,1,7.057,2.99,10.167,10.167,0,0,1,2.86,7.307,9.786,9.786,0,0,1-3.012,6.926,9.917,9.917,0,0,1-6.959,2.849Zm-.13-17.289a7.22,7.22,0,0,0-7.187,7.09V9.96a7.329,7.329,0,0,0,7.133,7.372h.391a7.285,7.285,0,0,0,.283-14.56Z" transform="translate(0.006)"/>
</svg>
