<svg xmlns="http://www.w3.org/2000/svg" width="46.875" height="60" viewBox="0 0 46.875 60">
  <path d="M.349,59.441a1.157,1.157,0,0,1,.389-1.6c3.814-2.326,5.112-6.081,5.811-8.077.379-1.118.579-1.707,1.2-2,1.4-.649,2.866.129,4.284.889a11.816,11.816,0,0,0,2.087.938c2.815.809,4.114.809,5.441.559a71.456,71.456,0,0,0-6.16-4.922,4.063,4.063,0,0,1-2.786.539,4.723,4.723,0,0,1-.589-.14c-.988.34-2.346.809-4.523,1.438a2.615,2.615,0,0,0-1.8,1.258l-.209.279a1.431,1.431,0,0,1-1.308.589A2.636,2.636,0,0,1,.368,47.809a4.164,4.164,0,0,1,.219-3A7.06,7.06,0,0,1,4.7,40.729a1.966,1.966,0,0,0,.549-.359L.758,34.11a4.1,4.1,0,0,1-.25-4.354L5.83,20.172c1.427-2.836,4.942-4.094,7.228-4.633a9.845,9.845,0,1,1,16.165-.15c2.835.32,6.38,1.328,7.308,4.993,1,3.894,2.885,10.533,3.385,12.181a4.531,4.531,0,0,1-.5,4.353l-6.38,8.866c.32.26.619.529.908.809l6.081-.689a14.991,14.991,0,0,0,4.893-2.666,1.155,1.155,0,0,1,.809-.329,1.167,1.167,0,0,1,.819.35,1.169,1.169,0,0,1-.021,1.647,17.465,17.465,0,0,1-5.88,3.335.919.919,0,0,1-.289,0l-6.739.779a1.189,1.189,0,0,1-1-.4,7.594,7.594,0,0,0-1-1,4.184,4.184,0,0,1-5.112.27,4.051,4.051,0,0,1-1.688-2.995l-.9-.32c-.649-.26-1.209-.449-1.707-.609-1.947-.629-3.475-1.128-6.38-4.283A13.13,13.13,0,0,1,14.246,37.4a6.1,6.1,0,0,0-1.387-1.856,4.462,4.462,0,0,0-.709.369l2.466,3.425a4.114,4.114,0,0,1,.359,4.153A85.886,85.886,0,0,1,26.537,53.569,4.33,4.33,0,0,0,29.014,55.1c1.887.49,3.224.919,4.223,1.258,2.786.918,4.063,1.338,10.983,1.278a1.169,1.169,0,0,1,1.168,1.148,1.158,1.158,0,0,1-1.158,1.178H42.841c-6.48,0-7.707-.429-10.164-1.288-1.018-.33-2.276-.809-4.273-1.328a6.593,6.593,0,0,1-3.575-2.176c-1.148-1.1-2.147-2.1-3.145-3.095l-.5.12c-1.987.469-3.554.838-7.678-.359a13.078,13.078,0,0,1-2.536-1.119,7.768,7.768,0,0,0-2-.848c-.07.18-.15.41-.23.629C7.987,52.612,6.469,57.025,2,59.78a1.157,1.157,0,0,1-.649.22H1.334A1.148,1.148,0,0,1,.349,59.441ZM30.79,25.254a1.128,1.128,0,0,1,.549.709l2.227,8.327a1.145,1.145,0,0,1-.18,1l-5.9,8.227A1.757,1.757,0,0,0,29.2,46.281a1.712,1.712,0,0,0,1.147-.709l7.189-9.984c.4-.549.539-1.078.17-2.306-.518-1.707-2.416-8.288-3.415-12.281-.739-2.916-4.562-3.265-6.839-3.475h-.19a9.834,9.834,0,0,1-12.291,0c-2.636.359-5.99,1.537-7.068,3.735L2.545,30.925a1.759,1.759,0,0,0,.129,1.828l7.189,9.984a1.733,1.733,0,0,0,1.148.719,1.827,1.827,0,0,0,1.318-.31,1.766,1.766,0,0,0,.4-2.466l-5.9-8.227a1.155,1.155,0,0,1,0-1.4l4.323-5.491a1.158,1.158,0,0,1,2,.26,13.622,13.622,0,0,1,.689,4.992,1.168,1.168,0,0,1-1.168,1.158,1.13,1.13,0,0,1-.829-.35,1.151,1.151,0,0,1-.339-.819c0-.639-.021-1.238-.07-1.8L9.2,31.824l1.608,2.117a4.191,4.191,0,0,1,2.246-.809c1.537.18,2.387,1.608,3.205,3a11.127,11.127,0,0,0,1.3,1.887c2.5,2.716,3.645,3.086,5.392,3.655.51.16,1.139.369,1.857.659l.509.19a3.105,3.105,0,0,1,.27-.419L31.17,34.32l-2.087-7.8a1.178,1.178,0,0,1,.829-1.428,1.113,1.113,0,0,1,.309,0h0A1.075,1.075,0,0,1,30.79,25.254ZM5.53,42.907a4.669,4.669,0,0,0-2.915,3.045,5.3,5.3,0,0,1,2.2-1.148c1.1-.3,2-.589,3-.9L6.618,42.257A4.833,4.833,0,0,1,5.53,42.907ZM13.568,9.818A7.518,7.518,0,1,0,21.085,2.3,7.518,7.518,0,0,0,13.568,9.818Zm8.4,50.131H9.5a1.168,1.168,0,0,1,0-2.326H21.964a1.168,1.168,0,1,1,.109,2.332C22.037,59.955,22,59.953,21.964,59.949Z" transform="translate(0 0)"/>
</svg>
