<svg xmlns="http://www.w3.org/2000/svg" width="59.213" height="60" viewBox="0 0 59.213 60">
  <path d="M.266,59.311A1.454,1.454,0,0,1,1.634,57.1H53.828a2.4,2.4,0,1,0,.132-4.687L10.287,50.187A1.446,1.446,0,0,1,9.4,47.664a1.511,1.511,0,0,1,1.045-.372l43.673,2.223a5.242,5.242,0,0,1-.288,10.48H1.634Q1.568,60,1.5,60A1.453,1.453,0,0,1,.266,59.311ZM39.394,47.087V36.427l-.913-.553L36.246,46.691a1.464,1.464,0,0,1-1.418,1.2h-.3a1.435,1.435,0,0,1-.913-.625,1.462,1.462,0,0,1-.216-1.094l2.4-11.8L31.51,31.8l-.781.493-3,11.693a1.454,1.454,0,0,1-1.406,1.093h-.1L10.936,43.963c-2.68-.2-5.408-.3-8.1-.3H1.587a1.454,1.454,0,1,1,0-2.9h1.2c2.763,0,5.552.1,8.3.3l11.14.818L22.57,37.2a5.48,5.48,0,0,1-6.586-7.03l4.181-13.039a4.46,4.46,0,0,1,2.908-2.776l3.689-.962a8.028,8.028,0,1,1,11.874.084l3.425.769a4.482,4.482,0,0,1,3.221,3.076L50.09,32.486a5.216,5.216,0,0,1-4.928,6.645,5.129,5.129,0,0,1-2.86-.865v8.822a1.454,1.454,0,0,1-2.908,0ZM25.6,35.55l-.481,6.55h.061L27.1,34.588ZM32,27.005a1.382,1.382,0,0,0,.264,1.874l11.465,6.863a2.332,2.332,0,0,0,3.606-2.5L42.531,18.076a1.576,1.576,0,0,0-1.082-1.105l-5.937-1.2a2.172,2.172,0,0,1-.24-.108,7.9,7.9,0,0,1-2.5.433,8.042,8.042,0,0,1-2.8-.517L23.9,17.139a1.583,1.583,0,0,0-.962.925L18.784,31.019a2.6,2.6,0,0,0,3.461,3.233l7.006-4.47a4.234,4.234,0,0,1-.408-2.4l-5.36,2.56a1.443,1.443,0,0,1-1.935-.685,1.42,1.42,0,0,1,0-1.105,1.458,1.458,0,0,1,.745-.83L29.96,23.6a5.322,5.322,0,0,1,2.283-2.668A5.456,5.456,0,0,1,40.3,26.862v.083l3.461,1.935a1.516,1.516,0,0,1-.408,2.7,1.414,1.414,0,0,1-1.106-.132L33.83,26.717A1.358,1.358,0,0,0,32,27.005Zm3.424-2.716,2.1,1.2a2.548,2.548,0,0,0-3.809-1.947l-.123.09A4.068,4.068,0,0,1,35.428,24.289ZM27.653,8.054A5.119,5.119,0,1,0,32.78,2.946h-.008A5.119,5.119,0,0,0,27.653,8.054Z" transform="translate(0 0)"/>
</svg>
