<svg xmlns="http://www.w3.org/2000/svg" width="57.349" height="60" viewBox="0 0 57.349 60">
  <path d="M52.383,49.753l-11.61-.591V39.988l.143.1a5.148,5.148,0,0,0,3.119,1.019,5.239,5.239,0,0,0,5.035-6.687l-4.393-15.29a4.077,4.077,0,0,0-2.885-2.824l-5.82-1.529v-.968A7.523,7.523,0,1,0,27.6,13.74v.866l-6.055,1.7a4.077,4.077,0,0,0-2.66,2.508l-2.579,7.278h-.173a4.414,4.414,0,0,0-3.262,2.518L6.513,42.628H1.2a1.2,1.2,0,1,0,0,2.406H7.319a1.2,1.2,0,0,0,1.091-.7l6.666-14.688a2.039,2.039,0,0,1,1.447-1.1L29.071,26.39,29,26.472a3.9,3.9,0,0,0-.153,4.312l-2.864.673-.061-.2A2.722,2.722,0,0,0,24.6,29.56a2.671,2.671,0,0,0-2.09-.224l-3.5,1.019a2.752,2.752,0,0,0-1.876,3.425l.428,1.478a2.783,2.783,0,0,0,2.65,1.977,2.5,2.5,0,0,0,.775-.112l3.5-1.019A2.742,2.742,0,0,0,26.5,33.77l4.546-1.07,7.339,5.453V49.04L18.256,48.02l2.355-8.695a1.244,1.244,0,0,0-.112-.917,1.2,1.2,0,0,0-2.253.326l-2.487,9.174h0l-5.423-.275a1.254,1.254,0,0,0-.866.306,1.223,1.223,0,0,0-.4.836,1.2,1.2,0,0,0,.316.866,1.172,1.172,0,0,0,.826.387l42.047,2.141a2.722,2.722,0,0,1-.143,5.433H1.865a1.2,1.2,0,1,0,0,2.4H52.118A5.1,5.1,0,1,0,52.383,49.8ZM32,30.478a1.1,1.1,0,0,0-.112-.112h-.061l-.591-.438a1.509,1.509,0,0,1,1.733-2.467l8.155,5.423a1.219,1.219,0,1,0,1.335-2.039L39.9,29.153a4.291,4.291,0,0,0-4.587-6.35L19,25.616l2.151-6.024a1.692,1.692,0,0,1,1.08-1.019l6.891-1.906a1.213,1.213,0,0,0,.887-1.152v-.7a7.8,7.8,0,0,0,1.835.234,7.971,7.971,0,0,0,1.723-.2V15.7a1.2,1.2,0,0,0,.907,1.162l6.677,1.723a1.692,1.692,0,0,1,1.193,1.162l4.393,15.29a2.834,2.834,0,0,1-4.424,3.058Zm3.782-5.3a1.886,1.886,0,0,1,2.11,2.65l-3.547-2.344h0ZM34.31,12.018h-.082a4.929,4.929,0,1,1,.082-.041ZM23.618,31.874l.438,1.478a.428.428,0,0,1,0,.275.4.4,0,0,1-.214.173l-3.5,1.019a.326.326,0,0,1-.275,0,.367.367,0,0,1-.173-.214l-.428-1.468a.326.326,0,0,1,0-.275.367.367,0,0,1,.214-.173l3.5-1.019h.1a.4.4,0,0,1,.336.255Z" transform="translate(0 -0.002)"/>
</svg>
