<svg xmlns="http://www.w3.org/2000/svg" width="75.955" height="60" viewBox="0 0 75.955 60">
  <path d="M7.3,58.621a4.85,4.85,0,0,1-1.463-3.474V48.137A12.581,12.581,0,0,1,3.5,40.862V37.138a9.787,9.787,0,0,1,2.329-6.208l2.364-2.8H4.209A4.221,4.221,0,0,1,0,23.919V22.476a3.844,3.844,0,0,1,3.856-3.868H8.708a3.19,3.19,0,0,1,3.129,2.425l.109.387a.22.22,0,0,0,.06.109h.121l.218-.461A19.075,19.075,0,0,1,29.166,10.894h6.779a1.407,1.407,0,0,1,0,2.8H29.118a16.286,16.286,0,0,0-14.334,8.659l-.631,1.213a1.4,1.4,0,0,1-1.213.764H11.9A2.848,2.848,0,0,1,9.23,22.148l-.1-.387a.424.424,0,0,0-.437-.327H3.844A1.042,1.042,0,0,0,2.8,22.476v1.431a1.418,1.418,0,0,0,1.407,1.419h6.67a1.421,1.421,0,0,1,1.213.667,1.383,1.383,0,0,1,0,1.359l-.534,1.067a1.265,1.265,0,0,1-.182.266l-3.384,4a7.1,7.1,0,0,0-1.637,4.45V40.9a10.067,10.067,0,0,0,5.288,8.768l1.322.776a9.118,9.118,0,0,0,4.233,1.3h42.01a8.856,8.856,0,0,0,4.184-1.3l1.213-.776a10,10,0,0,0,5.154-8.8V37.138a7.057,7.057,0,0,0-1.528-4.523L64.992,28.7a.9.9,0,0,1-.182-.278l-.534-1.067a1.423,1.423,0,0,1,0-1.347,1.383,1.383,0,0,1,1.213-.655H72.28a.885.885,0,0,0,.885-.885V22.039a.593.593,0,0,0-.594-.594H67.721c-.109,0-.425.024-.425.218l-.1.485a2.827,2.827,0,0,1-2.681,2.195H63.391a1.392,1.392,0,0,1-1.213-.764l-.643-1.213A17.814,17.814,0,0,0,60,19.941a1.4,1.4,0,1,1,2.219-1.7,20.525,20.525,0,0,1,1.8,2.8l.266.522h.23l.133-.5a3.142,3.142,0,0,1,3.141-2.425h4.852a3.383,3.383,0,0,1,3.322,3.42v2.426a3.638,3.638,0,0,1-3.638,3.638H68.084l2.256,2.717a9.894,9.894,0,0,1,2.183,6.293v3.748A13.028,13.028,0,0,1,70.1,48.453v6.67a4.573,4.573,0,0,1-4.608,4.852H59.91a4.719,4.719,0,0,1-4.851-4.852v-.606H21.006v.63A4.561,4.561,0,0,1,16.4,60H10.806l-.122,0A4.851,4.851,0,0,1,7.3,58.621Zm50.552-3.474a1.964,1.964,0,0,0,2.026,2.026h5.615a1.783,1.783,0,0,0,1.758-2.05v-3.88a10.186,10.186,0,0,1-1.3.836l-1.213.776a11.643,11.643,0,0,1-5.567,1.662H57.848ZM8.623,55.123a2.087,2.087,0,0,0,2.183,2.026h5.567a1.783,1.783,0,0,0,1.819-2.026v-.606H17.2a11.807,11.807,0,0,1-5.6-1.625h-.06l-1.322-.8a13.641,13.641,0,0,1-1.589-1.066Zm18.058-5.457a42.6,42.6,0,0,1-5.167-.836A2.765,2.765,0,0,1,19.041,46.4a2.618,2.618,0,0,1,2.086-2.582h.145A63.5,63.5,0,0,1,29.506,42.8H46.922a62.213,62.213,0,0,1,8.247,1.043H55.3a2.608,2.608,0,0,1,2.086,2.534A2.728,2.728,0,0,1,54.962,48.8a37.44,37.44,0,0,1-5.118.861Zm0-2.85H49.845a25.373,25.373,0,0,0,3.372-.546,47.853,47.853,0,0,0-6.247-.728H29.506a50.25,50.25,0,0,0-6.415.74h-.049A27.825,27.825,0,0,0,26.681,46.816Zm-11.51-3.529-4.038-1.213a5.992,5.992,0,0,1-3.771-3.165,1.353,1.353,0,0,1,0-1.067,1.378,1.378,0,0,1,.7-.8,1.414,1.414,0,0,1,1.067-.061,1.37,1.37,0,0,1,.8.716,3.251,3.251,0,0,0,2.026,1.7l4.05,1.153a.267.267,0,0,0,.29-.1l.692-.873a.236.236,0,0,0,0-.206.269.269,0,0,0-.109-.182L10.393,34.6a1.4,1.4,0,1,1,1.625-2.28l6.416,4.657a3.119,3.119,0,0,1,.643,4.342l-.643.861A3.081,3.081,0,0,1,16.009,43.4,3.331,3.331,0,0,1,15.172,43.287Zm42.81-1.177-.643-.861a3.119,3.119,0,0,1,.643-4.342l6.489-4.584A1.4,1.4,0,0,1,66.652,33.7a1.38,1.38,0,0,1-.569.9l-6.44,4.524a.214.214,0,0,0-.109.169.229.229,0,0,0,0,.206l.642.873a.281.281,0,0,0,.291.1l4.05-1.153a3.251,3.251,0,0,0,2.026-1.7,1.417,1.417,0,0,1,1.868-.655,1.442,1.442,0,0,1,.715.8,1.356,1.356,0,0,1-.072,1.067A6.067,6.067,0,0,1,65.294,42l-4.05,1.213a3.279,3.279,0,0,1-.836.109A3.108,3.108,0,0,1,57.981,42.11Zm-12.1-11.522a1.431,1.431,0,0,1-1.006-.423L41.73,26.854l-6.269,2.425a1.37,1.37,0,0,1-1.5-.339,1.406,1.406,0,0,1-.29-1.455l2.255-5.178-2.134-.158a1.394,1.394,0,0,1-.667-2.558l3.37-2.22-1.37-.449a1.406,1.406,0,0,1-.813-.7,1.356,1.356,0,0,1-.072-1.067,1.407,1.407,0,0,1,1.77-.885l4.1,1.37a1.4,1.4,0,0,1,.327,2.426L38.093,19.6a1.395,1.395,0,0,1,1.213,1.953L37.6,25.484l3.965-1.54a1.394,1.394,0,0,1,1.516.339l2.62,2.7L47.759,24a1.394,1.394,0,0,1,1.794-.449l4.427,2.3-1.832-5.154a1.356,1.356,0,0,1,.23-1.419,1.384,1.384,0,0,1,1.407-.389l5.773,1.662a1.448,1.448,0,0,1,.836.679,1.406,1.406,0,0,1-1.612,2.013l-3.153-.909,2.122,5.93a1.407,1.407,0,0,1-1.965,1.71l-6.44-3.36-2.316,3.36a1.4,1.4,0,0,1-1.03.606ZM30.9,29.219c-8.708-.522-13.11-1.989-14.249-2.425a1.465,1.465,0,0,1-.74-.583A1.4,1.4,0,0,1,15.766,25a14.364,14.364,0,0,1,4.851-7,1.419,1.419,0,0,1,1.953.254,1.4,1.4,0,0,1-.242,1.953,11.575,11.575,0,0,0-3.384,4.354,56.473,56.473,0,0,0,12.127,1.868,1.381,1.381,0,0,1,.958.474,1.358,1.358,0,0,1,.351,1.006,1.407,1.407,0,0,1-1.395,1.31ZM54.5,17.312a1.39,1.39,0,0,1-.276-1.179l.764-3.566a1.37,1.37,0,0,1,1.54-1.054l3.541.461a1.37,1.37,0,0,1,1.019.655,1.42,1.42,0,0,1,.121,1.213l-.873,2.353a1.385,1.385,0,0,1-1.006.885l-3.445.752h-.3A1.4,1.4,0,0,1,54.5,17.312Zm2.9-2.695.57-.121-.57-.073Zm-13.062.437-4.851-1.5a1.394,1.394,0,0,1-.958-1.673L39.6,6.965a1.383,1.383,0,0,1,.74-.958,1.421,1.421,0,0,1,1.213,0L44.7,7.558a1.4,1.4,0,0,1,.788,1.091l.643,4.852a1.4,1.4,0,0,1-.486,1.213,1.378,1.378,0,0,1-.9.339,1.527,1.527,0,0,1-.206.014A1.546,1.546,0,0,1,44.338,15.054Zm-2.813-3.8,1.6.486-.254-1.989-.922-.437Zm10.211,2.9a14.905,14.905,0,0,0-2.632-.413,1.4,1.4,0,0,1-1.3-1.528,1.37,1.37,0,0,1,1.492-1.3,18.65,18.65,0,0,1,3.1.486,1.395,1.395,0,0,1-.327,2.753,1.6,1.6,0,0,1-.339,0Zm10.115-2.51a1.382,1.382,0,0,1,.485-1.965l.861-.534a1.417,1.417,0,0,1,1.468,2.425l-.873.534a1.407,1.407,0,0,1-.728.206h-.042A1.36,1.36,0,0,1,61.851,11.646Zm-7.787-3.59a1.346,1.346,0,0,1-.8-.643,1.421,1.421,0,0,1-.085-1.067l.462-1.358a1.395,1.395,0,0,1,1.77-.885,1.335,1.335,0,0,1,.8.691,1.418,1.418,0,0,1,.036,1.055l-.461,1.37a1.359,1.359,0,0,1-1.722.837ZM37.935,4.018a1.38,1.38,0,0,1-1.213-.776l-.68-1.213A1.356,1.356,0,0,1,35.971.962a1.4,1.4,0,0,1,.7-.812A1.357,1.357,0,0,1,37.741.076a1.378,1.378,0,0,1,.8.7l.643,1.213a1.408,1.408,0,0,1-.631,1.881,1.367,1.367,0,0,1-.611.145ZM55.787,3.3a1.418,1.418,0,0,1-.921-1.77l.145-.4A1.385,1.385,0,0,1,55.7.319,1.361,1.361,0,0,1,56.769.246a1.394,1.394,0,0,1,.885,1.71l-.133.413a1.382,1.382,0,0,1-1.3,1.006h-.009A1.3,1.3,0,0,1,55.787,3.3Z" transform="translate(0 0)"/>
</svg>
