<svg xmlns="http://www.w3.org/2000/svg" width="67.242" height="60" viewBox="0 0 67.242 60">
  <path d="M59.438,60a1.61,1.61,0,0,1-1.576-1.339,23.519,23.519,0,0,0-4.685-10.527,1.739,1.739,0,0,1-.284-.624A62.074,62.074,0,0,0,39.131,32.9a1.5,1.5,0,0,1,1.713-2.462A63.738,63.738,0,0,1,55.309,45.809a1.7,1.7,0,0,1,.4.352,26.8,26.8,0,0,1,5.263,12A1.611,1.611,0,0,1,59.71,60ZM20.425,57.856a1.57,1.57,0,0,1,.453-1.134c.681-.692,6.625-6.943,5.082-12.569l-.067-.238a8.644,8.644,0,0,0-1.815-3.948l-.341.249c-.862.613-1.679,1.135-2.5,1.815a9.619,9.619,0,0,1-5.5,2.405,4.09,4.09,0,0,1-.748-.068,3.958,3.958,0,0,1-2.677-1.838l-.1-.171-.443-.986-.794-.2-.294-.113a2.941,2.941,0,0,1-1.6-1.872,2.734,2.734,0,0,1-1.6-1.588l-.1-.284H7.311A6.569,6.569,0,0,1,4.542,36.7a2.19,2.19,0,0,1-1.134-2.076,14.417,14.417,0,0,1,.386-1.975A23.765,23.765,0,0,0,4.362,29.5a4.782,4.782,0,0,0-1.078-2.744A22.327,22.327,0,0,1,1.377,23.2,19.181,19.181,0,0,1,.062,14.521a1.644,1.644,0,0,1,.487-.987,17.931,17.931,0,0,1,3.857-7.7A18.8,18.8,0,0,1,5.882,4.289a16.013,16.013,0,0,1,5.3-3.279A16.6,16.6,0,0,1,17.022,0,23.607,23.607,0,0,1,32.439,6.365l.113.1a19.272,19.272,0,0,1,2.824,3.267A21.984,21.984,0,0,1,38.337,27.1a1.516,1.516,0,0,1-.533.839l.261.737a1.611,1.611,0,0,1-.976,2.042,1.794,1.794,0,0,1-.544.091,1.6,1.6,0,0,1-1.509-1.066l-.567-1.589c-.137-.385-.25-.748-.352-1.043a.312.312,0,0,0-.091-.273,1.076,1.076,0,0,1-.113-.26,1.5,1.5,0,0,1-.056-.806,1.135,1.135,0,0,1,.487-.874,1.47,1.47,0,0,1,.579-.351,1.389,1.389,0,0,1,.646-.057,18.433,18.433,0,0,0-2.848-12.967A16.284,16.284,0,0,0,30.362,8.8l-.1-.091A20.2,20.2,0,0,0,17.022,3.188a12.9,12.9,0,0,0-8.962,3.4c-.442.454-.85.874-1.248,1.35A14.637,14.637,0,0,0,4.542,11.5a15.13,15.13,0,0,0-.919,2.779,1.677,1.677,0,0,1-.42.761,15.55,15.55,0,0,0,1.067,6.965,21.02,21.02,0,0,0,1.656,3.074A7.427,7.427,0,0,1,7.5,29.621a22.5,22.5,0,0,1-.669,3.789v.113a2.265,2.265,0,0,1-.148.6,7.833,7.833,0,0,0,1.622,0h.137a1.622,1.622,0,0,1,1.531,1.043l.442,1.134.329.1.828-.171a1.6,1.6,0,0,1,1.884,1.2,1.573,1.573,0,0,1-.148,1.067,1.631,1.631,0,0,1,.987.85l.726,1.487a.726.726,0,0,0,.477.329h.113c.624,0,1.769-.3,3.642-1.736,1.134-.874,2.2-1.611,3.232-2.337l.715-.5h.057l.182-.1h1.2l.159.08h.091l.091.056c1.86,1.134,3.188,3.3,3.936,6.467v.136c2,6.954-3.959,13.828-5.762,15.757a1.674,1.674,0,0,1-1.146.488A1.611,1.611,0,0,1,20.425,57.856ZM64.282,42.927H62.739l-.169-.215H56.794V39.864h6.161l-.556-.839L60.776,36.6c-.238-.351-.465-.7-.692-1.055-.715-1.089-.68-1.543.171-2.552l1.475-1.7c.453-.488.873-.976,1.27-1.452l.227-.261a.926.926,0,0,0,.091-.136h-.2L61.6,29.315l-.782-.068L59.1,29.087c-1.6-.158-1.975-.533-2.144-2.144-.1-.907-.227-2-.329-2.859-.068-.453-.148-1.009-.193-1.395a9.927,9.927,0,0,1-.148-1.134V21.4l-.113.136-1.294,1.487L52.222,26.07a1.889,1.889,0,0,1-.181.249,1.623,1.623,0,0,1-2.27.182c-.453-.238-.873-.477-1.259-.7l-.737-.431L45.859,24.3h-.08l-.136,2.655H42.966V25.287a18.68,18.68,0,0,1,0-2.53,2.109,2.109,0,0,1,.964-1.7,2.334,2.334,0,0,1,2.122,0,6.889,6.889,0,0,1,.715.386l3.766,2.144.136-.148a3.706,3.706,0,0,0,.352-.386l.964-1.134c.941-1.066,1.929-2.2,2.892-3.335a2.384,2.384,0,0,1,2.02-1.135,2.455,2.455,0,0,1,.7.114,2.268,2.268,0,0,1,1.487,2.2c.034.442.091.885.147,1.282l.681,5.343h.215a4.723,4.723,0,0,0,.9.113l3.754.329h.091a2.45,2.45,0,0,1,2.2,1.351,2.269,2.269,0,0,1-.6,2.564c-.261.26-.51.544-.748.817l-.1.136L63.1,34.7c.1.171.182.319.284.466l.964,1.361.386.579c.488.748,1,1.52,1.474,2.269a2.132,2.132,0,0,1,.534,1.736A2.178,2.178,0,0,1,64.6,42.95Z" transform="translate(0 0)"/>
</svg>
