<svg xmlns="http://www.w3.org/2000/svg" width="71.693" height="60" viewBox="0 0 71.693 60">
  <path d="M58.838,60H58.57a1.587,1.587,0,0,1-1.565-1.33A23.383,23.383,0,0,0,52.389,48.2a1.643,1.643,0,0,1-.324-1.118,1.587,1.587,0,0,1,.6-1.118,1.632,1.632,0,0,1,.984-.335h.19a1.587,1.587,0,0,1,1.062.6,26.557,26.557,0,0,1,5.231,11.893,1.61,1.61,0,0,1-1.3,1.833Zm-36.952-.861a1.6,1.6,0,0,1-1.6-1.587h0a1.576,1.576,0,0,1,.458-1.118c.682-.693,6.583-6.9,5.052-12.5l-.089-.257a8.64,8.64,0,0,0-1.8-3.923l-.346.257c-.861.6-1.665,1.174-2.481,1.8a9.568,9.568,0,0,1-5.432,2.392,4.113,4.113,0,0,1-.738-.067,3.923,3.923,0,0,1-2.66-1.822l-.1-.168-.436-.984-.794-.212-.291-.1a2.94,2.94,0,0,1-1.565-1.889,2.772,2.772,0,0,1-1.6-1.576l-.1-.291h-.1a6.572,6.572,0,0,1-2.794-.6,2.235,2.235,0,0,1-1.118-2.068,17.012,17.012,0,0,1,.391-2.012,21.729,21.729,0,0,0,.581-3.174,4.672,4.672,0,0,0-1.118-2.727,22.355,22.355,0,0,1-1.9-3.532A19,19,0,0,1,.057,14.441a1.576,1.576,0,0,1,.492-1.028A17.884,17.884,0,0,1,4.383,5.8,20.991,20.991,0,0,1,5.836,4.259a15.905,15.905,0,0,1,5.276-3.253A16.688,16.688,0,0,1,16.89,0,23.472,23.472,0,0,1,32.248,6.326l.123.112A19.415,19.415,0,0,1,35.176,9.68a21.9,21.9,0,0,1,2.94,17.269,1.587,1.587,0,0,1-.525.838l.257.727a1.6,1.6,0,0,1-.961,2.034h0a1.8,1.8,0,0,1-.537.089,1.6,1.6,0,0,1-1.509-1.062l-.581-1.632c-.134-.369-.257-.738-.346-1.028a.946.946,0,0,0-.089-.268,1.118,1.118,0,0,1-.123-.257,1.632,1.632,0,0,1,0-.8,1.118,1.118,0,0,1,.492-.872,1.442,1.442,0,0,1,1.218-.4,18.275,18.275,0,0,0-2.839-12.887A15.525,15.525,0,0,0,30.18,8.752l-.089-.089A20.119,20.119,0,0,0,16.9,3.174a12.742,12.742,0,0,0-8.942,3.42,16.263,16.263,0,0,0-1.174,1.23A14.262,14.262,0,0,0,4.55,11.367a14.978,14.978,0,0,0-.917,2.75,1.565,1.565,0,0,1-.425.76,15.648,15.648,0,0,0,1.118,6.93,21.047,21.047,0,0,0,1.632,3.051A7.422,7.422,0,0,1,7.49,29.463a21.762,21.762,0,0,1-.671,3.778v.1a2.772,2.772,0,0,1-.134.6,7.746,7.746,0,0,0,1.61,0h.134a1.632,1.632,0,0,1,1.5.995l.425,1.118.335.089.827-.168a1.587,1.587,0,0,1,1.9,1.252,1.531,1.531,0,0,1-.156,1.062,1.565,1.565,0,0,1,.984.838l.727,1.509a.727.727,0,0,0,.469.324h.123c.626,0,1.766-.291,3.621-1.721,1.118-.872,2.18-1.61,3.208-2.314l.715-.5h.056l.179-.1h1.185l.156.078h.179c1.855,1.118,3.174,3.275,3.923,6.427v.134c1.978,6.93-3.89,13.77-5.745,15.648h0a1.576,1.576,0,0,1-1.151.525ZM57.71,45.223h-.179a15.112,15.112,0,0,1-3.174-.369c-2.4-.5-6.416-4.091-6.863-4.471a16.207,16.207,0,0,0-6.136-2.526,14.754,14.754,0,0,0-4.907.179l-.559.246a5.231,5.231,0,0,1-2.548.671h-.4a3.8,3.8,0,0,1-2.3-1.352,2,2,0,0,1-.458-1.833,1.7,1.7,0,0,1,.984-1.118l7.3-3.275H38.6a15.468,15.468,0,0,1,2.124-.514l-.984-1.039A2.448,2.448,0,0,1,42.2,25.808a1.755,1.755,0,0,1,.469.2l6.516,4.572a1.565,1.565,0,0,1,.648.984l4.728,1.587a10.7,10.7,0,0,0,2.235.592,2.571,2.571,0,0,0,1.956-.559l5.89-4.471a1.6,1.6,0,0,1,2.079,2.425l-.123.089-5.879,4.538a5.924,5.924,0,0,1-4.27,1.118,13.413,13.413,0,0,1-2.94-.771l-6.159-2.057c-.391-.112-.8-.235-1.319-.425h-.2a2.794,2.794,0,0,0-1.252-.112,35.074,35.074,0,0,0-4.907.905l-.324.224h0a17.615,17.615,0,0,1,2.314.156,19.918,19.918,0,0,1,7.724,3.029.682.682,0,0,1,.179.134c1.6,1.442,4.359,3.588,5.488,3.823a12.474,12.474,0,0,0,2.5.313,5.421,5.421,0,0,0,2.571-.581,13.656,13.656,0,0,1,1.23-.637,22.243,22.243,0,0,1,4.18-1.431l4.158-.984a1.576,1.576,0,0,1,1.956,1.051h0v.1a1.61,1.61,0,0,1-1.229,1.911h0l-4.225.939a19.46,19.46,0,0,0-3.6,1.241,10.339,10.339,0,0,0-.984.525,8.316,8.316,0,0,1-3.9.984Z" transform="translate(0.009 0)"/>
</svg>
