<svg xmlns="http://www.w3.org/2000/svg" width="45.912" height="60" viewBox="0 0 45.912 60">
  <path d="M24.718,59.871,0,52.127l.652-1.41c.011-.032,1.773-3.707,3.044-6.911l.192-.5C5,40.569,5.459,39.426,3.2,33.786A36.86,36.86,0,0,1,.951,25.24a21.33,21.33,0,0,1-.438-4.272A20.962,20.962,0,0,1,1.154,15.9,17.2,17.2,0,0,1,5.341,7.615,20.915,20.915,0,0,1,42.4,20.968a21.3,21.3,0,0,1-.246,3.1l3.643,9.752v-.032A1.923,1.923,0,0,1,44,36.371H41.093l-1.154,9.7a2.873,2.873,0,0,1-2.851,2.522H28.98L25.124,60ZM7.478,9.463A14.624,14.624,0,0,0,3.9,16.534a18.114,18.114,0,0,0-.577,4.434,18.653,18.653,0,0,0,.4,3.76,35.519,35.519,0,0,0,2.136,7.957c2.564,6.41,2.029,8.3.684,11.622l-.192.491c-.8,2-1.805,4.23-2.435,5.609l19.431,6.12,3.632-10.682H37.088l.64-5.2-5.992.641h-.149a1.3,1.3,0,0,1-.15-2.6l6.623-.759.545-4.337h4.122l-3.482-9.25.064-.374A18.074,18.074,0,0,0,7.478,9.463Zm18.8,31.875a5.277,5.277,0,0,1,2.714-7.1,1.3,1.3,0,0,1,.993,2.4c-.556.245-2.276,1.217-1.282,3.76a1.314,1.314,0,0,1-.737,1.687,1.493,1.493,0,0,1-.481.086A1.315,1.315,0,0,1,26.278,41.338Z" transform="translate(0 0)"/>
</svg>
