<svg xmlns="http://www.w3.org/2000/svg" width="67.357" height="60" viewBox="0 0 67.357 60">
  <path d="M3.225,58.533a3.937,3.937,0,0,1-.776-3.33l2.2-10.13a3.311,3.311,0,0,0-.189-1.994L.643,33.913a8.329,8.329,0,0,1-.63-3.685l1.1-15.663a6.016,6.016,0,0,1,3.328-5,6.24,6.24,0,0,1-.881-3.223,6.4,6.4,0,1,1,11.673,3.7,7.679,7.679,0,0,1,1.922,1.669,6.635,6.635,0,0,1,1.186,2.257L20.5,21.033l8.7,2.1a3.235,3.235,0,0,1-.892,6.351,2.842,2.842,0,0,1-.6-.063l-9.794-2.194a4.194,4.194,0,0,1-3-2.341.685.685,0,0,1-.063-.189l-.231-.986-.263,4.042L21.9,37.777a5.378,5.378,0,0,1,1.05,4.65L19.707,56.872a3.538,3.538,0,0,1-6.9-1.543l2.246-12.115-.672-2.845-3.915-3.979,2.1,5.249a5.318,5.318,0,0,1,.242,3.149L10.165,56.9A3.968,3.968,0,0,1,6.312,60H6.29A3.938,3.938,0,0,1,3.225,58.533ZM3.057,14.7,2.008,30.376a6.387,6.387,0,0,0,.472,2.781L6.3,42.364a5.253,5.253,0,0,1,.283,3.15L4.38,55.644a1.955,1.955,0,0,0,3.822.83l2.73-12.136a3.435,3.435,0,0,0-.158-1.952L6.91,32.591a.987.987,0,0,1,1.627-1.05l7.349,7.485v.063A5.312,5.312,0,0,1,17,43.614L14.762,55.685a1.55,1.55,0,0,0,3.013.725l3.233-14.487a3.38,3.38,0,0,0-.43-3.066l-7.79-10.319a.981.981,0,0,1-.2-.672l.714-11a.422.422,0,0,1,0-.2.445.445,0,0,1,.063-.167.8.8,0,0,1,.1-.147.869.869,0,0,1,.136-.146l.147-.084a1.1,1.1,0,0,1,.2-.094.633.633,0,0,1,.146,0h.147l.2.052.168.063a.865.865,0,0,1,.146.115.88.88,0,0,1,.147.137.684.684,0,0,1,.084.146,1.6,1.6,0,0,1,.094.189v.053l1.721,7.348a2.244,2.244,0,0,0,1.532,1.218l9.784,2.195a1.242,1.242,0,0,0,.567-2.415l-9.238-2.32a1.047,1.047,0,0,1-.714-.672l-2.33-7.6a4.546,4.546,0,0,0-.819-1.585,5.761,5.761,0,0,0-1.826-1.469,6.373,6.373,0,0,1-8.084-.305A4,4,0,0,0,3.057,14.7ZM9.966,1.916a4.431,4.431,0,1,0,.01,0ZM51.8,59.255a2.843,2.843,0,0,1-1.837-1.239,2.809,2.809,0,0,1-.4-2.163l1.89-9.627-5.774-5.059a.893.893,0,1,1,1.175-1.343l6.183,5.458a.892.892,0,0,1,.283.84L51.305,56.211a1.073,1.073,0,0,0,2.089.493l2.383-10.98a1.439,1.439,0,0,0-.367-1.312L50.675,39.33H43.012l4.325,5.679a.915.915,0,0,1,0,1.051l-4.6,7.023a.914.914,0,0,0-.126.735.935.935,0,0,0,1.69.283l4.441-6.855a.882.882,0,0,1,1.228-.263.809.809,0,0,1,.388.556.91.91,0,0,1-.115.682l-4.451,6.845a2.689,2.689,0,0,1-2.278,1.239,2.718,2.718,0,0,1-2.278-4.2l4.262-6.5-4.095-5.375a.881.881,0,0,1-.167-.661.868.868,0,0,1,.073-.231H27.024a.892.892,0,1,1,0-1.784h39.44a.892.892,0,0,1,0,1.784H53.111l3.59,3.853a3.266,3.266,0,0,1,.8,2.929l-2.362,10.96a2.836,2.836,0,0,1-2.772,2.226h-.041A2.594,2.594,0,0,1,51.8,59.255Zm-12.944-22.2a2.634,2.634,0,0,1-2.593-2.257l-1.123-7.464a3.287,3.287,0,0,1,1.617-3.348l4.724-2.719a.9.9,0,0,1,1.218.326.914.914,0,0,1-.325,1.228l-4.7,2.708a1.512,1.512,0,0,0-.745,1.544l1.1,7.474a.836.836,0,0,0,1,.7.86.86,0,0,0,.682-.976L38.54,27.542A.87.87,0,0,1,39,26.6l2.908-1.47a.892.892,0,1,1,.808,1.575l-2.33,1.218,1.05,6.088a2.646,2.646,0,0,1-2.1,3.044q-.12.012-.241.012T38.855,37.052ZM44,35.95a.892.892,0,1,1,0-1.785h5.007l.325-6.991a.9.9,0,0,1,.283-.62.926.926,0,0,1,.651-.231.911.911,0,0,1,.62.294.879.879,0,0,1,.231.641v.535l1.05,2.331a1.3,1.3,0,0,0,.924.713l6.792,1.3a.43.43,0,0,0,.472-.283.439.439,0,0,0,0-.325.4.4,0,0,0-.252-.2l-6.3-1.743a.93.93,0,0,1-.556-.462l-1.785-3.5c-.3-.6-.3-.6-.955-.923l-.158-.074a.693.693,0,0,1-.1-.084A4.449,4.449,0,0,1,48.3,25a4.556,4.556,0,1,1,3.433-1.638,2.968,2.968,0,0,1,1.312,1.554L54.6,27.961l5.973,1.565a2.181,2.181,0,0,1,1.312,1.05h4.578a.892.892,0,0,1,0,1.785H62.086a2.195,2.195,0,0,1-2.1,1.532,2.688,2.688,0,0,1-.409,0L52.786,32.6a3.089,3.089,0,0,1-1.869-1.175l-.126,2.708H66.464v.032a.892.892,0,0,1,0,1.785Zm1.708-16.6a2.793,2.793,0,1,0,2.6-1.711h-.021A2.792,2.792,0,0,0,45.707,19.353ZM25.271,35.918a.892.892,0,1,1,0-1.785h8.859a.892.892,0,1,1,0,1.785Z" transform="translate(0 0)"/>
</svg>
