<svg xmlns="http://www.w3.org/2000/svg" width="60" height="28.339" viewBox="0 0 60 28.339">
  <path d="M30.58,28.376h-.735a25.964,25.964,0,0,1-3.889-.381c-.474-.074-.93-.149-1.461-.2-1.479-.2-2.949-.437-4.363-.66l-.419-.074a7.7,7.7,0,0,1-4.3-2.1,5.5,5.5,0,0,1-1.628-3.461,7.042,7.042,0,0,1-6.782,5.489h0a6.977,6.977,0,0,1,0-13.954h.074a7,7,0,0,1,6.875,6.447,2.651,2.651,0,0,1,.112-.54,5.089,5.089,0,0,1,4.27-3.851l2.344-.474.363-.074,2.791-.549a.93.93,0,0,0,.856-.688c.791-2.279,1.628-4.651,2.419-6.81l.735-2.093a4.307,4.307,0,0,1,3.637-3.182h.447a6.233,6.233,0,0,1,1.014.093l.521.074a4.354,4.354,0,0,1,.93.158,1.247,1.247,0,0,0,1.461-.428,3.609,3.609,0,0,1,3.572-.93l5.786,1.33L52.47,3.221A3.656,3.656,0,0,1,55.2,5.528a3.8,3.8,0,0,1-.735,3.6L54.4,9.2a9.833,9.833,0,0,1,5.582,8.131A9.3,9.3,0,0,1,57.6,24.6a10.047,10.047,0,0,1-7.358,3.489h-.186A9.87,9.87,0,0,1,45.3,9.584l-4.363-.633c-.074.149-.158.335-.242.549l-3.079,8.428a6.214,6.214,0,0,1-2.056,2.93l-.065.056a2.149,2.149,0,0,1-.335.233l.93.065,1.3.093a5.582,5.582,0,0,1,.791.121,3.256,3.256,0,0,1,2.791,3.237,3.368,3.368,0,0,1-2.93,3.377,15.982,15.982,0,0,1-1.861.149l-2.093.065C32.9,28.255,31.631,28.32,30.58,28.376Zm7.8-26.159c-.716,0-1.181.344-1.74,1.256-2.419,4.047-4.558,7.7-6.14,10.428a2.493,2.493,0,0,1-1.861,1.321c-1.228.223-2.475.484-3.721.726l-1.861.381-4.186.847a3.182,3.182,0,0,0-2.791,2.409,3.721,3.721,0,0,0,1.107,4.009,5.935,5.935,0,0,0,3.154,1.377l2.009.316h.158c1.861.307,3.777.614,5.665.772.754,0,1.516.065,2.251.065s1.507,0,2.261-.065l1.842-.009c.474,0,.93,0,1.433-.047h.307l1.172-.047h.093a1.451,1.451,0,0,0,1.172-.6,1.163,1.163,0,0,0,.158-1.172,1.377,1.377,0,0,0-1.144-.735c-1.423-.158-2.9-.279-4.4-.363a42.16,42.16,0,0,1-8.484-1.172h-.093l-.437-.1a1.088,1.088,0,0,1-.781-.484,1.07,1.07,0,0,1-.13-.828,1,1,0,0,1,1.172-.772h.14c.93.177,1.74.354,2.512.54a28.336,28.336,0,0,0,4.651.586c.67,0,1.377.084,2.112.158a.753.753,0,0,1-.177-.167,1.023,1.023,0,0,1-.121-.772v-.214a.474.474,0,0,1,.214-.381c1.312-.847,1.768-2.177,2.242-3.591h0l.065-.2h0c.093-.288.2-.577.3-.828q.809-2.079,1.563-4.214l.13-.372c.335-.93.6-1.647.847-2.316.335-.93.549-1.209,1.219-1.209a4.177,4.177,0,0,1,.679.056c3.051.419,6.121.819,9.135,1.209l1.1.1H52a1.144,1.144,0,0,0,1.135-.93,1.237,1.237,0,0,0-.53-1.609,3.163,3.163,0,0,0-.93-.354c-3.191-.726-6.363-1.507-9.461-2.2l-2.875-.67a4.186,4.186,0,0,0-.958-.14ZM50.023,10.45a7.572,7.572,0,0,0-5.368,2.2A7.74,7.74,0,0,0,49.967,25.92h.047a7.759,7.759,0,0,0,5.5-2.251,7.638,7.638,0,0,0,2.27-5.414,7.842,7.842,0,0,0-7.675-7.805ZM7,15.306a4.772,4.772,0,0,0-4.763,4.651,4.893,4.893,0,0,0,1.4,3.5,4.651,4.651,0,0,0,3.34,1.386h.056a4.791,4.791,0,0,0,0-9.573ZM31.79,3.4a1.861,1.861,0,0,0-1.554.93,5.386,5.386,0,0,0-.521,1.1c-.372,1.033-.67,1.861-.93,2.651-.186.54-.381,1.088-.567,1.609-.13.372-.26.754-.4,1.126h0l-.633,1.8-.3.819h.093l.8-.14a1.349,1.349,0,0,0,1.061-.847c1.154-2.019,2.2-3.8,3.182-5.442l1.256-2.13.642-1.088V3.686h-.26l-1.628-.242Zm13.8,19.015h0a1.116,1.116,0,0,1-.93-.623,7.665,7.665,0,0,1-.986-3.665h0a7.312,7.312,0,0,1,.986-3.7,1.377,1.377,0,0,1,1.088-.772,1.144,1.144,0,0,1,.549.167c.326.2.781.679.223,1.656a5.163,5.163,0,0,0-.177,5.135v.074a1.07,1.07,0,0,1,.112.233,1.023,1.023,0,0,1-.437,1.414h0A1.163,1.163,0,0,1,45.586,22.413Z" transform="translate(-0.03 -0.037)"/>
</svg>
