<svg xmlns="http://www.w3.org/2000/svg" width="37.533" height="60" viewBox="0 0 37.533 60">
  <path d="M5.08,60A5.141,5.141,0,0,1,0,54.92V5.08A5.141,5.141,0,0,1,5.08,0H32.443a5.142,5.142,0,0,1,5.09,5.08V54.92A5.142,5.142,0,0,1,32.443,60ZM2.365,54.92A2.715,2.715,0,0,0,5.08,57.635H32.443a2.725,2.725,0,0,0,2.725-2.715V50.56H2.365Zm0-44.308V48.206h32.8V10.591Zm0-5.532V8.226h32.8V5.08a2.725,2.725,0,0,0-2.725-2.714H5.08A2.714,2.714,0,0,0,2.365,5.08ZM19.26,55.414H18.231a1.183,1.183,0,1,1,0-2.355H19.26a1.183,1.183,0,1,1,.11,2.36Q19.315,55.419,19.26,55.414ZM6.3,30.005A12.463,12.463,0,1,1,18.766,42.458,12.463,12.463,0,0,1,6.3,30.005Zm2.365,0a10.1,10.1,0,1,0,10.1-10.1A10.107,10.107,0,0,0,8.669,30.005Zm9.388,5.142a1.165,1.165,0,0,1-.833-.35L12.977,30.56a1.2,1.2,0,0,1,0-1.676,1.224,1.224,0,0,1,1.676,0l3.4,3.4,6.242-6.2a1.224,1.224,0,0,1,1.676,0,1.183,1.183,0,0,1,0,1.676L18.889,34.8a1.143,1.143,0,0,1-.823.35ZM15.527,6.478a1.183,1.183,0,0,1,0-2.365h6.478a1.183,1.183,0,1,1,0,2.365Z"/>
</svg>
