<svg xmlns="http://www.w3.org/2000/svg" width="56.134" height="60" viewBox="0 0 56.134 60">
  <path d="M28.777,60a4.156,4.156,0,0,1-1.978-.5,4.233,4.233,0,0,1-1.789-5.757l.052-.107,6.023-9.271c-.772-2.053-3.207-8.794-3.472-11.577a15.129,15.129,0,0,1-.137-1.757L24.3,26.24a3.768,3.768,0,0,1,.3-4.858L31.6,13.974a11.171,11.171,0,0,1,3.746-2.53,8.8,8.8,0,0,1-.359-2.518,8.9,8.9,0,1,1,12.519,8.107l3.535,7.334,4.16,4.858a3.847,3.847,0,0,1-5.842,5.006l-4.139-4.795a31.411,31.411,0,0,0,3.472,6.53c2.212,3.471,4.307,6.784,3.566,9.821v.1L48.768,56.867a4.264,4.264,0,0,1-8.233-2.222L43.5,45.533l-3.46-4.444v3.895a4.238,4.238,0,0,1-.476,1.735l-.064.1L32.513,57.788A4.233,4.233,0,0,1,28.792,60ZM39.72,36.188,46.134,44.4a1.4,1.4,0,0,1,.243,1.3L43.2,55.428a1.478,1.478,0,0,0,.17,1.058,1.429,1.429,0,0,0,.91.689,1.5,1.5,0,0,0,1.82-1.059l3.439-11.059c.476-1.852-1.291-4.645-3.175-7.609-2.7-4.254-5.757-9.091-3.577-13.652a1.386,1.386,0,0,1,2.508,0l1.524,3.175a1.5,1.5,0,0,0,.159.233l4.487,5.218a1.062,1.062,0,1,0,1.609-1.387L48.843,26.06a1.42,1.42,0,0,1-.2-.307l-3.8-7.779-.085-.137a8.439,8.439,0,0,1-.878,0,8.883,8.883,0,0,1-7.334-3.863A8.615,8.615,0,0,0,33.624,15.9l-7.006,7.408a1.057,1.057,0,0,0-.074,1.365l6.678,10.139a1,1,0,0,0,1.534-1.271,1.266,1.266,0,0,1-.1-.158l-4.879-8.467a1.386,1.386,0,0,1,.275-1.714l4.932-4.508a1.369,1.369,0,0,1,.994-.371,1.4,1.4,0,0,1,.973.454,1.427,1.427,0,0,1,.36,1,1.384,1.384,0,0,1-.455.963L32.746,24.5l4.3,7.407a3.778,3.778,0,0,1-5.651,4.963c.994,3.207,2.328,6.742,2.476,7.155a1.4,1.4,0,0,1-.127,1.259l-6.35,9.821a1.481,1.481,0,0,0,1.8,2.032,1.53,1.53,0,0,0,.878-.719l.053-.1,6.985-10.954a1.559,1.559,0,0,0,.127-.54V37.066a1.389,1.389,0,0,1,.973-1.333,1.329,1.329,0,0,1,.455-.084A1.382,1.382,0,0,1,39.72,36.188ZM37.752,8.911a6.127,6.127,0,1,0,6.134-6.124h-.009A6.127,6.127,0,0,0,37.752,8.911ZM.9,52.262A12.329,12.329,0,0,1,5.61,37.31V25.329A2.836,2.836,0,0,0,2.774,22.5H1.345a1.4,1.4,0,0,1,0-2.784H2.817a5.619,5.619,0,0,1,5.609,5.609v2.89H20.395A5.608,5.608,0,0,1,26,33.828v5.758h1.143a1.386,1.386,0,1,1,0,2.773H23.38a12.721,12.721,0,0,1,.677,1.673h3.09a1.4,1.4,0,0,1,0,2.783H24.575c.022.282.05.568.085.857A12.329,12.329,0,0,1,.9,52.262ZM12.288,38.146a9.525,9.525,0,1,0,9.525,9.525l.022-.021a9.525,9.525,0,0,0-9.524-9.5Zm9.261,1.386h1.693v-5.7a2.836,2.836,0,0,0-2.847-2.836H8.426v5.016a12.231,12.231,0,0,1,3.862-.667H12.3A12.292,12.292,0,0,1,21.549,39.532Z" transform="translate(0 0)"/>
</svg>
