<svg xmlns="http://www.w3.org/2000/svg" width="37.772" height="60" viewBox="0 0 37.772 60">
  <path d="M33.8,49.132c1.8-9.7-5.228-14.163-7.752-15.419.288-2.534.543-8.029-1.97-12.107A11.245,11.245,0,1,0,8.444,11.245a11.554,11.554,0,0,0,.192,2.034,1.587,1.587,0,0,0-.213.16L6.5,15.163A19.572,19.572,0,0,0,0,28.389L.564,56.224a1.661,1.661,0,0,0,.394,1.2,1.608,1.608,0,0,0,1.171.564v0h.106a1.661,1.661,0,0,0,1.608-1.555L3.29,28.612a16.26,16.26,0,0,1,5.4-10.989l1.118-1A11.288,11.288,0,0,0,19.7,22.5a10.9,10.9,0,0,0,1.448-.106c3.269,4.174,1.938,11.852,1.927,11.937a1.416,1.416,0,0,0,.937,1.6c.362.128,8.6,3.109,7.049,12.406l-7.88-2.194a3.088,3.088,0,0,1-2.194-2.481L18.337,28.027a1.544,1.544,0,0,0-3.035.511l2.651,15.675A6.144,6.144,0,0,0,22.362,49.1l10.3,2.875a2.481,2.481,0,0,1,1.757,2.982A2.439,2.439,0,0,1,33.277,56.5a2.47,2.47,0,0,1-1.9.288L16.314,52.976A3.045,3.045,0,0,1,14.1,50.74L9.158,30.721a1.544,1.544,0,0,0-2.992.745l4.941,20.009a6.251,6.251,0,0,0,.809,1.874,6.134,6.134,0,0,0,3.642,2.609L30.615,59.77a5.559,5.559,0,0,0,3.195-10.649ZM27.686,11.245A7.965,7.965,0,1,1,19.7,3.29a7.965,7.965,0,0,1,7.986,7.954Z" transform="translate(0 -0.006)"/>
</svg>
