<svg xmlns="http://www.w3.org/2000/svg" width="62.825" height="60" viewBox="0 0 62.825 60">
  <path d="M11.283,58.533V50.472A9.153,9.153,0,0,1,.256,43.724a9.019,9.019,0,0,1,0-4.268l2.1-8.58A10.632,10.632,0,0,1,12.7,22.738h23.9a10.729,10.729,0,0,1,9.2,5.216l6.043,10.2a13.687,13.687,0,0,1-2.205,16.817l-4.7,4.576a1.466,1.466,0,0,1-2.061-2.029l4.675-4.588A10.763,10.763,0,0,0,49.317,39.7l-6.1-10.278A7.719,7.719,0,0,0,36.6,25.649H12.784a7.72,7.72,0,0,0-7.488,5.9L3.2,40.117a6.219,6.219,0,0,0,8.932,6.936L31.111,36.9a3.132,3.132,0,0,0-2.944-5.514L12.133,39.94a1.475,1.475,0,1,1-1.411-2.591L26.81,28.77a6.065,6.065,0,0,1,5.712,10.686l-.044.011L14.217,49.226v9.307a1.467,1.467,0,1,1-2.934,0Zm26.388-.32v-8a.2.2,0,0,1,0-.077.146.146,0,0,1,0-.066v-.386l.056-.066,4.113-3.937a.418.418,0,0,0,.066-.473l-4.94-8.359a1.469,1.469,0,0,1,2.526-1.5l4.929,8.315a3.309,3.309,0,0,1-.143,4.069l-3.672,3.551v6.925a1.467,1.467,0,0,1-2.934,0ZM60.079,34.383H58.6l-.154-.2H52.934V31.45h5.845l-.518-.8q-.795-1.213-1.522-2.316c-.22-.341-.441-.683-.661-1a1.609,1.609,0,0,1,.165-2.436l1.389-1.6c.431-.463.828-.938,1.2-1.389l.209-.265a.347.347,0,0,0,.1-.121h-.2l-1.434-.121-.749-.066-1.644-.155c-1.521-.143-1.886-.507-2.051-2.04-.087-.86-.209-1.908-.309-2.713-.055-.441-.121-.992-.176-1.334a6.592,6.592,0,0,1-.144-1.048v-.264l-.11.121-1.235,1.422-2.537,2.912a1.083,1.083,0,0,1-.166.231,1.566,1.566,0,0,1-2.205.188c-.43-.231-.827-.463-1.2-.684l-.695-.408-1.842-1.014h-.065l-.11,2.5H39.7V17.456a21.776,21.776,0,0,1,0-2.415,2.073,2.073,0,0,1,.871-1.544,2.26,2.26,0,0,1,2.029,0l.673.375,3.595,2.039.121-.132c.121-.132.243-.242.342-.364l.915-1.1c.9-1.025,1.841-2.073,2.757-3.176a2.283,2.283,0,0,1,1.929-1.1,2.191,2.191,0,0,1,.706.056A2.117,2.117,0,0,1,55.063,12.2c.022.419.132.838.132,1.224l.65,5.083h.21a5.449,5.449,0,0,0,.859.122l3.573.3h.077a2.347,2.347,0,0,1,2.106,1.29,2.2,2.2,0,0,1-.574,2.447,9.774,9.774,0,0,0-.706.783l-.11.121-2.393,2.867a4.322,4.322,0,0,0,.276.442l.915,1.345.364.563c.462.75.959,1.478,1.411,2.205a2.017,2.017,0,0,1,.507,1.654,2.073,2.073,0,0,1-2.04,1.742ZM15.121,10.663A10.663,10.663,0,1,1,25.785,21.327,10.663,10.663,0,0,1,15.121,10.663Zm2.945,0a7.719,7.719,0,1,0,7.719-7.718A7.719,7.719,0,0,0,18.066,10.663Z"/>
</svg>
