<svg xmlns="http://www.w3.org/2000/svg" width="65.845" height="60" viewBox="0 0 65.845 60">
  <path d="M28.994,60c-.426,0-1.61-.264-1.576-2.094s.115-3.694.115-5.753l.069.956c.081-3.326.138-6.329.23-9.366a.944.944,0,0,0-.38-.9c-7.4-5.982-12.944-13.773-16.959-23.817a1.111,1.111,0,0,0-.139-.253l-.2-.356c0-.081-.126-.334-.253-.725-.115,2.3-1.208,4.05-2.865,4.6a3.7,3.7,0,0,1-1.15.173c-2.244,0-4.476-2.071-5.43-5.017C-.691,13.907.39,10.5,2.91,9.673c1.853-.587,3.993.38,5.362,2.508a17.346,17.346,0,0,1-.563-3.532c0-1.725,2.024-3.406,3.911-4.027a5.512,5.512,0,0,1,5.546.542,10.247,10.247,0,0,1,2.105,2.715l.7-.333a8.061,8.061,0,0,1-.126-4.074A3.981,3.981,0,0,1,26.682,1.24a8.974,8.974,0,0,1,2.715,8.4,4.2,4.2,0,0,1-2.7,3.2,3.584,3.584,0,0,1-1.15.172,4.6,4.6,0,0,1-2.969-1.15,6.685,6.685,0,0,1-1.311-1.484l-.53.161c.852,1.7,1.346,3.084,1.611,3.452s.518.759.759,1.15c.506.84.967,1.576,1.474,2.3A36.73,36.73,0,0,0,34.518,27.45a25.206,25.206,0,0,0,12.656,3.888,39.914,39.914,0,0,1,7.537,1.3c5.925,1.587,9.5,5.73,10.654,12.426a44.364,44.364,0,0,1,.472,7.318v2.024a.129.129,0,0,1,0,.092h-.115v1.15q.034.685,0,1.369a1.634,1.634,0,0,1-3.257,0,13.041,13.041,0,0,1,0-1.335v-.667c0-1.691,0-3.44-.1-5.144a36.229,36.229,0,0,0-.955-6.489,9.572,9.572,0,0,0-7.019-7.237,34.427,34.427,0,0,0-7.709-1.438c-7.64-.333-14.187-3.372-19.94-9.3a50.462,50.462,0,0,1-9.2-13.278l-5.109,2.439c.38,1.289.955,2.785,1.531,4.27A54.243,54.243,0,0,0,27.694,38.783,26.541,26.541,0,0,0,30,40.694a2.564,2.564,0,0,1,1.15,2.3c-.115,4.326-.2,4.683-.3,9.711l-.057,3.049v2.336C30.674,59.827,29.581,60,29.109,60ZM2.979,13.677A5.538,5.538,0,0,0,3.2,16.415a5.625,5.625,0,0,0,1.369,2.3c.472.438.956.657,1.266.553.621-.2,1.07-1.83.46-3.867-.563-1.725-1.738-2.876-2.485-2.876H3.659A1.437,1.437,0,0,0,2.979,13.677Zm10.528-6.2a3.077,3.077,0,0,0-2,.782,2.106,2.106,0,0,0-.471,2.44c.092.276.172.552.275.828l4.8-2.3a2.945,2.945,0,0,0-2.071-1.749q-.132-.013-.265-.013T13.508,7.476Zm9.124-3.314a5.4,5.4,0,0,0,.161,2.865A5.487,5.487,0,0,0,24.3,9.409c.149.091.736.552,1.15.426s.61-.806.667-.956a5.5,5.5,0,0,0-.207-2.864A5.12,5.12,0,0,0,24.4,3.61a1.69,1.69,0,0,0-.955-.461h-.173C22.884,3.275,22.632,3.943,22.632,4.162Zm11.609,18.26a13.374,13.374,0,1,1,11.663,6.8A13.393,13.393,0,0,1,34.241,22.421ZM40.961,7.05l.057.068a10.056,10.056,0,0,0,2.3,18.41,9.872,9.872,0,0,0,7.582-.955A10.079,10.079,0,0,0,40.961,7.05Z" transform="translate(0 0)"/>
</svg>
