<svg xmlns="http://www.w3.org/2000/svg" width="54.779" height="60" viewBox="0 0 54.779 60">
  <path d="M41.774,60a6.082,6.082,0,0,1-3.587-1.242c-2.161-1.523-4.321-3.1-6.352-4.624l-.454-.335-3.09-2.269-.756-.54-.1-.076-.929.713c-.465.335-.907.681-1.34,1.015l-1.307.983-.54.4a35.282,35.282,0,0,1-6.482,4.029,12.034,12.034,0,0,1-7.411,1.08A10.8,10.8,0,0,1,1.08,51.389,29.016,29.016,0,0,1,.173,40.4,49.553,49.553,0,0,1,2.83,27.59a18.538,18.538,0,0,1,3.705-6.633,10.176,10.176,0,0,1,13.72-1.512,7.476,7.476,0,0,1,2.96,7.476c-.3,1.782-.67,3.587-1.026,5.326l-.1.519-.486,2.593a3.5,3.5,0,0,1-.13.67l.983.119a9.96,9.96,0,0,0,5.131-.216,20.417,20.417,0,0,1,2.636-.767l.713-.184a6.4,6.4,0,0,1,5.942,1.232l6.05,4.915,2.949,2.4,6.611,5.4a5.607,5.607,0,0,1,1.2,7.843,5.779,5.779,0,0,1-1.437,1.372h0a5.185,5.185,0,0,1-3.122,1.08,5.11,5.11,0,0,1-2.323-.551l-.54-.248-.216.151a8.641,8.641,0,0,1-.929.616,6.773,6.773,0,0,1-3.349.81ZM30.647,48.116l-1.08.951,2.776,1.988.465.346c2.506,1.836,4.883,3.576,7.335,5.315a2.982,2.982,0,0,0,3.5-.151ZM14.227,20.158a7.562,7.562,0,0,0-4.591,1.566,12.132,12.132,0,0,0-3.824,5.553A45.879,45.879,0,0,0,2.755,44.291,20.666,20.666,0,0,0,4.083,51.7a8.577,8.577,0,0,0,7.357,4.872,6.611,6.611,0,0,0,1.3-.14,15.707,15.707,0,0,0,4.948-1.966,82.976,82.976,0,0,0,9.874-7.346l-.659-.065-2.852-.3-3.176-.3-.583-.054c-1.923-.194-3.921-.389-5.9-.6A4.656,4.656,0,0,1,9.83,41.126a52.231,52.231,0,0,1,.745-10.619l.151-1.08a1.491,1.491,0,0,1,.562-1.08,1.35,1.35,0,0,1,.745-.238,1.08,1.08,0,0,1,.27,0c.573.1,1.232.465,1.08,1.718v.292a9.509,9.509,0,0,1-.13,1.145c-.043.367-.1.767-.14,1.145-.194,1.61-.411,3.478-.573,5.315a22.394,22.394,0,0,0,.065,3.187v.421A1.588,1.588,0,0,0,13.935,42.8a9.463,9.463,0,0,0,1.361.259c2.247.248,4.321.465,6.482.67l1.577.162,5.974.583a2.009,2.009,0,0,0,2.463-1.437h0a2.7,2.7,0,0,0-.184-2.323,2.863,2.863,0,0,0-2.161-1.08l-.551-.054-8.966-.929h0a1.847,1.847,0,0,1-1.34-.583,1.944,1.944,0,0,1-.173-1.512.648.648,0,0,1,.076-.346v-.248c.227-1.08.411-2.042.594-2.906l.054-.292c.443-2.161.886-4.321,1.242-6.482a4.656,4.656,0,0,0-2.4-5.034,7.184,7.184,0,0,0-3.695-1.026ZM32.851,37.442a3.112,3.112,0,0,0-.843.119,6.028,6.028,0,0,1,2.776,4.148,5.909,5.909,0,0,1-1.858,4.634l5.218,3.392L47.4,55.775a2.506,2.506,0,0,0,2.56.411,3.241,3.241,0,0,0,1.944-2.474,2.841,2.841,0,0,0-1.08-2.625l-7.843-6.3-3.608-2.928h0l-4.5-3.619a2.982,2.982,0,0,0-2.02-.789ZM25.289,20.061h-.184A10,10,0,0,1,15.243,9.9h0A10.057,10.057,0,0,1,25.3,0h.1a9.874,9.874,0,0,1,7.011,3.014,10.2,10.2,0,0,1,2.863,7.3,9.982,9.982,0,0,1-9.982,9.723ZM25.16,2.776a7.227,7.227,0,0,0-7.195,7.087v.086a7.335,7.335,0,0,0,7.141,7.378h.4a7.281,7.281,0,0,0,.281-14.551Z" transform="translate(-0.001)"/>
</svg>
