<svg xmlns="http://www.w3.org/2000/svg" width="47.835" height="60" viewBox="0 0 47.835 60">
  <path d="M24.2,58.728v-2.9a28.934,28.934,0,0,1,.244-3.261,1.239,1.239,0,0,1,.423-.869,1.222,1.222,0,0,1,.922-.317,1.3,1.3,0,0,1,.868.435,1.229,1.229,0,0,1,.307.921,28.212,28.212,0,0,0-.222,3.092v2.9a1.271,1.271,0,1,1-2.542,0Zm-22.416,0V55.446a42.76,42.76,0,0,0-.816-8.281L.309,42.548A31.166,31.166,0,0,1,.986,30.393L6.959,3.328a4.384,4.384,0,0,1,7.487-1.906A4.375,4.375,0,0,1,21.91,3.338l.551,2.573a.61.61,0,0,1,.116.17l5.1,11.912a4.234,4.234,0,0,0,2.9,2.457l1.006.233a7.586,7.586,0,0,1-.117-1.313A7.815,7.815,0,1,1,44.814,24.95l-.413.381a6.754,6.754,0,0,1,3.039,8.153l-2.965,8.63c-.074.212-.159.4-.244.6V54.461a1.27,1.27,0,1,1-2.541,0V45.61a6.954,6.954,0,0,1-1.578.74C36.481,47.473,28.2,49.866,25.024,50.8a4.1,4.1,0,0,1-1.059.149,3.855,3.855,0,0,1-1.123-7.54l12.675-3.843a1.526,1.526,0,0,0,.995-1.059l1.377-4.33a1.234,1.234,0,0,1,.624-.741,1.219,1.219,0,0,1,.963-.085,1.312,1.312,0,0,1,.741.624,1.229,1.229,0,0,1,.085.964l-1.376,4.351a4.066,4.066,0,0,1-2.68,2.668L23.541,45.821a1.313,1.313,0,0,0-.265,2.4,1.258,1.258,0,0,0,1.059.116c3.389-.963,11.425-3.367,15.036-4.426a4.235,4.235,0,0,0,2.711-2.626l2.975-8.683a4.235,4.235,0,0,0-1.875-5.082l-.158-.085-1.292-.657a7.734,7.734,0,0,1-7.941-1.916,7.927,7.927,0,0,1-1.059-1.345l-2.668-.636a6.742,6.742,0,0,1-4.659-3.907l-.2-.456,1.556,7.3,4.8,1.514a1.312,1.312,0,0,1,.741.624,1.261,1.261,0,0,1-1.123,1.854,1.432,1.432,0,0,1-.381-.053L27.374,28.7l.381,1.8a28.7,28.7,0,0,1,.837,9.445A1.259,1.259,0,0,1,27.3,41.119h-.1a1.27,1.27,0,0,1-1.176-1.355,26.472,26.472,0,0,0-.773-8.683L19.464,3.931a1.769,1.769,0,0,0-.836-1.111,1.857,1.857,0,0,0-1.4-.213,1.863,1.863,0,0,0-1.345,2.245v.074l3.483,18.2a1.271,1.271,0,1,1-2.488.466l-2.4-12.707L12.031,23.6a1.272,1.272,0,1,1-2.5-.476L13.006,4.884A1.857,1.857,0,0,0,9.426,3.9L3.464,30.965a28.306,28.306,0,0,0-.635,11.224l.646,4.616a44.887,44.887,0,0,1,.846,8.641v3.282a1.27,1.27,0,1,1-2.541,0Zm37.505-44.6a5.295,5.295,0,0,0-4.743,7.561l.063.084a1.64,1.64,0,0,1,.128.275l.021.053a5.218,5.218,0,0,0,4.532,2.615,5.294,5.294,0,1,0,0-10.589v0ZM6.567,32.7a7.772,7.772,0,0,1,7.743-7.74,7.772,7.772,0,0,1,0,15.534A7.772,7.772,0,0,1,6.567,32.7Zm2.467.031a5.23,5.23,0,0,0,5.231,5.231A5.231,5.231,0,1,0,14.34,27.5h-.074A5.23,5.23,0,0,0,9.034,32.733Zm5.273-7.772h0Z" transform="translate(0 0)"/>
</svg>
