<svg xmlns="http://www.w3.org/2000/svg" width="42.59" height="60" viewBox="0 0 42.59 60">
  <path d="M12.8,60a3.692,3.692,0,0,1-2.739-1.228A3.65,3.65,0,0,1,9.141,55.9l.976-9.056a5.5,5.5,0,0,1,5.447-4.734h6.674l.074-.63A7.117,7.117,0,0,1,18.115,35V32.734A6.087,6.087,0,0,1,24.2,26.647h3.232a6.087,6.087,0,0,1,6.088,6.088V35a7.126,7.126,0,0,1-4.2,6.475l.063.63h6.759a5.467,5.467,0,0,1,5.436,4.68l.987,9.1v.021A3.694,3.694,0,0,1,38.895,60Zm23.6-9.561.326,7.22h2.109a1.341,1.341,0,0,0,1.049-.461,1.365,1.365,0,0,0,.347-1.05l-.976-9.056a3.15,3.15,0,0,0-3.149-2.656H29.6a3.815,3.815,0,0,1-.713,2.1,2.043,2.043,0,0,1-.168.251,1.1,1.1,0,0,1-.115.1,1.485,1.485,0,0,0-.1.127l-.231.2c-.084.063-.157.189-.241.189a2.637,2.637,0,0,1-.431.263c-.078.045-.159.088-.241.126a2.743,2.743,0,0,1-.494.168l-.262.084a3.49,3.49,0,0,1-.578.062h-.409a3.479,3.479,0,0,1-.577-.062l-.263-.084a3.741,3.741,0,0,1-.483-.158l-.252-.136a3.629,3.629,0,0,1-.43-.263c-.084-.053-.158-.126-.242-.189l-.23-.2a.589.589,0,0,1-.1-.127.833.833,0,0,0-.115-.1,2.043,2.043,0,0,1-.168-.251,3.73,3.73,0,0,1-.7-2.1H15.532a3.149,3.149,0,0,0-3.148,2.708l-.965,9a1.336,1.336,0,0,0,.335,1.05,1.363,1.363,0,0,0,1.05.461h2.224l.3-7.22A1.155,1.155,0,0,1,16.5,49.327a1.178,1.178,0,0,1,.808.378,1.124,1.124,0,0,1,.3.829l-.283,7.126H34.382l-.294-7.126a1.166,1.166,0,0,1,.3-.829,1.2,1.2,0,0,1,.809-.378h.044A1.165,1.165,0,0,1,36.407,50.439ZM24.4,43.5l-.062.545a2.164,2.164,0,0,0,.294,1.155l.084.1.094.084a1.48,1.48,0,0,0,.378.251l.262.1h.127a1.328,1.328,0,0,0,.5,0h.1a1.027,1.027,0,0,0,.263-.084,1.22,1.22,0,0,0,.367-.241.8.8,0,0,0,.094-.084l.084-.1a2.18,2.18,0,0,0,.294-1.154v-.315l-.2-1.678H24.569Zm-4-10.768V35a4.809,4.809,0,0,0,4.786,4.785h1.28A4.772,4.772,0,0,0,31.223,35V32.734a3.768,3.768,0,0,0-3.768-3.768H24.17A3.768,3.768,0,0,0,20.4,32.734ZM9.813,28.778,6.024,24.506H2.288A2.287,2.287,0,0,1,0,22.228V2.288A2.3,2.3,0,0,1,2.288,0H36.261a2.3,2.3,0,0,1,2.288,2.33v19.94a2.288,2.288,0,0,1-2.288,2.277H13.832v2.781a2.266,2.266,0,0,1-1.479,2.1,2.409,2.409,0,0,1-.809.146A2.277,2.277,0,0,1,9.813,28.778Zm-7.472-6.57h4.2a1.184,1.184,0,0,1,.871.388l4.083,4.6.052-3.842a1.165,1.165,0,0,1,1.144-1.144H36.25V2.267H2.341Zm4-7.84a1.165,1.165,0,0,1,1.1-1.774H31.107a1.16,1.16,0,1,1,0,2.32H7.441q-.055.005-.11.005A1.164,1.164,0,0,1,6.341,14.368ZM23.54,8.4H7.441a1.165,1.165,0,1,1,0-2.32h16.1A1.165,1.165,0,1,1,23.65,8.4Q23.6,8.4,23.54,8.4Z"/>
</svg>
