<svg xmlns="http://www.w3.org/2000/svg" width="60.922" height="60" viewBox="0 0 60.922 60">
  <path d="M7.692,59.732a4.188,4.188,0,0,1-2.716-3.954V38.95a3.557,3.557,0,0,1-1.115.308A3.552,3.552,0,0,1,0,35.726V22.53A6.06,6.06,0,0,1,6.051,16.48h11.74a6.488,6.488,0,0,1,5.794-3.6H37.3a6.487,6.487,0,0,1,5.789,3.592H54.872a6.06,6.06,0,0,1,6.05,6.05V35.726a3.552,3.552,0,0,1-3.891,3.532,3.44,3.44,0,0,1-1.105-.308V55.778A4.181,4.181,0,0,1,48.6,58.544a4.19,4.19,0,0,1-7.334-2.767V37.222a3.794,3.794,0,0,1-1.612.206,3.427,3.427,0,0,1-1.3-.378V55.469a4.5,4.5,0,0,1-7.931,2.866,4.468,4.468,0,0,1-7.882-2.866V37.049a3.427,3.427,0,0,1-1.3.378,3.8,3.8,0,0,1-1.552-.188V55.778a4.2,4.2,0,0,1-7.344,2.767,4.189,4.189,0,0,1-4.648,1.188Zm41.936-19.17.02,15.216a2.1,2.1,0,0,0,4.2,0V26.561a1.045,1.045,0,1,1,2.09,0V35.6a1.512,1.512,0,0,0,1.3,1.543,1.456,1.456,0,0,0,1.115-.319,1.426,1.426,0,0,0,.477-1.075V22.53a3.981,3.981,0,0,0-3.981-3.981H43.731a6.339,6.339,0,0,1,.055.806v14.33a3.793,3.793,0,0,1-.2,1.194q-.1.438-.243.866v20a2.1,2.1,0,1,0,4.2,0V40.562a1.045,1.045,0,1,1,2.089,0Zm-36.273,0,.03,15.216a2.1,2.1,0,0,0,4.2,0V35.485a3.8,3.8,0,0,1-.477-1.8V19.355a6.308,6.308,0,0,1,.048-.777H6.051A3.981,3.981,0,0,0,2.07,22.56V35.726a1.424,1.424,0,0,0,.5,1.094,1.449,1.449,0,0,0,1.124.368,1.524,1.524,0,0,0,1.284-1.572V26.561a1.045,1.045,0,1,1,2.089,0V55.778a2.1,2.1,0,0,0,4.2,0V40.562a1.045,1.045,0,1,1,2.089,0ZM24.68,55.42a2.368,2.368,0,0,0,4.736,0V39.04a1.045,1.045,0,1,1,2.09,0V55.469a1,1,0,0,1-.015.227,2.378,2.378,0,0,0,4.721-.227V33.576a1,1,0,0,1,.09-.465V22.391a1.045,1.045,0,0,1,2.09,0V33.576a1.057,1.057,0,0,1-.095.437,1.743,1.743,0,0,0,1.507,1.335,1.655,1.655,0,0,0,1.563-.777,1.615,1.615,0,0,0,.2-.442q.034-.179.062-.359,0-.042,0-.085V19.355a4.16,4.16,0,0,0-.219-1.443l-.014-.04A4.388,4.388,0,0,0,37.3,14.927H23.635a4.4,4.4,0,0,0-4.071,2.754,1.055,1.055,0,0,1-.049.2,4.412,4.412,0,0,0-.259,1.472v14.33a1.492,1.492,0,0,0,.259.846,1.651,1.651,0,0,0,1.562.776,1.75,1.75,0,0,0,1.5-1.71c0-.01,0-.02,0-.031V22.391a1.055,1.055,0,0,1,2.1,0V55.42Zm23.9-40.254a5.264,5.264,0,1,1,.012,0Zm-3.2-5.294a3.185,3.185,0,1,0,3.2-3.154h-.02A3.184,3.184,0,0,0,45.379,9.872ZM12.34,15.166a5.274,5.274,0,1,1,5.274-5.214,5.275,5.275,0,0,1-5.274,5.214ZM9.146,9.879A3.184,3.184,0,1,0,12.34,6.717h-.01A3.184,3.184,0,0,0,9.146,9.879ZM24.829,5.633a5.633,5.633,0,1,1,5.633,5.633A5.633,5.633,0,0,1,24.829,5.633Zm2.09,0a3.543,3.543,0,1,0,3.542-3.543A3.543,3.543,0,0,0,26.919,5.633Z"/>
</svg>
