<svg xmlns="http://www.w3.org/2000/svg" width="68.016" height="60" viewBox="0 0 68.016 60">
  <path d="M32.908,59.706a6.831,6.831,0,0,1-4.314-1.6,2.649,2.649,0,0,0-1.081-.517,3.3,3.3,0,0,1-2.562-3.233V28.348a3.361,3.361,0,0,1,.435-1.633L31.745,15.6A25.379,25.379,0,0,0,34.66,7.581l.6-3.256A4.96,4.96,0,0,1,38.668.165,5.374,5.374,0,0,1,40.054,0c2.691,0,4.806,3.092,6.3,9.1a14.261,14.261,0,0,1,.212,5.877l-1.575,9,17.3.223a5.794,5.794,0,0,1,5.724,5.56,5.647,5.647,0,0,1-1.633,4.1,5.87,5.87,0,0,1-1.176.881,5.675,5.675,0,0,1-1.739,8.145,5.676,5.676,0,0,1-1.716,8.168A5.665,5.665,0,0,1,57.131,60ZM39.96,2.833a2.23,2.23,0,0,0-.565.094c-1.128.306-1.3,1.775-1.3,1.775V4.8l-.6,3.291A28.364,28.364,0,0,1,34.248,17L27.89,28.125a.475.475,0,0,0-.059.223V54.358a.46.46,0,0,0,.377.447,5.492,5.492,0,0,1,2.2,1.081,4.012,4.012,0,0,0,2.5.987l24.188.294a2.845,2.845,0,0,0,2.844-2.8,2.81,2.81,0,0,0-1.481-2.526h-8a1.422,1.422,0,0,1,0-2.833h8.427a2.821,2.821,0,0,0,1.3-5.336H52.194a1.41,1.41,0,1,1,0-2.82h8.439a2.844,2.844,0,0,0,2.833-2.8,2.808,2.808,0,0,0-1.54-2.527H53.934a1.422,1.422,0,1,1,0-2.832h8.356a2.844,2.844,0,0,0,2.821-3,2.974,2.974,0,0,0-2.986-2.785l-18.8-.235a1.391,1.391,0,0,1-1.07-.506A1.646,1.646,0,0,1,41.876,25l1.845-10.578a11.494,11.494,0,0,0-.176-4.7C42.37,4.972,40.865,2.8,39.96,2.8v.035ZM1.023,58.319a3.147,3.147,0,0,1-.964-2.281L0,27.032a3.171,3.171,0,0,1,.964-2.268,3.242,3.242,0,0,1,2.281-.929H19.157a3.232,3.232,0,0,1,2.292.929,3.125,3.125,0,0,1,.964,2.268l.047,28.994a3.139,3.139,0,0,1-.964,2.281,3.245,3.245,0,0,1-2.279.94H3.294A3.245,3.245,0,0,1,1.023,58.319ZM2.938,26.774a.356.356,0,0,0-.106.258l.058,29.006A.369.369,0,0,0,3,56.3a.4.4,0,0,0,.294.117l15.937-.036a.408.408,0,0,0,.306-.117A.369.369,0,0,0,19.64,56l-.071-28.983a.369.369,0,0,0-.106-.259.416.416,0,0,0-.294-.117H3.244A.421.421,0,0,0,2.938,26.774Z" transform="translate(0 0)"/>
</svg>
