<svg xmlns="http://www.w3.org/2000/svg" width="56.731" height="60" viewBox="0 0 56.731 60">
  <path d="M19.425,59.048v-.112l-.888-5.617a1.319,1.319,0,0,1-.157-.809,4.675,4.675,0,0,1,.146-.708,1.206,1.206,0,0,1,0-.191c.843-2.674,3.573-3.539,5.618-4.18a10.228,10.228,0,0,0,2.247-.9c2.775-1.752,2.584-6.313,1.967-9.459L27.1,39.039v-.326c-.258.461-.55.91-.853,1.348l-.483.607c-1.314,1.562-2.888,1.933-4.684,2.888l-.169.079c-1.55.561-5.022,1.662-5.618,2.359a9.649,9.649,0,0,0-1.123,1.618,4.119,4.119,0,0,0-.572,2.011v1.123a17.875,17.875,0,0,1-.584,3.449l-.9,3.27a1.248,1.248,0,0,1-1.483.954,1.293,1.293,0,0,1-.809-1.573v-.078l.9-3.27a15.446,15.446,0,0,0,.517-2.943,5.74,5.74,0,0,0,0-.932,6.749,6.749,0,0,1,.843-3.1l.078-.134a11.97,11.97,0,0,1,1.461-2.056c1.269-1.483,6.212-2.91,6.673-3.068,1.572-.82,2.954-1.033,4.078-2.427a11.6,11.6,0,0,0,1.741-3.482v-.483a4.088,4.088,0,0,1,.494-2.022l.169-.27a2.97,2.97,0,0,1,1.82-1.123,1.572,1.572,0,0,1,1.37.382,1.348,1.348,0,0,1,.393,1.123v.382l-.112.213a.987.987,0,0,1,.158.3c.146.461,3.64,11.078-2.472,14.975a12.769,12.769,0,0,1-2.954,1.2c-2.269.708-3.662,1.247-3.842,2.752a1.5,1.5,0,0,1-.079.248l.854,5.493a1.27,1.27,0,0,1-2.483.517Zm35.815-2.46a1.517,1.517,0,0,1-1.482-1.259,21.964,21.964,0,0,0-4.348-9.874,1.465,1.465,0,0,1-.27-.584,58.116,58.116,0,0,0-12.9-13.706,1.382,1.382,0,0,1-.36-1.932,1.4,1.4,0,0,1,1.932-.359A60.067,60.067,0,0,1,51.41,43.3a1.676,1.676,0,0,1,.37.327,25.278,25.278,0,0,1,4.932,11.234,1.517,1.517,0,0,1-1.224,1.73ZM14.033,41.624A3.75,3.75,0,0,1,11.527,39.9l-.09-.158-.416-.932-.752-.191-.27-.1a2.774,2.774,0,0,1-1.427-1.73A2.6,2.6,0,0,1,7.068,35.3l-.1-.269H6.9a6.152,6.152,0,0,1-2.606-.573,2.055,2.055,0,0,1-1.124-1.943,14.644,14.644,0,0,1,.36-1.854,20.946,20.946,0,0,0,.55-3,4.5,4.5,0,0,0-1-2.573,20.163,20.163,0,0,1-1.787-3.37,17.842,17.842,0,0,1-1.236-8.1,1.448,1.448,0,0,1,.46-.921A16.911,16.911,0,0,1,4.124,5.46c.438-.506.9-.977,1.382-1.438A14.933,14.933,0,0,1,10.472.956,15.592,15.592,0,0,1,15.932,0,22.133,22.133,0,0,1,30.413,5.965l.112.1a18.657,18.657,0,0,1,2.651,3.068,20.647,20.647,0,0,1,2.775,16.279,1.479,1.479,0,0,1-.506.786l.247.7a1.507,1.507,0,0,1-.888,1.854,1.558,1.558,0,0,1-.506.078,1.494,1.494,0,0,1-1.416-1l-.528-1.482c-.134-.36-.247-.7-.337-.978a1.367,1.367,0,0,1-.079-.258,1.152,1.152,0,0,1-.112-.237,1.59,1.59,0,0,1-.057-.763,1.123,1.123,0,0,1,.461-.82,1.476,1.476,0,0,1,.539-.327,1.427,1.427,0,0,1,.607,0A17.223,17.223,0,0,0,30.7,10.808a14.46,14.46,0,0,0-2.247-2.55l-.1-.09a18.9,18.9,0,0,0-12.414-5.2A12.028,12.028,0,0,0,7.551,6.2a16.013,16.013,0,0,0-1.123,1.19,14.029,14.029,0,0,0-2.112,3.371,14.932,14.932,0,0,0-.854,2.594,1.439,1.439,0,0,1-.4.708A14.77,14.77,0,0,0,4.068,20.6a20.494,20.494,0,0,0,1.551,2.888,6.976,6.976,0,0,1,1.493,4.291,22.372,22.372,0,0,1-.629,3.561v.1a2.437,2.437,0,0,1-.134.562,6.915,6.915,0,0,0,1.517,0h.123a1.517,1.517,0,0,1,1.4.932L9.8,34l.314.1.787-.089a1.492,1.492,0,0,1,1.763,1.123,1.475,1.475,0,0,1-.146,1,1.5,1.5,0,0,1,.932.8l.686,1.428a.725.725,0,0,0,.438.3h.112a6.192,6.192,0,0,0,3.371-1.618c1.067-.888,2.067-1.584,3.022-2.248l.673-.482h.057l.168-.09h.27a1.493,1.493,0,0,1,1.393.943c.27.921.247,1.4-1.068,2.348l-.337.224c-.8.584-1.573,1.112-2.326,1.708a9.076,9.076,0,0,1-5.168,2.248A5.021,5.021,0,0,1,14.033,41.624Z" transform="translate(0 0)"/>
</svg>
