<svg xmlns="http://www.w3.org/2000/svg" width="60" height="42.011" viewBox="0 0 60 42.011">
  <path d="M57.468,40.854V17.886a5.937,5.937,0,0,0-1.353-3.773l-.7-.834a6.913,6.913,0,1,1,2.125-1.413l.518.631A8.428,8.428,0,0,1,60,17.886V40.854a1.271,1.271,0,0,1-2.532,0ZM50.288,2.993a4.494,4.494,0,0,0,4.556,7.744l.061-.061a1.073,1.073,0,0,1,.346-.193,4.494,4.494,0,0,0-4.963-7.49ZM44.6,40.854V29.416a1.266,1.266,0,1,1,2.532,0V40.854a1.271,1.271,0,0,1-2.532,0Zm-28.418,0v-15.8a1.261,1.261,0,0,1,1.261-1.261H28.073a1.271,1.271,0,1,1,0,2.532H18.708v14.53a1.271,1.271,0,0,1-2.531,0ZM0,40.854v-15.3a7.778,7.778,0,0,1,7.768-7.767H25.419l.092-7.087h-.295v1.017a2.308,2.308,0,0,1-2.309,2.308H20.59a2.318,2.318,0,0,1-2.288-2.3V7.249A2.318,2.318,0,0,1,20.59,4.931h2.318a2.319,2.319,0,0,1,2.309,2.318v.936h.315A4.067,4.067,0,0,1,29.6,4.23h.071A4.118,4.118,0,0,1,33.8,8.216h.143V7.249a2.318,2.318,0,0,1,2.308-2.318h2.329a2.319,2.319,0,0,1,2.308,2.318v4.464a2.308,2.308,0,0,1-2.308,2.308H36.248a2.307,2.307,0,0,1-2.308-2.257V10.748h-.133v6.324H31.276V8.389a1.577,1.577,0,0,0-.468-1.128,1.65,1.65,0,0,0-1.139-.469H29.6a1.526,1.526,0,0,0-1.514,1.475l-.2,10.838a1.272,1.272,0,0,1-1.261,1.261H7.768A5.246,5.246,0,0,0,2.532,25.6V40.854a1.271,1.271,0,0,1-2.532,0ZM36.472,11.53h1.881V7.464H36.472Zm-15.659,0h1.871V7.464H20.813ZM40.336,28.988,30.91,25.562a3.744,3.744,0,1,1,2.644-7.006l7.585,3L47.545,16.3a1.261,1.261,0,0,1,.925-.285,1.323,1.323,0,0,1,.854.458,1.259,1.259,0,0,1-.173,1.78l-6.985,5.734a1.26,1.26,0,0,1-1.261.2l-8.276-3.315a1.21,1.21,0,0,0-1.536.6,1.191,1.191,0,0,0,0,1.017,1.175,1.175,0,0,0,.712.681l9.425,3.437a2.442,2.442,0,0,0,2.3-.336l10.106-7.564a1.248,1.248,0,1,1,1.515,1.982L45.043,28.256a4.922,4.922,0,0,1-4.707.732Zm-.6-9.629-4.667-1.78a1.268,1.268,0,1,1,.905-2.369l3.965,1.515L45.226,12.3a1.252,1.252,0,0,1,1.78.152,1.272,1.272,0,0,1-.153,1.78L41,19.146a1.255,1.255,0,0,1-.814.3h-.021A1.151,1.151,0,0,1,39.735,19.36ZM5.414,15.569a7.03,7.03,0,1,1,4.967,2.052h-.01A7.016,7.016,0,0,1,5.414,15.569ZM10.374,6.1a4.5,4.5,0,1,0,.007,0Z" transform="translate(0 0)"/>
</svg>
