<svg xmlns="http://www.w3.org/2000/svg" width="49.454" height="60" viewBox="0 0 49.454 60">
  <path d="M6.476,55.475C2.3,52.461,0,48.369,0,44.093,0,38.719,3.559,33.749,9.618,30.81a1.26,1.26,0,0,1,1-.063,1.315,1.315,0,0,1,.811,1.671,1.315,1.315,0,0,1-.671.755c-5.119,2.5-8.186,6.583-8.186,10.921,0,7.321,8.5,13.273,18.937,13.273a26.1,26.1,0,0,0,7.235-1,1.239,1.239,0,0,1,.994.107l.054.043a1.315,1.315,0,0,1-.257,2.415A28.6,28.6,0,0,1,21.566,60c-.152,0-.3,0-.455,0A25.933,25.933,0,0,1,6.476,55.475ZM35.01,59.536a4.19,4.19,0,0,1-4.19-4.178V41.625l-9.5-.257a7.651,7.651,0,0,1-7.481-7.406l-.385-14.427a9.453,9.453,0,0,1,1.411-5.279l.972-1.581a1.323,1.323,0,0,1,.812-.6,1.342,1.342,0,0,1,.994.16,1.283,1.283,0,0,1,.589.823,1.252,1.252,0,0,1-.161.994L17.1,15.635a6.87,6.87,0,0,0-1.069,3.825l.427,14.417a5,5,0,0,0,4.863,4.863l10.793.341A1.3,1.3,0,0,1,33.4,40.4V55.358a1.561,1.561,0,0,0,1.56,1.549H35.5a1.55,1.55,0,0,0,1.549-1.549V37.693a2.308,2.308,0,0,0-2.308-2.308H24.953a1.314,1.314,0,0,1,0-2.629h9.8a4.938,4.938,0,0,1,4.938,4.937v10.44a1.56,1.56,0,0,0,3.11,0L43.11,32.8A2.3,2.3,0,0,0,40.8,30.436H27.658a1.3,1.3,0,0,1-1.315-1.25l-.224-4.766H22.912a1.325,1.325,0,0,1,0-2.64l19.322-.192A1.121,1.121,0,0,0,43.3,20.518a1.069,1.069,0,0,0-1.069-1.069H23.041a1.325,1.325,0,0,1,0-2.639h4.274L45.9,16.618a1.111,1.111,0,1,0,0-2.223H31.217a1.315,1.315,0,1,1,0-2.63H45.985a3.751,3.751,0,0,1,0,7.481H45.74a3.6,3.6,0,0,1,.235,1.325,3.752,3.752,0,0,1-3.7,3.74l-13.54.139.16,3.441H40.845a4.948,4.948,0,0,1,4.937,5.044l-.31,15.336a4.2,4.2,0,0,1-4.179,4.093,4.114,4.114,0,0,1-1.56-.3v3.292a4.189,4.189,0,0,1-4.178,4.178ZM16.265,7.3a7.289,7.289,0,1,1,7.289,7.278A7.288,7.288,0,0,1,16.265,7.3Zm2.629,0a4.66,4.66,0,1,0,4.66-4.66A4.66,4.66,0,0,0,18.894,7.3Z"/>
</svg>
