<svg xmlns="http://www.w3.org/2000/svg" width="61.897" height="60" viewBox="0 0 61.897 60">
  <path d="M5.8,43.9A14.517,14.517,0,0,1,8.04,36.262a1.354,1.354,0,0,1,.839-.6,1.384,1.384,0,0,1,1.015.175,1.343,1.343,0,0,1,.491.818,1.285,1.285,0,0,1-.164,1A11.828,11.828,0,0,0,8.389,43.92c0,7.4,7.092,13.418,15.819,13.418S40.025,51.317,40.025,43.92a11.825,11.825,0,0,0-1.658-5.967H19.909a10.028,10.028,0,0,1-5.455-1.473l-1.669-1.025a1.344,1.344,0,0,1,1.408-2.291l1.669.982a7.211,7.211,0,0,0,4.047,1.091h27.96a1.386,1.386,0,0,1,.959.393,1.338,1.338,0,0,1,.393.948V52.385a1.68,1.68,0,0,0,1.669,1.669h.578a1.679,1.679,0,0,0,1.68-1.669v-18.6a2.476,2.476,0,0,0-2.465-2.476H40.374a1.342,1.342,0,0,1,0-2.684h10.32a5.161,5.161,0,0,1,5.15,5.16V44.814a1.669,1.669,0,0,0,1.68,1.669,1.691,1.691,0,0,0,1.68-1.614l-.971-16.178a2.424,2.424,0,0,0-.7-1.778,2.5,2.5,0,0,0-1.767-.742l-30.545-.152v1.919a1.338,1.338,0,0,1-2.672.121L22.342,7.714a1.217,1.217,0,0,0-2.433.011V27.731a1.342,1.342,0,1,1-2.684,0V23.368L17.018,3.732a1.211,1.211,0,1,0-2.421,0V19.244a1.342,1.342,0,1,1-2.684,0V3.7a3.906,3.906,0,0,1,7.8,0v.327a3.82,3.82,0,0,1,1.407-.284A3.916,3.916,0,0,1,25.025,7.6l.164,15.753,30.61.152a5.161,5.161,0,0,1,5.15,5.226L61.9,44.923A4.363,4.363,0,0,1,57.534,49.2a4.583,4.583,0,0,1-1.68-.338v3.523a4.364,4.364,0,0,1-4.364,4.364h-.577a4.364,4.364,0,0,1-4.364-4.364V37.931H41.465a14.361,14.361,0,0,1,1.43,5.967c0,8.879-8.3,16.1-18.545,16.1S5.8,52.778,5.8,43.9ZM0,27.1a7.385,7.385,0,1,1,7.4,7.381H7.385A7.385,7.385,0,0,1,0,27.1ZM7.389,22.4a4.7,4.7,0,1,0,.007,0Z"/>
</svg>
