<svg xmlns="http://www.w3.org/2000/svg" width="78.644" height="80" viewBox="0 0 78.644 80"><path d="M19.271,17.793,3.351,35.987A1.886,1.886,0,0,0,3,36.9V64.017a1.356,1.356,0,1,0,2.712,0V39.271L50.447,65.633A1.356,1.356,0,1,0,51.824,63.3l-6.831-4.026,33.939-20s-.014,39.877-.037,39.978L59.282,67.692A1.356,1.356,0,1,0,57.9,70.028l17.412,10.26H7.068a1.356,1.356,0,0,1-1.356-1.356V69.441a1.356,1.356,0,1,0-2.712,0v9.492A4.068,4.068,0,0,0,7.068,83H77.576a4.068,4.068,0,0,0,4.068-4.068V36.9a1.177,1.177,0,0,0-.351-.913L65.373,17.793V7.068A4.069,4.069,0,0,0,61.305,3H23.339a4.068,4.068,0,0,0-4.068,4.068ZM54.525,42.76a14.912,14.912,0,0,1-24.407,0s0,7.73,0,7.745l12.2,7.192,12.2-7.192c0-.015,0-.031,0-.047ZM65.373,21.911v6.852a1.356,1.356,0,0,1-2.712,0V7.068a1.356,1.356,0,0,0-1.356-1.356H23.339a1.356,1.356,0,0,0-1.356,1.356V45.712l5.424,3.2V16.559A1.356,1.356,0,0,1,28.763,15.2,5.426,5.426,0,0,0,34.186,9.78a1.356,1.356,0,0,1,1.356-1.356H49.1A1.356,1.356,0,0,1,50.458,9.78,5.426,5.426,0,0,0,55.881,15.2a1.356,1.356,0,0,1,1.356,1.356V48.908l5.424-3.2V35.542a1.356,1.356,0,0,1,2.712,0v8.571l12.818-7.553ZM30.119,34.186a12.2,12.2,0,1,1,12.2,12.2A12.21,12.21,0,0,1,30.119,34.186ZM6.454,36.559l12.818,7.554v-22.2Zm28.072-3.729a1.356,1.356,0,0,0,0,2.712,4.068,4.068,0,0,0,4.068,4.068h.678a4.068,4.068,0,0,0,4.068-4.068V32.831a1.356,1.356,0,0,1,1.356-1.356h.678a1.356,1.356,0,0,1,1.356,1.356v5.424a1.356,1.356,0,0,0,2.712,0V35.542h.678a1.356,1.356,0,0,0,0-2.712h-.678a4.068,4.068,0,0,0-4.068-4.068h-.678a4.068,4.068,0,0,0-4.068,4.068v2.712A1.356,1.356,0,0,1,39.271,36.9h-.678a1.356,1.356,0,0,1-1.356-1.356V30.119a1.356,1.356,0,1,0-2.712,0Zm20-7.218V17.8a8.132,8.132,0,0,1-6.666-6.666H36.784A8.132,8.132,0,0,1,30.119,17.8v7.812a14.912,14.912,0,0,1,24.407,0Z" transform="translate(-3 -3)" fill-rule="evenodd"/></svg>