<svg xmlns="http://www.w3.org/2000/svg" width="42" height="38.678" viewBox="0 0 42 38.678"><path d="M13.822,31.5a7.178,7.178,0,1,1,14.356,0c0,.239-.012.48-.035.717a7.178,7.178,0,0,1-14.32-.717Zm1.23,0a5.948,5.948,0,0,0,11.865.6c.019-.2.029-.4.029-.6a5.947,5.947,0,1,0-11.895,0Zm1.395,0a4.553,4.553,0,1,1,8.5,2.277l-1.065-.616a3.327,3.327,0,1,0-.663.816l.821.917A4.553,4.553,0,0,1,16.447,31.5Zm2.625,0A1.928,1.928,0,1,1,21,33.428,1.93,1.93,0,0,1,19.072,31.5Zm1.23,0a.7.7,0,1,0,.7-.7A.7.7,0,0,0,20.3,31.5Zm7.3-9.864L29.581,9.743l1.214.2-.283,1.7,6.065,7.661-.965.764-5.373-6.787-1.4,8.394.648,6.481-1.224.122ZM12.513,28.158l.648-6.481L11.206,9.945l1.214-.2L14.4,21.636l-.664,6.644ZM30.95,26.631l1.694-3.388,1.313,1.313.931-1.862,1.1.55-1.694,3.388L32.981,25.32l-.931,1.862ZM9.019,25.32,7.706,26.632,6.012,23.244l1.1-.55.931,1.862,1.313-1.313,1.694,3.388-1.1.55Zm11.325-1.736v-1.23h1.312v1.23Zm20.344-1.312v-1.23H42v1.23Zm-2.625,0v-1.23h1.312v1.23ZM20.385,21V9.187h1.23V21ZM5.424,19.311,10.1,13.405l.965.764L6.389,20.075Zm19.688-.548a7.131,7.131,0,0,1-2.1-5.075V11.156h1.23v2.532a5.908,5.908,0,0,0,1.742,4.205l.7.7-.87.87Zm-9.8-.167.7-.7a5.907,5.907,0,0,0,1.742-4.205V11.156h1.23v2.532a7.131,7.131,0,0,1-2.1,5.075l-.7.7ZM33.687,8.983,23.01,2.31V0h1.23V1.628L34.563,8.08l5.323,7.985-1.024.682ZM2.113,16.065,7.437,8.08,17.76,1.628V0h1.23V2.31L8.313,8.983,3.137,16.747Zm.512-4.294v-1.23H3.937v1.23ZM0,11.771v-1.23H1.313v1.23ZM20.344,7.834V6.6h1.312v1.23Z"/></svg>