<svg xmlns="http://www.w3.org/2000/svg" width="78.614" height="80" viewBox="0 0 78.614 80"><path d="M39.99,53.56V48.822a1.133,1.133,0,1,1,2.267,0v3.6h2.749a1.134,1.134,0,1,1,0,2.268H41.128A1.138,1.138,0,0,1,39.99,53.56ZM69.6,26h-.828a13.077,13.077,0,1,0,.828,0Zm-37.377,28.7a8.991,8.991,0,0,0,7.764,7.77v-.915a1.133,1.133,0,1,1,2.267,0v.915a8.991,8.991,0,0,0,7.774-7.77h-.913a1.134,1.134,0,1,1,0-2.268h.913a8.992,8.992,0,0,0-7.774-7.77v.915a1.133,1.133,0,1,1-2.267,0v-.915a8.992,8.992,0,0,0-7.764,7.77h.913a1.134,1.134,0,0,1,0,2.268ZM52.369,53.56A11.246,11.246,0,1,0,41.128,64.805,11.258,11.258,0,0,0,52.369,53.56Zm45.8-.65a1.13,1.13,0,0,1-.041,1.358l-1.969,2.467a1.135,1.135,0,1,1-1.774-1.416l1.446-1.8L92.87,49.277a1.129,1.129,0,1,1,1.846-1.3Zm.205,9.554a9,9,0,0,0,7.774-7.77h-.913a1.134,1.134,0,1,1,0-2.268h.913a9,9,0,0,0-7.774-7.77v.915a1.133,1.133,0,1,1-2.267,0v-.915a9.013,9.013,0,0,0-7.774,7.77h.923a1.134,1.134,0,0,1,0,2.268h-.923a9.011,9.011,0,0,0,7.774,7.77v-.915a1.133,1.133,0,1,1,2.267,0ZM97.25,42.314A11.245,11.245,0,1,0,108.491,53.56,11.261,11.261,0,0,0,97.25,42.314ZM74.5,70.08a5.318,5.318,0,1,1-5.313-5.317A5.325,5.325,0,0,1,74.5,70.08Zm-12.9,0A7.584,7.584,0,1,0,69.189,62.5,7.6,7.6,0,0,0,61.6,70.08Zm27.671,1.8a2.135,2.135,0,0,0-3.22-2.8L75.773,80.882a8.73,8.73,0,0,1-13.169,0L52.328,69.076a2.135,2.135,0,1,0-3.22,2.8L59,83.9a8.4,8.4,0,0,1,1.969,4.749h.174a2.813,2.813,0,0,1,2.81,2.808v11.734a3.136,3.136,0,0,1-.051.542H76.05a1.321,1.321,0,0,0,1.323-1.315V89.448a8.39,8.39,0,0,1,1.99-5.553ZM42.236,103.727a.548.548,0,0,1-.544-.542V93.331L50.553,98v.433a1.133,1.133,0,0,0,2.267,0V98l8.872-4.673v9.855a.548.548,0,0,1-.544.542ZM61.148,90.911l.195.039L52.82,95.444a1.136,1.136,0,0,0-2.256,0L42.041,90.95l.195-.039ZM49.641,87.048a.757.757,0,0,1,.123-.447H53.62a.841.841,0,0,1,.123.447v1.6h-4.1ZM90.553,67.157a4.391,4.391,0,0,1,.431,6.2L81.117,85.336a6.106,6.106,0,0,0-1.477,4.112v12.965a3.59,3.59,0,0,1-3.59,3.583H62.317a3.675,3.675,0,0,1-.615-.055,2.74,2.74,0,0,1-.554.055H42.236a2.814,2.814,0,0,1-2.81-2.809V91.452a2.813,2.813,0,0,1,2.81-2.808h5.138v-1.6a2.508,2.508,0,0,1,2.3-2.714H53.7a2.509,2.509,0,0,1,2.308,2.714v1.6h2.677a6.067,6.067,0,0,0-1.426-3.308L47.384,73.355a4.4,4.4,0,0,1,6.646-5.767l10.277,11.8a6.466,6.466,0,0,0,9.754,0l10.277-11.8A4.414,4.414,0,0,1,90.553,67.157ZM68.3,39.771a1.147,1.147,0,0,1-.041-1.359l4.082-5.825a1.133,1.133,0,1,1,1.856,1.3L70.6,39.017,72.4,41.266a1.136,1.136,0,0,1-.882,1.842,1.118,1.118,0,0,1-.882-.426ZM68.05,28.315v1.339a1.133,1.133,0,0,0,2.267,0V28.315a10.837,10.837,0,0,1,9.62,9.614H78.594a1.133,1.133,0,1,0,0,2.267h1.344a10.835,10.835,0,0,1-9.62,9.614V48.47a1.133,1.133,0,1,0-2.267,0V49.81A10.816,10.816,0,0,1,58.44,40.2h1.333a1.133,1.133,0,1,0,0-2.267H58.44a10.818,10.818,0,0,1,9.61-9.614Z" transform="translate(-29.877 -25.995)" fill-rule="evenodd"/></svg>