<svg xmlns="http://www.w3.org/2000/svg" width="42" height="42" viewBox="0 0 42 42"><path d="M2.617.217C2.449.43,2.446.5,2.446,5.085V9.737l.19.178A.607.607,0,0,0,3.5,9.9c.177-.188.178-.209.2-4.41L3.72,1.273l7.909-.021c6.3-.017,7.917,0,7.949.083.022.057-.427,5-1,10.975s-1.038,11.2-1.039,11.61a5.124,5.124,0,0,0,1.661,3.9l.707.7,6.938,3.91c3.816,2.15,7.178,4,7.472,4.117a8.64,8.64,0,0,0,3.45.54c1.969.062,2.052.083,2.568.653a1.792,1.792,0,0,1-.632,2.852c-.4.186-.492.194-2.33.195-2.351,0-2.845-.08-4-.658a7.285,7.285,0,0,0-.906-.409,7.066,7.066,0,0,0-.8.294,8.192,8.192,0,0,1-3.671.719c-1.622,0-1.6.009-5.179-1.059-4.12-1.229-4.857-1.42-5.829-1.512A9.5,9.5,0,0,0,11.1,39.565a6.009,6.009,0,0,1-3.762,1.174,5.4,5.4,0,0,1-2.875-.72,6.611,6.611,0,0,1-2.48-2.478,6.117,6.117,0,0,1-.246-5.4,2.433,2.433,0,0,1,.357-.689,2.716,2.716,0,0,1,.78.481,7.212,7.212,0,0,0,4.113,1.521,7.188,7.188,0,0,0,4.992-1.592A7.369,7.369,0,0,0,4.544,19.3c-.318.133-.643.262-.722.286-.136.042-.144-.181-.144-3.89V11.763l-.19-.179a.607.607,0,0,0-.864.012l-.179.19v8.825l-.417.423A7.266,7.266,0,0,0,.008,26.381,6.92,6.92,0,0,0,.8,29.409l.408.812-.414.99a8.122,8.122,0,0,0-.783,3.13,7.376,7.376,0,0,0,7.655,7.646,8.034,8.034,0,0,0,4.231-1.452,8.563,8.563,0,0,1,2.588-1.028,10.067,10.067,0,0,1,3.245-.011c.339.07,2.228.606,4.2,1.191,2.294.682,3.9,1.115,4.477,1.206a11.14,11.14,0,0,0,5.4-.6l.634-.246.541.272a8.408,8.408,0,0,0,1.211.463,9.429,9.429,0,0,0,3.052.191c2.3,0,2.4-.006,2.854-.19a3.369,3.369,0,0,0,1.641-1.558A2.136,2.136,0,0,0,42,38.937a2.259,2.259,0,0,0-.23-1.233A3.438,3.438,0,0,0,40.2,36.135c-.482-.218-.572-.229-2.309-.286-2.653-.086-2.641-.082-6.49-2.263-2.02-1.145-8.679-4.911-10.365-5.863a4.311,4.311,0,0,1-2.262-3.763c0-.384.488-5.825,1.085-12.093L20.946.472,20.785.257,20.624.042,11.706.021,2.788,0ZM8.895,20.143a8.607,8.607,0,0,1,1.273.509,4.532,4.532,0,0,1,1.523,1.128,5.939,5.939,0,0,1,1.61,2.674,7.251,7.251,0,0,1,.042,3.2A6.323,6.323,0,0,1,9.1,32.016a4.805,4.805,0,0,1-1.725.191,4.805,4.805,0,0,1-1.725-.191,6.323,6.323,0,0,1-4.243-4.363A8.755,8.755,0,0,1,1.366,24.7,6.12,6.12,0,0,1,3.1,21.744a5.777,5.777,0,0,1,3.171-1.687A7.333,7.333,0,0,1,8.895,20.143ZM6.554,21.249a4.858,4.858,0,0,0-2.635,1.394,4.79,4.79,0,0,0-1.31,4.633,4.584,4.584,0,0,0,1.325,2.286A4.679,4.679,0,0,0,7.4,31.016a4.659,4.659,0,0,0,3.428-1.466,4.75,4.75,0,0,0,1.353-4.481A5.251,5.251,0,0,0,9.84,21.849,5.416,5.416,0,0,0,6.554,21.249Zm1.488,1.236a3.676,3.676,0,1,1-3.328,6.151,3.591,3.591,0,0,1-.907-1.6A3.7,3.7,0,0,1,8.041,22.485ZM6.718,23.738a2.727,2.727,0,0,0-1.344.946,2.455,2.455,0,0,0,.864,3.587,1.758,1.758,0,0,0,1.138.242,1.9,1.9,0,0,0,1.116-.22,2.582,2.582,0,0,0,1.132-1.21,2.827,2.827,0,0,0,0-1.986A2.8,2.8,0,0,0,8.4,23.87,2.9,2.9,0,0,0,6.718,23.738Zm1.3,1.35A1.2,1.2,0,0,1,7.5,27.3a1.23,1.23,0,0,1-1.328-1.486,1.621,1.621,0,0,1,.745-.843A1.241,1.241,0,0,1,8.02,25.088Z" fill-rule="evenodd"/></svg>