<svg xmlns="http://www.w3.org/2000/svg" width="42" height="42" viewBox="0 0 42 42"><path d="M44.4,25.126a9.9,9.9,0,0,0-7.109,5.163,9.8,9.8,0,0,0-1.114,3.89l-.062.692-.41.239a2.345,2.345,0,0,0-1.118,1.167l-.236.492v1.726c0,1.92.069,2.348.508,3.173a4.807,4.807,0,0,0,1.878,1.871,5.527,5.527,0,0,1,1.063.847c.041.1.375,1.728.742,3.623.766,3.955.791,4.324.359,5.118s-.8,1.043-2.965,1.97c-1.983.85-2.323,1.06-2.323,1.435a.658.658,0,0,0,.627.543,40.962,40.962,0,0,0,4.123-1.7,5.361,5.361,0,0,0,1.471-1.4,4.915,4.915,0,0,0,.417-.9c.3-.9.25-1.439-.525-5.426-.382-1.969-.732-3.712-.778-3.872-.072-.255-.233-.393-1.267-1.088-1.3-.871-1.657-1.255-1.941-2.062a5.763,5.763,0,0,1-.159-2.015c0-1.732.053-1.983.477-2.286a1.889,1.889,0,0,1,.627-.248c.622-.116.7-.24.7-1.108a8.648,8.648,0,0,1,9.105-8.718,8.522,8.522,0,0,1,7.223,4.774,8.281,8.281,0,0,1,.875,3.586c.054,1.286.085,1.347.73,1.468a1.267,1.267,0,0,1,1.021.795,10.352,10.352,0,0,1,.059,1.946c-.037,1.8-.067,1.938-.613,2.683a6.251,6.251,0,0,1-1.469,1.185c-1.034.695-1.195.833-1.267,1.088-.045.16-.4,1.9-.778,3.872-.774,3.987-.826,4.524-.525,5.426a4.181,4.181,0,0,0,1.968,2.318c.244.124,2.493,1.109,5,2.189s4.719,2.06,4.922,2.177a4.66,4.66,0,0,1,1.591,1.655,5.179,5.179,0,0,1,.523,2.98l-.023,1.332H26.271L26.249,64.4c-.033-1.96.245-2.893,1.147-3.847.585-.619.94-.82,3.018-1.716,1.015-.437,1.91-.852,1.989-.921a.714.714,0,0,0-.006-.867A.675.675,0,0,0,32,56.909,32.843,32.843,0,0,0,27.951,58.6a5.457,5.457,0,0,0-2.787,3.6A9.439,9.439,0,0,0,25,64.743c0,1.88,0,1.9.19,2.079l.19.178H66.643l.178-.19c.172-.184.178-.252.178-2.079a9.393,9.393,0,0,0-.164-2.538,4.991,4.991,0,0,0-1.469-2.582,7.023,7.023,0,0,0-1.1-.92c-.218-.12-2.593-1.167-5.278-2.327-5.351-2.312-5.4-2.339-5.89-3.237-.432-.794-.407-1.163.359-5.118.367-1.9.7-3.525.742-3.623a5.527,5.527,0,0,1,1.063-.847,4.807,4.807,0,0,0,1.878-1.871c.44-.825.508-1.253.508-3.173V36.768l-.233-.493a2.438,2.438,0,0,0-1.219-1.2c-.343-.152-.353-.166-.353-.542a10.756,10.756,0,0,0-.948-3.916,9.836,9.836,0,0,0-10.5-5.486ZM45.385,43.1a4.955,4.955,0,0,0-4.148,6.039,4.9,4.9,0,1,0,6.3-5.8A5.927,5.927,0,0,0,45.385,43.1Zm1.376,1.3A3.685,3.685,0,0,1,49.2,49.815a4.456,4.456,0,0,1-1.44,1.415,3.821,3.821,0,0,1-3.515,0,4.456,4.456,0,0,1-1.44-1.415A3.7,3.7,0,0,1,45.2,44.4,2.884,2.884,0,0,1,46.761,44.4Zm-1.275,1.2a2.611,2.611,0,0,0-1.719,1.381,2.666,2.666,0,0,0,.036,2.113,2.467,2.467,0,0,0,4.393,0,2.666,2.666,0,0,0,.036-2.113A2.557,2.557,0,0,0,45.486,45.591Zm1.165,1.38a1.208,1.208,0,1,1-1.485.147A1.177,1.177,0,0,1,46.651,46.971ZM44.329,58.884c-.484.381-.171,1.028.686,1.418,1.09.5,2.871-.1,2.871-.959a.5.5,0,0,0-.216-.459c-.289-.228-.395-.216-.882.1a1.3,1.3,0,0,1-1.577,0C44.724,58.668,44.619,58.656,44.329,58.884Zm.194,3.909a.638.638,0,0,0-.244,1.032,2.284,2.284,0,0,0,.636.442A1.974,1.974,0,0,0,46,64.5c1.015,0,1.887-.53,1.887-1.147a.552.552,0,0,0-.789-.513,2.468,2.468,0,0,1-1.1.47,1.7,1.7,0,0,1-.9-.369A.669.669,0,0,0,44.523,62.793Z" transform="translate(-25 -25)" fill-rule="evenodd"/></svg>