<svg xmlns="http://www.w3.org/2000/svg" width="71.908" height="80" viewBox="0 0 71.908 80"><path d="M35.777,79.986A52.087,52.087,0,0,1,21.854,76.2C8.781,70.477,0,55.1,0,37.919v-27.1A1.334,1.334,0,0,1,1.094,9.512,208.853,208.853,0,0,0,35.468.095a1.3,1.3,0,0,1,.973,0h0A208.514,208.514,0,0,0,70.817,9.514a1.333,1.333,0,0,1,1.091,1.31v27.1c0,17.177-8.781,32.558-21.851,38.276a52.061,52.061,0,0,1-13.925,3.791,1.224,1.224,0,0,1-.179.014A1.2,1.2,0,0,1,35.777,79.986ZM2.669,11.932V37.919c0,16.132,8.14,30.532,20.253,35.831a49.214,49.214,0,0,0,13.032,3.567A49.173,49.173,0,0,0,48.986,73.75c12.116-5.3,20.255-19.7,20.255-35.831h0V11.932a213.836,213.836,0,0,1-33.287-9.17A214.078,214.078,0,0,1,2.669,11.932Zm33.079,61.1a45.111,45.111,0,0,1-11.076-3.143C14.109,65.264,7.009,52.383,7.009,37.834V16.53a1.338,1.338,0,0,1,1.051-1.3A229.452,229.452,0,0,0,35.508,7.476a1.345,1.345,0,0,1,.893,0,229.361,229.361,0,0,0,27.445,7.751,1.334,1.334,0,0,1,1.051,1.3v3.9a1.332,1.332,0,1,1-2.664,0V17.6a231.778,231.778,0,0,1-26.278-7.456A232.088,232.088,0,0,1,9.676,17.6V37.834c0,13.5,6.456,25.4,16.065,29.607a42.289,42.289,0,0,0,10.213,2.921,42.093,42.093,0,0,0,10.213-2.921c9.611-4.2,16.065-16.1,16.065-29.607a1.333,1.333,0,1,1,2.666,0c0,14.549-7.1,27.43-17.662,32.052a45.083,45.083,0,0,1-11.074,3.143,1.357,1.357,0,0,1-.208.017A1.3,1.3,0,0,1,35.748,73.028Zm-5.042-18.8A1.336,1.336,0,0,1,29.372,52.9V44.581H21.054a1.334,1.334,0,0,1-1.333-1.334v-10.5a1.334,1.334,0,0,1,1.333-1.334h8.318V23.1a1.336,1.336,0,0,1,1.334-1.334H41.2A1.336,1.336,0,0,1,42.533,23.1v8.317h8.318a1.334,1.334,0,0,1,1.333,1.334v10.5a1.334,1.334,0,0,1-1.333,1.334H42.533V52.9A1.336,1.336,0,0,1,41.2,54.232ZM22.388,41.914h8.318a1.334,1.334,0,0,1,1.334,1.333v8.318h7.826V43.247A1.333,1.333,0,0,1,41.2,41.914h8.318V34.085H41.2a1.334,1.334,0,0,1-1.333-1.334V24.433H32.04v8.318a1.335,1.335,0,0,1-1.334,1.334H22.388ZM62.232,31.527V26.453a1.332,1.332,0,1,1,2.664,0v5.074a1.332,1.332,0,1,1-2.664,0Z" transform="translate(0 0)"/></svg>