<svg xmlns="http://www.w3.org/2000/svg" width="294.311" height="60" viewBox="0 0 294.311 60"><path d="M13.772,59.994A5.2,5.2,0,0,1,9.48,57.541l1.085.095,3.82.471c2.971-.519,6.084-2.971,7.924-6.792,1.981-4.1,2.877-10.14,2.877-19.007V3.443L22.4,2.83,27.639,0V32.544c0,12.216-1.84,21.224-7.688,25.281A10.487,10.487,0,0,1,14.076,60Q13.925,60,13.772,59.994Zm-4.292-2.5a3.922,3.922,0,0,1-2.67-2.358H6.792a3.684,3.684,0,0,1-2.723-2.557l-.164.008C1.74,52.158,0,49.84,0,40.185V14.81L12.027,8.4v24.62c0,3.821-.189,9.622-.99,12.5a2.668,2.668,0,0,0-.189.566c0,.047-.047.094-.047.188a.876.876,0,0,1-.094.33.671.671,0,0,1-.094.283c-.047.094-.047.141-.094.236-.047.047-.047.141-.094.236s-.047.142-.094.236-.047.142-.094.236-.047.142-.094.236c0,.094-.047.141-.094.236-.047.047-.047.141-.094.189-.047.094-.094.142-.141.236s-.047.141-.094.188c-.047.095-.094.141-.141.236-.047.047-.047.094-.094.141s-.094.141-.142.189-.047.094-.094.142-.094.141-.141.188-.047.095-.094.142-.094.141-.142.189c-.047,0-.047.047-.094.094a.652.652,0,0,1-.141.189l-.094.094-.141.141L8.3,50.75l-.142.142-.094.094-.141.142-.094.094-.141.142a.046.046,0,0,1-.047.047l-.141.141a.164.164,0,0,0-.094.047c-.047.047-.094.047-.142.095l-.047.047c-.047.047-.094.047-.142.094l-.047.047c-.047.047-.094.094-.142.094a.046.046,0,0,1-.047.047c-.047.047-.094.047-.141.094a.046.046,0,0,1-.047.047c-.047,0-.094.047-.141.047,0,.047,0,.047-.047.047s-.094.047-.141.047a.046.046,0,0,1-.047.047c-.047,0-.094.047-.141.047a.046.046,0,0,1-.047.047.174.174,0,0,1-.141.047H5.9a.172.172,0,0,1-.141.047h-.9l-.527.025,4.064.447c1.7-.613,4.1-2.547,5.424-7.311.943-3.349,1.085-8.443,1.085-14.244V8.961l-2.689-.613L17.3,5.62l-.033-.007L22.4,2.83V33.44c0,7.641-.8,12.97-2.5,16.744-1.132,2.547-4.387,7.358-9.339,7.405Zm-1.6-2.264,3.349.377c3.066-.754,5.565-3.537,6.933-7.075C19.715,44.43,20,38.864,20,32.355V6.226l-2.688-.6V33.676c0,5-.236,9.433-1.274,13.018-.66,2.594-3.4,7.877-8.159,8.49l-.545-.024ZM42.5,45.137V29.054c0-2.075-.236-2.547-2.83-2.688V25.092h9.527v1.274c-2.594.142-2.83.613-2.83,2.688V46.269c0,3.726,2.122,5.613,5.094,5.613,3.4,0,5.471-2.17,5.471-5.707V29.431c0-2.075-.613-2.971-3.066-3.113V25.045H61.5v1.274c-2.452.141-3.066,1.037-3.066,3.113V45.279c0,4.952-2.17,7.876-7.735,7.876C45.09,53.155,42.5,50.137,42.5,45.137Zm232.477-2.075c0-5.943,3.16-10.141,7.688-10.141,4.433,0,7.216,4.151,7.216,10v.047H278.888c0,5.613,2.028,8.631,4.716,8.631,3.49,0,4.764-3.018,5.141-5.754l1.274.236c-.377,3.537-2.311,7.027-6.792,7.027C278.227,53.108,274.973,48.061,274.973,43.062Zm3.868-1.651h7.169c0-5.188-1.226-7.216-3.349-7.216C280.35,34.2,278.841,36.223,278.841,41.411ZM229.6,43.58c0-5,3.443-10.612,8.3-10.612,3.4,0,5.565,2.123,5.565,5.236,0,1.933-.613,2.971-2.028,2.971-1.132,0-1.887-.943-1.887-2.405,0-1.7.613-2.406,1.651-2.406.283,0,.424.142.613.142l.094-.094a3.5,3.5,0,0,0-3.349-2.217c-2.971,0-5,3.019-5,8.679,0,6.745,2.075,8.679,4.434,8.679,3.254,0,4.292-2.971,4.717-5.8l1.179.189c-.377,3.773-2.122,7.169-6.509,7.169C233.326,53.108,229.6,49.476,229.6,43.58ZM255.258,49.9h-.094c-.99,1.839-2.17,3.16-5,3.16-3.113,0-4.905-1.887-4.905-4.528,0-4.575,6.367-6.462,9.81-7.735V37.5c0-2.311-1.085-3.3-3.207-3.3a4.231,4.231,0,0,0-3.4,1.462c1.274.141,1.651,1.085,1.651,2.264,0,1.462-.849,2.358-1.981,2.358s-1.934-.8-1.934-2.405c0-2.736,2.547-4.905,6.037-4.905,4.528,0,6.226,2.028,6.226,5.047V49.241c0,1.179.283,1.7.849,1.7.8,0,1.085-.9,1.179-3.82l1.321-.094c0,4.245-.849,6.037-3.3,6.037C256.578,53.061,255.494,52.071,255.258,49.9Zm-6.32-1.462c0,2.123.943,3.16,2.216,3.16,2.076,0,3.915-2.452,3.915-6.98V42.354C251.815,43.486,248.938,45,248.938,48.438ZM201.914,48.2V35h-2.5V33.817c2.877-1.179,4.386-2.547,4.622-7.688h1.32V33.44h4.811V34.95h-4.811v14.1c0,1.746.613,2.5,1.7,2.5,1.321,0,2.311-.849,2.311-5.094V45.326h1.274v1.886c0,4.056-1.462,5.849-4.481,5.849C203.518,53.061,201.914,51.41,201.914,48.2Zm-110.272,0V35h-2.5V33.817c2.877-1.179,4.387-2.547,4.622-7.688h1.321V33.44H99.9V34.95H95.085v14.1c0,1.746.613,2.5,1.7,2.5,1.321,0,2.311-.849,2.311-5.094V45.326h1.274v1.886c0,4.056-1.462,5.849-4.481,5.849C93.246,53.061,91.642,51.41,91.642,48.2Zm93.34,1.7h-.094a5.015,5.015,0,0,1-4.952,3.113c-3.066,0-4.858-1.887-4.858-4.528,0-4.575,6.273-6.462,9.716-7.735V37.5c0-2.311-1.037-3.3-3.16-3.3a4.229,4.229,0,0,0-3.4,1.462c1.321.094,1.7,1.037,1.7,2.217a2.061,2.061,0,0,1-1.981,2.311c-1.132,0-1.934-.8-1.934-2.405,0-2.688,2.547-4.858,6.037-4.858,4.481,0,6.179,2.075,6.179,5.047V49.1c0,1.179.283,1.7.849,1.7.8,0,1.085-.9,1.179-3.773h1.273c0,4.2-.849,5.99-3.3,5.99C186.3,53.014,185.217,52.071,184.982,49.9Zm-6.226-1.509c0,2.122.99,3.16,2.217,3.16,2.028,0,3.868-2.405,3.868-6.933V42.354C181.633,43.486,178.756,45,178.756,48.392Zm-19.149-5.424c0-5.848,3.207-10,7.735-10,4.434,0,7.216,4.151,7.216,9.9h-10.99c0,5.565,2.028,8.632,4.716,8.632,3.443,0,4.717-3.019,5.094-5.754l1.273.236c-.377,3.538-2.311,7.028-6.792,7.028C162.861,53.014,159.607,47.967,159.607,42.967Zm3.915-1.6H170.6c0-5.141-1.179-7.122-3.3-7.122C165.031,34.242,163.522,36.223,163.522,41.364Zm-44.76,1.7c0-5.8,3.16-10.093,7.358-10.093a4.5,4.5,0,0,1,4.009,2.688l.094-.047V28.441c0-1.7-.518-1.981-2.594-2.075V25.045l6.037-.236V48.25c0,2.17.708,2.83,2.311,2.783v1.274l-5.613.236v-2.83h-.094c-.849,1.887-2.17,3.3-4.622,3.3C122.064,53.014,118.762,49.335,118.762,43.062Zm3.915.047c0,6.179,1.321,8.631,3.3,8.631,2.122,0,4.245-1.745,4.245-8.631,0-5.66-1.462-8.631-3.915-8.631C124.092,34.478,122.677,36.93,122.677,43.109Zm-20.8-.142c0-5.848,3.16-10,7.688-10,4.434,0,7.216,4.151,7.216,9.9h-10.99c0,5.565,2.028,8.632,4.717,8.632,3.443,0,4.717-3.019,5.094-5.754l1.274.236c-.377,3.538-2.311,7.028-6.792,7.028C105.178,53.014,101.877,47.967,101.877,42.967Zm3.867-1.6h7.075c0-5.141-1.179-7.122-3.3-7.122C107.254,34.242,105.744,36.223,105.744,41.364ZM262.239,52.636V51.316c1.7-.094,2.311-.8,2.311-2.028V38.345c0-2.736-.472-3.632-2.5-3.679V33.393l5.518-.236v4.622h.094c.519-2.075,1.934-4.858,4.339-4.858,1.462,0,2.924,1.226,2.924,3.49,0,1.745-.849,2.594-1.887,2.594-.9,0-1.793-.566-1.793-2.358a1.791,1.791,0,0,1,1.7-1.981,1.159,1.159,0,0,0-1.038-.471c-2.688.047-3.915,5.943-3.915,9.433v5.707c0,1.226.613,1.934,3.349,2.028v1.274Zm-39.053-.047V38.581c0-2.783-.991-3.726-2.453-3.726-1.981,0-4.2,2.642-4.2,6.462v7.971c0,1.179.66,1.934,2.547,1.981v1.274H210.5V51.268c1.933-.094,2.547-.8,2.547-1.981V28.441c0-1.7-.472-1.981-2.642-2.075V25.139l6.084-.236V36.647h.095a5.466,5.466,0,0,1,5-3.585c3.066,0,5,2.169,5,5.66V49.335c0,1.179.66,1.934,2.5,1.981v1.274Zm-219.318,0,.038,0,.009,0Zm187.151-1.321c1.934-.094,2.547-.8,2.547-1.981v-20.8c0-1.368-.66-2.075-2.641-2.17V25.045l6.084-.236V49.241c0,1.179.66,1.934,2.547,1.981v1.274h-8.537V51.268Zm-41.694,1.274V51.268c2.453-.141,2.971-.66,2.971-2.736V38.864h-8.631v9.669c0,2.075.471,2.547,2.971,2.736v1.274h-9.669V51.268c2.406-.141,2.783-.66,2.783-2.736V29.054c0-2.075-.424-2.547-2.783-2.688V25.092h9.669v1.274c-2.453.141-2.971.613-2.971,2.688v8.3H152.3v-8.3c0-2.075-.472-2.547-2.971-2.688V25.092h9.669v1.274c-2.405.141-2.783.613-2.783,2.688V48.533c0,2.075.424,2.547,2.783,2.736v1.274Zm-68.956,0V51.268c1.934-.094,2.547-.8,2.547-1.981V36.553c0-1.7-.471-1.981-2.547-2.075V33.2l5.99-.236V49.288c0,1.179.66,1.934,2.547,1.981v1.274ZM60.937,51.268c1.934-.094,2.547-.8,2.547-1.981v-12.5c0-1.745-.472-2.028-2.642-2.075V33.44l5.848-.283v3.867h.095c1.085-2.216,2.641-4.1,5.377-4.1,3.3,0,4.858,2.17,4.858,5.66V49.193c0,1.368.566,1.934,2.453,1.981v1.274h-5.9V38.2c0-2.641-.99-3.537-2.358-3.537-2.123,0-4.292,2.783-4.292,6.7V49.1c0,1.179.66,1.934,2.547,1.981v1.273H60.937V51.268ZM288.32,31.176a3,3,0,1,1,3.018,3.019A3,3,0,0,1,288.32,31.176Zm.472,0a2.547,2.547,0,1,0,2.546-2.547A2.536,2.536,0,0,0,288.793,31.176Zm1.462,1.745V29.478h1.368a.844.844,0,0,1,.943.849.855.855,0,0,1-.755.8c.424,0,.613.141.613.849a3.485,3.485,0,0,0,.142.9H292a3.489,3.489,0,0,1-.141-1.132.44.44,0,0,0-.519-.377h-.519v1.556Zm.519-1.981h.707a.506.506,0,0,0,.519-.566.492.492,0,0,0-.519-.519h-.707ZM82.3,27.261c0-1.509.849-2.547,2.028-2.547,1.227,0,2.028,1.038,2.028,2.547s-.849,2.547-2.028,2.547S82.3,28.771,82.3,27.261ZM205.357,26.13Zm0-.047v0ZM95.085,26.13Zm0-.047v0Zm-55.466-.99h0Z"/></svg>