<svg xmlns="http://www.w3.org/2000/svg" width="384.511" height="60" viewBox="0 0 384.511 60"><path d="M339.167,32.985C335.553,21.653,336.155,8.3,340.321,0A42.582,42.582,0,0,0,360.65,4.958,43.782,43.782,0,0,0,380.978,0c4.166,8.3,4.77,21.653,1.156,32.985C378.67,43.861,371.893,53.777,360.65,60,349.557,53.777,342.781,43.861,339.167,32.985Zm4.517-1.164c3.062,9.157,7.932,17.4,17.017,23.221,9.185-5.818,14.1-13.912,17.267-23.221,2.71-8.3,3.413-17.858.4-25.4A55.277,55.277,0,0,1,368.581,8.9a42.419,42.419,0,0,1-7.78.556,52.147,52.147,0,0,1-7.779-.556,55.247,55.247,0,0,1-9.788-2.479C340.221,13.963,340.824,23.524,343.684,31.821Zm26.8,24.942a3,3,0,0,1,3.013-2.885,2.846,2.846,0,0,1,3.011,2.885,3,3,0,0,1-3.011,2.883A3.11,3.11,0,0,1,370.488,56.763Zm.653-.1a2.459,2.459,0,1,0,4.919,0,2.439,2.439,0,0,0-2.459-2.478A2.354,2.354,0,0,0,371.141,56.66Zm-55.867.1a3,3,0,0,1,3.012-2.885,2.819,2.819,0,0,1,3.012,2.885,3,3,0,0,1-3.012,2.883A2.907,2.907,0,0,1,315.274,56.763Zm.553-.1a2.459,2.459,0,1,0,4.919,0,2.44,2.44,0,0,0-2.46-2.478A2.353,2.353,0,0,0,315.827,56.66Zm-68.567.1a3,3,0,0,1,3.011-2.885,2.793,2.793,0,0,1,3.013,2.885,3,3,0,0,1-3.013,2.883A3.106,3.106,0,0,1,247.26,56.763Zm.7.051a2.44,2.44,0,0,0,2.46,2.478,2.38,2.38,0,0,0,2.459-2.478,2.441,2.441,0,0,0-2.459-2.479A2.355,2.355,0,0,0,247.962,56.813Zm38.9,2.681V43.2H270.6V17.048h16.263V.759h25.8V17h16.163V43.154H312.664V59.495Zm11.847-27.674-7.782,11.737a16.111,16.111,0,0,0,17.569.051l-7.779-11.788a1.389,1.389,0,0,0-1.057-.589A1.13,1.13,0,0,0,298.711,31.821ZM304.03,25.4c-2.007.3-2.258,2.175-1.706,3.49l7.33,13.963A16.019,16.019,0,0,0,315.725,30.2a15.371,15.371,0,0,0-1.053-5.818ZM283.852,30.2a15.977,15.977,0,0,0,6.024,12.647L297.2,28.887c.6-1.315.3-3.187-1.707-3.49l-10.641-1.012A12.942,12.942,0,0,0,283.852,30.2Zm17.417-10.826a3.1,3.1,0,0,0-.854,2.176c0,.708.7,1.72,2.311,1.72H314.12a15.951,15.951,0,0,0-14.155-9.309h-.3a16.158,16.158,0,0,0-14.255,9.309H296.8c1.6,0,2.308-1.012,2.308-1.72a3.1,3.1,0,0,0-.854-2.176,2.009,2.009,0,1,1,3.012,0Zm72.985,39.006-.854-1.467h-.552v1.467H372.3v-3.34h1.3c.7,0,1.154.3,1.154,1.012a.8.8,0,0,1-.953.861l1,1.467ZM372.9,56.509h.55c.4,0,.855,0,.855-.556,0-.3-.4-.455-.7-.455h-.7Zm-53.961,1.873-.852-1.467h-.552v1.467h-.553v-3.34h1.306c.7,0,1.154.3,1.154,1.012a.8.8,0,0,1-.953.861l1,1.467Zm-1.355-1.873h.553c.4,0,.852,0,.852-.556,0-.3-.4-.455-.7-.455h-.7Zm-66.507,1.873-.852-1.467h-.553v1.467h-.552v-3.34h1.3c.7,0,1.156.3,1.156,1.012a.821.821,0,0,1-.955.861l1.005,1.467Zm-1.355-1.873h.552c.4,0,.854,0,.854-.556,0-.3-.4-.455-.7-.455h-.7ZM0,29.8C0,17.454,8.784,1.77,27.657,1.77c11.845.152,14,3.491,15.861,3.491,1.306,0,1.858-1.315,3.012-1.315,0,.152.452.3.452,1.012l.7,13.506H45.677C44.07,10.725,38.048,3.338,28.812,3.338H28.36C17.719,3.338,9.638,14.114,9.638,30.81c0,8.7,3.915,23.979,20.127,23.928,6.174,0,11.244-2.479,14.256-5.969.3-4.655,3.864-7.235,8.784-8.854A40,40,0,0,1,63.6,38.2V31.518c-.15-2.328-.3-6.121-5.621-6.121-3.614,0-6.476,2.175-6.476,3.338,0,1.012,1.606,2.075,1.606,3.795a3.543,3.543,0,1,1-7.077-.3c0-3.9,5.018-8.7,12.95-8.7a15.322,15.322,0,0,1,9.637,3.491c2.158,2.326,2.158,4.957,2.158,7.993V50.388c0,2.782,0,4.654,1.858,4.654a2.182,2.182,0,0,1,.6.1c.1,0,.251-.152.552-.3v1.619c-.854.557-1.456.861-3.614.861a8.367,8.367,0,0,1-4.618-1.467c-1.856-1.467-2.007-3.34-2.158-4.958A11.437,11.437,0,0,1,52.855,57.42c-4.316,0-7.78-2.176-8.633-5.969-3.012,3.338-8.484,6.373-17.869,6.373C10.089,57.824,0,45.632,0,29.8ZM51.3,48.212c0,3.9,2.41,5.514,5.02,5.514a6.5,6.5,0,0,0,4.467-1.871c2.46-2.328,2.61-3.946,2.762-7.993v-4.2C57.373,39.814,51.3,41.686,51.3,48.212Zm177.439,4.756c-.55-1.416-.55-3.34-.55-7.387V16.24c-34.585-3.187-62.845,3.338-85.734,11.635V55.193h6.776v1.721H126.742V55.193h6.776V1.871h-6.776V.152h38.2l1,12.647h-1.856c-.855-4.805-2.761-7.386-4.468-8.853-2.46-2.024-5.772-2.176-11.545-2.176h-5.622V24.385c34.886-12.9,65.253-14.064,85.734-12.344a14.851,14.851,0,0,0,2.308-2.024,16.947,16.947,0,0,0,3.915-7.537h1.154V12.95c13,1.569,20.329,4.047,20.329,4.047v3.795c-7.077-1.619-13.853-2.782-20.329-3.642V49.376c0,2.479-.1,5.818,3.915,5.818s4.618-3.338,4.719-4.553H245.9c-.451,1.922-1.606,7.133-8.935,7.133C233.056,57.774,229.892,56.155,228.738,52.968Zm-27.455,2.479V44.57h2.007c.452,5.26,2.61,11.483,9.236,11.483,3.413,0,7.33-2.023,7.33-5.969,0-3.441-3.013-5.059-5.774-6.223-5.17-2.175-12.4-3.592-12.4-10.877,0-6.678,5.02-10.168,10.792-10.168,3.464,0,6.475,1.011,9.788,2.175v8.854h-1.706v-.3c-.855-4.807-2.71-8.854-8.484-8.854-3.012,0-5.622,1.467-5.622,4.654a4.547,4.547,0,0,0,2.61,4.352,30.154,30.154,0,0,0,3.012,1.315,23.243,23.243,0,0,0,3.463,1.162c3.766,1.164,9.238,4.1,9.238,10.979,0,6.981-6.326,10.32-12.4,10.32A32.535,32.535,0,0,1,201.283,55.447ZM100.19,40.269c0-9.307,7.227-16.694,15.861-16.694,4.868,0,9.486,2.176,11.795,6.83a6.983,6.983,0,0,1,.854,2.024c0,.1,0,.1.15.556a143.252,143.252,0,0,0-20.63,12.5c1.255,4.756,4.166,8.4,9.638,8.4,3.915,0,8.935-3.945,10.541-6.83l.15-.152c.3,0,1,.152,1,.3,0,.758-1.456,3.187-1.957,4-3.213,4.2-6.927,6.223-12.7,6.223C105.962,57.42,100.19,49.275,100.19,40.269Zm7.88-6.373a16.031,16.031,0,0,0-.452,2.883,18.549,18.549,0,0,0-.15,2.883,17.693,17.693,0,0,0,.15,3.643,98.449,98.449,0,0,1,14.407-10.169c-.251-4.5-2.158-7.537-6.324-7.537C111.684,25.6,109.374,28.937,108.07,33.9Zm65.6,23.271v-1.72h4.768V26.712l-4.467.455V24.991a99.209,99.209,0,0,1,12.1-1.871l-.15,8.549a14.323,14.323,0,0,1,2.008-4.047c1.858-2.631,4.316-4.35,7.328-4.35,2.862,0,5.17,1.871,5.17,4.807a4.08,4.08,0,0,1-4.166,4.2c-2.158,0-3.463-1.315-3.764-3.643-.15-1.72-.15-2.023-1-2.023-.15,0-1.706.1-3.312,4.047-2.158,5.361-2.308,9.307-2.459,14.67V55.447h4.516v1.72Zm-18.924-.3V55.143h4.768V27.42A55.989,55.989,0,0,1,167,25.7V55.143h4.467v1.721Zm-79.508,0v-1.62h4.768V27.521l-4.468.455V25.953a96.089,96.089,0,0,1,12.1-1.72l-.15,8.145A15.708,15.708,0,0,1,89.5,28.331c1.858-2.631,4.316-4.352,7.328-4.352,2.862,0,5.17,1.873,5.17,4.655a3.981,3.981,0,0,1-3.965,4.1c-2.158,0-3.463-1.315-3.765-3.491-.15-1.72-.15-2.023-1-2.023-.15,0-1.706.1-3.312,4.047-2.158,5.363-2.31,9.309-2.31,14.519v9.46h4.468v1.62Zm180.35-.911,1.055-4.958H258.5l-1,4.958Zm89.2-27.875c-1.606-6.223-2.008-13.356,0-18.87,2.761.708,5.322,1.265,8.082,1.72,2.609.253,5.319.556,7.929.556a72.214,72.214,0,0,0,7.932-.556c2.71-.455,5.319-1.012,8.079-1.72,1.858,5.666,1.457,12.647,0,18.87C373.9,39.865,366.824,48.82,360.65,52.766,354.427,48.82,347.4,39.865,344.789,28.078ZM360.4,48.971c0,.556.3.708.852.708a.81.81,0,0,0,.854-.556c0-.759,0-3.946.15-5.666,0-.152,0-.152-.15-.3a2.578,2.578,0,0,0-.854-.557c-.3-.152-1-.455-1-.455S360.249,46.644,360.4,48.971Zm-1.2-3.795a2.381,2.381,0,0,0-.7,1.72,3.043,3.043,0,0,0,.3,1.467.385.385,0,0,0,.7,0c.152-.3,0-.606,0-1.162a2.259,2.259,0,0,1,.452-.709H359.9V44.469C359.9,44.621,359.648,44.722,359.2,45.177Zm-.4-8.549a3.024,3.024,0,0,0-1.3,1.012,2.587,2.587,0,0,0,1.3,3.338c.553.3,1.456.556,2.158.861s1.858,1.011,1.858,1.315a.667.667,0,0,1-.15.455v1.72a2.938,2.938,0,0,0,1.306-.556,2.293,2.293,0,0,0,.852-1.721c0-.859-.4-1.619-1.706-2.478a19.037,19.037,0,0,0-3.162-1.467.293.293,0,0,1-.15-.456.531.531,0,0,1,.15-.3V36.324S359.245,36.476,358.793,36.628Zm1.456,2.175,1,.406,1.156.455V35.312a10.364,10.364,0,0,0-2.16-.152Zm-3.915-8.095c-.251,2.024,1.154,3.036,2.609,3.491a27.114,27.114,0,0,0,3.465.455,1.451,1.451,0,0,1,.7.152c.15.153.3.3.451.3a.56.56,0,0,1-.15.455,2.154,2.154,0,0,1-.452.3V38.3a3.1,3.1,0,0,0,1.707-.556,3.237,3.237,0,0,0,1.456-1.721,3.249,3.249,0,0,0-2.308-3.743,26.887,26.887,0,0,0-4.468-.557.4.4,0,0,1-.452-.455.623.623,0,0,1,.3-.557,5.591,5.591,0,0,0-.452-1.162,6.4,6.4,0,0,0-.553-1.315A3.336,3.336,0,0,0,356.334,30.708Zm2.862-4.6v.455a4.986,4.986,0,0,0-.7.456,1.537,1.537,0,0,0-.15.455,18.408,18.408,0,0,1,1.306,3.845,19.066,19.066,0,0,1,2.86.152V26.256A9.149,9.149,0,0,0,360.9,26.1a7.356,7.356,0,0,0-.955-.067A3.155,3.155,0,0,0,359.2,26.1Zm-4.87-10.32a4.368,4.368,0,0,0-1.858,5.818,7.046,7.046,0,0,0,4.316,3.642,18.571,18.571,0,0,0,2.863.456,13.586,13.586,0,0,1,3.463.455.507.507,0,0,1,.552.455,1.075,1.075,0,0,1-.552,1.468c0,1.011-.152,3.035-.152,3.035s4.919-.456,4.066-4.908a3.783,3.783,0,0,0-2.008-2.631c-2.459-1.315-5.17-.758-7.63-1.619-.852-.3-2.008-.759-2.308-1.619-.1-.455,0-1.164.452-1.315.6-.152,1.3.253,2.308.556a2.879,2.879,0,0,0,1.606,0,1.215,1.215,0,0,0,.552-.3c0-.152-.3-.152-.452-.3-.3-.152-.55-.152-.852-.3a6.51,6.51,0,0,1-1.606-.709,3.255,3.255,0,0,1,1.706,0h1.858c.15,0,.3-.152.15-.3-.1-.253-.4-.253-.552-.556-.3-.456-.6-1.012-1.154-1.164a4.534,4.534,0,0,0-2.489-.726A4.823,4.823,0,0,0,354.326,15.785ZM360.2,18.87c.152,0,.152.3.152.3-.152.556-1.3.709-1.3.709V21.5c1.153.152,2.459.152,3.913.455a2.212,2.212,0,0,1,.3-.455c.451-.608,1-.911,1.456-1.467a24.324,24.324,0,0,1,2.158-2.024,2.121,2.121,0,0,0,.552-.859c.3-1.012-1-1.569-1.406-1.468-1,.406-1.606,1.315-2.61,1.873,0,0-.3,0-.3-.152-.152-.456,0-1.619-.152-2.328,0-.3,0-.3-.3-.455a8.207,8.207,0,0,1-2.761-1.012c-.1-.152-.4,0-.552.3a2.92,2.92,0,0,0,0,1.164,3.5,3.5,0,0,1,.852.556,5.252,5.252,0,0,1,.7.861,2.723,2.723,0,0,0,.452.556c.3.254.452.557.3.709a1.014,1.014,0,0,1-.7.3,7.281,7.281,0,0,1-1.455.152s1.757.3,2.46.456a.767.767,0,0,1,.552.3v.455a7.752,7.752,0,0,0-2.86-.859A2.065,2.065,0,0,1,360.2,18.87ZM294.091,42.748l5.472-8.3a.282.282,0,0,1,.452,0l5.322,8.3a14.166,14.166,0,0,1-11.246,0Zm10.441-14.722c-.1-.253-.1-.556.452-.556l8.082-.708a12.515,12.515,0,0,1,.451,3.187,14.156,14.156,0,0,1-3.312,9Zm-18.521,1.923a12.516,12.516,0,0,1,.451-3.187l8.082.708c.552,0,.552.3.4.608l-5.622,10.876A14.149,14.149,0,0,1,286.011,29.949Zm17.015-8.955a.211.211,0,0,1,0-.3,3.566,3.566,0,0,0,.552-3.946,14.775,14.775,0,0,1,6.626,4.249Zm-13.7-.051a15.585,15.585,0,0,1,6.626-4.2,3.4,3.4,0,0,0,.6,3.9.211.211,0,0,1,0,.3Zm68.618-4.805c-.15-.152-.451,0-.6-.354a2.917,2.917,0,0,1,2.008.455l-.15.152a.614.614,0,0,1-.553.3.442.442,0,0,1-.155.033C358.235,16.727,358.2,16.4,357.94,16.139Z"/></svg>