<svg xmlns="http://www.w3.org/2000/svg" width="257.143" height="60" viewBox="0 0 257.143 60"><path d="M136.863,58.867l-.676-10.356a9.8,9.8,0,0,1-4.473,1.078c-5.213,0-6.73-1.923-6.73-8.944V22.519h10.254V12.455H125.131c0-3.569.295-8.826.633-12.455h-9.516c-1.287,8.788-4.01,13.338-12.662,14.672v7.847h5.762c-.008.452-.016.938-.025,1.454-.088,5.193-.229,13.44-.229,21.006,0,10.613,5.93,14.968,17.051,14.968A46.66,46.66,0,0,0,136.863,58.867ZM189.279,28.09v9.16c-.041,7.239.295,17.969.506,21.7H172.9c.3-3.727.527-15.262.527-21.7V30.189c0-7.1-1.9-9.67-7.806-9.67a20.48,20.48,0,0,0-6.141.94c-.232,6.688-.232,11.672-.232,15.79h0c-.063,7.239.295,17.969.676,21.7H143.047c.295-3.727.484-15.38.527-21.7s.022-16.535-.527-24.814c5.063,0,9.185-.378,13.193-.745,3.792-.347,7.482-.686,11.77-.686C183.731,11,189.279,16.321,189.279,28.09ZM69.889,39.212c1.56.118,4.64.118,6.457.118,15.551,0,23.549-4.532,23.463-14.32C99.809,16.595,93.227,11,78.92,11c-17.367,0-24.246,7.2-25.809,20.066-2.531-.216-5.295-.216-9.072-.216V28.738c0-13.045-5.824-17.773-21.291-17.773A56.054,56.054,0,0,0,4.537,13.516l.59,10.4A33.25,33.25,0,0,1,18.99,20.478c7.133,0,9.244,2.727,9.244,9.24v.98H25.807C8.166,30.7,0,35.387,0,44.881S5.086,59.947,19.539,59.947c3.591,0,7.154-.221,10.931-.455,4.257-.264,8.784-.545,13.926-.545a81.432,81.432,0,0,1-.738-13.025c0-1.74.082-3.784.173-6.077q.019-.476.038-.966c2.351.011,4.317.079,5.964.136,1.265.043,2.341.081,3.259.081,1.476,15.26,9.98,20.891,27.683,20.891A47.9,47.9,0,0,0,97.4,57.454L96.793,47.04a28.939,28.939,0,0,1-13.484,3.373c-8.715,0-13.42-4.218-13.42-10.886ZM27.96,40.349c-.045,3.5-.094,7.276.126,10a21.6,21.6,0,0,1-4.811.59c-5.381,0-7.682-1.845-7.682-5.886s2.934-6.335,10.277-6.335h2.109C27.975,39.254,27.968,39.8,27.96,40.349ZM84.553,24.736c0,4.55-3.25,6.669-10.043,6.669h-.065c-1.625,0-3.355-.02-4.578-.118v-.236c0-6.531,2.236-11.317,8.672-11.317C82.189,19.734,84.553,21.5,84.553,24.736Zm155.529,34.13a81.179,81.179,0,0,1-.6-13.064c0-1.844.092-4.026.195-6.482.135-3.16.289-6.772.289-10.7,0-13.045-5.8-17.773-21.291-17.773a56.045,56.045,0,0,0-18.317,2.589l.592,10.4A33.243,33.243,0,0,1,214.813,20.4c7.134,0,9.242,2.727,9.242,9.24v.981H221.63c-17.663,0-25.809,4.688-25.809,14.182s5.086,15.064,19.541,15.064c3.591,0,7.153-.221,10.929-.455C230.509,59.15,234.994,58.871,240.082,58.867ZM223.8,40.342c-.043,3.475-.09,7.224.127,9.933l-.064.078a21.49,21.49,0,0,1-4.747.51c-5.381,0-7.682-1.843-7.682-5.885s2.934-6.335,10.277-6.335h2.109C223.817,39.2,223.809,39.767,223.8,40.342Zm20.467-21.354a5.717,5.717,0,0,0,3.439,3.471,7.7,7.7,0,0,0,5.552,0,6.325,6.325,0,0,0,2.109-1.393,6.21,6.21,0,0,0,1.309-2.079,6.917,6.917,0,0,0,.465-2.511,6.82,6.82,0,0,0-.465-2.511,6.171,6.171,0,0,0-3.418-3.353,7.7,7.7,0,0,0-5.552,0,6.349,6.349,0,0,0-2.109,1.393,6.1,6.1,0,0,0-1.309,1.961,6.868,6.868,0,0,0-.465,2.511A7.1,7.1,0,0,0,244.269,18.988Zm6.163,2.961a5.714,5.714,0,0,1-2.3-.45,5.121,5.121,0,0,1-2.3-2.021,5.715,5.715,0,0,1-.782-2.981,5.92,5.92,0,0,1,.36-1.961,5.065,5.065,0,0,1,1.054-1.727,5,5,0,0,1,1.686-1.2,6.148,6.148,0,0,1,4.581,0,5,5,0,0,1,1.687,1.2,5.11,5.11,0,0,1,1.054,1.727,5.956,5.956,0,0,1,.36,1.961,6.047,6.047,0,0,1-.36,2.059,5.035,5.035,0,0,1-2.741,2.943A5.52,5.52,0,0,1,250.432,21.949Zm-1.245-9.4h-1.2l.041,7.827h1.247V17.321h1.033l1.686,2.609a1.1,1.1,0,0,0,.465.43,1.431,1.431,0,0,0,.57.118h.339a1.262,1.262,0,0,0,.358-.138l-2.109-3.157a2.521,2.521,0,0,0,1.329-.764,2.271,2.271,0,0,0,.422-.686,2.442,2.442,0,0,0,.145-.884,2.08,2.08,0,0,0-.758-1.647,3.855,3.855,0,0,0-2.509-.648ZM252.2,14.77c0,.922-.568,1.373-1.71,1.373l-1.286-.058V13.536h1.1a2.6,2.6,0,0,1,1.457.312A1.055,1.055,0,0,1,252.2,14.77Z" fill-rule="evenodd"/></svg>