<svg xmlns="http://www.w3.org/2000/svg" width="324.999" height="60" viewBox="0 0 324.999 60"><path d="M287.862,42.774c0-12.4,8.815-25.3,23.262-25.3,8.08,0,13.875,4.66,13.875,12.233,0,10.319-9.875,14.063-25.955,13.647a9.163,9.163,0,0,0,1.307,4.161c1.55,2.081,4.243,3.162,7.67,3.162A24.694,24.694,0,0,0,319.2,48.1l.817,8.655A33.919,33.919,0,0,1,305.084,60C293.739,60,287.862,53.426,287.862,42.774Zm12.325-8.156c9.223.084,13.8-1.165,13.8-4.993,0-2-1.632-3.412-4.328-3.412C304.186,26.213,301,30.874,300.186,34.618ZM211.818,45.853c0-13.731,8.978-28.378,28.566-28.378a46.227,46.227,0,0,1,13.222,2l-4.163,21.3a100.473,100.473,0,0,0-1.632,18.308H237.038c.082-2.413.327-5.16.49-8.072h-.163C233.692,57.753,228.55,60,223.9,60,216.715,60,211.818,54.341,211.818,45.853Zm12.243-2.247c0,3.995,1.551,6.741,4.815,6.741,3.51,0,7.835-4.077,9.713-14.064l1.8-9.4a17.1,17.1,0,0,0-3.183-.332C229.611,26.547,224.061,36.033,224.061,43.606Zm-113.945,1c0-14.147,10.039-27.212,25.139-27.212a16.2,16.2,0,0,1,5.468,1L144.233,0H155.9l-8.08,43.273a109.59,109.59,0,0,0-1.878,15.811H135.173l.572-6.574h-.163c-3.51,5.409-8.407,7.49-13.141,7.49C115.667,60,110.116,54.508,110.116,44.6Zm12.243-1.914c0,4.909,2.122,7.656,5.469,7.656,3.428,0,7.59-3.661,9.141-11.484l2.122-10.9a7.586,7.586,0,0,0-4.652-1.415C127.338,26.547,122.359,34.868,122.359,42.691Zm-53.287.083c0-12.4,8.815-25.3,23.261-25.3,8.081,0,13.876,4.66,13.876,12.233,0,10.319-9.876,14.063-25.954,13.647a9.165,9.165,0,0,0,1.306,4.161c1.551,2.081,4.244,3.162,7.672,3.162a24.7,24.7,0,0,0,11.182-2.58l.816,8.655A33.919,33.919,0,0,1,86.294,60C74.949,60,69.072,53.426,69.072,42.774ZM81.4,34.618c9.223.084,13.793-1.165,13.793-4.993,0-2-1.632-3.412-4.326-3.412C85.4,26.213,82.213,30.874,81.4,34.618Zm96.236,8.655c0-14.48,10.855-25.8,26.037-25.8a24.506,24.506,0,0,1,8.162,1.332l-2.938,9.237a13.275,13.275,0,0,0-5.387-1c-8.325,0-13.549,7.24-13.549,14.9,0,5.576,3.51,8.405,7.835,8.405a19.808,19.808,0,0,0,7.917-1.664l.082,9.07a27.011,27.011,0,0,1-11.345,2.164C184.57,59.916,177.632,53.758,177.632,43.273Zm78.8,15.811,4.49-24.216c1.143-6.158,1.632-12.982,2.04-16.477h10.2c-.245,2.746-.407,5.492-.735,8.322h.245c2.857-5.409,7.265-9.237,12.732-9.237a19.454,19.454,0,0,1,2.2.084l-2.285,11.65a13.59,13.59,0,0,0-1.877-.083c-7.51,0-11.02,6.824-12.488,14.813l-2.775,15.146Zm-101.7,0,7.591-40.693H174.07l-7.59,40.693Zm-107.469,0L50.6,35.95c.9-6.075,2.122-13.814,3.673-21.886h-.245c-3.02,7.24-6.448,14.979-9.468,21.137L33.3,58.169H24.159L22.2,35.451c-.49-6.158-.9-13.9-1.224-21.387h-.163C19.262,21.47,17.63,29.875,16.242,35.95L10.774,59.084H0L13.793,3H29.546L31.26,24.3c.326,5.243.9,11.65.98,17.892h.326A185.69,185.69,0,0,1,39.993,24.3L50.2,3H66.111L58.683,59.084Zm122.324-45.77a5.476,5.476,0,0,1-5.632-5.825A6.7,6.7,0,0,1,170.724.666a5.623,5.623,0,0,1,5.958,5.908c0,4.244-3.184,6.741-6.938,6.741Z"/></svg>