<svg xmlns="http://www.w3.org/2000/svg" width="311.394" height="60" viewBox="0 0 311.394 60"><path d="M297.121,46.087c-1.643,1.99-7.753,7.459-8.857,7.717-1.107-.258-7.222-5.726-8.862-7.717A47.382,47.382,0,0,1,269.28,16.635c0-3.642.566-8.925,1.842-10.832,3.45,1.828,10.088,3.53,17.14,3.53S301.948,7.626,305.41,5.8c1.271,1.906,1.831,7.19,1.831,10.829A47.4,47.4,0,0,1,297.121,46.087ZM307.78,0c-5.571,2.942-11.19,4.5-19.517,4.5S274.316,2.942,268.741,0c-2.3,3.985-3.612,9.7-3.612,16.8A51.868,51.868,0,0,0,278.422,51.11c2.621,2.772,7.832,7.061,9.842,7.491,2.008-.43,7.214-4.719,9.842-7.491A51.9,51.9,0,0,0,311.394,16.8C311.394,9.7,310.081,3.985,307.78,0ZM285.907,15.922s-.136.394-.414.426a.887.887,0,0,1-.592-.179l-.027-.016a2.319,2.319,0,0,0-.786-.352A2.535,2.535,0,0,1,285.907,15.922Zm3.831,5.206c.565-.6,1.645-1.727,3.919-3.925.86-.832-.5-1.981-1.393-1.37-.185.118-.515.386-.878.682h0a11.558,11.558,0,0,1-1.488,1.1c-.282.139-.221-2.538-.221-2.538.024-.216-.691-.674-1.44-.982a.573.573,0,0,1-.125-.086,1.238,1.238,0,0,0-.307-.2l-.113-.037c-1.1-.36-1.693-.554-1.655.518,0,.037,0,.076-.008.118a.906.906,0,0,0,.133.623,4.118,4.118,0,0,1,1.622,1.493,4.046,4.046,0,0,1,.372.9,2.217,2.217,0,0,1-.971.309c.209.066.405.139.592.209a5.251,5.251,0,0,0,.867.27l.408.44a6.711,6.711,0,0,1-2.136-.381l.137.424a1.678,1.678,0,0,1-1.19.459,10.875,10.875,0,0,0,.125,2.181l3.173.525a1.941,1.941,0,0,0,.524-.658A.753.753,0,0,1,289.738,21.128Zm-.253,5.816a9.274,9.274,0,0,0,.172,3.166c4.1.06,5.819-6.246.3-7.585-.116-.03-.232-.066-.352-.1s-.244-.076-.372-.109a14.405,14.405,0,0,0-2.018-.343,10.531,10.531,0,0,1-1.461-.255c-.161-.036-.313-.071-.458-.1-3.905-.786-3.386-2.468-3.142-3.262v0a7.961,7.961,0,0,0,1.914.478,4.391,4.391,0,0,0,2.324-.195,5.063,5.063,0,0,0-1.5-.694,4.035,4.035,0,0,1-1.2-.541,9.966,9.966,0,0,1,2.276.052,3.616,3.616,0,0,0,1.616-.332c-.524-1.261-2.2-2.436-5.3-1.927-4.267.706-5.568,8.592,3.217,9.729.325.041.837.084,1.318.125.288.024.565.048.783.069.315.029.571.048.794.064a9.312,9.312,0,0,1,1.077.119C289.863,25.367,290.848,26.8,289.485,26.944Zm-3.393-1.506-1.042,1.674.682,1.661.726,1.618,2.572.241,0-4.963Zm3.39,10.534c-.051.553-.066,1.091-.072,1.6,3.55-.349,4.595-5.409.185-6.344l-.349-.077c-.405-.09-.646-.144-.8-.164-.756-.095-1.152-.113-1.63-.136-.212-.01-.441-.021-.724-.039l-.568-1.31-.642-1.572c-2.13.818-2.372,5.006.922,5.627a14.239,14.239,0,0,0,1.938.266c.125.009.233.016.343.029.23.026.465.038.69.05.583.03,1.1.057,1.276.306.328.476.074.661-.2.858a1.744,1.744,0,0,0-.258.212,1.745,1.745,0,0,0-.108.606Zm-2.7-1.8c-.009.3.011,1.133.038,1.4l.053.875,0,.684c0,.049.006.165.011.281s.006.239.011.285c.1.053.2.118.3.188a3.594,3.594,0,0,0,.749.406l.1.04.13.052a4.385,4.385,0,0,0,.865.29V38.28l0-.18v-.009c0-.254,0-.516,0-.679,0-.282-.006-.427-.012-.565-.008-.155-.014-.3-.008-.623,0-.22.017-.489.032-.74.008-.118.015-.232.02-.335s0-.305-.008-.488c0-.061,0-.12-.006-.169s0-.1,0-.125a1.317,1.317,0,0,0-.465-.046,4.485,4.485,0,0,1-.779-.036l-.348-.046C287.22,34.207,287.046,34.183,286.781,34.169Zm2.467,8.243v1.968c2.366-1.228,2.605-4.023.286-5.02-.131-.059-.367-.152-.616-.25h0c-.265-.1-.544-.213-.72-.292s-.39-.175-.613-.279c-.352-.164-.714-.331-.91-.4l-.024-.008-.047-.014-.045-.014h0c-.274-.082-.565-.168-.014-.454-.014-.222-.033-.409-.053-.584s-.038-.354-.045-.533-.023-.406-.045-.629c-.012-.106-.023-.214-.032-.322-2.532.017-3.545,3.87.575,4.9a4.287,4.287,0,0,1,1.039.34,3.087,3.087,0,0,1,.833.581A1.3,1.3,0,0,1,289.247,42.413Zm-1.92,5.739a1.567,1.567,0,0,0,1.381.062c.021-.164.157-1.813.187-3.6,0-.08,0-.171,0-.27a5.555,5.555,0,0,0-.236-2.4,1.888,1.888,0,0,0-.967-.626c-.13-.039-.206-.057-.27-.072a1.988,1.988,0,0,1-.31-.1c.06,1.511.13,3.332.158,4.4.008.413.018.861.027,1.268v.031C287.317,47.476,287.327,48,287.327,48.151Zm-1.417-.961a.2.2,0,0,0,.273-.08,1.9,1.9,0,0,0,.2-.584h0a1.872,1.872,0,0,1,.5-1.069l-.032-1.605a2.585,2.585,0,0,0-1.321,2.285C285.528,46.309,285.565,47.018,285.91,47.19Zm2.352-36.041c6.345-.007,12.975-.93,16.085-2.572,1.14,1.719,1.368,6.131,1.274,9.4-.467,16.081-7.539,24.364-9.167,26.27-.081.1-.151.177-.2.24-1.474,1.792-6.988,6.927-7.987,7.183-1-.256-6.514-5.391-7.991-7.183L280.2,44.4l-.127-.148c-1.627-1.906-8.7-10.189-9.169-26.267-.1-3.276.139-7.689,1.274-9.407C275.282,10.22,281.913,11.15,288.263,11.15ZM230.824,29.159c1.568,2.907,6.807,12.656,7.015,13.06a16.011,16.011,0,0,0,5.267-18.132c-2.6.036-5.015.308-6.994.53-1.092.123-2.051.231-2.833.275C230.968,25.035,229.263,26.25,230.824,29.159ZM218.853,42.771a16.19,16.19,0,0,0,18.053.125s-7.238-10.421-7.643-11.089-.75-1.087-1.431-1.087-1.02.408-1.428,1.087C226.046,32.4,220.222,40.814,218.853,42.771ZM212.82,24.109a16.032,16.032,0,0,0,5.075,17.953c.547-1.023,2.065-3.841,3.581-6.656l0,0c1.349-2.5,2.7-5.006,3.36-6.242,1.565-2.909-.136-4.124-2.455-4.267-.776-.045-1.729-.149-2.816-.267C217.653,24.416,215.324,24.162,212.82,24.109Zm15.145-10.561a16.1,16.1,0,0,0-14.6,9.309l10.8.007a3.421,3.421,0,0,0,2.434-.819c.643-.651.691-1.638-.19-2.7-1.565-1.9-.208-3.726,1.428-3.656s2.993,1.761,1.431,3.656c-.881,1.066-.834,2.052-.19,2.7a3.419,3.419,0,0,0,2.44.819l11.082-.007a15.871,15.871,0,0,0-3.541-4.9A16.09,16.09,0,0,0,227.964,13.548Zm12.91,3.142H257.2V42.6H240.874V58.847l-25.979,0,0-16.25H198.563V16.69h16.329V.448h25.983Zm-23.657,4.076h7.414a1.965,1.965,0,0,0-.465-1.147,3.179,3.179,0,0,1-.417-3.193A11.464,11.464,0,0,0,217.217,20.766Zm14.28-1.147a1.96,1.96,0,0,0-.468,1.147h7.422c-1.871-1.863-4.017-3.8-6.535-4.339A3.175,3.175,0,0,1,231.5,19.619Zm9.954,6.834a14.205,14.205,0,0,1-3.068,12.116s-4.969-9.339-5.508-10.356,0-1.084.607-1.153C233.96,27.061,241.451,26.453,241.451,26.453Zm-19.267.608c-.477,0-7.964-.608-7.964-.608a14.171,14.171,0,0,0,3.063,12.116s4.967-9.339,5.512-10.356S222.8,27.129,222.184,27.061ZM233.62,42.095a14.3,14.3,0,0,1-11.571,0s5.313-8.333,5.783-8.333S233.62,42.095,233.62,42.095ZM246.5,56.063h.136c.425.007.926.015.926-.523,0-.441-.363-.5-.75-.5h-.872v1.018Zm-.56,1.776h-.407V54.673H246.9c.828,0,1.111.311,1.111.875,0,.615-.429.838-.985.882l.946,1.408h-.458l-.895-1.408h-.678ZM248.9,56.27a2.336,2.336,0,1,0-2.33,2.329A2.239,2.239,0,0,0,248.9,56.27Zm-5.112,0a2.779,2.779,0,1,1,2.782,2.774A2.778,2.778,0,0,1,243.789,56.27Zm59.684-.336-.142,0h-.59V54.871h.911c.4,0,.786.057.786.518C304.438,55.95,303.912,55.941,303.472,55.934Zm-1.155,1.852h.423V56.318h.706l.937,1.468h.479l-.988-1.468c.575-.049,1.027-.282,1.027-.922,0-.588-.3-.915-1.161-.915h-1.423Zm1.089-4.051a2.423,2.423,0,1,1-2.444,2.413A2.337,2.337,0,0,1,303.406,53.734Zm0-.465a2.887,2.887,0,1,0,2.892,2.879A2.9,2.9,0,0,0,303.406,53.269ZM6.228,51.823H4.965V46.33H6.111c1.988,0,2.561.826,2.561,2.766C8.672,51.059,7.981,51.823,6.228,51.823ZM6.09,59.178H4.965V52.411h1.46c2.267,0,3.016.961,3.016,3.219C9.441,58.3,8.3,59.178,6.09,59.178Zm-4.2,0H0v.587H7.864c3.369,0,4.888-1.646,4.888-3.841,0-2.67-2.286-3.846-4.673-3.905v-.035c2.012-.142,3.784-1.142,3.784-3.356,0-2.373-1.95-2.883-4.414-2.883H0v.586H1.892Zm11.174,0h1.419V46.33H13.066v-.585H14.29c1,0,2.03-.042,3.034-.116V59.178h1.421v.587H13.066Zm17.8,0H29.445V50.04c-1.005.08-2.03.119-3.034.119H25.188v.587h1.419v5.178c0,2.1-.925,3.135-2.188,3.135-.808,0-1.537-.2-1.537-1.7V50.04c-1,.08-2.03.119-3.035.119H18.624v.587h1.419v6.02c0,2.53,1.4,3.234,3.391,3.234a3.633,3.633,0,0,0,3.132-1.608h.039v1.49c1.183-.076,2.327-.1,4.259-.118ZM37.8,53.884v-.9c0-1.118-.277-2.471-1.616-2.471-1.779,0-1.869,2-1.925,3.262l-.005.112Zm-3.546.586v.846c0,1.743.314,3.862,2.561,3.862a3.547,3.547,0,0,0,3.351-2.355l.532.235A4.455,4.455,0,0,1,36.3,60a4.783,4.783,0,0,1-5.123-5.038A4.9,4.9,0,0,1,36.3,49.92a4.312,4.312,0,0,1,4.574,4.549Zm19.551-3.842H54.4V46.647a14.539,14.539,0,0,0-5.241-1.139c-4.515,0-7.393,3.021-7.393,7.238,0,4.234,2.878,7.254,7.393,7.254a15.432,15.432,0,0,0,5.34-1.137V54.9h-.591a5.06,5.06,0,0,1-4.67,4.512c-3.924,0-4.16-4.2-4.16-6.667,0-2.706.434-6.649,4.3-6.649A4.774,4.774,0,0,1,53.808,50.628Zm1.14,8.55h1.419V50.745H54.948v-.587H56.17c1.007,0,2.03-.039,3.035-.119v1.588h.039A2.7,2.7,0,0,1,61.73,49.92,1.811,1.811,0,0,1,63.621,51.9a1.163,1.163,0,0,1-1.283,1.314c-.767,0-1.2-.392-1.2-1.039,0-.331.012-.49.023-.622.008-.1.014-.177.014-.3,0-.235-.1-.392-.373-.392-1.143,0-1.6,2.649-1.6,4.177v4.139h1.419v.587H54.948Zm11.608-4.216c0-2.294,0-4.452,2.05-4.452s2.05,2.157,2.05,4.452,0,4.451-2.05,4.451S66.556,57.256,66.556,54.962Zm-3.075,0A4.783,4.783,0,0,0,68.606,60a5.04,5.04,0,1,0-5.125-5.038ZM74.439,56.14h.59a3.154,3.154,0,0,0,2.958,3.274c1.005,0,1.992-.394,1.992-1.412,0-.98-1.021-1.345-2.176-1.757-1.5-.536-3.226-1.152-3.226-3.3,0-2.018,1.557-3.02,3.469-3.02a7.282,7.282,0,0,1,2.97.6l.085.033v2.528h-.591a2.742,2.742,0,0,0-2.6-2.568c-.787,0-1.439.412-1.439,1.213,0,.84.949,1.166,2.052,1.544,1.527.524,3.348,1.149,3.348,3.381,0,2.175-1.971,3.352-3.96,3.352a10.255,10.255,0,0,1-3.469-.685Zm8.689,0h-.59v3.176A10.245,10.245,0,0,0,86.005,60c1.992,0,3.963-1.177,3.963-3.352,0-2.231-1.821-2.856-3.348-3.381-1.1-.379-2.052-.7-2.052-1.544,0-.8.648-1.213,1.436-1.213a2.738,2.738,0,0,1,2.6,2.568H89.2V50.549l-.083-.032a7.274,7.274,0,0,0-2.972-.6c-1.91,0-3.469,1-3.469,3.02,0,2.152,1.725,2.768,3.226,3.3,1.155.412,2.176.777,2.176,1.757,0,1.018-.987,1.412-1.991,1.412A3.155,3.155,0,0,1,83.128,56.14Zm13.2-4.317h1.261c1.754,0,2.444-.763,2.444-2.726,0-1.94-.572-2.766-2.562-2.766H96.331Zm0,7.355h1.125c2.2,0,3.349-.883,3.349-3.548,0-2.257-.749-3.219-3.017-3.219H96.331Zm-4.967,0h1.891V46.33H91.364v-.586h7.452c2.462,0,4.414.51,4.414,2.883,0,2.215-1.774,3.215-3.784,3.356v.036c2.383.057,4.67,1.234,4.67,3.9,0,2.195-1.516,3.841-4.887,3.841H91.364Zm14.485,0h-1.418v.587h5.676v-.587h-1.421V45.629c-1,.074-2.03.116-3.035.116h-1.221v.585h1.418Zm14.96,0h1.421v.587c-1.932.021-3.076.042-4.257.118v-1.49h-.039A3.641,3.641,0,0,1,114.8,60c-1.989,0-3.39-.7-3.39-3.234v-6.02H109.99v-.587h1.221c1.005,0,2.03-.039,3.037-.119v7.316c0,1.507.728,1.7,1.536,1.7,1.264,0,2.189-1.036,2.189-3.135V50.745h-1.419v-.587h1.221c1.005,0,2.03-.039,3.035-.119Zm8.36-6.2v.906H125.62l.005-.116c.058-1.268.149-3.258,1.926-3.258C128.891,50.51,129.169,51.863,129.169,52.978Zm-3.549,2.338V54.47h6.622a4.312,4.312,0,0,0-4.573-4.549,4.9,4.9,0,0,0-5.123,5.041A4.781,4.781,0,0,0,127.669,60a4.456,4.456,0,0,0,4.4-2.941l-.531-.235a3.55,3.55,0,0,1-3.351,2.355C125.935,59.178,125.62,57.059,125.62,55.316Zm7.235-.277h.69A4.427,4.427,0,0,0,137.8,59.3c1.557,0,3.035-.629,3.035-2.315,0-1.584-1.617-2.207-3.376-2.886-2.094-.808-4.389-1.693-4.389-4.369,0-2.979,2.462-4.215,4.611-4.215a10.534,10.534,0,0,1,3.983.86l.156,3.355h-.672a4.01,4.01,0,0,0-3.8-3.51,2.1,2.1,0,0,0-2.229,2.137c0,1.321,1.4,1.862,3,2.48,2.128.822,4.608,1.781,4.608,4.893,0,2.528-2.247,4.274-5.1,4.274a11.585,11.585,0,0,1-4.592-.923Zm11.623,4.139h-1.419v.587h5.678v-.587h-1.419V53.566a2.462,2.462,0,0,1,2.186-2.7c.81,0,1.537.374,1.537,1.9v6.412h-1.419v.587h11.234v-.587H159.44V50.039c-1,.08-2.033.119-3.035.119h-1.224v.587H156.6v8.432h-2.72V53.159c0-2.178-1.4-3.238-3.389-3.238a3.522,3.522,0,0,0-3.135,1.569h-.038V45.629c-1.005.074-2.03.116-3.037.116h-1.222v.585h1.419ZM158.02,45.511a1.53,1.53,0,1,1-1.538,1.528A1.533,1.533,0,0,1,158.02,45.511Zm9.776,7.467v.906h-3.547l.006-.112c.056-1.267.145-3.262,1.923-3.262C167.52,50.51,167.8,51.863,167.8,52.978Zm-3.547,2.338V54.47h6.622A4.312,4.312,0,0,0,166.3,49.92a4.9,4.9,0,0,0-5.119,5.041A4.78,4.78,0,0,0,166.3,60a4.454,4.454,0,0,0,4.4-2.941l-.533-.235a3.54,3.54,0,0,1-3.349,2.355C164.565,59.178,164.249,57.059,164.249,55.316Zm6.777,3.862h1.423V46.33h-1.423v-.585h1.223c1,0,2.033-.042,3.036-.116V59.178H176.7v.587h-5.678Zm8.991-4.216c0-2.335.1-4.216,2.048-4.216,2.068,0,2.208,2.628,2.208,4.216,0,1.861-.14,4.216-2.208,4.216C180.548,59.178,180.018,57.805,180.018,54.962Zm4.158,3.667h.039v1.254c1.184-.076,2.324-.1,4.258-.118v-.587h-1.419V45.629c-1.006.074-2.032.116-3.036.116H182.8v.585h1.419v5h-.039a2.793,2.793,0,0,0-2.74-1.413c-2.9,0-4.416,2.4-4.416,5.041,0,2.727,1.262,5.038,4.258,5.038A3.083,3.083,0,0,0,184.176,58.629Zm5.276-25.188h.114c.355.006.779.013.779-.437,0-.371-.31-.417-.633-.417h-.729v.853Zm-.468,1.488h-.343V32.277h1.149c.693,0,.925.259.925.734,0,.514-.358.7-.824.738l.8,1.18H190.3l-.752-1.18h-.568Zm2.483-1.314a1.958,1.958,0,1,0-1.955,1.954A1.878,1.878,0,0,0,191.467,33.615Zm-4.288,0a2.329,2.329,0,1,1,2.333,2.325A2.329,2.329,0,0,1,187.179,33.615Zm-46.626-9.1H147.4V22.6c-.008-2.526-1.226-3.918-3.431-3.925a3.287,3.287,0,0,0-2.36.93,4.1,4.1,0,0,0-1.061,2.986ZM144,17.439a8.739,8.739,0,0,1,5.9,1.972,8.345,8.345,0,0,1,2.606,6.291l0,.147H140.574v4.282c.01,3.227,1.573,5.082,4.3,5.086a6.012,6.012,0,0,0,5.922-5.267l.014-.123h1.429l-.023.163a7.57,7.57,0,0,1-7.659,6.555,8.852,8.852,0,0,1-6.311-2.59,9.5,9.5,0,0,1-2.728-6.834,10.236,10.236,0,0,1,2.63-7.006A8.124,8.124,0,0,1,144,17.439ZM112.487,32.414h-1.34l-.018.116a2.441,2.441,0,0,1-2.417,2.252c-1.342,0-2.023-.937-2.029-2.778V19.2h4.411V17.943h-4.383V12.4l-.159.017c-1.033.115-3.133.273-4.221.273h-.147v5.255H99.269v1.264H102.2V30.352c0,4.108,1.77,6.193,5.251,6.193a4.681,4.681,0,0,0,5-3.961ZM66.778,25.08,62.548,13.062,58.586,25.08ZM96.6,23.454V34.79h2.864v1.244H89.551V34.79h2.64V22.547c0-2.287-.917-3.447-2.716-3.447-1.858,0-4.626,1.871-4.635,7.037V34.79h2.814v1.244H66.1V34.793h3.932l-2.848-8.427H58.144l-2.807,8.427h3.89v1.241H50.782V34.793h2.848L63.738,5.272l.031-.1h1.263l.032.1L75.4,34.793h5.033V19.2H77.608V17.953h7.181V18.1l.044,2.215a6.851,6.851,0,0,1,5.722-2.863,6.14,6.14,0,0,1,4.391,1.674A5.924,5.924,0,0,1,96.6,23.454ZM132.043,34.79V23.272c0-2.685-1.646-5.823-6.269-5.823a7.93,7.93,0,0,0-6.23,2.624V5.263h-7.19V6.548h2.692V34.79h-2.909v1.244h10.182V34.79h-2.775V26.023c0-3.028,1.039-4.7,1.912-5.569a4.305,4.305,0,0,1,3.044-1.3c2.469,0,2.993,2.018,3,3.709V34.79h-2.779v1.244H134.9V34.79Zm51.081,0h2.907v1.244h-10V34.79h2.637V23.541a7.684,7.684,0,0,0-.38-3.139,2.2,2.2,0,0,0-2.08-1.251,4.147,4.147,0,0,0-3.226,1.667c-.9,1.241-1.015,2.851-1.1,5.355V34.79h2.553v1.244h-9.789V34.79H167.3V23.541a7.628,7.628,0,0,0-.383-3.139,2.2,2.2,0,0,0-2.078-1.251,4.15,4.15,0,0,0-3.227,1.667c-.9,1.235-1.015,2.851-1.1,5.355V34.79h2.544v1.244h-9.951V34.79h2.952V19.2h-2.993V17.953h7.31l0,.144.039,1.769a7.964,7.964,0,0,1,5.889-2.418c2.48,0,4.25.968,5.172,2.762a7.15,7.15,0,0,1,5.965-2.762c3.5,0,5.676,1.964,5.681,5.128Z" fill-rule="evenodd"/></svg>