<svg xmlns="http://www.w3.org/2000/svg" width="308.771" height="60" viewBox="0 0 308.771 60"><path d="M309.48,54.495a5.319,5.319,0,1,1-5.226-5.412A5.2,5.2,0,0,1,309.48,54.495Zm-9.611,0a4.392,4.392,0,0,0,4.2,4.572,4.277,4.277,0,0,0,4.2-4.572,4.393,4.393,0,0,0-4.2-4.572A4.335,4.335,0,0,0,299.869,54.495Zm4.106-2.986c1.4,0,2.331.467,2.331,1.68a1.9,1.9,0,0,1-1.213,1.866l.375.653c.279.466.651,1.026,1.026,1.586.092.093-.094.187-.375.187h-.279c-.373,0-.467-.093-.467-.187a8.428,8.428,0,0,1-.746-1.213l-.561-.933h-.746v2.146c0,.093-.094.093-.373.093h-.467a.964.964,0,0,1-.373-.093V51.508Zm-.748,2.706h.84c.84,0,1.121-.373,1.121-.933,0-.747-.654-.84-1.307-.84h-.746v1.773ZM82.077,14.184a1.735,1.735,0,0,0-1.68,1.68V50.016a37.31,37.31,0,0,1-7.838.84c-5.879,0-8.025-2.239-8.025-8.585V15.863a1.593,1.593,0,0,0-1.586-1.68H53.9v28.18c0,13.25,7,17.543,18.289,17.543a76.4,76.4,0,0,0,18.756-2.8V14.184ZM219.619,59.44a1.735,1.735,0,0,0,1.68-1.68V23.235a37.313,37.313,0,0,1,7.839-.84c5.878,0,8.025,2.24,8.025,8.585V57.76a1.593,1.593,0,0,0,1.586,1.68H247.8V30.98c0-13.25-7-17.543-18.289-17.543a76.4,76.4,0,0,0-18.755,2.8v43.2Zm-35.925-46c-11.664,0-19.036,6.345-19.036,19.876v6.812c0,15.023,7.932,19.876,16.61,19.876,4.2,0,8.585-2.986,10.078-4.852v2.8a1.633,1.633,0,0,0,1.586,1.586h8.958V16.05A73.2,73.2,0,0,0,183.695,13.437Zm7.652,34.992c-1.96,1.68-3.453,2.706-7.559,2.8-5.879,0-8.491-3.639-8.491-11.291V33.686c0-8.865,3.266-11.291,8.491-11.291a37.649,37.649,0,0,1,7.559.56Zm82.862-34.992c-11.666,0-19.037,6.345-19.037,19.876v6.812C255.171,55.148,263.1,60,271.781,60c4.294,0,8.586-2.986,10.078-4.852v2.8a1.634,1.634,0,0,0,1.588,1.586H292.4V16.05A73.2,73.2,0,0,0,274.209,13.437Zm7.65,34.992c-1.959,1.68-3.452,2.706-7.65,2.8-5.88,0-8.492-3.639-8.492-11.291V33.686c0-8.865,3.266-11.291,8.492-11.291a39.832,39.832,0,0,1,7.65.56ZM.709,59.44h9.518a1.633,1.633,0,0,0,1.586-1.586V32.846H29.356A4.966,4.966,0,0,1,34.395,37.6V57.854a1.635,1.635,0,0,0,1.586,1.586H45.5V0H35.888A1.622,1.622,0,0,0,34.3,1.493v22.3h-18.2a4.345,4.345,0,0,1-4.386-4.2V1.493A1.615,1.615,0,0,0,10.133,0H.709Zm140.435-46A23,23,0,0,0,129.2,16.89c-3.266-2.426-7.652-3.453-13.157-3.453a48.748,48.748,0,0,0-16.236,2.986V59.44h8.958a1.655,1.655,0,0,0,1.586-1.68V23.142a18.1,18.1,0,0,1,5.226-.747c6.159,0,7.745,2.52,7.745,8.678V57.854a1.716,1.716,0,0,0,1.586,1.68h7.372a1.543,1.543,0,0,0,1.586-1.68V24.541a9.887,9.887,0,0,1,6.159-2.146c4.759,0,6.719,2.146,6.719,8.025V57.76a1.647,1.647,0,0,0,1.586,1.68h8.958V28.927C157.381,17.449,150.2,13.437,141.144,13.437Z" transform="translate(-0.709)"/></svg>