<svg xmlns="http://www.w3.org/2000/svg" width="183.281" height="60" viewBox="0 0 183.281 60"><path d="M32.855,45.892C32.855,29.786,43.01,25.3,44.581,25.3c.309,0,.447.172.447.358l.019,0c0,.467-.491.982-1.124,1.768-2.165,2.666-7,7.4-7,19.15,0,6.079.982,8.6.982,11.451,0,1.3-.255,1.964-.928,1.964C35.443,60,32.855,53.587,32.855,45.892ZM26.1,58.036c0-2.848.982-5.372.982-11.451,0-11.746-4.832-16.484-7-19.15-.638-.791-1.12-1.3-1.12-1.768a.438.438,0,0,1,.486-.358l-.02,0c1.567,0,11.721,4.483,11.721,20.589,0,7.695-2.588,14.108-4.12,14.108C26.354,60,26.1,59.327,26.1,58.036Zm80.791-4.93V48.75a16.549,16.549,0,0,0,5.932,1.164c3.364,0,6.074-1.694,6.074-6.113V42.195l-.064-.015a7.1,7.1,0,0,1-6.055,3.064c-5.588,0-8.534-4.562-8.534-10.381,0-6.329,3.752-12.178,12.482-12.178a28.817,28.817,0,0,1,7.086.982V42.661c0,8.8-4.159,11.373-10.386,11.373h-.069A22.99,22.99,0,0,1,106.889,53.106Zm9.6-26.418c-4.532,0-6.987,3.54-6.987,7.822,0,4.188,1.6,6.58,4.395,6.58s4.734-2.057,4.734-7V26.909a8.93,8.93,0,0,0-1.979-.222ZM63.948,52.782a1.384,1.384,0,0,1-.27-.088,88.652,88.652,0,0,0-24.925-5.127,8.337,8.337,0,0,1-.084-.982,14.708,14.708,0,0,1,.123-1.827c11.638,1.07,19.666,4.444,24.945,7.685.211.133.3.162.3.251a.084.084,0,0,1-.006.036.087.087,0,0,1-.021.03.085.085,0,0,1-.031.019.1.1,0,0,1-.027,0Zm-63.887,0a.085.085,0,0,1-.032-.018.089.089,0,0,1-.022-.03A.092.092,0,0,1,0,52.694c0-.089.1-.118.309-.236,5.274-3.241,13.3-6.614,24.945-7.685a16.242,16.242,0,0,1,.118,1.827,8.7,8.7,0,0,1-.079.982A88.732,88.732,0,0,0,.363,52.694a1.392,1.392,0,0,1-.265.088H.089A.089.089,0,0,1,.061,52.778Zm161.216-7.534c-5.583,0-8.529-4.562-8.529-10.381,0-6.329,3.752-12.178,12.482-12.178a28.873,28.873,0,0,1,7.086.982v13.99a54.294,54.294,0,0,0,.648,7.11l-4.626-.01c-.059-.634-.246-2.912-.295-3.58h-.133a7.076,7.076,0,0,1-6.4,4.07Q161.392,45.248,161.277,45.244ZM165.009,26.7c-4.532,0-6.987,3.54-6.987,7.822,0,4.189,1.625,6.58,4.42,6.58s4.729-2.057,4.729-7l-.02-7.184a9,9,0,0,0-1.987-.222ZM82.858,45.072c-9.678,0-15.36-6.83-15.36-15.178,0-8.834,6.172-15.183,15.36-15.183a18.447,18.447,0,0,1,6.354.982V20.3a14.387,14.387,0,0,0-5.814-1.08c-5.947,0-10.273,4.238-10.273,10.69S77.481,40.6,83.4,40.6a14.819,14.819,0,0,0,5.814-1.09V44.09a18.594,18.594,0,0,1-5.975.986Q83.048,45.076,82.858,45.072Zm95.97-.583A2.863,2.863,0,1,1,183.28,42.1a2.75,2.75,0,0,1-.84,2.033,2.864,2.864,0,0,1-1.743.824q-.14.014-.28.014A2.861,2.861,0,0,1,178.828,44.49Zm.641-4.665a2.421,2.421,0,0,0-1.516,2.282,2.414,2.414,0,0,0,.712,1.758,2.455,2.455,0,0,0,3.491,0,2.424,2.424,0,0,0,.717-1.758,2.456,2.456,0,0,0-2.455-2.455h-.06A2.358,2.358,0,0,0,179.469,39.825Zm-36.39,4.943V31.76c0-2.745-1.532-4.817-4.149-4.817-2.711,0-4.154,2.185-4.154,4.817V44.768h-5.151V29.875c0-2-.187-5.828-.236-6.7h4.625l.221,3.03h.093a7.112,7.112,0,0,1,6.31-3.511c4.876,0,7.587,3.575,7.587,8.038V44.768Zm-48.7,0V23.246h5.146V44.768Zm86.786-1.095v-.03a.107.107,0,0,0,0-.034v-.354a.767.767,0,0,0-.295-.717,1.321,1.321,0,0,0-.619-.1h-.437v1.238h-.555V40.526l1.095-.005a2.314,2.314,0,0,1,.859.118.773.773,0,0,1,.491.8.683.683,0,0,1-.309.619,1.186,1.186,0,0,1-.452.157.743.743,0,0,1,.535.3.841.841,0,0,1,.172.491v.466a.415.415,0,0,0,.029.162v.039Zm-1.37-1.64h.491a1.477,1.477,0,0,0,.53-.074.564.564,0,0,0,.118-.948h.025a1.477,1.477,0,0,0-.673-.118h-.491Zm-133.558-8.9a2.892,2.892,0,0,1-2.45-2.318,2.9,2.9,0,0,1,3.138-1.228,4.488,4.488,0,0,1,3.329,2.485,4.216,4.216,0,0,1-3.042,1.154A5.1,5.1,0,0,1,46.236,33.135ZM13.779,32.075a4.506,4.506,0,0,1,3.329-2.485,2.9,2.9,0,0,1,3.143,1.228,2.9,2.9,0,0,1-2.44,2.308l-.01.01a5.1,5.1,0,0,1-.975.094A4.232,4.232,0,0,1,13.779,32.075Zm16.9-.181a3.712,3.712,0,0,1-2.359-3.359,3.766,3.766,0,0,1,3.712-3.81,3.712,3.712,0,1,1-1.354,7.169ZM13.759,28.6h-.01a5.087,5.087,0,0,1-3.963-2.455,5.07,5.07,0,0,1,4.419-1.567,3.261,3.261,0,0,1,2.946,2.362,3.26,3.26,0,0,1-3.393,1.66Zm34.564-.3a3.272,3.272,0,0,1-1.439-1.374,3.27,3.27,0,0,1,2.946-2.362,5.117,5.117,0,0,1,4.419,1.566,5.013,5.013,0,0,1-3.958,2.455,3.271,3.271,0,0,1-1.969-.286Zm-9.791-5.283a3.747,3.747,0,0,1,1.3-4.149,5.79,5.79,0,0,1,5.185-1.34,5.86,5.86,0,0,1-2.175,4.91,3.742,3.742,0,0,1-4.306.579ZM23.258,23.4a3.742,3.742,0,0,1-2.055-.978l-.01,0a5.808,5.808,0,0,1-2.17-4.91,5.789,5.789,0,0,1,5.185,1.341A3.732,3.732,0,0,1,25.5,23.005a3.743,3.743,0,0,1-2.242.394Zm25.656-.477a3.952,3.952,0,0,1-2.167-1.05,3.928,3.928,0,0,1,2.514-3.835,6.12,6.12,0,0,1,5.652.142,6.128,6.128,0,0,1-3.624,4.341,3.953,3.953,0,0,1-2.375.4Zm-36.157-.4a6.135,6.135,0,0,1-3.629-4.341,6.12,6.12,0,0,1,5.652-.142A3.928,3.928,0,0,1,17.3,21.871a3.957,3.957,0,0,1-4.542.648Zm82.917-1.907a3.193,3.193,0,0,1-1.926-2.994l.015,0a3.157,3.157,0,0,1,3.177-3.123,3.192,3.192,0,1,1-1.266,6.122Zm-62.6-2.094a4.147,4.147,0,0,1,.113-2.53,6.451,6.451,0,0,1,4.056-4.36,6.458,6.458,0,0,1,.889,5.892,4.154,4.154,0,0,1-3.678,3.123A4.149,4.149,0,0,1,33.077,18.519Zm-5.831,1.143a4.152,4.152,0,0,1-1.333-2.146H25.9a6.463,6.463,0,0,1,.889-5.892,6.5,6.5,0,0,1,4.056,4.36,4.15,4.15,0,0,1-1.272,4.655A4.154,4.154,0,0,1,27.245,19.662Zm19.369-3.5a3.335,3.335,0,0,1,1.149-3.693,5.171,5.171,0,0,1,4.611-1.188,5.166,5.166,0,0,1-1.93,4.355,3.334,3.334,0,0,1-3.83.525Zm-31.194.349a3.329,3.329,0,0,1-1.829-.874,5.158,5.158,0,0,1-1.935-4.355,5.164,5.164,0,0,1,4.611,1.188,3.324,3.324,0,0,1,1.149,3.693,3.329,3.329,0,0,1-2,.349Zm25.827-2.195a4.233,4.233,0,0,1,.054-4.91,6.566,6.566,0,0,1,5.19-3.148,6.544,6.544,0,0,1-.761,6.02,4.248,4.248,0,0,1-4.483,2.038ZM20.224,14a4.235,4.235,0,0,1-1.908-1.735l-.01,0a6.557,6.557,0,0,1-.761-6.02A6.659,6.659,0,0,1,22.735,9.4a4.243,4.243,0,0,1,.049,4.91A4.237,4.237,0,0,1,20.224,14ZM29.77,9.032A4.818,4.818,0,0,1,29.025,6.2a7.462,7.462,0,0,1,3-6.2,7.462,7.462,0,0,1,3,6.2,4.817,4.817,0,0,1-3,4.714A4.819,4.819,0,0,1,29.77,9.032Zm7.125-1.77a3.473,3.473,0,0,1,.09-2.112,5.386,5.386,0,0,1,3.383-3.629,5.386,5.386,0,0,1,.741,4.91,3.462,3.462,0,0,1-3.064,2.6A3.471,3.471,0,0,1,36.895,7.263Zm-12.854.951a3.471,3.471,0,0,1-1.119-1.791,5.4,5.4,0,0,1,.746-4.91,5.338,5.338,0,0,1,3.378,3.629,3.47,3.47,0,0,1-1.056,3.884A3.472,3.472,0,0,1,24.041,8.214Z"/></svg>