<svg xmlns="http://www.w3.org/2000/svg" width="337.466" height="60" viewBox="0 0 337.466 60"><path d="M24.056,60c-3.493,0-6.422-2.31-6.422-5.183V49.24c0-2.873,2.873-5.183,6.422-5.183v.056h8.226L45.071,56.845A8.028,8.028,0,0,0,47.211,60Zm27.268-.056c-2.873,0-5.183-2.817-5.183-6.422V24c0-3.493,2.31-6.422,5.183-6.422H56.9c2.817,0,5.127,2.929,5.183,6.422V53.522c0,3.549-2.31,6.422-5.183,6.422ZM0,51.662a7.549,7.549,0,1,1,7.549,7.549A7.479,7.479,0,0,1,0,51.662Zm180.748.667V33.7H174.8V29.39h5.948V20.606H186.3v8.84h8.249v4.308H186.3V51.49c0,2.294,1.627,3.134,4.433,3.134a22.2,22.2,0,0,0,3.816-.448v4.644a41.793,41.793,0,0,1-6.173.336C182.993,59.155,180.748,56.525,180.748,52.329Zm80.912-1.9c0-5.707,4.938-7.721,10.661-8.057l9.875-.616c2.918-.224,4.321-.615,4.321-4.028,0-3.8-2.132-6.379-10.492-6.379-7.463,0-9.764,2.35-10.549,7.329h-2.469c.954-7.049,4.881-9.511,13.13-9.511S289.1,31.124,289.1,37.447V53.169c0,2.07,0,3.357,1.852,3.357a7.768,7.768,0,0,0,2.469-.5V58.26a9.232,9.232,0,0,1-3.086.448c-3.479,0-3.479-2.406-3.479-6.154h-.112c-3.2,5.763-9.82,6.49-13.523,6.49C270.806,59.043,261.66,59.043,261.66,50.427Zm20.2-6.49-9.539.671c-4.769.336-8.136,1.678-8.136,5.875,0,5.707,5.836,6.378,9.2,6.378,5.61,0,13.074-2.517,13.074-9.231v-5.2h-.112C285.731,43.1,284.273,43.769,281.86,43.937Zm-154.81,4.98V29.334h5.5V47.853c0,4.252,2.637,6.658,8.528,6.658,4.993,0,9.483-2.909,9.483-8.56V29.39h5.555v28.7h-5.5V53.728H150.5c-2.581,3.973-7.182,5.315-11.279,5.315C132.268,59.043,127.05,56.078,127.05,48.917Zm202.5,5.259a3.956,3.956,0,1,1,7.912,0,3.911,3.911,0,0,1-3.928,3.972A3.957,3.957,0,0,1,329.554,54.176Zm.785,0a3.232,3.232,0,0,0,3.2,3.357,3.361,3.361,0,0,0,0-6.714A3.232,3.232,0,0,0,330.339,54.176Zm-7.631,3.972V40.915c0-5.707-2.132-9.567-10.492-9.567S300.208,36.5,300.208,41.755V58.148h-2.525V30.005h2.525V35.6h.112c1.8-3.3,5.5-6.434,11.952-6.434,12.962,0,12.962,8.281,12.962,11.638V58.148Zm-69.971,0V18.871h2.469V58.148Zm-38.492,0h-.056V18.927h20.537c5.611,0,12.007,1.9,12.007,10.91,0,6.546-3.759,11.078-12.344,11.078H216.771V58.148Zm2.525-19.47h17.563c4.769,0,9.875-1.846,9.875-8.728,0-8.784-7.07-8.784-10.493-8.784H216.771Zm-16.328,19.47V29.39h5.5V58.148Zm-35.967,0V18.592h5.5V58.148Zm-49.434,0V25.641h-.112L99.612,58.148H94.393L79.187,26.313h-.112V58.148H73.239V18.871h8.192l15.6,32.563,15.823-32.563h8.137V58.148Zm217.037-1.51V52.162a7.861,7.861,0,0,1,1.29-.112,2.238,2.238,0,0,1,1.4.336,1.179,1.179,0,0,1-.5,1.958,1.078,1.078,0,0,1,.73,1.063,5.812,5.812,0,0,0,.28,1.119h-.73a2.831,2.831,0,0,1-.28-1.119.81.81,0,0,0-.954-.783h-.506v2.014Zm.729-4.112v1.51h.506c.561,0,1.066-.224,1.066-.783,0-.336-.28-.783-1.066-.783A4.351,4.351,0,0,0,332.808,52.525ZM27.437,36.9c-2.479-2.535-2.93-6.141-.9-8.169l3.944-3.944a4.544,4.544,0,0,1,3.324-1.3,7.059,7.059,0,0,1,4.845,2.141l5.859,5.8V53.972ZM16.282,24.62A7.529,7.529,0,0,1,26.93,13.972a7.549,7.549,0,0,1,0,10.648,7.449,7.449,0,0,1-10.648,0Zm184.161.014V18.592h5.5v6.042ZM46.873,7.549A7.549,7.549,0,1,1,54.423,15.1,7.586,7.586,0,0,1,46.873,7.549Z"/></svg>