<svg xmlns="http://www.w3.org/2000/svg" width="79.813" height="80" viewBox="0 0 79.813 80"><path d="M4.99,80A5,5,0,0,1,0,75.01V48.161a5,5,0,0,1,4.99-4.99H19.35A31.384,31.384,0,0,1,67.45,6.416a1.172,1.172,0,0,1-1.422,1.864A29.035,29.035,0,0,0,19.571,28.241,29.081,29.081,0,0,0,21.9,43.17h4.36A25.119,25.119,0,0,1,45.723,6.406a25.42,25.42,0,0,1,5.426,0,25.121,25.121,0,0,1,8,47.7v4.27A29.039,29.039,0,0,0,69.34,11.228,1.172,1.172,0,0,1,71.027,9.6,31.383,31.383,0,0,1,59.146,60.878V75.01A5,5,0,0,1,54.155,80ZM2.344,56.377V66.793A12.112,12.112,0,0,1,13.207,77.656H45.939A12.113,12.113,0,0,1,56.8,66.793V60.082c0-.014,0-.028,0-.042V56.377A12.113,12.113,0,0,1,45.939,45.515H13.207A12.112,12.112,0,0,1,2.344,56.377ZM48.3,77.656h5.857A2.649,2.649,0,0,0,56.8,75.01V69.152A9.765,9.765,0,0,0,48.3,77.656ZM2.344,75.01A2.649,2.649,0,0,0,4.99,77.656h5.857a9.764,9.764,0,0,0-8.5-8.5ZM56.8,54.018V48.161a2.649,2.649,0,0,0-2.646-2.646H48.3A9.764,9.764,0,0,0,56.8,54.018ZM2.344,48.161v5.857a9.764,9.764,0,0,0,8.5-8.5H4.99A2.649,2.649,0,0,0,2.344,48.161Zm26.606-4.99h25.2a5,5,0,0,1,4.99,4.99v3.317A22.8,22.8,0,0,0,70.9,35.137H67.465a3.759,3.759,0,0,1,0-7.517H70.9a22.779,22.779,0,0,0-18.7-18.7v3.433a3.758,3.758,0,1,1-7.517,0V8.916a22.778,22.778,0,0,0-18.7,18.7h3.433a3.759,3.759,0,1,1,0,7.517H25.973A22.81,22.81,0,0,0,28.951,43.17Zm37.1-11.792a1.417,1.417,0,0,0,1.415,1.415h3.7c.029-.471.045-.943.045-1.416s-.016-.944-.045-1.414h-3.7A1.417,1.417,0,0,0,66.05,31.378Zm-40.388,0c0,.472.017.945.046,1.416h3.7a1.415,1.415,0,1,0,0-2.83h-3.7C25.678,30.434,25.662,30.906,25.662,31.377ZM47.021,8.649v3.7a1.415,1.415,0,1,0,2.83,0v-3.7c-.47-.029-.943-.043-1.416-.043S47.49,8.621,47.021,8.649ZM16.332,61.585a13.256,13.256,0,0,1,1.576-6.27,1.172,1.172,0,0,1,2.063,1.112,10.9,10.9,0,1,0,2.679-3.259,1.172,1.172,0,0,1-1.49-1.81,13.242,13.242,0,1,1-4.829,10.227Zm12,6.787V67.95a4.948,4.948,0,0,1-2.26-.891A1.172,1.172,0,0,1,27.357,65.1a2.945,2.945,0,0,0,2.141.56,1.75,1.75,0,0,0,1.736-1.477,1.323,1.323,0,0,0-.96-1.552,11.547,11.547,0,0,1-3.325-1.6,3.1,3.1,0,0,1-1.033-3.054,3.467,3.467,0,0,1,2.38-2.716l.037-.01V54.8a1.172,1.172,0,0,1,2.344,0v.375A4.365,4.365,0,0,1,32.392,56a1.172,1.172,0,0,1-1.5,1.8,2.088,2.088,0,0,0-1.92-.3,1.148,1.148,0,0,0-.753.906.822.822,0,0,0,.176.776,10.5,10.5,0,0,0,2.66,1.234,3.667,3.667,0,0,1,2.49,4.15,4.152,4.152,0,0,1-2.868,3.262v.541a1.172,1.172,0,0,1-2.344,0ZM65.041,42.318l-2.951-1.7a1.172,1.172,0,0,1,1.172-2.03l2.951,1.7a1.172,1.172,0,1,1-1.172,2.029Zm-34.811-.429a1.172,1.172,0,0,1,.429-1.6l2.952-1.7a1.172,1.172,0,0,1,1.171,2.03l-2.951,1.7a1.171,1.171,0,0,1-1.6-.429Zm15.118-7.423a4.375,4.375,0,0,1-.715-5.234l-5.859-5.859a1.172,1.172,0,0,1,1.658-1.657l5.859,5.858a4.384,4.384,0,0,1,4.291,0l2.25-2.25a1.172,1.172,0,0,1,1.657,1.657l-2.25,2.25a4.367,4.367,0,0,1-6.891,5.234ZM47,29.947a2.024,2.024,0,1,0,1.43-.592A2.025,2.025,0,0,0,47,29.947Zm15.671-5.619ZM33.61,24.171l-2.952-1.7a1.172,1.172,0,0,1,1.172-2.03l2.951,1.7a1.172,1.172,0,1,1-1.171,2.029Zm28.05-.429a1.171,1.171,0,0,1,.429-1.6l2.951-1.7a1.172,1.172,0,0,1,1.172,2.03l-2.951,1.7a1.172,1.172,0,0,1-1.6-.429Zm-5.589-5.59a1.171,1.171,0,0,1-.429-1.6l1.7-2.951a1.172,1.172,0,0,1,2.03,1.172l-1.7,2.951a1.17,1.17,0,0,1-1.6.429ZM39.2,17.725l-1.7-2.952a1.172,1.172,0,0,1,2.03-1.172l1.7,2.951a1.172,1.172,0,1,1-2.03,1.172Z" transform="translate(0 0)"/></svg>