<svg xmlns="http://www.w3.org/2000/svg" width="79.958" height="80" viewBox="0 0 79.958 80"><path d="M24.017,80a1.249,1.249,0,0,1-1.249-1.238l-.116-12.607a6.545,6.545,0,0,1,4.7-6.266L34.229,57.9V54.294a8.245,8.245,0,0,1-2.977-6V45.581a9.316,9.316,0,0,1-3.474-9.214c.653-3.03,2.957-6.642,10.233-6.642a17.992,17.992,0,0,1,6.534,1.161,14.266,14.266,0,0,0,1.847.547c.968.193,2-.962,2.011-.974a1.255,1.255,0,0,1,1.853-.05c.179.188,4.342,4.668,1.282,11.378A14.158,14.158,0,0,1,48.5,45.516v2.779a8.191,8.191,0,0,1-2.909,5.923v3.676l6.9,1.994a6.542,6.542,0,0,1,4.7,6.254l.116,12.6A1.249,1.249,0,0,1,56.069,80h-.012a1.249,1.249,0,0,1-1.249-1.238l-.116-12.607a4.034,4.034,0,0,0-2.9-3.866l-6.571-1.9A5.221,5.221,0,0,1,40.109,63.8,5.831,5.831,0,0,1,34.7,60.364l-6.653,1.924a4.031,4.031,0,0,0-2.9,3.856l.116,12.6A1.249,1.249,0,0,1,24.029,80Zm12.71-21.393a1.223,1.223,0,0,1,.017.143A3.429,3.429,0,0,0,40.109,61.3h0a2.709,2.709,0,0,0,2.455-1.2,3.727,3.727,0,0,0,.529-1.344V55.986a7.273,7.273,0,0,1-3.232.918,7.157,7.157,0,0,1-3.134-.87Zm-2.173-13.9a6.066,6.066,0,0,1-.8.859v2.725c0,3.282,4.1,6.11,6.11,6.11S46,51.577,46,48.295V45.052a12.819,12.819,0,0,0-.609-2.448,7.618,7.618,0,0,1-6.059,1.322,13.045,13.045,0,0,1-3.566-1.032A16.08,16.08,0,0,1,34.554,44.711Zm-4.333-7.817a6.735,6.735,0,0,0,2.239,6.434q.055-.065.11-.136a10.857,10.857,0,0,0,1.474-2.436,1.254,1.254,0,0,1,1.87-.6,9.96,9.96,0,0,0,3.762,1.3,5.522,5.522,0,0,0,4.888-1.312,1.744,1.744,0,0,1,1.728-.207A3.873,3.873,0,0,1,48,42.483a7.672,7.672,0,0,0,1.267-1.732,8.086,8.086,0,0,0-.13-7.643l-.039.026a4.222,4.222,0,0,1-3.192.75,16.324,16.324,0,0,1-2.171-.634,15.413,15.413,0,0,0-5.722-1.025C33.51,32.224,30.889,33.8,30.221,36.893ZM78.689,66.818a1.249,1.249,0,0,1-1.248-1.251l.018-14.955a3.088,3.088,0,0,0-2.211-2.96L69.8,46.059a4.063,4.063,0,0,1-.958,1.6,4.392,4.392,0,0,1-3.258,1.222,4.189,4.189,0,0,1-4.262-2.84L55.865,47.6a3.087,3.087,0,0,0-2.227,2.946l-.018,6.014A1.249,1.249,0,0,1,52.371,57.8h0a1.249,1.249,0,0,1-1.246-1.252l.017-6.014A5.6,5.6,0,0,1,55.177,45.2L59.5,43.959H56.287a1.249,1.249,0,0,1-1.249-1.249V32.175a10.525,10.525,0,1,1,21.049,0V42.71a1.249,1.249,0,0,1-1.249,1.249H71.519l4.43,1.294a5.6,5.6,0,0,1,4.009,5.363L79.94,65.57a1.249,1.249,0,0,1-1.249,1.248Zm-15.095-22.1c.015.5.239,1.666,1.988,1.666,1.726,0,1.938-1.14,1.946-1.642,0-.007,0,0,0-.013V43.218a6.694,6.694,0,0,1-1.956.291H65.55a6.693,6.693,0,0,1-1.956-.291ZM57.536,32.174v9.287h3.19a6.7,6.7,0,0,1-1.9-4.671V34.241a4.812,4.812,0,0,1,1.293-3.2,8.533,8.533,0,0,0,1.761-2.176,1.172,1.172,0,0,1,1.129-1.038,1.29,1.29,0,0,1,1.3,1.025A4.631,4.631,0,0,0,66.6,31.376a15.989,15.989,0,0,0,4.624,1.629,1.249,1.249,0,0,1,1.067,1.236v2.548a6.7,6.7,0,0,1-1.9,4.671h3.19V32.174a8.026,8.026,0,1,0-16.052,0Zm4.344.641a2.381,2.381,0,0,0-.551,1.426v2.548h0a4.226,4.226,0,0,0,4.221,4.222h.023a4.226,4.226,0,0,0,4.221-4.221V35.255a19.306,19.306,0,0,1-4.369-1.674,7.562,7.562,0,0,1-2.4-1.995C62.718,31.949,62.342,32.358,61.88,32.815ZM1.248,66.746A1.249,1.249,0,0,1,0,65.5L.018,50.54A5.6,5.6,0,0,1,4.056,45.2l5.491-1.572.007-2.7A6.958,6.958,0,0,1,7.123,35.9l.006-2.127A7.845,7.845,0,0,1,4.3,26.043c.789-3.618,3.841-5.609,8.593-5.609h.047a14.969,14.969,0,0,1,5.437.98,11.584,11.584,0,0,0,1.487.446c.519.1,1.2-.443,1.442-.724a1.243,1.243,0,0,1,1.852-.043,8.68,8.68,0,0,1,1.068,9.6,11.651,11.651,0,0,1-2.483,3.061l-.006,2.186a6.912,6.912,0,0,1-2.4,4.958l-.007,2.753,5.5,1.606a5.6,5.6,0,0,1,4.009,5.363l-.017,5.943a1.249,1.249,0,0,1-1.249,1.246h0a1.249,1.249,0,0,1-1.246-1.253l.018-5.943a3.087,3.087,0,0,0-2.211-2.958l-5.2-1.52a4.485,4.485,0,0,1-4.32,2.746h-.017a4.984,4.984,0,0,1-4.551-2.793L4.743,47.6a3.088,3.088,0,0,0-2.227,2.946L2.5,65.5a1.249,1.249,0,0,1-1.249,1.248Zm10.8-22.381c0,.029.009.059.011.088a2.6,2.6,0,0,0,2.538,1.926H14.6A2.136,2.136,0,0,0,16.827,44.5l.005-1.9a5.935,5.935,0,0,1-2.423.613H14.4a5.827,5.827,0,0,1-2.35-.59Zm2.362-3.653c1.546,0,4.828-2.256,4.835-4.784l.007-2.644a11.378,11.378,0,0,0-.387-1.69,6.478,6.478,0,0,1-4.9.953,10.951,10.951,0,0,1-2.8-.792,13.657,13.657,0,0,1-.917,1.341,5.219,5.219,0,0,1-.615.668L9.622,35.9a4.686,4.686,0,0,0,1.792,3.342h0A5.448,5.448,0,0,0,14.405,40.712ZM6.742,26.576a5.253,5.253,0,0,0,1.585,4.912,8.6,8.6,0,0,0,1.121-1.859,1.244,1.244,0,0,1,1.871-.595,7.976,7.976,0,0,0,2.994,1.039,4.356,4.356,0,0,0,3.857-1.028,1.651,1.651,0,0,1,1.637-.188,2.954,2.954,0,0,1,1.4,1.86,5.15,5.15,0,0,0,.75-1.071,6.471,6.471,0,0,0,.032-5.866,3.624,3.624,0,0,1-2.62.529,13.607,13.607,0,0,1-1.81-.534,12.473,12.473,0,0,0-4.625-.842H12.89C7.536,22.933,6.939,25.674,6.742,26.576ZM26.7,32.188A1.249,1.249,0,0,1,25.487,30.9l.018-.611a5.626,5.626,0,0,1,3.452-5.135V11.046a11.046,11.046,0,1,1,22.091,0V25.217a5.564,5.564,0,0,1,3.206,3.6,1.249,1.249,0,1,1-2.4.694A3.083,3.083,0,0,0,49.745,27.4l-5.41-1.519a4.367,4.367,0,0,1-4.356,2.736,4.564,4.564,0,0,1-3.391-1.27,4.175,4.175,0,0,1-.936-1.489L30.235,27.35A3.108,3.108,0,0,0,28,30.316v.032l-.018.626a1.249,1.249,0,0,1-1.248,1.214ZM37.853,24.3c0,.006,0,.012,0,.018.006.531.225,1.8,2.126,1.8a1.965,1.965,0,0,0,1.9-.892,2.308,2.308,0,0,0,.269-.925V22.614a7,7,0,0,1-2.136.333h-.024a7.007,7.007,0,0,1-2.136-.333ZM42.7,6.538a1.17,1.17,0,0,1,1.119,1.028A8.929,8.929,0,0,0,45.7,9.9a5.007,5.007,0,0,1,1.345,3.333V15.92A7.01,7.01,0,0,1,44.648,21.2v2.177l3.9,1.1V11.046a8.547,8.547,0,0,0-17.094,0V24.423l3.9-1.074V21.2a7.01,7.01,0,0,1-2.393-5.276V13.228a1.249,1.249,0,0,1,1.067-1.236,17.173,17.173,0,0,0,4.908-1.729A4.948,4.948,0,0,0,41.4,7.537a1.31,1.31,0,0,1,1.21-1Q42.651,6.534,42.7,6.538Zm-2.586,5.931a20.311,20.311,0,0,1-4.652,1.775V15.92a4.534,4.534,0,0,0,4.529,4.529h.024a4.534,4.534,0,0,0,4.529-4.529V13.227a2.53,2.53,0,0,0-.6-1.556c-.515-.509-.928-.961-1.258-1.359A7.916,7.916,0,0,1,40.112,12.468Z"/></svg>