<svg xmlns="http://www.w3.org/2000/svg" width="156" height="156" viewBox="0 0 156 156"> <path d="M108.094,181.7A78,78,0,1,1,144.682,34.873a8.3,8.3,0,1,1-7.768,14.616,61.394,61.394,0,1,0,32.19,54.364,59.861,59.861,0,0,0-.995-11.148,8.4,8.4,0,0,1,16.53-2.945,79.975,79.975,0,0,1,1.237,14.068,78.051,78.051,0,0,1-78.109,77.921Zm-20.43-46.122-12.65-12.631a8.279,8.279,0,0,1-2.408-5.832,8.482,8.482,0,0,1,2.408-5.839,8.277,8.277,0,0,1,11.779,0l6.812,6.864,74.68-74.623a8.316,8.316,0,1,1,11.779,11.671L99.4,135.561a8.139,8.139,0,0,1-11.694,0Z" transform="translate(-29.876 -25.748)" fill="#3c9f82"/> </svg>
