<?xml version="1.0" standalone="no"?>
<!DOCTYPE svg PUBLIC "-//W3C//DTD SVG 1.1//EN" "http://www.w3.org/Graphics/SVG/1.1/DTD/svg11.dtd">
<svg xmlns="http://www.w3.org/2000/svg">
<metadata>Generated by Fontastic.me</metadata>
<defs>
<font id="herostencil2k24" horiz-adv-x="512">
<font-face font-family="herostencil2k24" units-per-em="512" ascent="480" descent="-32"/>
<missing-glyph horiz-adv-x="512" />

<glyph glyph-name="arrow-left" unicode="&#97;" d="M346 0l60 60-197 196 197 196-60 60-228-226c-8-8-12-19-12-30 0-11 4-22 12-30z"/>
<glyph glyph-name="arrow-left-circle" unicode="&#98;" d="M179 282c-14-14-14-38 0-52l60-60c7-7 19-7 26 0 7 7 7 19 0 26l-42 42 102 0c7 0 13 3 16 9 4 5 4 13 0 18-3 6-9 9-16 9l-102 0 42 42c5 5 7 12 5 18-2 6-7 11-13 13-6 2-13 0-18-5z m-179-26c0-141 115-256 256-256 141 0 256 115 256 256 0 141-115 256-256 256-141 0-256-115-256-256z m37 0c0 121 98 219 219 219 121 0 219-98 219-219 0-121-98-219-219-219-121 0-219 98-219 219z"/>
<glyph glyph-name="arrow-next" unicode="&#99;" d="M166 0l-60 60 197 196-197 196 60 60 228-226c8-8 12-19 12-30 0-11-4-22-12-30z"/>
<glyph glyph-name="arrow-right-circle" unicode="&#100;" d="M333 282c14-14 14-38 0-52l-60-60c-7-7-19-7-26 0-7 7-7 19 0 26l42 42-102 0c-7 0-13 3-16 9-4 5-4 13 0 18 3 6 9 9 16 9l102 0-42 42c-5 5-7 12-5 18 2 6 7 11 13 13 6 2 13 0 18-5z m179-26c0-141-115-256-256-256-141 0-256 115-256 256 0 141 115 256 256 256 141 0 256-115 256-256z m-37 0c0 121-98 219-219 219-121 0-219-98-219-219 0-121 98-219 219-219 121 0 219 98 219 219z"/>
<glyph glyph-name="btn-arrow" unicode="&#101;" d="M395 153c-7 6-7 17 0 24l60 62-438 0c-9 0-17 7-17 17 0 9 8 17 17 17l438 0-60 62c-7 7-7 18 0 24 7 7 18 7 24 0l88-91c3-3 5-7 5-12 0-3-1-5-2-8l0 0 0 0 0-1 0 0-1-1c0 0-1-1-2-2l-87-91c-4-3-8-5-13-5-4 0-9 2-12 5z"/>
<glyph glyph-name="calendar" unicode="&#102;" d="M77 0c-43 0-77 34-77 77l0 205 512 0 0-205c0-43-34-77-77-77z m-77 333l0 25c0 43 34 77 77 77l25 0 0 51c0 7 3 14 8 19 5 4 11 7 18 7 7 0 13-3 18-7 5-5 8-12 8-19l0-51 204 0 0 51c0 7 3 14 8 19 5 4 11 7 18 7 7 0 13-3 18-7 5-5 8-12 8-19l0-51 25 0c43 0 77-34 77-77l0-25z"/>
<glyph glyph-name="calendar-1" unicode="&#103;" d="M27 0c-7 0-14 3-19 8-5 5-8 12-8 19l0 320 512 0 0-320c0-15-12-27-27-27z m82 127l9-15c14-24 39-38 66-39 19 0 38 6 53 17 16 13 25 32 25 52 0 18-6 36-19 49-3 3-6 6-9 8 1 1 2 3 4 4 11 12 18 28 18 44 0 19-9 37-24 49-14 10-32 15-49 15-24 1-46-11-59-31l-10-15 32-19 9 16c6 8 17 13 28 12 3 0 36 0 36-27 0-7-3-14-7-18-8-8-19-12-29-13l-19 0 0-36 19 0c13-1 25-6 34-15 6-6 9-15 8-23 0-24-22-32-41-32-14 0-27 8-35 20l-9 16z m238-49l37 0 0 228-30 0-69-51 22-29 40 30z m-347 306l0 64c0 8 3 14 8 20 5 5 12 7 19 7l64 0 0 37 55 0 0-37 220 0 0 37 55 0 0-37 64 0c7 0 14-2 19-7 5-6 8-12 8-20l0-64z"/>
<glyph glyph-name="close" unicode="&#104;" d="M256 512c-141 0-256-115-256-256 0-141 115-256 256-256 141 0 256 115 256 256 0 141-115 256-256 256z m112-334c7-6 10-15 7-24-2-8-9-15-17-17-9-3-18 0-24 7l-78 78-78-78c-9-9-24-8-33 1-9 9-10 24-1 33l78 78-78 78c-9 9-8 24 1 33 9 9 24 10 33 1l78-78 78 78c9 9 24 8 33-1 9-9 10-24 1-33l-78-78z"/>
<glyph glyph-name="close-x" unicode="&#105;" d="M507 101l-155 155 155 155c6 7 6 17 0 23l-73 73c-6 7-16 7-23 0l-155-155-155 155c-7 7-17 7-23 0l-73-73c-7-6-7-16 0-23l155-155-155-155c-7-7-7-17 0-23l73-73c6-7 16-7 23 0l155 155 155-155c7-7 17-7 23 0l73 73c7 6 7 16 0 23z"/>
<glyph glyph-name="envelop" unicode="&#106;" d="M384 473l-256 0c-77 0-128-38-128-128l0-179c0-89 51-128 128-128l256 0c77 0 128 39 128 128l0 179c0 90-51 128-128 128z m12-155l-80-64c-35-27-85-27-120 0l-80 64c-8 6-10 18-3 27 6 8 19 9 27 3l80-64c21-16 50-16 72 0l80 64c4 3 9 5 14 4 5-1 10-3 13-7 6-9 5-21-3-27z"/>
<glyph glyph-name="facebook-f-brands-solid" unicode="&#107;" d="M176 213l0-213 116 0 0 213 87 0 18 97-105 0 0 35c0 52 20 72 73 72 16 0 29-1 37-2l0 89c-15 4-50 8-70 8-107 0-156-51-156-159l0-43-66 0 0-97z"/>
<glyph glyph-name="fax" unicode="&#108;" d="M171 341l0-256c0-47-39-85-86-85-47 0-85 38-85 85l0 256c0 47 38 85 85 85 47 0 86-38 86-85z m42-42l299 0 0-192c0-59-48-107-107-107l-225 0c22 23 33 54 33 85z m171-96c0-16 11-29 26-32 15-3 30 5 35 20 6 14 1 30-11 38-13 9-30 7-41-4-6-6-9-14-9-22z m0-107c0-15 11-28 26-31 15-3 30 5 35 19 6 14 1 30-11 39-13 8-30 6-41-4-6-6-9-15-9-23z m-107 107c0-16 11-29 26-32 15-3 30 5 36 20 6 14 1 30-12 38-13 9-30 7-40-4-6-6-10-14-10-22z m0-107c0-15 11-28 26-31 15-3 30 5 36 19 6 14 1 30-12 39-13 8-30 6-40-4-6-6-10-15-10-23z m150 288c-24 0-43 19-43 43l0 85-85 0c-47 0-86-38-86-85l0-86 299 0 0 43z m0 43l71 0c-1 2-3 4-5 6l-60 60c-2 2-4 4-6 5z"/>
<glyph glyph-name="fax-1" unicode="&#109;" d="M82 402c12 0 24-4 33-13 8-9 13-20 13-32l0-311c0-12-5-24-13-33-9-8-21-13-33-13l-36 0c-12 0-24 5-33 13-8 9-13 21-13 33l0 311c0 12 5 23 13 32 9 9 21 13 33 13z m393-46c11-7 21-16 27-27 7-11 10-24 10-36l0-220c0-40-33-73-73-73l-247 0c-25 0-46 20-46 46l0 439c0 7 3 14 8 19 5 5 12 8 20 8l192 0c8 0 17-2 25-6 8-3 15-7 22-13l43-44c6-6 11-14 14-22 3-8 5-16 5-25z m-210-283l0 37c0 2-1 5-2 6-2 2-5 3-7 3l-37 0c-2 0-4-1-6-3-2-1-3-4-3-6l0-37c0-2 1-5 3-6 2-2 4-3 6-3l37 0c2 0 5 1 7 3 1 1 2 4 2 6z m0 73l0 37c0 2-1 5-2 6-2 2-5 3-7 3l-37 0c-2 0-4-1-6-3-2-1-3-4-3-6l0-37c0-2 1-5 3-6 2-2 4-3 6-3l37 0c2 0 5 1 7 3 1 1 2 4 2 6z m0 73l0 37c0 2-1 5-2 7-2 1-5 2-7 2l-37 0c-2 0-4-1-6-2-2-2-3-5-3-7l0-37c0-2 1-4 3-6 2-2 4-3 6-3l37 0c2 0 5 1 7 3 1 2 2 4 2 6z m73-146l0 37c0 2-1 5-2 6-2 2-4 3-7 3l-36 0c-3 0-5-1-7-3-2-1-3-4-3-6l0-37c0-2 1-5 3-6 2-2 4-3 7-3l36 0c3 0 5 1 7 3 1 1 2 4 2 6z m0 73l0 37c0 2-1 5-2 6-2 2-4 3-7 3l-36 0c-3 0-5-1-7-3-2-1-3-4-3-6l0-37c0-2 1-5 3-6 2-2 4-3 7-3l36 0c3 0 5 1 7 3 1 1 2 4 2 6z m0 73l0 37c0 2-1 5-2 7-2 1-4 2-7 2l-36 0c-3 0-5-1-7-2-2-2-3-5-3-7l0-37c0-2 1-4 3-6 2-2 4-3 7-3l36 0c3 0 5 1 7 3 1 2 2 4 2 6z m73-146l0 37c0 2-1 5-2 6-2 2-4 3-7 3l-36 0c-3 0-5-1-7-3-2-1-3-4-2-6l0-37c-1-2 0-5 2-6 2-2 4-3 7-3l36 0c3 0 5 1 7 3 2 1 2 4 2 6z m0 73l0 37c0 2-1 5-2 6-2 2-4 3-7 3l-36 0c-3 0-5-1-7-3-2-1-3-4-2-6l0-37c-1-2 0-5 2-6 2-2 4-3 7-3l36 0c3 0 5 1 7 3 2 1 2 4 2 6z m0 73l0 37c0 2-1 5-2 7-2 1-4 2-7 2l-36 0c-3 0-5-1-7-2-2-2-3-5-2-7l0-37c-1-2 0-4 2-6 2-2 4-3 7-3l36 0c3 0 5 1 7 3 2 2 2 4 2 6z m28 110l0 73-46 0c-7 0-14 3-19 8-5 5-8 12-8 20l0 45-183 0 0-146z"/>
<glyph glyph-name="flag" unicode="&#110;" d="M98 437c-21 0-38 17-38 37 0 21 17 38 38 38 20 0 37-17 37-38 0-20-17-37-37-37z m37-41c48 15 99 10 143-14 40-21 87-24 129-9 6 2 11 4 17 7 3 1 4 2 5 2 5 3 11 3 15 0 5-3 8-8 8-13l0-211c0-5-3-10-8-13-9-5-18-8-27-11-51-18-106-14-153 11-40 21-87 24-129 9z m-52 20c9-2 20-2 30 0l0-408c0-5-4-8-8-8l-15 0c-4 0-7 3-7 8z"/>
<glyph glyph-name="google" unicode="&#111;" d="M498 307c3-17 4-35 4-53 0-144-96-246-241-246-140 0-252 113-252 252 0 139 112 252 252 252 62 1 122-23 168-66l-71-71 0 0c-26 25-61 39-97 39-84-2-151-70-151-154 0-83 67-152 151-153 75 0 126 43 137 102l-137 0 0 98 237 0z"/>
<glyph glyph-name="google-fill" unicode="&#112;" d="M256 512c-141 0-256-115-256-256 0-141 115-256 256-256 141 0 256 115 256 256 0 141-115 256-256 256z m3-406c-83 0-150 67-150 150 0 83 67 150 150 150 37 0 73-14 100-39l-42-42 0 0c-16 14-37 23-58 22-50-1-89-41-89-91 0-50 39-90 89-91 45 0 75 25 81 61l-81 0 0 58 140 0c2-10 3-21 3-31 0-86-57-147-143-147z"/>
<glyph glyph-name="home" unicode="&#113;" d="M498 289l-209 209c-18 19-48 19-66 0l-209-209 0 0c-13-13-18-33-11-50 7-18 23-29 42-30l10 0 0-154c0-14 6-28 16-39 10-10 24-16 39-16l82 0c8 0 15 7 15 15l0 121c0 13 11 25 25 25l48 0c14 0 25-12 25-25l0-121c0-8 7-15 15-15l82 0c30 0 55 25 55 55l0 154 8 0c19 0 36 11 43 29 8 17 4 38-10 51z m-21-45c-3-3-8-5-12-5l-23 0c-8 0-15-7-15-15l0-169c0-14-11-25-25-25l-67 0 0 106c0 30-24 55-55 55l-48 0c-30 0-55-25-55-55l0-106-67 0c-14 0-25 11-25 25l0 169c0 8-7 15-15 15l-23 0c-7 0-13 4-16 10-2 7-1 14 4 19l209 209c3 3 8 5 12 5 5 0 9-2 12-5l209-209c3-3 5-7 5-12 0-5-2-9-5-12z"/>
<glyph glyph-name="instagram" unicode="&#114;" d="M256 512c70 0 78 0 106-2 21 0 42-4 62-11 17-7 32-17 45-30 13-13 23-28 30-45 7-20 11-41 11-63 2-27 2-36 2-105 0-70 0-78-2-106 0-21-4-42-11-62-14-34-41-61-75-75-20-7-41-11-62-11-28-2-36-2-106-2-70 0-78 0-106 2-21 0-42 4-62 11-34 14-61 41-75 76-7 19-11 40-11 62-2 27-2 36-2 105 0 70 0 78 2 106 0 21 4 42 11 62 14 34 41 61 75 74 20 8 41 12 62 12 28 2 36 2 106 2z m0-128c-61 0-114-43-126-103-12-60 21-120 77-143 56-24 121-4 155 47 34 51 28 118-16 162-24 24-56 37-90 37z m166 6c0 16-10 29-25 32-15 3-30-5-36-19-6-15-1-31 12-39 12-9 29-7 40 4 6 6 9 14 9 22z m-166-57c37 0 68-26 75-62 7-36-12-72-46-86-33-14-72-2-93 28-20 31-16 71 10 97 14 15 34 23 54 23z"/>
<glyph glyph-name="linkedin" unicode="&#115;" d="M476 512l-439 0c-10 0-20-4-26-11-7-7-11-16-11-26l0-438c0-10 4-19 11-26 6-7 16-11 26-11l438 0c21 0 37 17 37 37l0 438c0 20-16 37-36 37z m-321-439l-76 0 0 244 76 0 0-244z m-38 278c-24 0-44 19-44 44 0 24 20 44 44 44 24 0 44-20 44-44 0-12-5-23-13-31-8-8-19-13-31-13z m322-278l-75 0 0 119c0 28-1 65-40 65-39 0-46-31-46-63l0-121-75 0 0 244 73 0 0-33 1 0c14 25 42 41 71 40 77 0 91-51 91-117z"/>
<glyph glyph-name="meta" unicode="&#116;" d="M457 512l-402 0c-30 0-55-25-55-55l0-402c0-30 25-55 55-55l157 0 0 174-72 0 0 82 72 0 0 62c0 71 42 111 107 111 21-1 42-2 63-6l0-69-36 0c-12 1-24-3-33-12-9-8-14-20-13-33l0-53 79 0-13-82-66 0 0-174 157 0c30 0 55 25 55 55l0 402c0 30-25 55-55 55z"/>
<glyph glyph-name="meta-fill" unicode="&#117;" d="M177 213l0-213 116 0 0 213 86 0 18 97-104 0 0 35c0 52 20 72 73 72 16 0 29-1 37-2l0 89c-23 5-46 8-70 8-107 0-156-51-156-159l0-43-66 0 0-97z"/>
<glyph glyph-name="phone" unicode="&#118;" d="M512 94c0-10-2-19-6-28-5-9-11-18-18-26-11-13-26-24-42-30-16-7-33-10-50-10-29 1-57 7-83 19-32 13-61 30-89 50-29 22-58 46-84 72-26 26-50 54-71 84-20 27-37 56-51 87-11 26-18 55-18 84 0 17 3 33 9 49 7 16 17 31 30 43 14 15 33 24 53 24 7 0 14-2 21-5 7-3 13-8 17-14l59-84c5-5 8-11 11-18 2-5 3-10 3-15 0-7-2-13-5-18-4-7-9-13-14-19l-20-20c-3-2-4-6-4-10 0-2 0-4 1-6 1-2 1-4 2-5 7-12 15-23 24-33 11-13 24-27 37-40 14-14 27-26 41-38 10-9 21-17 33-23 1-1 3-2 4-3 2 0 5-1 7-1 4 0 8 2 10 5l20 19c5 6 11 11 18 14 6 4 12 6 18 6 6 0 11-1 16-4 6-2 12-6 18-10l85-60c6-4 11-9 14-16 3-6 4-13 4-20z"/>
<glyph glyph-name="pin" unicode="&#119;" d="M254 512c-108 0-196-88-196-197 0-88 128-248 177-306 5-6 12-9 19-9 8 0 15 3 19 9 50 58 178 218 178 306 0 109-88 197-197 197z m0-263c-36 0-65 30-65 66 0 36 29 66 65 66 37 0 66-30 66-66 0-36-29-66-66-66z m200-87z"/>
<glyph glyph-name="pinterest" unicode="&#120;" d="M512 256c0-81-39-158-104-206-66-48-150-63-228-39 14 21 24 44 32 68 3 12 16 60 16 60 13-19 35-30 59-29 77 0 132 71 132 159 0 85-69 148-157 148-111 0-170-74-170-155 0-37 20-84 52-99 5-2 8-1 9 4 1 3 5 20 7 29 1 2 0 5-2 7-12 17-19 37-19 58 0 31 13 60 35 80 21 21 51 32 81 31 28 2 56-9 76-28 21-20 32-48 31-76 0-69-35-117-81-117-11-1-23 4-30 13-8 9-10 22-7 33 9 28 16 56 21 85 1 9-2 19-8 26-7 7-15 10-25 10-25 0-46-26-46-62 0-13 3-26 8-38 0 0-26-107-30-127-4-24-5-49-1-74-120 47-187 177-155 302 32 125 152 207 280 191 128-16 224-125 224-254z"/>
<glyph glyph-name="play" unicode="&#121;" d="M449 323l-309 179c-24 13-54 13-77 0-24-14-39-40-39-67l0-358c0-27 15-53 39-67 23-13 53-13 77 0l309 179c24 14 39 40 39 67 0 28-15 53-39 67z"/>
<glyph glyph-name="quote-round" unicode="&#122;" d="M46 92c-31 33-48 78-46 124 0 100 72 189 173 235l26-37c-95-52-115-118-121-161 17 9 36 12 54 9 53-5 93-48 92-101 0-27-11-52-28-72-19-19-45-30-72-29-29 1-57 12-78 32z m288 0c-32 33-49 78-46 124 0 100 72 189 172 235l26-37c-95-52-115-118-121-161 17 9 36 12 55 9 52-5 92-48 92-101-1-27-11-52-29-72-18-20-45-30-72-29-29 1-56 12-77 32z"/>
<glyph glyph-name="quote-sqare" unicode="&#65;" d="M286 42l0 147c0 80 11 138 34 173 31 48 79 84 144 108l48-62c-40-14-69-34-88-61-18-27-29-67-31-118l102 0 0-187z m-286 0l0 147c0 80 12 138 35 173 30 48 78 84 144 108l47-62c-40-14-69-34-87-61-19-27-30-67-32-118l102 0 0-187z"/>
<glyph glyph-name="search" unicode="&#66;" d="M47 268c0 109 88 197 197 197 110 0 198-88 198-197 0-110-88-198-198-198-109 0-197 88-197 198z m197 244c-135 0-244-109-244-244 0-135 109-245 244-245 135 0 245 110 245 245 0 135-110 244-245 244z m261-472l-46 46c-6 6-15 9-23 6-8-2-14-8-16-16-3-8 0-17 6-23l46-46c9-9 24-9 33 0 9 9 9 24 0 33z"/>
<glyph glyph-name="stethoscope" unicode="&#67;" d="M0 442c0 39 31 70 70 70l17 0c13 0 24-10 24-23 0-13-11-24-24-24l-17 0c-13 0-23-10-23-23l0-116c0-64 52-117 116-117 64 0 116 53 116 117l0 116c0 13-10 23-23 23l-17 0c-13 0-24 11-24 24 0 13 11 23 24 23l17 0c39 0 70-31 70-70l0-116c0-81-60-150-140-161l0-2c0-64 52-116 117-116 64 0 116 52 116 116l0 50c-32 12-51 45-46 78 6 34 35 58 69 58 34 0 63-24 69-58 6-33-13-66-46-78l0-50c0-90-72-163-162-163-90 0-163 73-163 163l0 2c-81 11-140 80-140 161z m442-186c13 0 23 10 23 23 0 13-10 24-23 24-13 0-23-11-23-24 0-13 10-23 23-23z"/>
<glyph glyph-name="threads" unicode="&#68;" d="M378 275c-2 1-4 2-6 3-4 73-44 114-111 115l-1 0c-37 1-73-17-93-48l36-26c13 19 35 30 57 29l1 0c18 1 36-6 49-19 9-11 14-24 16-38-21 3-42 4-63 3-64-4-105-41-102-92 1-26 15-49 37-63 20-13 44-19 68-17 30 0 58 14 77 37 15 21 24 44 27 69 15-8 27-21 34-37 14-35 5-76-23-102-30-30-67-43-121-44-61 1-107 20-137 58-28 36-43 87-43 153 0 66 15 117 43 153 30 38 76 57 137 58 61-1 108-20 139-58 16-21 27-45 34-70l43 11c-8 32-23 62-43 87-40 49-98 74-173 75l-1 0c-74-1-132-26-171-75-34-44-52-105-52-181l0 0c0-77 18-137 52-181 39-49 97-74 171-75l1 0c66 0 113 18 152 57 41 39 54 99 32 152-13 29-36 53-66 66z m-115-108c-27-2-56 11-58 37-1 20 14 42 60 45 5 0 10 0 16 0 15 0 31-1 46-4-5-66-36-77-64-78z"/>
<glyph glyph-name="tiktok" unicode="&#69;" d="M423 403c-3 2-6 4-10 6-9 6-18 14-25 22-15 17-25 37-29 60l0 0c-2 7-2 14-1 21l-88 0 0-338c0-4 0-9 0-13 0-1 0-1 0-2 0 0 0 0 0 0l0-1c-2-24-16-46-37-58-11-7-24-10-36-10-41 0-75 33-75 74 0 41 34 74 75 74 7 0 15-1 22-3l0 89c-45 5-90-8-125-37-15-13-27-29-37-46-12-23-19-48-19-73 0-20 3-40 9-58l0-1c6-15 14-30 24-43 11-13 23-26 38-36l0 1 0-1c26-17 57-26 89-26 23 0 45 5 66 14 21 10 39 24 54 41 12 14 22 31 29 48 6 18 10 37 11 56l0 179c1-1 15-10 15-10 16-9 34-17 52-21 17-4 35-7 53-8l0 87c-19 0-38 4-55 13z"/>
<glyph glyph-name="timer" unicode="&#70;" d="M256 0c141 0 256 115 256 256 0 141-115 256-256 256-141 0-256-115-256-256 0-141 115-256 256-256z m-18 402c0 10 8 19 18 19 10 0 18-9 18-19l0-137 85-68c6-5 8-13 6-20-3-8-10-12-18-12-4 0-8 1-11 4l-91 73c-5 3-7 8-7 14z"/>
<glyph glyph-name="whatsapp" unicode="&#71;" d="M372 205c-7 3-38 19-44 21-6 2-10 3-14-3-4-7-16-21-20-25-4-4-7-5-14-2-19 8-36 18-51 32-14 12-26 27-35 44-4 6-1 9 3 13 2 2 6 7 9 11 3 3 5 6 7 10 1 4 1 8-1 11-2 4-14 35-20 47-5 13-10 11-14 11-4 1-8 0-12 0-6 0-13-3-17-7-14-14-22-33-22-53 2-24 11-47 26-66 3-4 44-68 108-96 12-5 24-9 36-13 13-4 27-5 40-3 12 2 38 16 43 31 4 9 5 20 4 30-2 2-6 4-12 7z m-116-158l0 0c-38 0-75 10-108 30l-7 4-80-21 21 78-5 8c-51 82-40 187 26 257 66 70 171 86 255 40 84-47 126-144 102-238-24-93-108-158-204-158z m179 391c-90 90-232 99-333 22-101-78-130-218-66-329l-36-131 134 35c38-20 79-31 122-31l0 0c102 0 195 62 234 157 39 95 18 204-55 277"/>
<glyph glyph-name="x" unicode="&#72;" d="M403 487l79 0-172-196 202-266-158 0-124 161-141-161-79 0 184 209-194 253 162 0 112-147z m-27-415l43 0-281 371-46 0z"/>
<glyph glyph-name="yelp" unicode="&#73;" d="M107 272l100-49c19-9 16-37-5-43l-108-26c-6-2-13-1-18 3-5 4-9 10-10 16-3 29 0 58 9 85 2 7 7 12 13 14 6 3 13 3 19 0z m44-240c24-16 51-27 79-32 7-1 13 1 19 5 5 4 8 10 8 17l4 111c1 21-26 32-40 16l-74-82c-5-5-7-12-6-18 1-7 4-13 10-17z m145 110l59-94c4-5 9-9 16-10 6-1 13 1 18 5 22 18 40 41 53 67 3 6 3 13 0 19-3 6-8 11-14 13l-105 34c-21 7-38-16-27-34z m149 133c-12 26-29 50-51 69-5 4-11 6-18 5-6 0-12-4-16-10l-62-91c-12-18 5-41 25-35l107 30c6 2 12 7 14 13 3 6 3 13 1 19z m-319 207c-6-3-10-8-12-14-2-6-1-13 2-18l104-181c12-20 43-12 43 12l0 208c0 6-3 13-7 17-5 4-11 6-18 6-39-3-77-13-112-30z"/>
<glyph glyph-name="youtube" unicode="&#74;" d="M213 318l109-62-109-62z m299 139l0-402c0-30-25-55-55-55l-402 0c-30 0-55 25-55 55l0 402c0 30 25 55 55 55l402 0c30 0 55-25 55-55z m-48-201c0 0 0 68-9 100-4 18-18 33-36 37-33 9-163 9-163 9 0 0-130 0-163-9-18-4-32-19-36-37-9-32-9-100-9-100 0 0 0-68 9-101 4-18 19-32 36-37 33-8 163-8 163-8 0 0 130 0 163 9 17 4 32 18 36 36 9 33 9 101 9 101z"/>
<glyph glyph-name="chevron-right" unicode="&#75;" d="M241 53c-10 11-9 29 3 40l156 135-372 0c-15 0-28 12-28 28 0 16 13 28 28 28l372 0-156 135c-11 11-12 28-2 40 10 12 27 13 39 3l214-184c0 0 1-1 1-1l0-1 1 0c3-4 6-8 7-13 0-2 1-4 1-6l0-2c0-8-4-15-10-20l-214-185c-12-11-30-9-40 3z"/>
<glyph glyph-name="chevron-left" unicode="&#76;" d="M264 459c10-11 9-29-3-40l-156-135 371 0c16 0 29-12 29-28 0-16-13-28-29-28l-371 0 156-135c11-11 12-28 2-40-10-12-27-13-39-3l-214 184c0 0-1 1-1 1l-1 1 0 0c-3 4-6 8-7 13-1 2-1 4-1 6l0 2c0 8 4 15 10 20l214 185c12 11 30 9 40-3z"/>
</font>
</defs>
</svg>
