<svg xmlns="http://www.w3.org/2000/svg" width="80" height="80" viewBox="0 0 80 80">
  <path d="M1.291,87A1.29,1.29,0,0,1,0,85.709V77.968a7.749,7.749,0,0,1,7.741-7.742h3.872V68.594A9.051,9.051,0,0,1,8.13,63.774H6.451A3.86,3.86,0,0,1,6.1,56.069l-.353-1.414a19.551,19.551,0,0,1-.584-4.742,11.265,11.265,0,0,1,.58-3.57A4.687,4.687,0,0,1,12.9,43.995V8.291A1.291,1.291,0,0,1,14.194,7H68.386a1.291,1.291,0,0,1,1.291,1.291V34.853l.331-.332A5.852,5.852,0,1,1,78.285,42.8L69.678,51.4v34.3A1.291,1.291,0,0,1,68.386,87Zm32.257-2.58H67.1V53.985l-3.871,3.872V77.968a1.291,1.291,0,0,1-1.29,1.29H33.548ZM2.581,77.968v6.451H30.967V77.968a5.161,5.161,0,0,0-5.161-5.162H21.752a5.137,5.137,0,0,1-9.957,0H7.741A5.161,5.161,0,0,0,2.581,77.968Zm19.354-9.374v1.632h3.872a7.749,7.749,0,0,1,7.625,6.451H60.645V60.437l-5.539,5.539a1.3,1.3,0,0,1-.558.329l-9.032,2.58a1.346,1.346,0,0,1-.355.05,1.29,1.29,0,0,1-1.239-1.644l2.58-9.032a1.273,1.273,0,0,1,.328-.559l4.249-4.249H28.387a1.271,1.271,0,0,1-.066.407l-.74,2.223a3.86,3.86,0,0,1-.484,7.692H25.426A9.054,9.054,0,0,1,21.935,68.594Zm-7.741,2.922a2.58,2.58,0,0,0,5.161,0V69.838a8.775,8.775,0,0,1-5.161,0Zm.22-14.949-4.092.584v4.042a6.452,6.452,0,0,0,12.9,0V56.651l-4.355-3.484A5.784,5.784,0,0,1,14.414,56.567Zm32.631,9.2,4.689-1.34-3.354-3.355Zm2.521-7.158,4.626,4.626L67.852,49.581l-4.627-4.627Zm-23.76,2.58H27.1a1.29,1.29,0,0,0,0-2.58H25.806ZM5.161,59.9a1.29,1.29,0,0,0,1.29,1.29h1.29v-2.58H6.451A1.29,1.29,0,0,0,5.161,59.9Zm13.71-10.04,6.363,5.092.572-1.713V51.718a6.01,6.01,0,0,0-10.259-4.249l-.442.442a1.29,1.29,0,0,1-1.824,0L11.7,46.33a2.121,2.121,0,0,0-3.51.83,8.693,8.693,0,0,0-.447,2.752,16.955,16.955,0,0,0,.508,4.117l.213.855a1.27,1.27,0,0,1,.387-.129l5.2-.743a3.189,3.189,0,0,0,2.724-3.141,1.291,1.291,0,0,1,2.1-1.008Zm4.838-5.792a8.593,8.593,0,0,1,4.635,6.8H53.659L67.1,37.433V9.581H15.484V44.29a8.592,8.592,0,0,1,8.225-.219ZM65.05,43.13l4.628,4.626,2.046-2.046L67.1,41.082Zm6.783-6.784L68.92,39.258l4.628,4.628,2.912-2.913a3.272,3.272,0,0,0-4.628-4.627ZM28.387,68.936v-2.58h12.9v2.58ZM37.44,47.253,37.008,45.1A15.345,15.345,0,0,1,33.8,43.764l-1.832,1.22a1.289,1.289,0,0,1-1.627-.161l-3.649-3.649a1.289,1.289,0,0,1-.161-1.627l1.22-1.833A15.291,15.291,0,0,1,26.413,34.5l-2.155-.432h0a1.288,1.288,0,0,1-1.032-1.264V27.645a1.289,1.289,0,0,1,1.042-1.264l2.155-.431a15.3,15.3,0,0,1,1.334-3.212L26.537,20.9a1.289,1.289,0,0,1,.16-1.627l3.65-3.65a1.288,1.288,0,0,1,1.627-.16l1.833,1.22a15.34,15.34,0,0,1,3.207-1.34l.431-2.154a1.288,1.288,0,0,1,1.265-1.032H43.87a1.289,1.289,0,0,1,1.264,1.032l.431,2.16a15.361,15.361,0,0,1,3.213,1.334l1.833-1.22a1.289,1.289,0,0,1,1.627.16l3.654,3.65a1.29,1.29,0,0,1,.161,1.627l-1.22,1.833a15.225,15.225,0,0,1,1.334,3.212l2.155.431a1.291,1.291,0,0,1,1.033,1.264v5.162a1.29,1.29,0,0,1-1.038,1.27l-2.154.431a15.42,15.42,0,0,1-1.334,3.214l1.22,1.833a1.29,1.29,0,0,1-.161,1.627l-3.649,3.649a1.29,1.29,0,0,1-1.627.161l-1.833-1.22A15.374,15.374,0,0,1,45.566,45.1l-.431,2.154A1.289,1.289,0,0,1,43.87,48.29H38.7A1.289,1.289,0,0,1,37.44,47.253Zm-3-6.1a12.778,12.778,0,0,0,3.96,1.645,1.291,1.291,0,0,1,.978,1l.387,1.912h3.045L43.2,43.8a1.291,1.291,0,0,1,.977-1,12.778,12.778,0,0,0,3.961-1.645,1.291,1.291,0,0,1,1.4.02l1.626,1.084,2.157-2.146-1.083-1.626a1.29,1.29,0,0,1-.02-1.4,12.783,12.783,0,0,0,1.646-3.961,1.289,1.289,0,0,1,1-.977l1.911-.387V28.707l-1.911-.388a1.287,1.287,0,0,1-1-.977,12.791,12.791,0,0,0-1.646-3.961,1.29,1.29,0,0,1,.02-1.4l1.083-1.626L51.167,18.2l-1.626,1.083a1.291,1.291,0,0,1-1.4.02,12.8,12.8,0,0,0-3.961-1.646,1.291,1.291,0,0,1-.978-1l-.386-1.912H39.768l-.384,1.912a1.291,1.291,0,0,1-.977,1A12.785,12.785,0,0,0,34.447,19.3a1.291,1.291,0,0,1-1.4-.02L31.418,18.2,29.263,20.35l1.085,1.626a1.291,1.291,0,0,1,.018,1.4,12.786,12.786,0,0,0-1.644,3.961,1.292,1.292,0,0,1-1.006.977l-1.91.387v3.045l1.91.385a1.289,1.289,0,0,1,1.006.975,12.789,12.789,0,0,0,1.644,3.962,1.291,1.291,0,0,1-.018,1.4L29.263,40.1l2.151,2.154,1.626-1.084a1.291,1.291,0,0,1,1.4-.02ZM32.258,30.226a9.032,9.032,0,1,1,9.032,9.032A9.033,9.033,0,0,1,32.258,30.226Zm2.582,0a6.451,6.451,0,1,0,6.451-6.451A6.451,6.451,0,0,0,34.839,30.226Z" transform="translate(0 -7)" fill="#29aae3"/>
</svg>
