<svg xmlns="http://www.w3.org/2000/svg" viewBox="0 0 119 119"><circle cx="59.5" cy="59.5" r="59.5" fill="#f1f7fb"/><path d="M9.2,52.863c-3.813-4.194-6.1-8.77-6.1-16.4C3.1,23.121,12.633,11.3,25.978,5.2l3.432,4.957C16.827,17.02,14.158,25.79,13.4,31.51a11.307,11.307,0,0,1,7.245-1.144,13.316,13.316,0,0,1,12.2,13.346,15.045,15.045,0,0,1-3.813,9.533A12.647,12.647,0,0,1,19.5,57.057,15,15,0,0,1,9.2,52.863Zm38.13,0c-3.813-4.194-6.1-8.77-6.1-16.4C41.23,23.121,50.763,11.3,64.108,5.2l3.432,4.957C54.957,17.02,52.288,25.79,51.525,31.51a11.307,11.307,0,0,1,7.245-1.144,13.316,13.316,0,0,1,12.2,13.346,15.045,15.045,0,0,1-3.813,9.533c-2.288,2.669-5.72,3.813-9.533,3.813a15,15,0,0,1-10.3-4.194Z" transform="translate(22.464 28.371)" fill="#fc4f87"/></svg>