<svg xmlns="http://www.w3.org/2000/svg" width="80" height="71.875" viewBox="0 0 80 71.875">
  <path id="Union_8" data-name="Union 8" d="M-1887.756-2136.09a1.563,1.563,0,0,1,.339-1.7,9.5,9.5,0,0,0,2.511-8.953,21.834,21.834,0,0,1-6.094-14.943c0-13.066,12.6-22.726,25.995-23.4.893-12.216,12.438-21.915,26.505-21.915h0c13.931,0,27.5,9.861,27.5,23.438a21.834,21.834,0,0,1-6.094,14.943,9.5,9.5,0,0,0,2.511,8.953,1.563,1.563,0,0,1,.339,1.7,1.562,1.562,0,0,1-1.443.964,17.235,17.235,0,0,1-11.942-4.827,35.14,35.14,0,0,1-9.366,1.667c-.9,12.214-12.439,21.91-26.5,21.91a35.607,35.607,0,0,1-10.871-1.7,17.235,17.235,0,0,1-11.942,4.827A1.562,1.562,0,0,1-1887.756-2136.09Zm-.119-25.6a18.777,18.777,0,0,0,5.5,13.066,1.558,1.558,0,0,1,.382.66,12.637,12.637,0,0,1-.953,9.3,14.1,14.1,0,0,0,7.012-4.161,1.563,1.563,0,0,1,1.731-.4,31.591,31.591,0,0,0,10.7,1.844c12.924,0,23.438-9.112,23.438-20.312,0-11.636-10.961-20.312-23.437-20.312C-1876.713-2182-1887.875-2172.7-1887.875-2161.688Zm61.811-3.01a14.1,14.1,0,0,0,7.012,4.161,12.637,12.637,0,0,1-.953-9.3,1.568,1.568,0,0,1,.382-.66h0a18.778,18.778,0,0,0,5.5-13.066c0-11.011-11.162-20.313-24.375-20.313-12.334,0-22.474,8.3-23.372,18.8a29.136,29.136,0,0,1,11.628,3.079h25.181a1.562,1.562,0,0,1,1.563,1.562,1.562,1.562,0,0,1-1.562,1.563h-20.381A22.366,22.366,0,0,1-1837-2163.29a30.78,30.78,0,0,0,9.205-1.8,1.553,1.553,0,0,1,.577-.111A1.566,1.566,0,0,1-1826.064-2164.7Zm-50.873,10.822a1.563,1.563,0,0,1-1.562-1.563,1.562,1.562,0,0,1,1.563-1.562H-1851a1.562,1.562,0,0,1,1.563,1.563,1.563,1.563,0,0,1-1.562,1.563Zm6.25-9.375a1.562,1.562,0,0,1-1.562-1.562,1.562,1.562,0,0,1,1.563-1.562H-1851a1.562,1.562,0,0,1,1.563,1.563,1.562,1.562,0,0,1-1.562,1.563Zm-7.812-1.562a1.563,1.563,0,0,1,1.563-1.562,1.563,1.563,0,0,1,1.563,1.563,1.563,1.563,0,0,1-1.562,1.563A1.563,1.563,0,0,1-1878.5-2164.813Zm33.75-23.437a1.562,1.562,0,0,1-1.562-1.562,1.562,1.562,0,0,1,1.563-1.562h19.688a1.562,1.562,0,0,1,1.563,1.563,1.562,1.562,0,0,1-1.562,1.563Zm-7.813-1.562a1.563,1.563,0,0,1,1.563-1.562,1.563,1.563,0,0,1,1.563,1.563,1.563,1.563,0,0,1-1.562,1.563A1.563,1.563,0,0,1-1852.563-2189.813Z" transform="translate(1891 2207.001)" fill="#29aae3"/>
</svg>
