<svg xmlns="http://www.w3.org/2000/svg" width="80" height="80" viewBox="0 0 80 80">
  <g id="Group_22768" data-name="Group 22768" transform="translate(0 0)">
    <path id="Union_6" data-name="Union 6" d="M-3139.709-1749.457a4.661,4.661,0,0,1-1.728.331h-14.006l-1.42.71a23.2,23.2,0,0,1-10.23,2.415h-2.172a1.563,1.563,0,0,1-1.562-1.562,1.563,1.563,0,0,1,1.563-1.562h2.172a20.051,20.051,0,0,0,8.838-2.088l1.744-.872a1.559,1.559,0,0,1,.7-.165h9.956a4.663,4.663,0,0,1-.269-1.563v-14.062h-12.812a1.563,1.563,0,0,1-1.4-.868,9.667,9.667,0,0,0-8.725-5.382H-3173v1.563a1.562,1.562,0,0,1-1.562,1.563h-15.625a1.564,1.564,0,0,0-1.562,1.562,1.564,1.564,0,0,0,1.563,1.563h6.25a1.563,1.563,0,0,1,1.563,1.563,1.562,1.562,0,0,1-1.562,1.562h-9.375a1.564,1.564,0,0,0-1.562,1.563,1.564,1.564,0,0,0,1.563,1.563h9.375a1.562,1.562,0,0,1,1.563,1.563,1.562,1.562,0,0,1-1.562,1.563h-6.25a1.564,1.564,0,0,0-1.562,1.563,1.564,1.564,0,0,0,1.563,1.562h6.25a1.563,1.563,0,0,1,1.563,1.563,1.563,1.563,0,0,1-1.562,1.563h-3.125a1.564,1.564,0,0,0-1.562,1.562,1.564,1.564,0,0,0,1.563,1.563h3.765a1.562,1.562,0,0,1,1.563,1.563A1.562,1.562,0,0,1-3183.3-1746h-3.765a4.693,4.693,0,0,1-4.687-4.687,4.663,4.663,0,0,1,.331-1.728,4.7,4.7,0,0,1-3.456-4.522,4.657,4.657,0,0,1,.332-1.728,4.7,4.7,0,0,1-3.457-4.522,4.7,4.7,0,0,1,3.457-4.522,4.657,4.657,0,0,1-.332-1.728v-17.131a24.28,24.28,0,0,1-3.125-11.65v-16.844a4.693,4.693,0,0,1,4.688-4.687,4.663,4.663,0,0,1,1.728.331,4.7,4.7,0,0,1,4.522-3.457,4.661,4.661,0,0,1,1.728.332,4.7,4.7,0,0,1,4.522-3.456,4.7,4.7,0,0,1,4.522,3.456,4.662,4.662,0,0,1,1.728-.332h17.131l1.42-.71a23.2,23.2,0,0,1,10.23-2.415h16.844a4.693,4.693,0,0,1,4.688,4.687,4.657,4.657,0,0,1-.332,1.728,4.7,4.7,0,0,1,3.457,4.522,4.66,4.66,0,0,1-.331,1.728,4.7,4.7,0,0,1,3.456,4.522,4.7,4.7,0,0,1-3.456,4.522,4.663,4.663,0,0,1,.331,1.728v17.131l.71,1.42a23.361,23.361,0,0,1,2.266,7.661,1.554,1.554,0,0,1,.149.663v18.75a4.693,4.693,0,0,1-4.687,4.688,4.661,4.661,0,0,1-1.728-.332,4.7,4.7,0,0,1-4.522,3.456,4.662,4.662,0,0,1-1.728-.331,4.7,4.7,0,0,1-4.522,3.456A4.7,4.7,0,0,1-3139.709-1749.457Zm2.96-10.606v9.375a1.564,1.564,0,0,0,1.563,1.563,1.564,1.564,0,0,0,1.563-1.562v-9.375a1.563,1.563,0,0,1,1.563-1.562,1.563,1.563,0,0,1,1.563,1.563v6.25a1.564,1.564,0,0,0,1.563,1.563,1.564,1.564,0,0,0,1.563-1.563v-6.25a1.563,1.563,0,0,1,1.563-1.562,1.563,1.563,0,0,1,1.563,1.563v3.125a1.564,1.564,0,0,0,1.563,1.562,1.564,1.564,0,0,0,1.563-1.562v-16.844a20.05,20.05,0,0,0-2.088-8.838l-.872-1.744a1.564,1.564,0,0,1-.165-.7v-13.081a4.664,4.664,0,0,1-1.562.269h-14.062v12.813a1.562,1.562,0,0,1-.868,1.4,9.667,9.667,0,0,0-5.382,8.725V-1771h1.563a1.563,1.563,0,0,1,1.563,1.562v15.625a1.564,1.564,0,0,0,1.563,1.563,1.564,1.564,0,0,0,1.563-1.563v-6.25a1.563,1.563,0,0,1,1.563-1.562A1.563,1.563,0,0,1-3136.75-1760.063Zm-30-37a12.774,12.774,0,0,1-6.25,11.053v8.76h3.938a12.774,12.774,0,0,1,11.052,6.25h8.76v-3.937a12.773,12.773,0,0,1,6.25-11.052v-8.76h-3.937a12.773,12.773,0,0,1-11.052-6.25h-8.76Zm-28.125-18v16.844a22.019,22.019,0,0,0,2.96,10.582,1.56,1.56,0,0,1,.165.7v13.081a4.667,4.667,0,0,1,1.563-.269h14.063v-12.812a1.562,1.562,0,0,1,.868-1.4,9.793,9.793,0,0,0,5.382-8.725V-1801h-1.562a1.562,1.562,0,0,1-1.562-1.562v-15.625a1.564,1.564,0,0,0-1.562-1.562,1.564,1.564,0,0,0-1.562,1.562v6.25a1.562,1.562,0,0,1-1.562,1.563,1.563,1.563,0,0,1-1.562-1.562v-9.375a1.564,1.564,0,0,0-1.562-1.562,1.564,1.564,0,0,0-1.562,1.563v9.375a1.562,1.562,0,0,1-1.562,1.563,1.562,1.562,0,0,1-1.562-1.562v-6.25a1.564,1.564,0,0,0-1.562-1.562,1.564,1.564,0,0,0-1.562,1.562v6.25a1.562,1.562,0,0,1-1.562,1.563,1.562,1.562,0,0,1-1.562-1.562v-3.125a1.564,1.564,0,0,0-1.562-1.562A1.564,1.564,0,0,0-3194.875-1815.063Zm25-3.125v14.063h12.813a1.563,1.563,0,0,1,1.4.868,9.793,9.793,0,0,0,8.725,5.382H-3143v-1.562a1.563,1.563,0,0,1,1.563-1.562h15.625a1.564,1.564,0,0,0,1.563-1.562,1.564,1.564,0,0,0-1.562-1.562h-6.25a1.563,1.563,0,0,1-1.562-1.562,1.563,1.563,0,0,1,1.563-1.563h9.375a1.564,1.564,0,0,0,1.563-1.562,1.564,1.564,0,0,0-1.562-1.562h-9.375a1.563,1.563,0,0,1-1.562-1.562,1.563,1.563,0,0,1,1.563-1.562h6.25a1.564,1.564,0,0,0,1.563-1.562,1.564,1.564,0,0,0-1.562-1.562h-6.25a1.563,1.563,0,0,1-1.562-1.562,1.563,1.563,0,0,1,1.563-1.562h3.125a1.564,1.564,0,0,0,1.563-1.563,1.564,1.564,0,0,0-1.562-1.562h-16.844a22.019,22.019,0,0,0-10.582,2.96,1.56,1.56,0,0,1-.7.165h-13.081A4.66,4.66,0,0,1-3169.875-1818.188Zm-7.812,70.156a1.563,1.563,0,0,1,1.563-1.563,1.563,1.563,0,0,1,1.563,1.563,1.562,1.562,0,0,1-1.562,1.562A1.562,1.562,0,0,1-3177.687-1748.031Z" transform="translate(3198 1826)" fill="#29aae3"/>
  </g>
</svg>
