<svg xmlns="http://www.w3.org/2000/svg" width="52.267" height="42" viewBox="0 0 52.267 42">
  <path id="Path_75" data-name="Path 75" d="M8.874.111A90.831,90.831,0,0,0,.16,8.9c-.284.732-.228,1.081.471,2.91A52.729,52.729,0,0,0,10.59,27.994c2.5,2.807,3.843,3.814,5.589,4.2a8.585,8.585,0,0,0,3.654-.067,59.075,59.075,0,0,0,21.393-7.43l1.014-.59,1.03.151c3.083.451,5.373-.041,6.934-1.488,2.455-2.276,2.778-6.678.651-8.872a4.1,4.1,0,0,0-4.278-1.043,1.5,1.5,0,0,1-1.138.137,3.762,3.762,0,0,0-2.425.157,4.305,4.305,0,0,0-1.809,1.94c-.213.512-.253.541-1.154.835-2.574.838-4.358,1.056-10.473,1.279a40.353,40.353,0,0,0-7.337.723,20.714,20.714,0,0,0-3.381,1.09c-.438.21-.541.037-.547-.912A28.412,28.412,0,0,0,15.706,7.755,26.386,26.386,0,0,0,11.636,1.4C10.52.1,9.9-.194,8.874.111Zm1.774,1.822a26.95,26.95,0,0,1,5.166,8.928,25.793,25.793,0,0,1,1.434,7.627c.065,1.5.116,1.873.281,2.043.225.232.149.253,1.777-.489,2.578-1.175,4.886-1.555,10.726-1.766a50.909,50.909,0,0,0,7.5-.6c2.247-.406,4.32-1.12,4.446-1.532a3.226,3.226,0,0,1,1.6-2.073,2.8,2.8,0,0,1,1.829.075c.6.2.614.2,1.128-.09a3.063,3.063,0,0,1,2.825.064c2.324,1.32,2.51,5.247.361,7.59-1.326,1.445-3.3,1.889-6.406,1.441l-1.285-.185L40.2,24.013a57.856,57.856,0,0,1-21.088,7.1,5.861,5.861,0,0,1-4.106-.528,9.019,9.019,0,0,1-2.422-2.065A48.888,48.888,0,0,1,3.415,15.447,33.579,33.579,0,0,1,1.025,9.59c0-.216.936-1.24,3.942-4.3,2.171-2.207,4.052-4.061,4.18-4.119C9.572.98,9.956,1.174,10.648,1.932Zm-7.1,6.994c-.184.139-.206.278-.151.977a4.476,4.476,0,0,0,.537,1.8c1.343,2.794,4.18,4.557,8.567,5.322,1.355.236,1.611.177,1.611-.375,0-.409-.188-.5-1.46-.725a14.668,14.668,0,0,1-4.374-1.4,6.258,6.258,0,0,1-2.1-1.534A5.735,5.735,0,0,1,4.451,9.834a1.71,1.71,0,0,0-.287-.848C3.908,8.721,3.827,8.713,3.545,8.926ZM16.416,21.9a5.465,5.465,0,0,0-2.271,1.334,3.93,3.93,0,0,0,1.4,6.369A4.781,4.781,0,0,0,22.1,27.04a4.084,4.084,0,0,0-2.929-5.029A5.758,5.758,0,0,0,16.416,21.9Zm2.357,1.141a4.471,4.471,0,0,1,1.2.6,2.774,2.774,0,0,1,.254,4.391,3.228,3.228,0,0,1-2.553.9,3.316,3.316,0,0,1-2.671-1C12.627,25.594,15.357,22.053,18.773,23.041Zm-2.162,1.124A1.923,1.923,0,0,0,15.5,26.345a2.03,2.03,0,0,0,1.114,1.338,2.394,2.394,0,0,0,2.951-.748,1.4,1.4,0,0,0,.247-1.11,2.211,2.211,0,0,0-.307-1.015A2.45,2.45,0,0,0,16.611,24.165Zm1.7,1.035c.913.487.4,1.627-.735,1.627-.965,0-1.4-1.083-.635-1.567A1.284,1.284,0,0,1,18.311,25.2ZM9.555,30.731A14.514,14.514,0,0,0,6.313,32.22c-.024.075.294.295.707.488a3.361,3.361,0,0,1,.835.491c.05.083-.349.623-.993,1.343a6.418,6.418,0,0,0-1,1.28,30.353,30.353,0,0,0,4.688-2.371c0-.081-.312-.268-.694-.414a2.09,2.09,0,0,1-.734-.392,5.824,5.824,0,0,1,1.074-1.18,9.249,9.249,0,0,0,1.114-1.16C11.307,30.108,10.9,30.207,9.555,30.731Zm3.594,4.029a41.355,41.355,0,0,0-2.66,3.669c0,.063.389.074.923.026a2.108,2.108,0,0,1,.992.032,8.1,8.1,0,0,1-.222,1.589c-.339,1.714-.322,1.562-.176,1.562a51.026,51.026,0,0,0,2.921-4.41,4.324,4.324,0,0,0-1.489.149c-.354.1-.345-.017.146-1.812.225-.823.409-1.527.409-1.565C13.993,33.8,13.751,34.018,13.149,34.76Zm3.9.643a31.794,31.794,0,0,0-.331,4.474c.067.179.17.139.77-.3a2,2,0,0,1,.849-.442,1.094,1.094,0,0,1,.318.529A11.092,11.092,0,0,0,19.6,42a35.03,35.03,0,0,0,.159-5.306c-.064-.066-.346.106-.7.431a4.773,4.773,0,0,1-.662.54,7.22,7.22,0,0,1-.426-1.234c-.578-1.967-.6-2.017-.689-2.017A3.041,3.041,0,0,0,17.047,35.4Z" fill="#fff" fill-rule="evenodd"/>
</svg>
