<svg xmlns="http://www.w3.org/2000/svg" width="80" height="82.289" viewBox="0 0 80 82.289">
  <path id="Path_3932" data-name="Path 3932" d="M32.7,62.48a6.214,6.214,0,0,1,2.941,5.386v5.183a3.855,3.855,0,0,0,2.951,3.742l.69,2.627a3.8,3.8,0,0,0,3.722,2.871h8.231a3.8,3.8,0,0,0,3.722-2.871l.69-2.627A3.854,3.854,0,0,0,58.6,73.049V67.866a6.214,6.214,0,0,1,2.941-5.386,26.707,26.707,0,1,0-28.841,0ZM56.03,68.435v1.457H38.215V68.435ZM51.239,79.718H43.007a1.246,1.246,0,0,1-1.235-.953l-.49-1.868H52.964l-.49,1.868A1.246,1.246,0,0,1,51.239,79.718Zm3.515-5.392H39.492a1.278,1.278,0,0,1-1.277-1.277v-.586H56.03v.586a1.278,1.278,0,0,1-1.277,1.277ZM47.123,15.864A24.136,24.136,0,0,1,60.152,60.317a8.8,8.8,0,0,0-3.9,5.546H37.995a8.8,8.8,0,0,0-3.9-5.546,24.136,24.136,0,0,1,13.03-44.453ZM32.815,43.338l2.441.388a12.343,12.343,0,0,0,.841,2.029l-1.452,2a1.286,1.286,0,0,0,.131,1.664L37.7,52.346a1.286,1.286,0,0,0,1.664.131l2-1.452a12.348,12.348,0,0,0,2.028.841l.388,2.441a1.286,1.286,0,0,0,1.27,1.084h4.138a1.286,1.286,0,0,0,1.27-1.084l.388-2.441a12.337,12.337,0,0,0,2.029-.841l2,1.452a1.286,1.286,0,0,0,1.664-.131l2.925-2.925a1.286,1.286,0,0,0,.131-1.664l-1.451-2a12.341,12.341,0,0,0,.841-2.028l2.441-.388a1.286,1.286,0,0,0,1.084-1.27V37.931a1.286,1.286,0,0,0-1.084-1.27l-2.441-.388a12.348,12.348,0,0,0-.841-2.029l1.452-2a1.286,1.286,0,0,0-.131-1.664l-2.925-2.925a1.286,1.286,0,0,0-1.664-.131l-2,1.452a12.363,12.363,0,0,0-2.028-.841l-.388-2.441a1.286,1.286,0,0,0-1.27-1.084H45.054a1.286,1.286,0,0,0-1.27,1.084L43.4,28.134a12.357,12.357,0,0,0-2.028.841l-2-1.452a1.286,1.286,0,0,0-1.664.131l-2.925,2.925a1.286,1.286,0,0,0-.131,1.664l1.452,2a12.34,12.34,0,0,0-.841,2.028l-2.442.387a1.286,1.286,0,0,0-1.084,1.27v4.139a1.286,1.286,0,0,0,1.084,1.27Zm1.488-4.31,2.174-.346a1.286,1.286,0,0,0,1.049-.973,9.785,9.785,0,0,1,1.193-2.877,1.286,1.286,0,0,0-.054-1.43L37.371,31.62l1.374-1.374,1.783,1.294a1.286,1.286,0,0,0,1.43.054A9.783,9.783,0,0,1,44.834,30.4a1.286,1.286,0,0,0,.973-1.049l.346-2.174h1.943l.346,2.174a1.286,1.286,0,0,0,.973,1.049,9.788,9.788,0,0,1,2.877,1.193,1.286,1.286,0,0,0,1.43-.054L55.5,30.246l1.374,1.374L55.583,33.4a1.286,1.286,0,0,0-.054,1.43,9.791,9.791,0,0,1,1.193,2.877,1.286,1.286,0,0,0,1.049.973l2.174.345v1.943l-2.175.346a1.286,1.286,0,0,0-1.049.973,9.794,9.794,0,0,1-1.193,2.877,1.286,1.286,0,0,0,.054,1.429l1.294,1.783L55.5,49.752,53.72,48.459a1.286,1.286,0,0,0-1.43-.054A9.787,9.787,0,0,1,49.413,49.6a1.286,1.286,0,0,0-.973,1.049l-.346,2.174H46.151l-.346-2.174a1.286,1.286,0,0,0-.973-1.049A9.793,9.793,0,0,1,41.957,48.4a1.286,1.286,0,0,0-1.43.054l-1.783,1.294L37.37,48.378,38.663,46.6a1.286,1.286,0,0,0,.054-1.43,9.79,9.79,0,0,1-1.193-2.877,1.286,1.286,0,0,0-1.049-.973L34.3,40.971Zm12.82,7.524A6.553,6.553,0,1,0,40.57,40a6.553,6.553,0,0,0,6.553,6.553Zm0-10.534A3.981,3.981,0,1,1,43.142,40,3.981,3.981,0,0,1,47.123,36.019ZM45.837,10.235V1.286a1.286,1.286,0,1,1,2.572,0v8.949a1.286,1.286,0,1,1-2.572,0Zm21.424,9.627a1.286,1.286,0,0,1,0-1.818l6.327-6.327a1.286,1.286,0,1,1,1.818,1.818l-6.328,6.327a1.286,1.286,0,0,1-1.818,0ZM75.6,40a1.286,1.286,0,0,1,1.286-1.286h8.949a1.286,1.286,0,0,1,0,2.572H76.888A1.286,1.286,0,0,1,75.6,40ZM73.589,68.284l-6.327-6.328a1.286,1.286,0,1,1,1.818-1.818l6.328,6.328a1.286,1.286,0,1,1-1.818,1.818Zm-54.75,0a1.286,1.286,0,0,1,0-1.818l6.328-6.328a1.286,1.286,0,1,1,1.818,1.818l-6.328,6.328a1.286,1.286,0,0,1-1.818,0ZM7.123,40a1.286,1.286,0,0,1,1.286-1.286h8.948a1.286,1.286,0,1,1,0,2.572H8.409A1.286,1.286,0,0,1,7.123,40ZM18.84,13.534a1.286,1.286,0,0,1,1.817-1.817l6.327,6.327a1.286,1.286,0,1,1-1.818,1.818Z" transform="translate(-7.123)" fill="#29aae3"/>
</svg>
