<svg xmlns="http://www.w3.org/2000/svg" width="42" height="42" viewBox="0 0 42 42">
  <path id="Path_74" data-name="Path 74" d="M30.027.3l-.254.29V4.7l.289.289c.261.261.322.285.627.244a.99.99,0,0,0,.551-.258l.213-.213V.492L31.185.253A.743.743,0,0,0,30.027.3Zm7.164,3.329a17.127,17.127,0,0,0-2.055,2.053.856.856,0,0,0,1.178,1.178,16.066,16.066,0,0,0,2.057-2.07.845.845,0,0,0-.7-1.253A1.258,1.258,0,0,0,37.191,3.633ZM.3,5.514a.629.629,0,0,0-.29.606.629.629,0,0,0,.29.606,2.96,2.96,0,0,0,.312.254c.012,0,5.48.608,12.15,1.351,7.12.793,12.4,1.417,12.783,1.511a11.391,11.391,0,0,1,8.024,7.125c.119.33,1.676,5.569,3.461,11.64s3.3,11.126,3.367,11.231a.86.86,0,0,0,1.565-.544c-.073-.61-6.681-22.836-7.025-23.625a12.131,12.131,0,0,0-2.586-3.843,12.574,12.574,0,0,0-4.31-3c-1.81-.765-1.61-.736-14.95-2.219C6.425,5.867.883,5.26.781,5.26A1,1,0,0,0,.3,5.514Zm36.968,5.067a.892.892,0,0,0-.509.736c-.04.3-.015.361.245.621l.289.289h4.109l.29-.254a.743.743,0,0,0,.051-1.158l-.239-.268-2.036-.017A19.736,19.736,0,0,0,37.273,10.582Zm-31.438,3A12.415,12.415,0,0,0,.861,15.6c-.694.467-.846.658-.846,1.064a.622.622,0,0,0,.29.556c.438.385.754.352,1.514-.16a10.561,10.561,0,0,1,8.894-1.472c.778.225.913.212,1.238-.113a.715.715,0,0,0,.279-.621c0-.654-.551-.935-2.491-1.27A16.738,16.738,0,0,0,5.835,13.579Zm15.683,4.015c-.406.176-.54.523-.506,1.306l.029.664-.738.359A53.341,53.341,0,0,1,8.99,23.865a27.544,27.544,0,0,1-6.449.694l-2.023.006-.251.241a.762.762,0,0,0-.012,1.146c.2.2.343.241.963.311a31.3,31.3,0,0,0,4.946-.14,41.571,41.571,0,0,0,5.861-1.19A61.333,61.333,0,0,0,20.233,21.9,4.646,4.646,0,0,1,21.3,21.48a3.946,3.946,0,0,1,.264.83,23.611,23.611,0,0,0,2.7,6.122c.412.684,1.463,2.307,2.337,3.607a49.94,49.94,0,0,1,3.447,5.655A25.045,25.045,0,0,1,31.45,41.1c.258.891,1,1.182,1.511.595.334-.38.328-.63-.04-1.69-.954-2.75-2.127-4.888-5.075-9.25a41.134,41.134,0,0,1-3.288-5.448A16.823,16.823,0,0,1,22.8,19.154c-.1-1.176-.186-1.384-.617-1.564A.578.578,0,0,0,21.518,17.594Z" fill="#fff" fill-rule="evenodd"/>
</svg>
