<svg xmlns="http://www.w3.org/2000/svg" width="80" height="78.747" viewBox="0 0 80 78.747">
  <path id="Union_6" data-name="Union 6" d="M33.463,75.433l-9.728-2.643L13.2,69.921v.142A1.716,1.716,0,0,1,11.417,71.7H1.775A1.714,1.714,0,0,1,0,70.063V49.444A1.713,1.713,0,0,1,1.775,47.8h9.642A1.716,1.716,0,0,1,13.2,49.444v.133l5.122-.841-2.75-2.815a.112.112,0,0,0-.017-.019A22.419,22.419,0,0,1,12.2,20.739a1.172,1.172,0,0,1,2.085,1.069,20.044,20.044,0,0,0,2.963,22.484L20.2,47.308l.942.964,3.059-.5c1.378-.226,2.615-.45,3.706-.648,4.125-.75,6.85-1.246,10.353-.6L44.714,47.7a1.232,1.232,0,0,1,.146.036c3.921,1.251,5.2,4.245,4.738,6.5-.46,2.209-2.669,4.26-6.575,3.865-1.909-.2-4.059-.472-5.958-.717L35.622,57.2l-.028,0a1.429,1.429,0,0,0-1.606,1.174,1.537,1.537,0,0,0,1.151,1.886l10.024,1.832a8.919,8.919,0,0,0,4.254-.123c.272-.055.571-.114.908-.179l1.392-.273L68.54,44.29a19.914,19.914,0,0,0,3.886-20.364,13.8,13.8,0,0,1-6.318,1.522A13.919,13.919,0,0,1,52.534,14.524a19.883,19.883,0,0,0-6.7,4.359l-1.3,1.274a2.459,2.459,0,0,1-1.64.89,2.5,2.5,0,0,1-1.664-.908l-1.275-1.256a18.445,18.445,0,0,0-13.106-5.549,13.2,13.2,0,0,0-9.591,4.241,1.173,1.173,0,0,1-1.713-1.6A15.507,15.507,0,0,1,26.8,10.991a20.784,20.784,0,0,1,14.8,6.223l1.273,1.255.017.018,1.3-1.274a22.163,22.163,0,0,1,8.036-5.074c-.008-.194-.014-.391-.014-.587a13.712,13.712,0,0,1,1.455-6.189,1.172,1.172,0,1,1,2.1,1.048,11.5,11.5,0,0,0-1.137,6.406l.005.04A11.548,11.548,0,1,0,66.109,0,11.421,11.421,0,0,0,58.9,2.529,1.172,1.172,0,1,1,57.433.7,13.891,13.891,0,1,1,74.451,22.656,22.3,22.3,0,0,1,70.244,45.9l-.017.019-14.459,14.8,6.959-1.361c4.036-1.276,6.13-.117,7.021.691a4.175,4.175,0,0,1,1.229,4.029,5.978,5.978,0,0,1-4.228,4.28L47.579,74.5l-.794.257c-2.9.937-5.1,1.647-7.68,1.647A18.809,18.809,0,0,1,33.463,75.433ZM28.327,49.425c-1.1.2-2.35.428-3.747.658L13.2,51.953V67.492l20.9,5.684.041.013c5.037,1.567,7.339.822,11.925-.66l.8-.257,19.172-6.149a3.684,3.684,0,0,0,2.653-2.543,1.831,1.831,0,0,0-.513-1.8c-.887-.806-2.635-.868-4.8-.174-.044.014-10.492,2.061-10.492,2.061l-2.11.412c-.333.064-1.626.327-1.944.382a10.565,10.565,0,0,1-4.04-.067l-.032-.005-9.571-1.75s-.646-.121-.695-.136a3.888,3.888,0,0,1-2.882-3.523,3.974,3.974,0,0,1,.1-1.151,3.747,3.747,0,0,1,4.224-2.96l1.435.185c1.883.242,4.017.517,5.895.709,2.156.22,3.744-.57,4.042-2.009.259-1.246-.6-2.947-3.085-3.765l-6.38-1.17a15.348,15.348,0,0,0-2.806-.257A38.165,38.165,0,0,0,28.327,49.425ZM2.344,69.36h8.509v-18.4s0,0,0-.007v-.806H2.344Zm47.8-26.988a1.173,1.173,0,0,1-1.007-.608L43.075,30.725l-4.511,7.88a1.171,1.171,0,0,1-2.009.042l-2.8-4.451L31.64,37.708a1.171,1.171,0,0,1-1,.567H23.314a1.172,1.172,0,1,1,0-2.344h6.66l2.754-4.576a1.174,1.174,0,0,1,.993-.567h.012a1.173,1.173,0,0,1,.992.548L37.5,35.748l4.579-8a1.174,1.174,0,0,1,1.017-.59h.011a1.173,1.173,0,0,1,1.017.608L50.2,38.84l3.066-5.147a1.173,1.173,0,0,1,1.006-.572H64.04a1.172,1.172,0,0,1,0,2.345h-9.1L51.166,41.8a1.171,1.171,0,0,1-1.006.572Zm14.8-26.192V12.723H61.481a1.172,1.172,0,1,1,0-2.344h3.456V6.923a1.172,1.172,0,0,1,2.344,0V10.38h3.457a1.172,1.172,0,0,1,0,2.344H67.28V16.18a1.172,1.172,0,0,1-2.344,0Z" transform="translate(0 2.341)" fill="#29aae3"/>
</svg>
