<svg xmlns="http://www.w3.org/2000/svg" width="80" height="80.008" viewBox="0 0 80 80.008">
  <path id="Union_10" data-name="Union 10" d="M-2310.026-2255.192c-7.4,0-8.7-1.3-8.7-8.7v-7.135a8.161,8.161,0,0,1,2.407-5.811l7.739-7.737a.064.064,0,0,1,.015-.012,5.826,5.826,0,0,1,8.231.012,5.731,5.731,0,0,1,.394.434,5.954,5.954,0,0,1-.5,7.92l-3.932,3.932a1.691,1.691,0,0,1-2.39,0,1.69,1.69,0,0,1,0-2.39l3.932-3.932a2.55,2.55,0,0,0,.286-3.383c-.054-.065-.111-.129-.171-.19a2.508,2.508,0,0,0-3.471,0l-.007.006-7.73,7.734a4.805,4.805,0,0,0-1.419,3.419v7.137c0,2.115.045,4.222.573,4.75s2.635.572,4.748.572h5.837a8.511,8.511,0,0,0,2.259-.135,8.34,8.34,0,0,0,1.368-1.8l10.943-16.323a7.3,7.3,0,0,0,1.241-4.08v-20.868a3.014,3.014,0,0,0-3.014-3.015,3.014,3.014,0,0,0-3.015,3.015v14.961a1.689,1.689,0,0,1-1.689,1.689,1.689,1.689,0,0,1-1.689-1.689v-14.96a6.4,6.4,0,0,1,6.394-6.393,6.4,6.4,0,0,1,6.393,6.392v20.87a10.672,10.672,0,0,1-1.814,5.962l-10.94,16.317c-2.084,3.12-2.637,3.438-6.316,3.438Zm-35.9,0c-3.679,0-4.232-.317-6.315-3.437l-.28-.419-10.661-15.9a10.676,10.676,0,0,1-1.819-5.962v-20.868a6.393,6.393,0,0,1,6.394-6.393,6.393,6.393,0,0,1,6.393,6.393v14.961a1.689,1.689,0,0,1-1.689,1.689,1.689,1.689,0,0,1-1.689-1.689v-14.961a3.014,3.014,0,0,0-3.014-3.015,3.014,3.014,0,0,0-3.015,3.015v20.862a7.3,7.3,0,0,0,1.241,4.08l10.947,16.323a8.369,8.369,0,0,0,1.367,1.8,8.357,8.357,0,0,0,2.259.135h5.839c2.114,0,4.222-.042,4.749-.571s.572-2.636.572-4.75v-7.135a4.8,4.8,0,0,0-1.419-3.418l-7.733-7.73-.007-.006a2.509,2.509,0,0,0-3.466,0,2.436,2.436,0,0,0-.176.193,2.552,2.552,0,0,0,.286,3.384l3.932,3.932a1.688,1.688,0,0,1,0,2.389,1.689,1.689,0,0,1-2.389,0l-3.932-3.934a5.956,5.956,0,0,1-.5-7.922c.124-.148.255-.294.395-.433a5.826,5.826,0,0,1,8.231-.012l.014.011,7.742,7.741a8.158,8.158,0,0,1,2.407,5.808v7.135c0,7.4-1.3,8.7-8.7,8.7Zm16.859-27.994-.413-.228c-11.766-6.462-18.515-15.754-18.515-25.494V-2320.8c0-6.445.762-7.312,7.387-8.44a29.176,29.176,0,0,0,10.7-3.784l.164-.1c2.128-1.334,3.3-2.071,4.745-2.071s2.615.736,4.739,2.067l.172.108a29.169,29.169,0,0,0,10.7,3.781c6.627,1.13,7.387,2,7.387,8.442v11.893c0,9.74-6.75,19.032-18.521,25.494l-.413.228c-1.815,1-2.813,1.549-4.063,1.549S-2327.251-2282.189-2329.065-2283.188Zm1.116-47.078-.167.1a32.433,32.433,0,0,1-11.921,4.248c-1.855.316-3.772.644-4.19,1.117-.388.44-.388,2.248-.388,4v11.893c0,12.028,11.724,19.763,16.765,22.533l.417.23a8.79,8.79,0,0,0,2.432,1.13,8.79,8.79,0,0,0,2.433-1.13l.417-.23c5.041-2.768,16.765-10.505,16.766-22.535v-11.893c0-1.747,0-3.555-.388-4-.419-.473-2.336-.8-4.19-1.117a32.452,32.452,0,0,1-11.92-4.246l-.174-.109a9.576,9.576,0,0,0-2.944-1.549A9.63,9.63,0,0,0-2327.949-2330.266Zm-.751,28.65-5.991-5.517a1.689,1.689,0,0,1-.1-2.387,1.689,1.689,0,0,1,2.388-.1l4.847,4.459,9.958-9.169v0a1.688,1.688,0,0,1,2.387.1,1.689,1.689,0,0,1-.1,2.387l-11.1,10.224a1.685,1.685,0,0,1-1.144.447A1.685,1.685,0,0,1-2328.7-2301.616Z" transform="translate(2364.999 2335.2)" fill="#29aae3"/>
</svg>
