<svg xmlns="http://www.w3.org/2000/svg" width="42" height="42" viewBox="0 0 42 42">
  <path id="Union_4" data-name="Union 4" d="M8.613,42a.615.615,0,1,1,0-1.23H40.77v-2.3a4.3,4.3,0,0,0-2.6-3.953l-9.037-3.906a4.3,4.3,0,0,1-2.6-3.953V24.339a8.3,8.3,0,0,1-11.074,0v2.315a4.3,4.3,0,0,1-1.157,2.936A7.381,7.381,0,0,1,1.595,36.734a4.28,4.28,0,0,0-.364,1.733v2.3H6.152a.615.615,0,1,1,0,1.23H.615A.615.615,0,0,1,0,41.385V38.467a5.5,5.5,0,0,1,.83-2.913,7.381,7.381,0,0,1,12.884-7.191,3.074,3.074,0,0,0,.519-1.708v-3.7a8.309,8.309,0,0,1-1.1-2.177L12.567,19.1l-1.318-.879a4.3,4.3,0,0,1-1.918-3.583V12.3a2.472,2.472,0,0,1,1.825-2.377V9.844a9.844,9.844,0,0,1,19.688,0v.084A2.472,2.472,0,0,1,32.668,12.3v2.331a4.3,4.3,0,0,1-1.918,3.583l-1.318.879-.561,1.684a8.308,8.308,0,0,1-1.1,2.177v3.7a3.074,3.074,0,0,0,1.856,2.824l9.037,3.906A5.534,5.534,0,0,1,42,38.467v2.918a.615.615,0,0,1-.615.615ZM1.23,32.156A6.152,6.152,0,1,0,7.383,26,6.159,6.159,0,0,0,1.23,32.156ZM12.387,9.844v.616a.615.615,0,0,1-.608.615,1.234,1.234,0,0,0-1.216,1.23v2.331a3.07,3.07,0,0,0,1.37,2.56l1.493,1a.615.615,0,0,1,.242.317l.628,1.884a7.067,7.067,0,0,0,13.409,0l.628-1.884a.615.615,0,0,1,.242-.317l1.493-1a3.07,3.07,0,0,0,1.37-2.56V12.3a1.234,1.234,0,0,0-1.216-1.23.615.615,0,0,1-.608-.615V9.844a8.613,8.613,0,0,0-17.227,0ZM2.461,32.156a4.922,4.922,0,1,1,4.922,4.922A4.928,4.928,0,0,1,2.461,32.156Zm1.23,0a3.691,3.691,0,1,0,3.691-3.691A3.7,3.7,0,0,0,3.691,32.156Zm1.23,0a2.461,2.461,0,1,1,2.461,2.461A2.464,2.464,0,0,1,4.922,32.156Zm1.23,0a1.23,1.23,0,1,0,1.23-1.23A1.232,1.232,0,0,0,6.152,32.156Z" fill="#fff"/>
</svg>
